<?xml version="1.0" encoding="utf-8"?>
<svg viewBox="152.8595 41.8443 265.3544 390.3115" xmlns="http://www.w3.org/2000/svg">
  <g transform="matrix(1, 0, 0, 1, 285.54001279979957, 237.0000035315752)" id="path5180">
    <path style="stroke: rgb(214,148,102); stroke-width: 2; stroke-dasharray: none; stroke-linecap: butt; stroke-dashoffset: 0; stroke-linejoin: miter; stroke-miterlimit: 4; fill: rgb(253,249,210); fill-rule: evenodd; opacity: 1;" transform=" translate(-247.54, -300)" d="M 274.4632 104.84426 L 272.65386 105.17755 L 270.32078 114.70034 L 246.84709 129.17498 L 243.4665 130.36534 L 243.4665 130.41294 L 216.51696 139.07871 L 199.56641 157.83861 C 198.76424 157.48134 198.40266 156.80119 198.04275 156.02927 C 197.34793 155.24188 197.32495 154.19557 196.7572 153.3629 C 195.80467 152.35041 195.07824 151.11003 194.28122 149.98231 C 193.68796 148.95215 193.08371 148.0256 192.61478 146.93501 C 192.02767 146.07215 191.59903 144.74336 190.56734 144.36384 C 189.17665 144.08825 187.09792 143.777 185.94879 142.69734 C 185.25965 142.0082 184.43913 141.93552 183.52047 141.93552 C 182.35635 143.10895 181.22421 142.95216 179.66374 142.5545 C 178.82303 142.57112 178.12174 142.56517 177.52111 142.5069 C 175.4609 142.30983 174.57989 141.72346 172.99781 141.26894 C 171.57509 141.34725 170.05959 141.47227 168.6173 141.79267 C 166.59632 143.02432 166.63871 142.20596 164.76057 141.64983 C 164.09047 141.64988 163.37698 142.06827 163.23692 142.5545 C 163.07325 143.12294 162.25231 144.10376 160.23727 144.88757 C 159.08109 146.12722 158.7253 147.70399 160.04677 149.93466 L 158.71362 151.9821 C 158.22607 154.51582 158.68296 157.29415 154.42836 158.88613 C 154.4758 160.95071 154.12142 163.46123 155.57107 164.12366 L 154.23786 167.07571 C 156.49762 174.41048 154.33942 176.92743 150.71448 177.88412 C 151.65891 179.37242 155.21685 180.35346 151.66675 182.74071 C 151.4702 185.66236 149.94781 188.83931 152.00003 191.31123 C 149.92851 193.92027 149.13476 196.5109 149.04798 199.11993 C 149.70493 202.39439 148.90371 206.39748 148.66704 210.11878 C 148.31692 211.652 147.3464 212.89243 148.85748 215.35631 C 146.65327 218.42418 147.31258 221.16438 149.57171 223.73634 C 148.45356 225.93519 148.35679 228.21278 147.23864 228.0216 C 145.97375 229.89648 146.55355 230.83565 147.23864 231.73553 C 148.36888 232.91575 147.97127 234.1263 146.61966 235.30657 C 146.78512 235.63749 147.37854 242.52269 145.00076 245.01981 C 143.18284 248.63655 145.83385 250.32424 146.42921 251.97143 C 145.80035 255.30222 143.7729 265.3672 132.8116 268.4935 C 129.35811 268.15248 130.11347 265.12317 129.90714 263.01788 C 126.97534 263.1785 123.82211 268.21228 124.71721 270.54089 C 126.8823 272.74679 126.35404 275.2174 125.0029 277.77826 C 124.5294 278.72526 124.43152 279.86955 124.43152 281.53973 C 124.43152 282.5031 125.28859 284.09055 125.28859 285.01557 C 125.28859 286.03016 125.75352 288.06014 125.57428 288.77705 C 124.9856 292.25431 125.17594 298.41997 123.28881 298.0618 C 122.74519 300.2361 123.9262 299.38034 125.85998 300.34728 C 127.71671 301.27567 129.34765 301.56147 130.24043 299.7759 C 130.38486 299.4871 130.45307 295.67393 131.66884 296.58575 C 132.74386 297.39202 134.7701 296.83015 136.00175 298.0618 C 139.96124 302.12817 139.6927 305.62026 139.47754 311.06038 C 138.75626 312.97318 137.46765 313.10666 137.19206 315.1552 C 136.19698 317.14536 134.73749 319.8477 133.38298 321.20221 C 132.82522 321.75992 131.57422 323.44235 131.95453 324.96374 C 132.28287 326.27712 130.23538 327.00607 131.3832 328.15384 C 132.1516 328.92229 134.70157 329.16832 133.38298 330.48696 C 131.70455 338.77259 133.75966 338.79531 134.00196 342.67612 C 133.76371 343.15257 132.3604 345.77554 132.52591 346.43765 C 132.8126 348.69841 131.44037 351.1353 131.09751 353.38928 C 130.51466 356.76482 128.99742 359.36854 127.62167 362.62638 C 127.99945 363.75962 129.73816 365.96863 129.33576 367.57822 C 128.54143 370.46648 127.91356 373.34816 127.33598 376.24399 C 126.40343 376.89116 126.84864 377.99843 127.52642 379.33889 C 128.69669 381.65314 130.51745 384.68724 126.76459 387.52848 C 127.58106 392.82144 127.85171 395.24756 130.24043 402.62214 C 130.80482 406.38378 131.88442 409.36518 134.00196 412.47823 C 135.16703 415.31552 133.44152 417.15821 132.24022 419.14416 C 132.41573 419.84619 133.50553 421.48202 134.57329 422.90569 C 136.00306 424.89854 137.73041 427.33254 137.19206 429.85732 C 136.72913 431.70916 135.87942 432.96531 135.43037 434.76156 C 134.91736 436.81357 136.03646 438.21557 135.14468 439.99909 C 134.50287 441.28276 134.18557 441.59758 132.8116 442.28457 C 130.75323 443.71181 130.53328 445.89373 129.33576 448.09348 C 128.39806 450.09485 123.609 450.53274 123.86014 453.9024 C 122.95583 456.48976 123.05376 459.12268 121.24137 461.13971 C 119.79782 463.0453 116.42543 464.74704 118.62261 467.52001 C 121.94966 472.28088 115.84616 470.32375 116.33713 472.99558 C 114.76551 473.6903 113.78658 475.77628 116.90851 480.2329 C 118.35611 482.59837 119.9637 483.99322 121.52706 486.04181 C 122.56958 488.89425 122.49821 491.2419 121.24137 494.1362 C 121.69763 494.11143 121.87608 494.42647 122.09844 494.70758 C 124.20021 496.48364 125.71413 492.63438 127.05029 489.23196 C 132.30102 490.34012 134.63825 487.86441 136.85877 485.18479 C 139.57426 484.20091 144.19034 487.83638 144.14374 479.94726 C 145.9089 480.54557 149.06686 478.80371 148.76229 482.85172 L 153.09515 483.70874 L 160.90385 484.8991 L 164.094 482.56603 C 165.30024 481.23802 168.38336 480.83289 171.04562 480.2329 C 171.73213 481.33075 173.28334 482.69688 176.28315 484.56581 L 177.71156 481.99464 C 179.79718 483.98359 184.08307 482.67553 187.56769 482.56603 C 188.72923 485.03379 196.73216 482.91662 202.947 484.8991 L 202.32802 481.08997 C 204.3226 482.07585 204.68802 480.89495 204.3754 478.8045 C 206.45786 479.24555 208.5956 479.76187 208.42262 477.94747 C 209.58127 477.59762 210.73976 477.01724 211.89841 479.66157 L 220.61178 476.18573 C 229.54273 476.43666 231.09499 473.76819 232.46765 470.9958 C 235.70781 469.35444 235.96531 467.68536 235.3721 466.04396 C 239.53204 466.07115 236.1758 463.29528 234.51508 461.13971 C 234.93095 458.90715 234.72877 456.89258 231.32494 456.18787 L 235.6578 453.6167 C 238.59654 451.07094 239.54529 448.22023 237.0862 444.90333 C 239.37283 444.12478 238.32369 442.68239 236.80056 441.14186 L 240.27635 440.85617 C 241.42826 442.51099 243.38845 442.57673 246.08526 441.14186 L 251.60848 441.14186 C 255.55935 444.63695 259.51348 438.10486 263.46435 435.33294 C 266.04509 434.80763 270.02347 434.99261 269.6542 433.33316 C 269.6247 430.96758 270.55267 428.86734 272.93955 427.57184 C 274.25714 425.67393 270.52648 422.60443 274.17751 421.90577 C 275.53586 419.04455 278.26933 420.30875 280.5578 421.14395 C 283.32673 420.72519 283.5735 416.5062 281.70052 414.7637 C 280.36931 412.3692 278.48076 410.29704 277.93904 407.52639 C 276.51153 405.33942 276.19191 402.52358 273.46328 401.47938 C 270.87633 400.3717 270.92125 397.10629 268.98757 395.33718 C 267.08314 393.32466 271.32202 392.07377 271.70159 389.8616 C 273.38975 387.91904 272.80096 384.13479 274.27276 382.29095 C 277.2916 383.34556 278.06384 380.18839 278.60562 377.91049 C 279.37033 375.96856 279.48394 372.94077 282.2719 372.9586 C 284.25612 372.38884 287.35017 373.79121 287.89037 370.91121 C 288.86636 369.78807 289.37142 368.3543 290.41389 367.29253 C 291.45635 366.23081 301.12704 363.05492 301.12704 363.05492 L 355.88308 341.20007 L 380.21385 260.97049 L 368.02469 247.63857 L 342.26552 254.01887 L 324.2198 252.06668 C 322.86461 249.56736 316.93299 250.7117 319.36315 246.35301 C 320.65944 243.25885 318.37118 241.33806 317.64906 240.87739 C 318.82264 241.14362 319.35064 236.95476 318.41089 234.25905 C 319.4624 231.85634 323.71074 227.71603 319.31556 226.21231 C 315.73416 223.92573 318.7649 218.61336 315.64927 216.02289 C 315.46525 215.80583 315.35853 215.58804 315.22074 215.35631 C 315.46141 215.52572 315.41223 214.87507 314.88745 214.68968 C 314.88508 214.68384 314.84222 214.69557 314.83985 214.68968 C 314.80004 214.5918 314.78741 214.53006 314.7446 214.40404 C 314.73882 214.38695 314.74792 214.37227 314.7446 214.35639 C 315.19875 214.01521 314.76864 213.94805 314.69701 214.21355 C 313.99582 211.87868 314.75023 209.06148 314.88745 206.4525 C 315.66458 203.10341 311.90415 200.47849 313.3162 197.0249 C 315.29637 194.95274 312.51872 193.82665 312.17349 192.54919 C 311.58528 190.37259 309.37212 189.59135 308.98334 189.26385 C 308.08672 188.21838 306.23961 186.67322 305.03137 185.97845 L 304.45998 184.97859 L 304.65043 169.50403 L 301.84122 166.17104 L 300.93655 163.17139 L 296.07995 157.21963 L 296.07995 132.98411 L 288.4141 118.46182 L 278.9389 105.03471 L 274.4632 104.84426 z" stroke-linecap="round"/>
  </g>
</svg>