<?xml version="1.0" encoding="utf-8"?>
<svg viewBox="341.0239 142.346 53.8131 79.1609" xmlns="http://www.w3.org/2000/svg">
  <path d="M 373.387 142.346 L 373.027 142.406 L 372.547 144.346 L 367.787 147.276 L 367.107 147.516 L 367.107 147.526 L 361.637 149.286 L 358.197 153.086 C 358.037 153.016 357.967 152.876 357.887 152.726 C 357.747 152.566 357.747 152.356 357.627 152.186 C 357.437 151.976 357.287 151.726 357.127 151.496 C 357.007 151.286 356.887 151.096 356.787 150.876 C 356.677 150.706 356.587 150.436 356.377 150.356 C 356.097 150.306 355.677 150.236 355.437 150.016 C 355.297 149.876 355.137 149.866 354.947 149.866 C 354.707 150.106 354.477 150.076 354.167 149.996 C 353.997 149.996 353.847 149.996 353.727 149.986 C 353.317 149.946 353.137 149.826 352.817 149.726 C 352.527 149.746 352.217 149.776 351.927 149.836 C 351.517 150.086 351.527 149.916 351.137 149.806 C 351.007 149.806 350.857 149.896 350.837 149.996 C 350.797 150.106 350.637 150.306 350.227 150.466 C 349.987 150.716 349.917 151.036 350.187 151.486 L 349.917 151.906 C 349.817 152.416 349.907 152.976 349.047 153.306 C 349.057 153.726 348.987 154.236 349.277 154.366 L 349.007 154.966 C 349.467 156.456 349.027 156.966 348.297 157.156 C 348.487 157.456 349.207 157.656 348.487 158.146 C 348.447 158.736 348.137 159.376 348.557 159.876 C 348.137 160.406 347.977 160.936 347.957 161.466 C 348.087 162.126 347.927 162.936 347.877 163.696 C 347.807 164.006 347.607 164.256 347.917 164.756 C 347.467 165.376 347.607 165.936 348.057 166.456 C 347.837 166.906 347.817 167.366 347.587 167.326 C 347.327 167.706 347.447 167.896 347.587 168.076 C 347.817 168.316 347.737 168.566 347.467 168.806 C 347.497 168.866 347.617 170.266 347.137 170.776 C 346.767 171.506 347.307 171.846 347.427 172.186 C 347.297 172.856 346.887 174.896 344.667 175.536 C 343.957 175.466 344.117 174.846 344.077 174.426 C 343.477 174.456 342.837 175.476 343.017 175.946 C 343.457 176.396 343.357 176.896 343.077 177.416 C 342.987 177.606 342.967 177.836 342.967 178.176 C 342.967 178.376 343.137 178.696 343.137 178.886 C 343.137 179.086 343.227 179.506 343.197 179.646 C 343.077 180.356 343.117 181.606 342.727 181.526 C 342.617 181.966 342.857 181.796 343.257 181.996 C 343.627 182.186 343.957 182.236 344.137 181.876 C 344.167 181.816 344.187 181.046 344.427 181.226 C 344.647 181.396 345.057 181.276 345.307 181.526 C 346.117 182.356 346.057 183.066 346.017 184.166 C 345.867 184.556 345.607 184.586 345.547 184.996 C 345.347 185.396 345.057 185.946 344.777 186.226 C 344.667 186.336 344.407 186.676 344.487 186.986 C 344.557 187.256 344.137 187.396 344.377 187.636 C 344.527 187.786 345.047 187.836 344.777 188.106 C 344.437 189.786 344.857 189.786 344.907 190.576 C 344.857 190.676 344.567 191.206 344.607 191.336 C 344.667 191.796 344.387 192.296 344.317 192.746 C 344.197 193.436 343.887 193.966 343.607 194.626 C 343.687 194.856 344.037 195.306 343.957 195.626 C 343.797 196.216 343.667 196.796 343.547 197.386 C 343.367 197.516 343.457 197.746 343.587 198.016 C 343.827 198.486 344.197 199.096 343.437 199.676 C 343.597 200.746 343.657 201.236 344.137 202.736 C 344.257 203.496 344.477 204.106 344.907 204.736 C 345.137 205.306 344.787 205.686 344.547 206.086 C 344.587 206.226 344.807 206.556 345.017 206.846 C 345.307 207.256 345.657 207.746 345.547 208.256 C 345.457 208.636 345.287 208.886 345.197 209.256 C 345.087 209.666 345.317 209.956 345.137 210.316 C 345.007 210.576 344.937 210.636 344.667 210.776 C 344.247 211.066 344.197 211.516 343.957 211.956 C 343.767 212.366 342.797 212.456 342.847 213.136 C 342.667 213.656 342.687 214.196 342.317 214.606 C 342.027 214.986 341.337 215.336 341.787 215.896 C 342.457 216.866 341.217 216.466 341.317 217.006 C 341.007 217.146 340.807 217.576 341.437 218.476 C 341.727 218.956 342.057 219.236 342.377 219.656 C 342.587 220.236 342.567 220.706 342.317 221.296 C 342.407 221.286 342.447 221.356 342.487 221.416 C 342.917 221.776 343.227 220.996 343.497 220.306 C 344.557 220.526 345.037 220.026 345.487 219.476 C 346.037 219.276 346.967 220.016 346.957 218.416 C 347.317 218.536 347.957 218.186 347.897 219.006 L 348.777 219.186 L 350.357 219.426 L 351.007 218.946 C 351.247 218.676 351.877 218.596 352.417 218.476 C 352.557 218.696 352.867 218.976 353.477 219.356 L 353.767 218.836 C 354.187 219.236 355.057 218.976 355.767 218.946 C 356.007 219.446 357.627 219.016 358.887 219.426 L 358.757 218.646 C 359.167 218.846 359.237 218.606 359.177 218.186 C 359.597 218.276 360.037 218.376 359.997 218.016 C 360.237 217.946 360.467 217.826 360.707 218.356 L 362.467 217.656 C 364.277 217.706 364.597 217.166 364.877 216.606 C 365.527 216.266 365.587 215.936 365.467 215.596 C 366.307 215.606 365.627 215.036 365.287 214.606 C 365.377 214.146 365.337 213.746 364.637 213.596 L 365.517 213.076 C 366.117 212.566 366.307 211.986 365.807 211.306 C 366.277 211.156 366.057 210.856 365.757 210.546 L 366.457 210.486 C 366.687 210.826 367.087 210.836 367.637 210.546 L 368.757 210.546 C 369.557 211.256 370.357 209.936 371.157 209.366 C 371.687 209.266 372.487 209.296 372.417 208.966 C 372.407 208.486 372.597 208.056 373.077 207.796 C 373.347 207.406 372.597 206.786 373.337 206.646 C 373.607 206.066 374.167 206.326 374.627 206.496 C 375.187 206.406 375.237 205.556 374.857 205.196 C 374.587 204.716 374.207 204.296 374.097 203.726 C 373.807 203.286 373.737 202.716 373.187 202.506 C 372.667 202.276 372.677 201.616 372.277 201.256 C 371.897 200.846 372.757 200.596 372.827 200.146 C 373.177 199.756 373.057 198.986 373.357 198.616 C 373.967 198.826 374.117 198.186 374.227 197.726 C 374.387 197.326 374.407 196.716 374.977 196.716 C 375.377 196.606 376.007 196.886 376.117 196.306 C 376.317 196.076 376.417 195.786 376.627 195.566 C 376.837 195.356 378.797 194.716 378.797 194.716 L 389.907 190.276 L 394.837 174.006 L 392.367 171.306 L 387.137 172.596 L 383.487 172.206 C 383.207 171.696 382.007 171.926 382.497 171.046 C 382.757 170.416 382.297 170.026 382.147 169.936 C 382.387 169.986 382.497 169.136 382.307 168.586 C 382.517 168.106 383.377 167.266 382.487 166.956 C 381.757 166.496 382.377 165.416 381.747 164.896 C 381.707 164.846 381.687 164.806 381.657 164.756 C 381.707 164.786 381.697 164.656 381.587 164.616 C 381.587 164.616 381.577 164.626 381.577 164.616 C 381.567 164.606 381.567 164.586 381.557 164.566 C 381.557 164.556 381.557 164.556 381.557 164.556 C 381.657 164.486 381.567 164.466 381.547 164.526 C 381.407 164.046 381.557 163.476 381.587 162.946 C 381.747 162.276 380.987 161.736 381.267 161.036 C 381.667 160.616 381.107 160.386 381.037 160.126 C 380.917 159.686 380.467 159.526 380.387 159.466 C 380.207 159.256 379.837 158.936 379.587 158.796 L 379.477 158.596 L 379.517 155.456 L 378.947 154.776 L 378.757 154.176 L 377.777 152.966 L 377.777 148.046 L 376.217 145.106 L 374.297 142.386 L 373.387 142.346 L 373.387 142.346 Z" fill="#fdf9d2" fill-rule="evenodd" id="Antofagasta" stroke="#d69466" stroke-miterlimit="4" stroke-width="0.31" transform="matrix(1, 0, 0, 1, 7.105427357601002e-15, 7.105427357601002e-15)"/>
</svg>