<?xml version="1.0" encoding="utf-8"?>
<svg viewBox="304.4748 36.7941 33.7919 32.2958" xmlns="http://www.w3.org/2000/svg">
  <path d="M 0.538 43.302 C 0.498 43.372 0.388 43.512 0.288 43.472 C 0.208 43.542 0.118 43.512 0.028 43.512 C -0.042 43.572 -0.182 43.542 -0.242 43.542 C -0.312 43.512 -0.452 43.402 -0.512 43.522 C -0.572 43.532 -0.562 43.712 -0.672 43.712 C -0.782 43.742 -0.832 43.712 -0.972 43.732 C -1.072 43.752 -1.172 43.732 -1.212 43.852 C -1.212 43.892 -1.372 44.012 -1.402 43.912 C -1.432 43.822 -1.612 43.852 -1.662 43.932 C -1.772 43.912 -1.852 43.912 -1.952 43.952 C -2.052 44.012 -2.132 43.952 -2.252 44.002 C -2.382 44.002 -2.272 44.152 -2.382 44.182 C -2.462 44.162 -2.612 44.202 -2.592 44.082 C -2.682 44.012 -2.772 44.072 -2.832 43.982 C -2.882 44.052 -2.952 44.132 -3.042 44.122 C -3.142 44.032 -3.212 44.172 -3.132 44.252 C -3.062 44.332 -2.962 44.362 -3.022 44.492 C -3.182 44.532 -3.032 44.652 -3.122 44.712 C -3.222 44.742 -3.232 44.832 -3.252 44.942 C -3.362 44.982 -3.522 44.932 -3.552 45.082 C -3.532 45.192 -3.802 45.122 -3.722 45.232 C -3.582 45.252 -3.652 45.442 -3.612 45.542 C -3.572 45.622 -3.532 45.762 -3.412 45.752 C -3.342 45.662 -3.172 45.712 -3.132 45.582 C -3.082 45.522 -2.992 45.412 -2.862 45.482 C -2.742 45.442 -2.692 45.492 -2.652 45.602 C -2.522 45.582 -2.442 45.652 -2.502 45.752 C -2.452 45.822 -2.392 45.912 -2.382 45.992 C -2.312 46.112 -2.412 46.212 -2.462 46.272 C -2.472 46.392 -2.572 46.402 -2.652 46.492 C -2.712 46.602 -2.622 46.672 -2.542 46.692 C -2.552 46.832 -2.412 46.872 -2.422 47.012 C -2.542 47.032 -2.482 47.142 -2.542 47.212 C -2.572 47.282 -2.572 47.402 -2.652 47.462 C -2.672 47.492 -2.722 47.602 -2.702 47.642 C -2.872 47.702 -3.042 47.812 -3.122 48.012 C -3.322 48.112 -3.672 48.012 -3.652 48.342 C -3.792 48.622 -3.352 48.602 -3.462 48.872 C -3.352 49.102 -3.602 49.222 -3.522 49.452 C -3.532 49.722 -3.892 49.792 -4.032 49.872 C -4.122 49.962 -4.422 49.852 -4.292 50.082 C -4.302 50.302 -4.512 50.382 -4.522 50.612 C -4.602 50.742 -4.502 50.862 -4.552 50.982 C -4.372 50.962 -4.292 51.282 -4.112 51.062 C -3.992 51.212 -3.922 51.452 -3.662 51.342 C -3.392 51.302 -3.282 51.702 -3.002 51.632 C -2.962 51.862 -2.802 52.092 -2.992 52.302 C -3.152 52.332 -3.082 52.472 -2.982 52.532 C -3.012 52.552 -3.002 52.622 -2.942 52.672 C -2.842 52.752 -2.972 52.892 -3.042 52.922 C -3.082 53.012 -3.112 53.102 -3.232 53.052 C -3.332 53.042 -3.402 52.932 -3.482 53.032 C -3.532 52.912 -3.662 52.992 -3.632 53.092 C -3.572 53.202 -3.622 53.262 -3.632 53.342 C -3.662 53.442 -3.682 53.532 -3.802 53.542 C -3.852 53.622 -3.962 53.492 -4.012 53.612 C -4.062 53.632 -4.132 53.712 -4.232 53.712 C -4.272 53.782 -4.482 53.712 -4.442 53.812 C -4.382 53.912 -4.492 54.032 -4.532 54.072 C -4.602 54.112 -4.732 54.202 -4.692 54.342 C -4.692 54.472 -4.812 54.462 -4.892 54.472 C -4.982 54.502 -5.022 54.562 -5.142 54.572 C -5.222 54.632 -5.292 54.702 -5.342 54.802 C -5.412 54.822 -5.462 54.972 -5.512 55.032 C -5.572 55.112 -5.682 55.132 -5.732 55.202 C -5.792 55.272 -5.842 55.382 -5.922 55.432 C -5.972 55.512 -6.002 55.592 -6.052 55.682 C -6.072 55.782 -6.132 55.842 -6.142 55.962 C -6.092 56.022 -5.912 55.982 -5.892 56.082 C -5.762 56.002 -5.742 56.192 -5.702 56.252 C -5.642 56.352 -5.672 56.452 -5.722 56.542 C -5.812 56.652 -5.632 56.702 -5.632 56.812 C -5.562 56.872 -5.382 56.822 -5.392 56.982 C -5.252 57.032 -5.312 57.142 -5.432 57.202 C -5.482 57.282 -5.392 57.392 -5.372 57.462 C -5.332 57.512 -5.292 57.552 -5.242 57.562 C -5.262 57.572 -5.282 57.592 -5.302 57.602 C -5.312 57.702 -5.172 57.882 -5.352 57.882 C -5.432 57.942 -5.542 57.892 -5.652 57.922 C -5.772 57.882 -5.792 57.842 -5.872 57.752 C -5.882 57.692 -5.942 57.522 -5.862 57.482 C -5.802 57.402 -5.832 57.302 -5.882 57.202 C -5.862 57.072 -5.992 57.042 -6.032 56.962 C -6.102 56.922 -6.152 56.792 -6.222 56.752 C -6.262 56.672 -6.332 56.622 -6.422 56.562 C -6.462 56.562 -6.642 56.622 -6.642 56.502 C -6.662 56.502 -6.682 56.502 -6.702 56.502 C -6.772 56.562 -6.712 56.682 -6.812 56.712 C -6.882 56.772 -6.982 56.802 -7.062 56.852 C -7.102 56.922 -7.142 57.022 -7.252 57.042 C -7.322 57.142 -7.262 57.222 -7.312 57.322 C -7.422 57.352 -7.522 57.352 -7.592 57.432 C -7.732 57.372 -7.772 57.472 -7.792 57.572 C -7.702 57.692 -7.872 57.752 -7.942 57.712 C -8.052 57.712 -8.042 57.852 -8.142 57.882 C -8.162 57.972 -8.382 57.772 -8.272 57.942 C -8.222 58.072 -8.022 58.132 -8.022 58.292 C -7.922 58.372 -8.042 58.492 -8.002 58.582 C -7.952 58.652 -7.992 58.762 -7.922 58.822 C -7.882 58.902 -7.852 58.992 -7.832 59.092 C -7.792 59.202 -7.792 59.332 -7.812 59.442 C -7.752 59.542 -7.772 59.612 -7.752 59.712 C -7.812 59.792 -7.752 59.932 -7.692 60.002 C -7.672 60.102 -7.652 60.202 -7.582 60.272 C -7.592 60.402 -7.472 60.492 -7.522 60.602 C -7.412 60.712 -7.612 60.772 -7.532 60.892 C -7.532 60.992 -7.442 61.062 -7.432 61.162 C -7.352 61.272 -7.332 61.392 -7.262 61.502 C -7.182 61.552 -7.162 61.682 -7.122 61.772 C -7.082 61.872 -7.002 61.962 -6.972 62.062 C -6.902 62.172 -6.852 62.272 -6.812 62.392 C -6.642 62.622 -6.552 62.922 -6.422 63.202 C -6.292 63.452 -6.242 63.762 -6.082 64.002 C -6.032 64.282 -5.822 64.502 -5.772 64.772 C -5.682 65.012 -5.582 65.222 -5.492 65.452 C -5.262 65.842 -5.172 66.292 -5.022 66.742 C -4.872 67.132 -4.732 67.522 -4.622 67.912 C -4.532 68.272 -4.422 68.612 -4.282 68.952 C -4.142 69.352 -4.102 69.822 -3.892 70.202 C -3.942 70.452 -3.742 70.762 -3.902 70.942 C -3.972 71.182 -3.662 71.362 -3.662 71.652 C -3.512 71.902 -3.552 72.232 -3.702 72.452 C -3.502 72.502 -3.422 72.352 -3.402 72.182 C -3.292 72.572 -3.792 72.582 -3.922 72.302 C -4.112 72.462 -3.562 72.482 -3.562 72.722 C -3.292 72.662 -2.992 72.892 -2.802 72.582 C -2.682 72.212 -2.102 72.562 -2.062 72.082 C -1.922 71.802 -1.722 71.482 -1.492 71.352 C -1.572 71.052 -1.382 70.542 -1.012 70.772 C -0.712 70.762 -0.462 71.302 -0.222 70.862 C 0.228 70.352 0.458 70.592 0.698 70.632 C 0.778 70.592 0.798 70.822 0.828 70.902 C 0.988 70.942 0.948 71.012 0.908 71.142 C 0.868 71.242 0.828 71.312 0.708 71.312 C 0.598 71.402 0.658 71.542 0.678 71.642 C 0.698 71.732 0.518 71.742 0.518 71.872 C 0.478 71.992 0.318 71.932 0.258 72.022 C 0.148 72.112 0.218 72.222 0.248 72.302 C 0.268 72.412 0.158 72.482 0.208 72.592 C 0.208 72.702 0.288 72.752 0.258 72.892 C 0.298 72.842 0.378 72.692 0.418 72.632 C 0.478 72.562 0.608 72.652 0.558 72.512 C 0.538 72.402 0.618 72.292 0.748 72.382 C 0.818 72.452 0.848 72.582 0.978 72.572 C 1.058 72.492 1.178 72.462 1.288 72.502 C 1.388 72.562 1.488 72.292 1.528 72.492 C 1.518 72.622 1.698 72.632 1.658 72.732 C 1.538 72.802 1.628 72.892 1.748 72.822 C 1.808 72.782 1.918 72.872 1.998 72.932 C 2.048 72.782 2.188 73.042 2.268 72.942 C 2.218 72.822 2.358 72.802 2.388 72.692 C 2.518 72.622 2.628 72.812 2.768 72.762 C 2.858 72.782 2.928 72.872 2.998 72.932 C 3.008 73.052 3.148 73.132 3.238 73.202 C 3.328 73.142 3.468 73.212 3.538 73.092 C 3.578 73.012 3.698 72.902 3.788 72.962 C 3.888 72.992 4.048 73.012 4.148 72.952 C 4.218 72.882 4.338 72.912 4.438 72.862 C 4.558 72.882 4.628 72.752 4.748 72.742 C 4.838 72.822 4.838 72.932 4.898 73.022 C 4.868 73.112 4.918 73.232 4.918 73.312 C 4.938 73.472 5.068 73.402 5.168 73.372 C 5.288 73.392 5.388 73.392 5.488 73.432 C 5.588 73.442 5.678 73.382 5.778 73.452 C 5.858 73.392 5.968 73.362 6.058 73.452 C 6.198 73.402 6.238 73.532 6.348 73.552 C 6.458 73.572 6.488 73.732 6.608 73.742 C 6.688 73.852 6.768 73.872 6.908 73.852 C 7.008 73.872 7.118 73.902 7.228 73.912 C 7.378 73.962 7.388 73.802 7.478 73.752 C 7.558 73.672 7.608 73.662 7.588 73.632 C 7.658 73.672 7.778 73.672 7.828 73.592 C 7.928 73.502 7.978 73.722 8.008 73.782 C 7.938 73.902 8.128 73.922 8.198 73.952 C 8.348 73.952 8.478 74.002 8.638 73.992 C 8.768 73.992 8.888 73.962 9.008 73.952 C 9.128 73.922 9.258 73.942 9.358 73.892 C 9.468 73.882 9.568 73.862 9.668 73.832 C 9.768 73.832 9.848 73.782 9.958 73.772 C 10.038 73.702 10.138 73.652 10.228 73.602 C 10.298 73.512 10.348 73.392 10.418 73.352 C 10.478 73.262 10.548 73.242 10.608 73.172 C 10.688 73.122 10.748 73.012 10.878 73.002 C 10.978 72.942 11.058 72.912 11.108 72.802 C 11.208 72.742 11.338 72.732 11.438 72.682 C 11.538 72.692 11.668 72.692 11.758 72.632 C 11.908 72.592 11.948 72.322 11.968 72.302 C 11.978 72.302 11.988 72.302 11.998 72.302 C 12.088 72.282 12.178 72.312 12.278 72.342 C 12.368 72.412 12.488 72.392 12.608 72.432 C 12.718 72.432 12.778 72.532 12.898 72.532 C 13.048 72.502 13.068 72.672 13.118 72.762 C 13.178 72.832 13.188 72.972 13.298 73.032 C 13.398 73.082 13.468 73.162 13.558 73.182 C 13.618 73.232 13.648 73.372 13.788 73.362 C 13.928 73.342 13.978 73.502 14.098 73.502 C 14.218 73.502 14.248 73.642 14.328 73.682 C 14.368 73.562 14.438 73.492 14.568 73.482 C 14.638 73.472 14.858 73.452 14.798 73.382 C 14.858 73.452 14.948 73.492 14.998 73.562 C 15.068 73.702 15.198 73.722 15.328 73.662 C 15.378 73.702 15.388 73.892 15.458 73.972 C 15.348 74.062 15.348 74.172 15.348 74.292 C 15.358 74.432 15.238 74.552 15.378 74.552 C 15.488 74.592 15.538 74.812 15.678 74.812 C 15.828 74.792 16.008 74.822 16.038 75.002 C 16.088 75.132 16.038 75.262 16.088 75.392 C 16.138 75.522 16.348 75.482 16.468 75.512 C 16.618 75.512 16.738 75.462 16.888 75.492 C 17.048 75.482 17.108 75.562 17.258 75.592 C 17.398 75.612 17.518 75.552 17.548 75.402 C 17.628 75.272 17.698 75.172 17.768 75.042 C 17.768 74.892 17.928 74.812 17.938 74.672 C 17.868 74.582 17.748 74.452 17.798 74.322 C 17.908 74.142 17.598 74.252 17.498 74.222 C 17.378 74.192 17.278 74.102 17.158 74.042 C 17.058 73.942 17.078 73.812 17.158 73.722 C 17.228 73.592 17.248 73.422 17.428 73.482 C 17.538 73.402 17.668 73.402 17.738 73.292 C 17.768 73.172 17.838 73.052 17.878 72.932 C 17.928 72.782 17.858 72.652 18.038 72.672 C 18.018 72.552 18.038 72.412 18.088 72.312 C 18.028 72.212 17.918 72.172 17.898 72.032 C 17.818 71.862 18.118 71.962 18.088 71.782 C 18.048 71.662 17.968 71.552 17.988 71.402 C 18.148 71.412 18.278 71.362 18.348 71.242 C 18.438 71.142 18.548 71.072 18.638 70.972 C 18.668 70.832 18.688 70.682 18.708 70.532 C 18.828 70.402 18.678 70.222 18.778 70.082 C 18.758 69.902 18.948 69.902 18.908 69.782 C 18.958 69.622 18.688 69.602 18.778 69.452 C 18.798 69.302 18.828 69.142 18.778 68.992 C 18.678 68.852 18.838 68.732 18.768 68.622 C 18.648 68.532 18.708 68.392 18.618 68.312 C 18.638 68.192 18.648 68.042 18.508 67.972 C 18.348 67.912 18.398 67.762 18.408 67.622 C 18.348 67.442 18.438 67.262 18.468 67.082 C 18.478 66.942 18.378 66.842 18.408 66.712 C 18.348 66.592 18.348 66.472 18.418 66.362 C 18.458 66.252 18.628 66.092 18.508 65.992 C 18.398 65.912 18.248 65.822 18.268 65.672 C 18.268 65.542 18.358 65.322 18.178 65.282 C 18.038 65.082 18.078 65.092 18.168 64.822 C 18.068 64.722 18.148 64.592 18.158 64.472 C 18.228 64.392 18.128 64.242 18.288 64.202 C 18.378 64.202 18.398 64.172 18.398 64.122 C 18.458 64.182 18.568 64.132 18.618 63.992 C 18.778 63.952 18.938 63.872 18.998 63.722 C 19.158 63.632 19.238 63.472 19.368 63.402 C 19.578 63.552 19.778 63.352 19.918 63.222 C 20.088 63.142 20.228 63.012 20.198 62.812 C 20.108 62.552 20.298 62.472 20.478 62.372 C 20.628 62.302 20.758 62.492 20.928 62.472 C 21.138 62.472 21.148 62.352 21.288 62.232 C 21.438 62.232 21.648 62.172 21.728 62.022 C 21.838 61.882 21.968 61.802 22.128 61.732 C 22.188 61.632 22.408 61.512 22.488 61.582 C 22.658 61.672 22.878 61.482 23.068 61.522 C 23.268 61.572 23.398 61.722 23.618 61.562 C 23.828 61.522 24.038 61.472 24.238 61.542 C 24.538 61.532 24.468 61.102 24.648 60.942 C 24.828 60.892 24.848 60.602 24.788 60.452 C 24.598 60.352 24.578 60.102 24.698 59.942 C 24.678 59.732 24.858 59.572 25.018 59.492 C 25.088 59.372 25.158 59.122 25.348 59.142 C 25.558 59.032 25.488 58.772 25.428 58.582 C 25.408 58.272 25.378 57.882 25.058 57.712 C 25.058 57.412 24.818 57.562 24.668 57.492 C 24.508 57.402 24.438 57.222 24.258 57.172 C 24.308 57.002 24.138 56.882 24.068 56.732 C 23.998 56.552 23.808 56.492 23.668 56.432 C 23.508 56.212 23.628 55.942 23.528 55.722 C 23.518 55.522 23.538 55.362 23.468 55.182 C 23.328 55.062 23.388 54.812 23.318 54.632 C 23.228 54.412 23.378 54.192 23.238 54.002 C 23.178 53.612 23.128 53.212 23.068 52.822 C 23.068 52.862 23.058 52.922 23.048 52.972 C 23.058 52.992 23.068 53.012 23.068 53.032 C 23.028 53.302 23.038 53.142 23.048 52.972 C 23.038 52.922 23.048 52.862 23.068 52.822 C 23.328 52.832 23.218 52.482 23.288 52.322 C 23.278 52.152 23.148 52.012 23.048 51.892 C 22.838 51.872 22.968 51.542 22.758 51.482 C 22.528 51.422 22.448 51.202 22.298 51.092 C 22.208 51.002 22.078 50.842 21.918 50.832 C 21.798 50.932 21.678 50.802 21.578 50.932 C 21.408 51.082 21.178 51.222 20.938 51.122 C 20.778 50.912 20.448 51.082 20.228 50.982 C 20.058 51.022 19.758 50.832 19.688 51.042 C 19.598 51.112 19.448 51.252 19.348 51.072 C 19.398 50.942 19.208 50.762 19.068 50.892 C 18.878 50.882 18.758 50.862 18.618 50.792 C 18.438 50.862 18.458 50.862 18.288 50.792 C 18.198 50.972 18.078 51.052 17.918 51.152 C 17.858 51.262 17.898 51.412 17.908 51.512 C 17.998 51.622 17.758 51.732 17.798 51.822 C 17.728 51.962 17.668 52.142 17.608 52.272 C 17.438 52.262 17.338 52.402 17.218 52.392 C 17.118 52.512 16.988 52.462 16.868 52.612 C 16.818 52.732 16.668 52.832 16.528 52.782 C 16.378 52.612 16.378 52.962 16.418 53.012 C 16.528 53.182 16.248 53.252 16.188 53.362 C 16.058 53.382 15.898 53.302 15.838 53.172 C 15.688 53.222 15.548 53.272 15.478 53.402 C 15.518 53.532 15.358 53.642 15.288 53.772 C 15.128 53.882 15.208 54.192 15.128 54.372 C 15.088 54.422 15.118 54.472 15.158 54.512 C 15.118 54.482 15.078 54.462 15.048 54.492 C 14.948 54.502 14.898 54.392 14.848 54.342 C 14.748 54.272 14.638 54.232 14.538 54.162 C 14.468 54.102 14.428 53.972 14.348 53.952 C 14.258 53.852 14.268 53.792 14.218 53.692 C 14.358 53.652 14.438 53.652 14.498 53.512 C 14.538 53.362 14.388 53.322 14.378 53.192 C 14.288 53.122 14.168 53.072 14.178 52.932 C 14.188 52.872 14.158 52.842 14.108 52.822 C 14.128 52.832 14.138 52.832 14.158 52.842 C 14.298 52.922 14.218 52.662 14.238 52.582 C 14.208 52.422 14.428 52.452 14.378 52.262 C 14.358 52.132 14.238 52.052 14.128 52.022 C 14.008 51.902 14.158 51.822 14.158 51.712 C 14.248 51.662 14.188 51.482 14.198 51.422 C 14.248 51.302 14.188 51.232 14.238 51.062 C 14.318 50.952 14.258 50.822 14.258 50.722 C 14.208 50.602 14.078 50.592 14.018 50.462 C 13.948 50.392 13.878 50.292 13.768 50.252 C 13.678 50.162 13.548 50.122 13.428 50.082 C 13.298 50.002 13.198 50.182 13.058 50.172 C 12.958 50.262 12.808 50.262 12.698 50.332 C 12.638 50.472 12.518 50.382 12.408 50.462 C 12.348 50.582 12.188 50.602 12.138 50.732 C 12.108 50.902 11.918 50.802 11.848 50.772 C 11.748 50.722 11.808 50.612 11.688 50.542 C 11.528 50.532 11.508 50.342 11.398 50.312 C 11.348 50.202 11.418 50.052 11.268 50.002 C 11.168 49.942 11.098 49.822 11.048 49.702 C 10.958 49.592 10.858 49.512 10.698 49.512 C 10.618 49.622 10.518 49.522 10.458 49.662 C 10.378 49.862 10.208 49.622 10.148 49.822 C 10.028 49.782 9.918 49.902 9.818 49.852 C 9.688 49.832 9.638 49.682 9.518 49.702 C 9.388 49.622 9.218 49.682 9.108 49.562 C 9.088 49.412 8.988 49.372 8.908 49.262 C 8.788 49.122 8.858 49.012 8.818 48.932 C 8.618 48.992 8.678 48.742 8.498 48.752 C 8.398 48.782 8.278 48.642 8.228 48.582 C 8.078 48.582 8.018 48.472 7.948 48.392 C 7.928 48.262 7.828 48.172 7.718 48.132 C 7.588 48.082 7.568 47.992 7.428 47.912 C 7.368 47.742 7.238 47.762 7.168 47.872 C 7.048 47.842 6.948 47.912 6.828 47.782 C 6.738 47.832 6.568 47.732 6.468 47.862 C 6.358 47.932 6.378 47.682 6.258 47.702 C 6.228 47.542 6.028 47.602 5.968 47.452 C 5.818 47.442 5.658 47.412 5.528 47.372 C 5.438 47.292 5.318 47.252 5.308 47.072 C 5.258 46.982 5.168 46.882 5.108 46.782 C 4.988 46.742 5.078 46.522 4.918 46.492 C 4.868 46.392 4.698 46.352 4.718 46.242 C 4.738 46.152 4.628 46.222 4.628 46.172 C 4.618 46.192 4.628 46.222 4.628 46.262 C 4.598 46.142 4.508 46.042 4.468 45.902 C 4.398 45.832 4.328 45.772 4.378 45.642 C 4.218 45.502 4.338 45.332 4.428 45.202 C 4.328 45.122 4.408 44.992 4.268 44.922 C 4.298 44.772 4.288 44.632 4.198 44.492 C 4.198 44.362 4.128 44.072 3.928 44.212 C 3.908 44.412 3.668 44.312 3.608 44.432 C 3.628 44.622 3.418 44.382 3.308 44.452 C 3.248 44.532 3.128 44.582 3.028 44.522 C 2.978 44.662 2.748 44.712 2.808 44.512 C 2.638 44.442 2.458 44.652 2.268 44.572 C 2.098 44.672 2.248 44.392 2.198 44.312 C 2.348 44.212 2.218 44.102 2.118 44.022 C 2.158 43.842 2.048 43.942 1.998 44.042 C 1.888 43.952 1.778 43.932 1.668 43.852 C 1.568 43.892 1.468 43.942 1.368 43.982 C 1.258 43.962 1.138 44.012 1.138 43.912 C 1.088 43.802 1.018 43.912 0.928 43.852 C 0.898 43.762 0.738 43.772 0.758 43.642 C 0.748 43.512 0.518 43.562 0.578 43.452 C 0.578 43.412 0.648 43.282 0.538 43.302 L 0.538 43.302 Z M -2.862 52.552 C -2.862 52.552 -2.852 52.552 -2.842 52.552 C -2.832 52.572 -2.812 52.592 -2.792 52.612 C -2.812 52.592 -2.842 52.572 -2.862 52.552 L -2.862 52.552 Z M -3.812 69.752 C -3.752 69.822 -3.722 69.902 -3.782 70.002 C -3.762 69.912 -3.772 69.822 -3.812 69.752 Z M 11.918 72.292 C 11.708 72.262 11.688 72.252 11.918 72.292 Z M 14.738 73.242 C 14.768 73.172 14.758 73.172 14.738 73.242 Z M 14.738 73.282 C 14.748 73.312 14.768 73.342 14.788 73.362 C 14.758 73.342 14.738 73.312 14.738 73.282 Z" fill="#fdf9d2" fill-rule="evenodd" id="Araucania" stroke="#d7976a" stroke-miterlimit="4" stroke-width="0.31" transform="matrix(1.0000000000000002, 0, 0, 1.0000000000000002, 312.77740944590283, -6.505781270649749)"/>
</svg>