<?xml version="1.0" encoding="UTF-8" standalone="no" ?>
<!DOCTYPE svg PUBLIC "-//W3C//DTD SVG 1.1//EN" "http://www.w3.org/Graphics/SVG/1.1/DTD/svg11.dtd">
<svg xmlns="http://www.w3.org/2000/svg" xmlns:xlink="http://www.w3.org/1999/xlink" version="1.1" width="640" height="480" viewBox="0 0 640 480" xml:space="preserve">
<desc>Created with Fabric.js 3.6.6</desc>
<defs>
</defs>
<g transform="matrix(1 0 0 1 334.76 261.94)" id="path6451"  >
<path style="stroke: rgb(215,151,106); stroke-width: 2; stroke-dasharray: none; stroke-linecap: butt; stroke-dashoffset: 0; stroke-linejoin: miter; stroke-miterlimit: 4; fill: rgb(253,249,210); fill-rule: evenodd; opacity: 1;"  transform=" translate(-250.76, -293.94)" d="M 181.36755 154.76207 C 180.97589 155.38955 180.06524 156.55377 179.20349 156.2603 C 178.45991 156.83584 177.68385 156.61261 176.9562 156.59322 C 176.32153 157.08674 175.12615 156.86591 174.62568 156.84274 C 174.04396 156.62356 172.78042 155.6559 172.29517 156.67633 C 171.7958 156.75383 171.84494 158.29674 170.88021 158.34097 C 169.91391 158.59536 169.47766 158.29564 168.29999 158.50748 C 167.44118 158.65715 166.61208 158.44008 166.21917 159.5062 C 166.24295 159.8687 164.88358 160.87949 164.63775 160.0056 C 164.30788 159.28307 162.83052 159.52219 162.39045 160.17211 C 161.41042 160.00588 160.7567 160.01304 159.89347 160.33852 C 159.01396 160.85548 158.28358 160.383 157.31325 160.83792 C 156.16997 160.84032 157.11467 162.06263 156.14799 162.33615 C 155.48783 162.21837 154.14282 162.51405 154.31687 161.50384 C 153.59656 160.92453 152.78743 161.4314 152.31928 160.67152 C 151.86894 161.26672 151.20686 161.94008 150.48816 161.83675 C 149.60306 161.10665 148.97431 162.27143 149.65583 163.00197 C 150.25808 163.65988 151.19027 163.94379 150.65463 164.99962 C 149.29813 165.38179 150.53022 166.42319 149.8223 166.91404 C 148.91536 167.1485 148.86746 167.99193 148.65704 168.91168 C 147.73513 169.29038 146.35314 168.80458 146.07682 170.07691 C 146.26406 171.08769 143.92115 170.47032 144.57862 171.40864 C 145.83383 171.62176 145.21575 173.1836 145.57742 174.0721 C 145.89616 174.74279 146.28491 175.98175 147.32532 175.90323 C 147.88552 175.13565 149.33787 175.573 149.65583 174.405 C 150.16844 173.94449 150.92592 172.98916 151.98635 173.57268 C 153.04411 173.19584 153.50686 173.63263 153.81747 174.57151 C 154.91756 174.39655 155.63319 175.04637 155.14919 175.90323 C 155.58104 176.51371 156.0641 177.23764 156.14799 177.9839 C 156.78934 179.03255 155.89446 179.86726 155.48214 180.39783 C 155.36363 181.37073 154.53516 181.52307 153.81747 182.312 C 153.33531 183.1798 154.10448 183.85784 154.81627 183.97663 C 154.69716 185.21513 155.86946 185.52708 155.81505 186.72348 C 154.77342 186.89955 155.28637 187.87648 154.81627 188.47123 C 154.53923 189.09393 154.54348 190.1138 153.81747 190.63528 C 153.65633 190.90696 153.23181 191.87333 153.4013 192.21689 C 151.92033 192.73174 150.46158 193.67302 149.8223 195.37968 C 148.04606 196.25732 145.04843 195.34566 145.24449 198.20962 C 144.02184 200.59479 147.84178 200.4179 146.82591 202.78734 C 147.81901 204.79739 145.65782 205.8077 146.32651 207.78125 C 146.22769 210.13873 143.12009 210.69726 141.91517 211.44353 C 141.13788 212.17096 138.54615 211.25258 139.66789 213.19156 C 139.64582 215.08576 137.79252 215.77034 137.75354 217.76918 C 137.03667 218.90278 137.92837 219.90959 137.42059 220.93204 C 138.984 220.83753 139.72932 223.51938 141.24931 221.68125 C 142.29642 222.94034 142.9023 225.04601 145.16126 224.09491 C 147.41193 223.73185 148.44055 227.20234 150.8211 226.59187 C 151.19751 228.56018 152.50216 230.51166 150.90433 232.33508 C 149.52601 232.58258 150.08541 233.81014 150.98755 234.33272 C 150.6978 234.52257 150.83225 235.08938 151.32049 235.49795 C 152.15636 236.26793 151.08923 237.44043 150.48816 237.662 C 150.14564 238.4741 149.87103 239.28213 148.82351 238.82722 C 147.94665 238.75589 147.33341 237.76561 146.65946 238.66082 C 146.20482 237.61538 145.15853 238.26262 145.41096 239.16023 C 145.87096 240.08577 145.44886 240.58518 145.41096 241.32428 C 145.08564 242.13315 144.98286 242.91647 143.91276 243.07202 C 143.44259 243.75973 142.50483 242.59468 142.08164 243.65473 C 141.69575 243.81507 141.03519 244.50498 140.16729 244.48715 C 139.88967 245.12557 138.03218 244.46131 138.4194 245.40248 C 138.93328 246.2519 137.93209 247.25071 137.58706 247.56662 C 137.02851 247.97621 135.92159 248.75474 136.25534 249.89707 C 136.26101 251.01606 135.18415 250.9803 134.50745 251.06239 C 133.74471 251.34419 133.35769 251.81556 132.3434 251.89471 C 131.66325 252.44148 131.08833 253.02933 130.67874 253.89226 C 130.04271 254.05849 129.63126 255.37817 129.18055 255.8899 C 128.68781 256.57594 127.74601 256.71844 127.26619 257.30493 C 126.78173 257.9554 126.29236 258.90227 125.68478 259.30257 C 125.22391 260.04028 124.93756 260.74692 124.51951 261.46662 C 124.31906 262.37672 123.80035 262.86997 123.77041 263.88018 C 124.16828 264.3841 125.7191 264.0784 125.93447 264.9624 C 127.00871 264.23552 127.20993 265.88288 127.51589 266.37723 C 128.04032 267.29819 127.79142 268.08905 127.34942 268.87419 C 126.54759 269.84102 128.17054 270.27836 128.18175 271.20474 C 128.78141 271.78 130.29995 271.28519 130.17934 272.70288 C 131.40048 273.1485 130.88199 274.09077 129.84641 274.61741 C 129.39561 275.27504 130.18474 276.25943 130.34581 276.86456 C 130.70207 277.27443 131.0935 277.63566 131.51106 277.69688 C 131.3362 277.80022 131.1767 277.97923 131.01166 278.02979 C 130.86883 278.90339 132.1186 280.41679 130.59551 280.44373 C 129.86963 280.9356 128.87915 280.50551 127.93206 280.77665 C 126.96902 280.43223 126.75018 280.10595 126.10093 279.36152 C 125.95196 278.7825 125.44455 277.37298 126.18416 277.03097 C 126.69778 276.31799 126.43671 275.46039 126.01769 274.61741 C 126.14703 273.47664 125.07811 273.23401 124.68596 272.53647 C 124.11257 272.20006 123.62502 271.09073 123.02131 270.70532 C 122.73141 270.0112 122.13745 269.60528 121.35665 269.04069 C 120.96239 269.06459 119.42356 269.56006 119.44229 268.54128 C 119.27739 268.54101 119.10783 268.54128 118.9429 268.54128 C 118.33708 269.08436 118.83591 270.10874 117.94411 270.37242 C 117.35392 270.86861 116.46456 271.17274 115.78005 271.53764 C 115.45829 272.16411 115.14437 273.03184 114.19864 273.20228 C 113.59184 274.07754 114.07993 274.71992 113.61601 275.61623 C 112.70747 275.90997 111.86672 275.88735 111.20226 276.53166 C 110.03096 276.06893 109.70317 276.92156 109.53759 277.78028 C 110.28109 278.77588 108.81139 279.29257 108.20587 278.9455 C 107.32223 279.00994 107.39235 280.17839 106.54122 280.44373 C 106.34947 281.18466 104.43704 279.45897 105.37596 280.94304 C 105.81248 282.12299 107.51222 282.62267 107.54 283.93952 C 108.37426 284.68339 107.34826 285.7392 107.70646 286.43646 C 108.1068 287.11377 107.75721 287.99032 108.37234 288.51712 C 108.77729 289.2461 109.03149 290.0273 109.20466 290.84767 C 109.48495 291.78839 109.531 292.9595 109.37113 293.92743 C 109.89894 294.72086 109.71853 295.32279 109.87053 296.25798 C 109.35855 296.90891 109.90432 298.11174 110.36993 298.75494 C 110.51814 299.61171 110.76789 300.42169 111.36873 301.08549 C 111.27935 302.15454 112.26004 302.93686 111.86812 303.91535 C 112.77717 304.80256 111.03155 305.37681 111.78489 306.41231 C 111.80464 307.2939 112.53208 307.88893 112.61721 308.74285 C 113.33728 309.63888 113.50953 310.70905 114.11539 311.65584 C 114.79463 312.1055 114.91684 313.23561 115.28066 313.98639 C 115.64444 314.82808 116.32474 315.59163 116.61239 316.48334 C 117.16471 317.39215 117.64865 318.30069 117.94411 319.31331 C 119.43562 321.30579 120.19716 323.90747 121.35665 326.30485 C 122.47986 328.4905 122.87853 331.12786 124.2698 333.21329 C 124.71383 335.64241 126.46519 337.4716 126.93326 339.87194 C 127.67994 341.89909 128.5852 343.73712 129.34702 345.69826 C 131.35922 349.0486 132.14777 352.92022 133.42542 356.8514 C 134.67421 360.21057 135.90739 363.51723 136.83798 366.92254 C 137.63599 369.99531 138.55142 372.90488 139.75111 375.82852 C 141.01725 379.29957 141.30971 383.3331 143.16366 386.64886 C 142.72486 388.77346 144.3988 391.45633 143.08043 392.97449 C 142.44518 395.04478 145.13556 396.62105 145.16126 399.13373 C 146.38816 401.32501 146.09903 404.12821 144.74509 406.0419 C 146.54251 406.49314 147.20801 405.13825 147.32532 403.71145 C 148.29721 407.06684 143.96217 407.17846 142.91397 404.71017 C 141.21008 406.12428 145.98801 406.31892 145.9936 408.37245 C 148.28766 407.79848 150.90006 409.79262 152.56898 407.12411 C 153.60242 403.92263 158.58605 406.97737 158.89467 402.79602 C 160.08212 400.42869 161.86919 397.6699 163.80542 396.55339 C 163.16613 393.95788 164.79377 389.57194 167.96706 391.55939 C 170.54095 391.4918 172.72758 396.12081 174.79216 392.30868 C 178.66798 387.89776 180.64285 390.01463 182.69927 390.31104 C 183.37317 389.97676 183.57137 392.01246 183.86454 392.64159 C 185.22122 393.04301 184.88829 393.63582 184.5304 394.72225 C 184.18084 395.56286 183.81079 396.2295 182.7825 396.22048 C 181.80016 396.95157 182.34588 398.19992 182.5328 399.05035 C 182.67783 399.79166 181.11023 399.94768 181.11785 401.04799 C 180.84115 402.06032 179.45772 401.55852 178.87056 402.2966 C 177.92936 403.06236 178.60179 404.05741 178.78733 404.71017 C 178.99297 405.72443 178.0259 406.29924 178.4544 407.20723 C 178.48111 408.20467 179.21042 408.64228 178.9538 409.78756 C 179.21911 409.35151 179.97163 408.0696 180.28552 407.54013 C 180.80119 406.96322 181.97333 407.76492 181.53402 406.54132 C 181.3485 405.56622 182.04939 404.63194 183.11544 405.45947 C 183.76105 406.01608 183.98902 407.18083 185.11303 407.04072 C 185.77369 406.39247 186.86343 406.07739 187.77648 406.45821 C 188.67453 406.97039 189.50273 404.66412 189.8573 406.37491 C 189.73984 407.47302 191.32182 407.55668 191.02256 408.45584 C 189.95528 409.03993 190.7125 409.82986 191.77166 409.20477 C 192.31332 408.83481 193.20795 409.68551 193.93571 410.20359 C 194.30926 408.84253 195.58085 411.11929 196.26623 410.28698 C 195.78164 409.25378 196.97588 409.00877 197.26501 408.12292 C 198.42705 407.51641 199.32272 409.09555 200.5111 408.70536 C 201.36696 408.83114 201.9013 409.67118 202.50869 410.20359 C 202.57384 411.18191 203.86686 411.92974 204.58951 412.45103 C 205.37819 411.94335 206.59414 412.55731 207.16973 411.53532 C 207.57176 410.89424 208.52956 409.94414 209.33379 410.45339 C 210.18719 410.69794 211.61818 410.84523 212.4134 410.3701 C 213.08683 409.71431 214.11844 409.96998 214.91039 409.53768 C 215.99657 409.72873 216.61732 408.62281 217.57384 408.53895 C 218.34828 409.20266 218.40084 410.14576 218.90557 410.95281 C 218.61056 411.75855 219.1003 412.73117 219.07202 413.44976 C 219.28008 414.80603 220.41006 414.22379 221.23609 413.94917 C 222.22985 414.14573 223.09299 414.15777 223.98277 414.44858 C 224.8881 414.5738 225.64743 414.07034 226.47976 414.61507 C 227.18596 414.11273 228.15163 413.91699 228.89351 414.61507 C 230.10541 414.2579 230.47536 415.3675 231.3905 415.53051 C 232.37622 415.71429 232.58705 417.08436 233.63778 417.11203 C 234.30152 418.08263 235.03341 418.25225 236.21801 418.11085 C 237.12565 418.26936 238.00488 418.55695 238.96468 418.61025 C 240.26007 419.01958 240.34152 417.67856 241.12874 417.19515 C 241.83179 416.57062 242.27253 416.47333 242.12753 416.19633 C 242.73032 416.52639 243.69391 416.52234 244.12512 415.86341 C 245.01439 415.09288 245.44667 416.96126 245.70654 417.52805 C 245.06841 418.54388 246.77115 418.68584 247.37121 418.94318 C 248.65781 418.98308 249.76072 419.42126 251.11668 419.27609 C 252.25552 419.32214 253.27387 419.04384 254.36276 418.94318 C 255.3418 418.70109 256.44886 418.87578 257.35916 418.44377 C 258.2663 418.33591 259.14092 418.1479 260.0226 417.94435 C 260.92024 417.91879 261.61598 417.48861 262.51958 417.44495 C 263.24983 416.80946 264.06252 416.38895 264.85011 415.9468 C 265.46083 415.14271 265.87698 414.14472 266.51475 413.78275 C 267.00177 413.01268 267.61046 412.82871 268.09619 412.20114 C 268.78727 411.76756 269.28782 410.81996 270.42671 410.78639 C 271.30756 410.26409 272.00368 409.98414 272.4243 409.03836 C 273.30377 408.55891 274.3945 408.45667 275.25421 408.03955 C 276.1418 408.13967 277.26674 408.137 278.00089 407.54013 C 279.31134 407.2144 279.68774 404.94011 279.83202 404.71017 C 279.91386 404.72222 280.00026 404.69694 280.08171 404.71017 C 280.8462 404.57622 281.62003 404.82289 282.49546 405.04318 C 283.30688 405.64877 284.34513 405.5516 285.32539 405.8755 C 286.2759 405.82806 286.86643 406.75893 287.82237 406.70782 C 289.12817 406.44542 289.3455 407.90853 289.73672 408.70536 C 290.2882 409.26601 290.33941 410.48216 291.31814 411.03591 C 292.14949 411.43943 292.80961 412.19075 293.56545 412.28453 C 294.02611 412.75866 294.34543 413.95321 295.56302 413.86587 C 296.71004 413.66949 297.19202 415.08571 298.22649 415.11448 C 299.28091 415.11255 299.52441 416.26371 300.22407 416.61263 C 300.53255 415.60636 301.1343 414.98687 302.22164 414.94799 C 302.81972 414.83003 304.7855 414.6899 304.21924 414.03228 C 304.78347 414.60947 305.54599 414.99193 305.96713 415.6139 C 306.60591 416.77168 307.648 416.98019 308.79705 416.44621 C 309.24118 416.82335 309.3172 418.42197 309.96232 419.10967 C 308.96569 419.87056 309.0131 420.87581 308.96352 421.85615 C 309.07098 423.13676 308.04956 424.11103 309.21321 424.10359 C 310.21229 424.47355 310.59188 426.39074 311.79343 426.35074 C 313.13336 426.21707 314.69852 426.46687 314.95628 428.01538 C 315.36507 429.11673 314.88993 430.25298 315.37245 431.34476 C 315.76274 432.50364 317.59832 432.14407 318.61853 432.42687 C 319.92489 432.4061 320.96936 431.98639 322.28077 432.26045 C 323.66414 432.11685 324.17183 432.81898 325.44362 433.09278 C 326.68652 433.27436 327.71414 432.71427 327.94061 431.42805 C 328.66317 430.35899 329.23938 429.5115 329.85497 428.34839 C 329.81607 427.05205 331.2146 426.3912 331.26992 425.18552 C 330.70346 424.40799 329.6645 423.24414 330.10466 422.18915 C 331.00047 420.55908 328.3491 421.5749 327.52445 421.27372 C 326.46175 421.03634 325.59682 420.25835 324.61129 419.7755 C 323.67676 418.84646 323.91799 417.72408 324.61129 416.94554 C 325.19957 415.88024 325.37358 414.43019 326.94181 414.94799 C 327.81387 414.2419 329.00892 414.24034 329.60525 413.28335 C 329.84228 412.22836 330.42119 411.23358 330.77052 410.20359 C 331.25054 408.91821 330.58616 407.74681 332.18549 407.95643 C 332.02365 406.90328 332.13398 405.70238 332.60164 404.79357 C 332.05165 403.95169 331.11478 403.64002 330.93699 402.37972 C 330.26095 400.94539 332.86448 401.8166 332.60164 400.29897 C 332.23723 399.23414 331.59542 398.31769 331.76932 396.96968 C 333.08823 397.10714 334.23136 396.62906 334.84894 395.63796 C 335.58061 394.77392 336.58388 394.15306 337.34593 393.30742 C 337.61373 392.10467 337.80593 390.77028 337.92855 389.47872 C 338.93648 388.34274 337.69443 386.77509 338.51118 385.56666 C 338.35656 384.05298 339.99955 384.02107 339.67645 382.98658 C 340.05508 381.61991 337.73063 381.46786 338.51118 380.15661 C 338.70279 378.85478 339.00517 377.54464 338.51118 376.24455 C 337.64429 374.99437 339.07831 373.9676 338.42795 372.99866 C 337.45589 372.20652 337.93963 371.03963 337.17946 370.3352 C 337.31207 369.28389 337.39596 368.00521 336.18066 367.42186 C 334.82783 366.8945 335.28354 365.61499 335.34833 364.4255 C 334.80249 362.8493 335.60644 361.30262 335.84774 359.76449 C 335.9527 358.53637 335.10458 357.70212 335.34833 356.5185 C 334.80384 355.49734 334.87928 354.52123 335.43158 353.52214 C 335.81955 352.60036 337.23502 351.17108 336.18066 350.35927 C 335.24944 349.63911 333.96669 348.87281 334.18307 347.61252 C 334.18114 346.44426 334.89853 344.59454 333.35074 344.20003 C 332.20791 342.48557 332.52112 342.5831 333.26752 340.28797 C 332.4441 339.42447 333.07777 338.27837 333.18428 337.2916 C 333.8271 336.58468 332.96734 335.23594 334.34954 334.96105 C 335.1071 334.94266 335.28106 334.66813 335.2651 334.21212 C 335.75041 334.76475 336.72115 334.33541 337.17946 333.12999 C 338.57295 332.76748 339.89308 332.10056 340.42554 330.79945 C 341.83869 329.97402 342.47632 328.62207 343.67161 328.05288 C 345.40387 329.30049 347.14373 327.57269 348.33267 326.47136 C 349.84747 325.75994 351.05993 324.68517 350.74642 322.97557 C 350.04965 320.72069 351.6698 320.02471 353.2434 319.1468 C 354.51533 318.54671 355.59235 320.17228 357.07211 319.97921 C 358.9064 320.03134 359.00915 319.01211 360.15172 317.98157 C 361.4501 317.95546 363.26234 317.4007 363.98043 316.15044 C 364.89419 314.95882 366.01534 314.23783 367.39298 313.65348 C 367.97248 312.76893 369.84037 311.75394 370.55583 312.32175 C 372.01047 313.09468 373.84831 311.46065 375.5498 311.82234 C 377.22248 312.28414 378.40559 313.51152 380.29408 312.15525 C 382.10229 311.85829 383.90739 311.3951 385.62099 311.98883 C 388.21337 311.93717 387.55838 308.21366 389.11676 306.82833 C 390.65282 306.37369 390.87571 303.86451 390.36525 302.58362 C 388.74755 301.71453 388.56178 299.62375 389.53293 298.17214 C 389.4085 296.38844 390.99449 295.03198 392.36284 294.34345 C 392.97066 293.26502 393.51427 291.16808 395.19275 291.34708 C 396.96022 290.32004 396.41891 288.10533 395.85862 286.51957 C 395.69831 283.77596 395.3991 280.42212 392.69578 278.9455 C 392.71585 276.4091 390.62877 277.68889 389.28323 277.11437 C 387.94848 276.34061 387.31283 274.79769 385.78745 274.36752 C 386.23041 272.82332 384.7664 271.84316 384.12278 270.53882 C 383.57806 268.9562 381.92294 268.4544 380.71024 267.95877 C 379.31489 266.09591 380.39428 263.76039 379.46175 261.79953 C 379.36981 260.09176 379.55534 258.73154 378.96235 257.22163 C 377.73421 256.15864 378.25811 253.97805 377.71387 252.47742 C 376.91398 250.52382 378.15801 248.65646 376.96476 246.98411 C 376.48533 243.61372 376.02505 240.20105 375.5498 236.82968 C 375.53412 237.17803 375.42357 237.66172 375.38334 238.16141 C 375.41828 238.33535 375.48613 238.50709 375.5498 238.66082 C 375.20942 241.01554 375.2681 239.59242 375.38334 238.16141 C 375.29211 237.70677 375.33092 237.21297 375.5498 236.82968 C 377.73636 236.93725 376.79278 233.92222 377.38093 232.50159 C 377.32374 231.02311 376.24686 229.86257 375.38334 228.83931 C 373.5292 228.61185 374.64879 225.81066 372.88636 225.26014 C 370.91349 224.78022 370.21803 222.90412 368.89117 221.93086 C 368.10323 221.10811 367.02348 219.78437 365.6451 219.68371 C 364.54268 220.51767 363.50859 219.43841 362.64871 220.51603 C 361.25301 221.84692 359.26434 223.02603 357.15534 222.18067 C 355.79883 220.3703 352.98213 221.82375 351.07934 221.01543 C 349.62225 221.32701 346.95355 219.67276 346.4183 221.51484 C 345.58255 222.11648 344.3606 223.3001 343.50516 221.76436 C 343.87067 220.64997 342.21274 219.10412 341.00817 220.18311 C 339.40189 220.11894 338.34051 219.98627 337.17946 219.35078 C 335.6348 219.93939 335.79848 219.9482 334.34954 219.35078 C 333.54043 220.87209 332.53433 221.5598 331.10345 222.43027 C 330.61253 223.35637 330.95091 224.69445 331.02023 225.51003 C 331.80738 226.48586 329.75873 227.42262 330.10466 228.2566 C 329.4853 229.39389 328.99607 230.94827 328.44001 232.08529 C 326.99501 232.04584 326.17591 233.19617 325.11069 233.1674 C 324.22121 234.19582 323.13091 233.77365 322.1143 234.99855 C 321.66379 236.04213 320.36977 236.9549 319.20117 236.49678 C 317.90891 235.01564 317.89193 238.0144 318.20236 238.49432 C 319.14754 239.91394 316.76696 240.58196 316.20478 241.49069 C 315.08016 241.66306 313.77179 240.96838 313.20839 239.82605 C 311.91647 240.2804 310.67109 240.69063 310.12877 241.82369 C 310.41608 242.9924 309.05585 243.91528 308.46413 244.98646 C 307.06684 245.98768 307.79768 248.61013 307.1324 250.22998 C 306.7746 250.64178 307.01877 251.0384 307.38209 251.39531 C 307.01003 251.12978 306.64144 250.94462 306.3833 251.2288 C 305.54482 251.3111 305.12443 250.39437 304.6354 249.89707 C 303.79679 249.3596 302.83026 248.99948 301.97195 248.39894 C 301.39053 247.82791 301.04383 246.78643 300.39053 246.5678 C 299.57458 245.6782 299.66491 245.23791 299.22528 244.32064 C 300.41191 244.00235 301.17181 244.01007 301.63904 242.82241 C 302.00445 241.47928 300.69688 241.12448 300.64024 239.99255 C 299.8791 239.41692 298.81816 238.9564 298.89234 237.8285 C 298.997 237.2833 298.70534 237.03875 298.30971 236.82968 C 298.43607 236.89568 298.59396 236.92344 298.72587 236.99618 C 299.89912 237.66016 299.21941 235.46466 299.39173 234.74874 C 299.14225 233.41885 301.03804 233.63243 300.64024 232.00218 C 300.48315 230.89174 299.42202 230.20515 298.47618 229.92124 C 297.44571 228.92057 298.7002 228.24088 298.72587 227.25778 C 299.50126 226.86593 299.01607 225.24975 299.05882 224.76082 C 299.51865 223.74306 298.96119 223.12432 299.39173 221.68125 C 300.11057 220.73282 299.59986 219.61981 299.5582 218.76799 C 299.14444 217.66584 298.01383 217.59027 297.56062 216.52084 C 296.95679 215.91569 296.32501 215.0123 295.39656 214.68969 C 294.58957 213.9485 293.47557 213.59957 292.40018 213.19156 C 291.28131 212.57152 290.49957 214.06064 289.23733 214.02388 C 288.36795 214.78641 287.06507 214.73079 286.15772 215.35561 C 285.60246 216.57601 284.61809 215.81163 283.66073 216.52084 C 283.14727 217.56065 281.71528 217.67411 281.33022 218.85139 C 281.09074 220.26006 279.42384 219.39657 278.83322 219.1843 C 277.952 218.73389 278.47025 217.78866 277.41826 217.18674 C 276.09751 217.09379 275.88825 215.4265 274.92129 215.18911 C 274.49997 214.25695 275.07878 212.95527 273.83926 212.52565 C 272.96422 211.97438 272.37254 210.97822 271.9249 209.9453 C 271.1538 209.00937 270.25499 208.28627 268.92851 208.28066 C 268.24172 209.24593 267.36863 208.3875 266.8477 209.61239 C 266.12461 211.29441 264.67943 209.30054 264.18424 210.94412 C 263.09558 210.61332 262.19361 211.64727 261.35433 211.27703 C 260.16626 211.06181 259.76433 209.74396 258.77411 209.9453 C 257.65896 209.22304 256.11055 209.76768 255.19509 208.78008 C 255.00345 207.45285 254.13017 207.07149 253.4472 206.11661 C 252.46269 204.95212 253.07785 204.0104 252.6981 203.28666 C 250.98687 203.83461 251.50302 201.67213 249.95143 201.78852 C 249.05144 202.02793 248.03115 200.8102 247.6209 200.29029 C 246.33893 200.24983 245.78712 199.34424 245.20715 198.62565 C 244.99909 197.57811 244.18292 196.75535 243.20955 196.37849 C 242.07756 196.00219 241.92871 195.19222 240.71258 194.54736 C 240.2417 193.08838 239.09197 193.1885 238.46528 194.21444 C 237.48423 193.8876 236.61014 194.50424 235.55213 193.38212 C 234.73701 193.84659 233.27485 192.94827 232.47252 194.04795 C 231.4663 194.68296 231.66018 192.57352 230.64141 192.7163 C 230.39002 191.33631 228.67884 191.853 228.14442 190.55218 C 226.8773 190.49737 225.45822 190.18441 224.31571 189.88634 C 223.53355 189.16032 222.57217 188.7909 222.48457 187.306 C 222.014 186.48673 221.23841 185.63042 220.73669 184.80905 C 219.65026 184.4673 220.42568 182.52034 219.07202 182.312 C 218.64113 181.43472 217.19341 181.0575 217.40737 180.14795 C 217.55114 179.38063 216.6069 179.92104 216.57505 179.48214 C 216.51346 179.70104 216.55044 179.99239 216.57505 180.31444 C 216.35895 179.23223 215.59252 178.37464 215.24331 177.15158 C 214.57929 176.62422 213.9719 176.03536 214.411 174.98754 C 213.06241 173.75087 214.10922 172.25853 214.82716 171.15885 C 213.98737 170.4352 214.67281 169.33433 213.49543 168.74518 C 213.73245 167.44435 213.66369 166.25935 212.91281 165.0829 C 212.84978 163.88467 212.27075 161.40711 210.58228 162.66907 C 210.36528 164.37444 208.33742 163.50589 207.8356 164.50021 C 207.96691 166.19684 206.16618 164.07168 205.25538 164.66661 C 204.71953 165.40414 203.67632 165.78347 202.75838 165.33252 C 202.40186 166.47146 200.37756 166.93326 200.92727 165.2494 C 199.40253 164.6062 197.84757 166.45592 196.26623 165.74882 C 194.77715 166.58031 196.05395 164.18513 195.68359 163.50139 C 196.9602 162.60617 195.81653 161.65112 194.93452 161.00443 C 195.29965 159.47612 194.36103 160.3444 193.93571 161.17084 C 192.98186 160.36894 192.02023 160.25494 191.1058 159.5062 C 190.22786 159.85243 189.38566 160.28317 188.52558 160.67152 C 187.5538 160.49039 186.48406 160.90936 186.52798 160.0056 C 186.06896 159.13357 185.43647 160.04266 184.69687 159.5062 C 184.43073 158.71625 183.10222 158.83053 183.19867 157.67505 C 183.13177 156.57851 181.1231 157.00602 181.70048 156.0938 C 181.71901 155.71079 182.2895 154.61479 181.36755 154.76207 z M 151.98635 234.49913 C 152.04189 234.48901 152.09872 234.51779 152.15282 234.49913 C 152.28983 234.67813 152.44932 234.87093 152.65222 234.99855 C 152.42324 234.88537 152.19264 234.67418 151.98635 234.49913 z M 143.82953 382.73669 C 144.37905 383.36767 144.62785 384.07431 144.07924 384.90084 C 144.22583 384.16192 144.14602 383.39883 143.82953 382.73669 z M 279.41585 404.62715 C 277.63016 404.37387 277.42 404.32404 279.41585 404.62715 z M 303.71984 412.86705 C 303.95875 412.25363 303.9289 412.22697 303.71984 412.86705 z M 303.71984 413.19996 C 303.8282 413.43669 303.96909 413.67675 304.13601 413.86587 C 303.9301 413.67115 303.75633 413.43274 303.71984 413.19996 z" stroke-linecap="round" />
</g>
</svg>