<?xml version="1.0" encoding="UTF-8" standalone="no" ?>
<!DOCTYPE svg PUBLIC "-//W3C//DTD SVG 1.1//EN" "http://www.w3.org/Graphics/SVG/1.1/DTD/svg11.dtd">
<svg xmlns="http://www.w3.org/2000/svg" xmlns:xlink="http://www.w3.org/1999/xlink" version="1.1" width="640" height="480" viewBox="0 0 640 480" xml:space="preserve">
<desc>Created with Fabric.js 3.6.6</desc>
<defs>
</defs>
<g transform="matrix(1 0 0 1 318.9 253.32)" id="path2204"  >
<path style="stroke: rgb(211,141,95); stroke-width: 2; stroke-dasharray: none; stroke-linecap: butt; stroke-dashoffset: 0; stroke-linejoin: miter; stroke-miterlimit: 4; fill: rgb(253,249,210); fill-rule: evenodd; opacity: 1;"  transform=" translate(-239.9, -278.19)" d="M 274.5795 116.72918 L 238.87019 145.95659 L 216.59608 142.89242 L 208.93566 151.84921 L 208.93566 161.15955 L 213.88547 163.98802 L 213.88547 183.55153 L 222.01729 197.22241 L 222.37085 206.76846 L 218.36387 215.8431 L 211.05701 230.22111 L 204.92868 239.4136 L 183.59738 258.62356 L 169.33724 258.62356 L 151.54151 268.64101 L 142.11332 268.99457 C 128.50845 265.03201 116.11453 264.94686 108.99677 274.76934 C 120.16127 283.93549 128.27366 292.23534 120.31061 306.3538 C 118.89434 310.03246 118.38447 314.07904 114.88939 316.72483 C 111.64013 315.73495 120.25683 321.27972 115.95007 326.27087 C 112.73596 328.87409 115.75916 332.79857 116.42147 335.81692 C 117.75579 338.63389 116.87878 342.02666 114.65369 343.47733 C 115.83406 346.4438 118.75345 350.87251 113.94657 352.19842 C 112.05414 361.53066 113.77826 359.33619 114.06442 362.80514 C 114.08392 364.69078 113.6422 366.63647 114.30012 368.46206 C 116.95798 369.70579 114.81969 372.17619 114.77154 374.94394 C 114.72337 377.71169 116.78755 378.61607 117.59999 382.0151 C 118.5119 385.98091 120.75724 388.98046 121.60698 392.97537 C 125.72556 397.95776 121.92165 397.64595 121.84269 401.10719 C 121.84273 402.5246 126.00719 406.84341 126.55678 407.94263 C 128.02846 411.10081 128.75775 414.47815 129.62095 417.84224 C 130.02421 419.45541 129.64787 419.63694 131.86015 421.84923 C 133.46226 424.73983 131.96017 428.54089 129.62095 430.57031 C 133.23599 433.30584 127.72483 438.74317 127.49961 439.64495 C 146.22341 429.97764 154.76174 422.88512 164.26958 416.89942 C 175.33505 415.00992 182.03803 410.27691 188.19363 405.11418 C 195.26542 407.9104 203.70565 401.18578 211.17486 404.76062 C 226.58148 399.00164 231.18527 401.06449 241.10938 399.22156 C 252.64083 398.47119 252.70506 399.98987 256.66592 400.75363 C 263.75245 400.62793 273.90564 398.41127 274.10808 402.87498 C 275.92241 402.21485 277.8473 402.56414 279.64715 401.93216 C 283.16636 401.38488 284.34782 404.4951 284.36124 407.23552 C 285.7774 412.3768 291.9557 410.91608 296.1465 411.59607 C 300.55315 413.28357 299.97714 417.8266 303.3355 420.67071 C 306.00387 420.05603 308.11498 417.58451 310.7602 416.31016 C 315.56081 415.25735 323.59198 411.60036 328.20237 411.0068 C 331.30352 410.49357 336.19575 412.15709 337.86627 408.88545 C 339.20346 405.96667 344.35337 404.72645 343.75889 401.10719 C 344.27752 401.21093 344.77235 401.23916 345.29098 401.3429 C 349.9052 399.12011 349.42271 392.12131 355.54415 393.56464 C 357.62434 389.76587 359.17344 390.85439 359.66898 391.32544 C 360.56239 392.17468 360.68945 388.59717 361.20107 387.31845 C 362.01638 386.2314 363.27904 386.76113 364.38307 387.08275 C 363.87787 384.23408 368.70982 378.99817 370.27569 377.5367 C 369.60954 377.12895 367.66163 367.22214 365.20804 361.27306 C 354.00456 344.58619 360.43711 345.04977 355.54415 336.40619 C 357.694 329.37889 345.08514 327.86279 352.71568 323.56027 C 351.46636 315.50392 358.4025 303.62027 351.30145 297.86843 C 347.31494 289.97107 344.1786 278.77162 349.53366 271.35162 C 345.27619 268.87796 342.44675 266.0355 345.29098 261.09846 C 349.83242 249.12641 333.76923 254.63919 333.85929 244.83482 C 326.11663 237.22042 340.01119 234.93252 341.99111 228.45332 C 349.64473 225.9049 345.70072 219.50139 340.10547 218.43587 C 336.21415 209.82785 326.66986 212.47344 318.77416 209.12551 C 313.52998 213.0037 312.19253 202.11667 310.64235 205.70779 C 308.34281 205.05603 306.54022 203.56736 305.22114 201.58296 C 301.99922 196.7589 301.57351 189.11454 303.68905 184.3765 C 307.99884 173.62389 295.67935 168.03538 297.44288 158.92035 L 274.5795 135.93912 L 274.5795 116.72918 z M 370.27569 377.5367 C 370.30935 377.55729 370.36625 377.68481 370.39356 377.65455 C 371.06476 376.91114 370.83216 377.01735 370.27569 377.5367 z" stroke-linecap="round" />
</g>
</svg>