<?xml version="1.0" encoding="utf-8"?>
<svg viewBox="213.403 170.506 21.4497 26.45" xmlns="http://www.w3.org/2000/svg">
  <path d="M 226.973 170.506 L 224.043 172.896 L 222.223 172.646 L 221.593 173.376 L 221.593 174.146 L 221.993 174.376 L 221.993 175.976 L 222.663 177.096 L 222.693 177.876 L 222.363 178.626 L 221.763 179.806 L 221.263 180.556 L 219.513 182.126 L 218.343 182.126 L 216.883 182.946 L 216.113 182.976 C 215.003 182.656 213.983 182.646 213.403 183.456 C 214.313 184.206 214.983 184.886 214.333 186.036 C 214.213 186.336 214.173 186.676 213.883 186.886 C 213.623 186.806 214.323 187.266 213.973 187.676 C 213.713 187.886 213.953 188.206 214.013 188.456 C 214.123 188.686 214.043 188.966 213.863 189.086 C 213.963 189.326 214.203 189.686 213.803 189.796 C 213.653 190.556 213.793 190.376 213.813 190.666 C 213.823 190.816 213.783 190.976 213.833 191.126 C 214.053 191.226 213.883 191.436 213.873 191.656 C 213.873 191.886 214.043 191.956 214.103 192.236 C 214.183 192.566 214.363 192.806 214.433 193.136 C 214.773 193.546 214.463 193.516 214.453 193.806 C 214.453 193.916 214.793 194.276 214.843 194.366 C 214.963 194.626 215.023 194.896 215.093 195.176 C 215.123 195.306 215.093 195.326 215.273 195.506 C 215.403 195.736 215.283 196.056 215.093 196.216 C 215.393 196.446 214.933 196.886 214.923 196.956 C 216.453 196.166 217.153 195.586 217.933 195.096 C 218.833 194.946 219.383 194.556 219.893 194.136 C 220.473 194.356 221.163 193.806 221.773 194.106 C 223.033 193.626 223.413 193.796 224.223 193.646 C 225.173 193.586 225.173 193.716 225.503 193.776 C 226.083 193.766 226.913 193.586 226.933 193.946 C 227.083 193.896 227.233 193.926 227.383 193.866 C 227.673 193.826 227.773 194.076 227.773 194.306 C 227.883 194.726 228.393 194.606 228.733 194.666 C 229.093 194.796 229.053 195.176 229.323 195.406 C 229.543 195.356 229.713 195.156 229.933 195.046 C 230.323 194.966 230.983 194.666 231.363 194.616 C 231.613 194.576 232.023 194.706 232.153 194.436 C 232.263 194.206 232.683 194.096 232.633 193.806 C 232.683 193.816 232.723 193.816 232.763 193.826 C 233.143 193.636 233.103 193.066 233.603 193.186 C 233.773 192.876 233.903 192.966 233.943 193.006 C 234.013 193.076 234.023 192.776 234.063 192.676 C 234.133 192.586 234.233 192.626 234.323 192.656 C 234.283 192.416 234.683 191.996 234.813 191.876 C 234.753 191.836 234.593 191.026 234.393 190.536 C 233.473 189.176 234.003 189.206 233.603 188.506 C 233.783 187.926 232.743 187.806 233.373 187.446 C 233.273 186.786 233.833 185.816 233.253 185.346 C 232.933 184.696 232.673 183.776 233.113 183.176 C 232.763 182.966 232.533 182.736 232.763 182.336 C 233.133 181.346 231.823 181.806 231.823 180.996 C 231.193 180.376 232.333 180.186 232.493 179.656 C 233.123 179.446 232.793 178.926 232.343 178.836 C 232.023 178.126 231.233 178.346 230.593 178.076 C 230.163 178.386 230.053 177.496 229.923 177.796 C 229.733 177.736 229.593 177.616 229.483 177.456 C 229.213 177.056 229.183 176.436 229.353 176.046 C 229.703 175.166 228.703 174.706 228.843 173.956 L 226.973 172.076 L 226.973 170.506 Z M 234.813 191.876 C 234.813 191.876 234.813 191.886 234.823 191.886 C 234.873 191.816 234.853 191.826 234.813 191.876 Z" fill="#fdf9d2" fill-rule="evenodd" id="AricaParinacota" stroke="#d38d5f" stroke-miterlimit="4" stroke-width="0.31" transform="matrix(1, 0, 0, 1, 7.105427357601002e-15, 7.105427357601002e-15)"/>
</svg>