<?xml version="1.0" encoding="utf-8"?>
<svg viewBox="375.7299 161.594 44.5702 65.934" xmlns="http://www.w3.org/2000/svg">
  <path d="M 416.726 161.594 C 416.716 161.634 416.716 161.684 416.706 161.724 C 416.726 161.684 416.726 161.644 416.726 161.594 Z M 416.696 161.734 C 416.546 161.964 415.876 161.944 415.426 162.044 C 414.626 162.604 413.826 163.924 413.026 163.214 L 411.906 163.214 C 411.356 163.514 410.956 163.494 410.726 163.164 L 410.026 163.214 C 410.326 163.534 410.546 163.824 410.076 163.984 C 410.576 164.654 410.386 165.234 409.786 165.744 L 408.896 166.274 C 409.596 166.424 409.636 166.824 409.546 167.274 C 409.886 167.714 410.576 168.284 409.736 168.274 C 409.856 168.614 409.796 168.944 409.146 169.284 C 408.866 169.844 408.546 170.384 406.726 170.334 L 404.956 171.054 C 404.726 170.514 404.496 170.624 404.256 170.694 C 404.296 171.064 403.856 170.954 403.436 170.864 C 403.496 171.294 403.426 171.544 403.016 171.334 L 403.136 172.104 C 401.876 171.694 400.256 172.144 400.016 171.634 C 399.306 171.664 398.446 171.914 398.016 171.514 L 397.716 172.044 C 397.106 171.664 396.806 171.384 396.666 171.164 C 396.126 171.284 395.496 171.364 395.246 171.634 L 394.596 172.104 L 393.016 171.874 L 392.126 171.694 C 392.186 170.874 391.546 171.224 391.186 171.104 C 391.196 172.714 390.276 171.964 389.726 172.164 C 389.276 172.704 388.786 173.214 387.716 172.994 C 387.446 173.684 387.146 174.464 386.716 174.104 C 386.326 174.684 386.626 174.754 386.706 174.984 C 387.026 175.094 387.196 175.414 386.816 175.584 C 386.736 175.854 387.206 176.064 386.896 176.314 C 386.816 176.664 387.336 176.894 387.136 177.264 C 386.986 177.414 386.626 177.704 387.026 177.804 C 387.366 177.784 387.556 178.014 387.536 178.344 C 387.676 178.784 386.896 178.474 386.986 178.894 C 387.116 179.194 386.576 179.004 386.666 179.364 C 386.366 179.614 386.976 179.844 386.716 180.154 C 386.536 180.384 386.446 180.674 386.426 180.964 C 386.436 181.264 386.596 181.504 386.786 181.724 C 386.956 181.974 386.836 182.304 386.516 182.274 C 386.466 182.514 386.646 182.984 386.266 183.004 C 386.176 182.964 386.466 183.164 386.216 183.444 C 385.966 183.734 385.526 184.124 385.976 184.464 C 386.426 184.944 385.606 184.654 385.576 184.924 C 385.496 185.494 385.156 185.994 384.936 186.514 C 384.496 186.914 385.296 187.344 385.246 187.764 C 384.786 188.114 385.636 187.854 385.416 188.224 C 384.886 188.624 385.216 189.304 384.746 189.674 C 384.336 189.834 384.526 190.294 384.216 190.494 C 383.866 191.194 383.336 189.884 383.106 190.394 C 383.076 190.814 382.336 191.394 382.896 191.704 C 383.486 191.854 382.856 192.264 383.096 192.624 C 383.476 192.944 383.706 193.624 383.136 193.904 C 382.646 194.394 383.536 194.764 383.536 195.204 C 383.606 195.684 384.306 196.014 384.116 196.574 C 383.936 197.124 383.856 197.704 383.876 198.264 C 383.346 198.244 383.816 198.924 383.366 198.894 C 382.966 198.874 383.096 198.784 383.176 199.054 C 382.996 198.574 382.736 199.484 382.606 199.294 C 382.276 199.154 382.116 198.434 382.156 198.794 C 382.076 199.004 382.156 199.614 382.046 199.814 C 381.806 200.254 381.416 200.914 381.456 201.444 C 380.856 201.724 381.296 202.294 381.006 202.764 C 381.266 203.064 380.876 203.324 380.856 203.544 C 380.606 203.714 380.666 203.864 380.646 204.184 C 380.866 204.624 380.536 205.034 380.666 205.264 C 380.566 205.514 380.156 205.714 380.216 205.984 C 380.456 206.044 380.606 206.044 380.506 206.304 C 380.576 206.554 380.236 206.934 380.476 207.064 C 380.666 207.304 380.466 207.614 380.416 207.894 C 380.336 208.154 380.406 208.554 380.166 208.734 C 379.876 208.674 379.956 208.894 380.126 209.004 C 380.306 209.214 380.796 209.604 380.396 209.844 C 380.006 209.964 380.306 210.324 380.116 210.584 C 380.156 210.884 379.966 210.974 379.786 211.164 C 379.626 211.404 379.316 211.514 379.346 211.834 C 379.136 211.854 379.066 211.944 379.266 212.084 C 379.566 212.374 379.276 212.944 378.846 212.824 L 378.596 213.104 C 378.636 213.164 378.686 213.204 378.746 213.244 C 378.746 213.244 378.756 213.234 378.756 213.244 C 378.756 213.244 378.746 213.244 378.756 213.254 C 378.846 213.394 378.866 213.594 379.016 213.704 C 379.276 213.734 379.036 213.954 379.026 214.094 C 379.186 214.484 378.636 214.554 378.586 214.944 C 378.386 215.214 378.336 215.554 378.096 215.784 C 377.746 215.974 377.766 216.404 377.526 216.654 C 377.336 216.964 376.836 216.734 376.756 217.104 C 376.636 217.454 376.086 217.264 376.006 217.694 C 375.816 217.984 375.626 218.374 375.796 218.724 C 376.066 218.874 375.916 219.144 375.806 219.354 C 375.646 219.744 376.016 219.334 376.126 219.554 C 376.276 219.794 376.566 220.074 376.376 220.364 C 376.636 220.574 376.656 220.864 376.386 221.064 C 376.756 220.954 377.106 221.494 376.676 221.684 C 376.246 221.604 376.166 222.184 376.526 222.354 C 376.886 222.534 376.166 222.654 376.576 222.594 C 376.996 222.534 377.976 222.954 378.056 222.364 C 378.226 221.884 378.576 221.914 378.946 222.124 C 379.286 222.834 379.936 222.424 380.566 222.534 C 380.786 223.054 380.506 224.284 381.146 224.224 C 381.286 224.454 381.566 224.324 381.796 224.254 C 382.096 224.174 382.266 224.654 382.086 225.044 C 382.516 225.404 383.276 224.654 383.166 224.104 C 383.916 223.844 382.986 223.264 383.716 222.684 C 383.356 222.124 383.866 222.194 384.206 222.004 C 384.346 221.564 384.536 221.684 384.866 221.754 C 385.116 221.814 385.526 221.824 385.776 221.704 C 386.946 220.684 386.906 221.324 386.996 220.704 C 386.516 220.334 387.516 220.174 387.766 220.294 C 387.976 220.244 388.356 220.004 388.446 220.004 C 388.576 220.004 388.506 220.264 388.846 220.234 C 389.076 220.164 389.276 220.084 389.396 220.144 C 389.576 220.234 389.576 220.574 389.386 220.854 C 389.356 221.534 390.446 221.914 390.026 222.644 C 390.726 223.044 390.036 223.704 390.446 224.124 C 390.906 224.394 390.606 224.494 390.396 224.854 C 390.166 225.194 391.656 226.124 391.546 225.224 C 392.206 224.894 392.816 225.164 393.196 225.714 C 393.586 226.214 393.916 226.754 394.256 227.314 C 394.596 227.214 394.846 227.744 395.116 227.424 C 395.826 227.724 396.456 227.014 397.146 227.034 C 397.356 227.034 397.386 226.724 397.206 226.374 C 397.106 226.184 397.026 225.904 397.026 225.744 C 397.026 225.594 396.936 225.404 396.816 225.324 C 396.286 224.944 396.476 223.914 397.146 223.574 C 397.466 223.404 397.506 223.354 397.446 222.964 C 397.396 222.584 397.436 222.484 397.806 222.134 C 398.326 221.644 398.616 221.484 399.056 221.484 C 399.486 221.484 399.606 221.274 399.546 220.594 C 399.506 220.204 399.556 219.934 399.736 219.584 C 399.916 219.234 399.966 218.934 399.946 218.464 C 399.936 217.954 399.996 217.684 400.216 217.244 C 400.376 216.934 400.576 216.464 400.656 216.194 C 400.786 215.744 400.776 215.694 400.536 215.444 C 400.336 215.224 400.296 215.074 400.336 214.734 C 400.406 214.194 400.666 213.524 400.896 213.254 C 401.196 212.914 401.316 211.824 401.096 211.414 C 401.016 211.264 401.046 211.144 401.216 210.934 C 401.336 210.774 401.406 210.564 401.366 210.454 C 401.316 210.324 401.396 210.244 401.636 210.164 C 401.826 210.094 402.026 209.924 402.096 209.774 C 402.156 209.624 402.366 209.444 402.536 209.354 C 402.866 209.204 403.586 207.944 403.586 207.534 C 403.586 207.234 403.896 207.164 404.226 207.384 C 404.546 207.594 404.836 207.554 404.836 207.294 C 404.836 207.204 404.996 207.024 405.186 206.884 C 405.546 206.624 405.966 205.904 405.966 205.544 C 405.966 205.424 406.096 205.164 406.256 204.974 C 406.416 204.784 406.526 204.584 406.486 204.534 C 406.456 204.474 406.536 204.244 406.676 204.034 C 406.856 203.774 407.026 203.654 407.236 203.654 C 407.616 203.634 407.786 203.494 408.026 203.014 C 408.256 202.524 408.766 200.854 408.846 200.274 C 408.886 200.004 409.006 199.744 409.146 199.644 C 409.356 199.484 409.366 199.394 409.296 198.724 C 409.226 197.994 409.226 197.984 409.586 197.684 C 409.786 197.514 409.986 197.374 410.036 197.374 C 410.116 197.374 410.496 196.824 410.646 196.504 C 410.716 196.464 410.726 196.364 410.726 196.324 C 410.726 196.244 410.616 195.994 410.496 195.764 L 410.276 195.334 L 410.556 195.334 C 410.706 195.334 410.836 195.294 410.836 195.234 C 410.836 195.164 410.946 195.004 411.076 194.874 C 411.206 194.744 411.366 194.404 411.436 194.114 C 411.546 193.674 411.656 193.544 412.006 193.354 C 412.496 193.094 412.526 192.944 412.136 192.694 C 411.876 192.514 411.856 192.454 411.926 191.904 C 411.986 191.454 412.076 191.244 412.346 190.984 C 412.546 190.794 412.756 190.544 412.826 190.434 C 412.886 190.304 413.116 190.204 413.406 190.174 C 413.866 190.104 413.886 190.114 414.226 190.664 C 414.476 191.074 414.676 191.254 414.966 191.344 C 415.336 191.464 415.366 191.444 415.646 191.084 C 415.906 190.744 415.956 190.724 416.266 190.844 C 416.576 190.964 416.636 190.934 416.986 190.574 C 417.416 190.134 418.446 189.734 419.156 189.734 C 419.606 189.734 419.616 189.734 419.616 189.284 C 419.626 188.674 419.746 188.344 420.026 188.204 C 420.206 188.104 420.346 187.904 420.286 187.634 L 418.756 185.264 L 415.786 180.674 L 416.116 177.744 L 417.346 176.774 L 418.596 175.854 L 417.116 168.114 C 416.916 167.514 416.496 167.654 416.676 166.764 C 416.766 166.304 416.886 166.314 416.546 165.914 C 416.366 165.694 416.216 165.324 416.136 164.894 L 416.006 164.214 L 416.376 163.844 C 416.836 163.384 416.986 163.014 416.836 162.734 C 416.446 162.624 416.616 162.084 416.696 161.734 Z" fill="#fdf9d2" fill-rule="evenodd" id="Atacama" stroke="#d69466" stroke-miterlimit="4" stroke-width="0.31" transform="matrix(1, 0, 0, 1, 7.105427357601002e-15, 7.105427357601002e-15)"/>
</svg>