<?xml version="1.0" encoding="utf-8"?>
<svg viewBox="183.8454 41.3429 276.5569 409.1159" xmlns="http://www.w3.org/2000/svg">
  <g transform="matrix(1, 0, 0, 1, 322.1199999171494, 245.89999756067982)" id="path6163">
    <path style="stroke: rgb(214,148,102); stroke-width: 2; stroke-dasharray: none; stroke-linecap: butt; stroke-dashoffset: 0; stroke-linejoin: miter; stroke-miterlimit: 4; fill: rgb(253,249,210); fill-rule: evenodd; opacity: 1;" transform=" translate(-233.12, -299.9)" d="M 349.21434 95.342853 C 349.18692 95.555913 349.14786 95.867925 349.0945 96.121823 C 349.2098 95.906976 349.2533 95.63064 349.21434 95.342853 z M 349.03458 96.181723 C 348.12886 97.607551 343.98419 97.529449 341.18494 98.099198 C 336.20364 101.59407 331.24594 109.81631 326.26462 105.40956 L 319.31379 105.40956 C 315.9137 107.21862 313.45583 107.13641 312.00344 105.05003 L 307.62921 105.40956 C 309.54956 107.35186 310.87175 109.16171 307.98874 110.14335 C 311.08917 114.32532 309.89631 117.89916 306.19111 121.10883 L 300.67838 124.40454 C 304.96999 125.29299 305.21742 127.76148 304.69309 130.57633 C 306.78698 133.29416 311.0765 136.84238 305.83158 136.80816 C 306.57955 138.8776 306.26162 140.97041 302.17641 143.03992 C 300.44574 146.53532 298.4564 149.88769 287.19617 149.57131 L 276.23064 154.00546 C 274.76984 150.67143 273.31726 151.34728 271.85642 151.78836 C 272.07453 154.07602 269.38867 153.42301 266.76313 152.86696 C 267.15727 155.50258 266.70137 157.04609 264.18653 155.80307 L 264.90559 160.53686 C 257.06986 158.03726 247.01563 160.77202 245.55112 157.66065 C 241.15774 157.79871 235.77701 159.38935 233.14749 156.88168 L 231.28994 160.17732 C 227.50773 157.82095 225.62414 156.10866 224.75856 154.72453 C 221.40193 155.48093 217.47102 155.98635 215.95018 157.66065 L 211.93547 160.53686 L 202.10845 159.09872 L 196.59572 158.02018 C 196.97975 152.91647 193.00895 155.11935 190.78339 154.365 C 190.84217 164.31171 185.0991 159.65589 181.6754 160.89639 C 178.87572 164.27484 175.83203 167.44672 169.21185 166.04955 C 167.52722 170.33934 165.68996 175.17976 163.03999 172.94048 C 160.58304 176.57613 162.47257 176.98094 162.98007 178.39327 C 164.91386 179.12319 165.98297 181.06052 163.6392 182.16831 C 163.12756 183.81998 166.06699 185.14844 164.11857 186.66237 C 163.61769 188.86505 166.85657 190.26685 165.6166 192.59456 C 164.67607 193.52139 162.43146 195.29477 164.95747 195.8902 C 167.03853 195.80356 168.22684 197.19908 168.13327 199.24575 C 168.96118 201.99634 164.13408 200.04934 164.71778 202.66127 C 165.47554 204.51805 162.1365 203.35439 162.68047 205.59738 C 160.86949 207.15896 164.66262 208.58154 163.03999 210.51087 C 161.91968 211.93113 161.33185 213.74674 161.24236 215.54429 C 161.27339 217.38174 162.28723 218.90936 163.45944 220.21811 C 164.53462 221.77479 163.77864 223.82014 161.78165 223.63355 C 161.49522 225.16952 162.60942 228.07545 160.22371 228.18757 C 159.6417 227.91872 161.46811 229.18079 159.9241 230.94392 C 158.3801 232.70704 155.64963 235.14528 158.42608 237.23564 C 161.24371 240.20584 156.15733 238.39989 155.96932 240.11185 C 155.42284 243.62824 153.34287 246.73465 151.95462 249.9389 C 149.21657 252.46034 154.22822 255.10013 153.87209 257.72859 C 151.02595 259.8862 156.32158 258.28193 154.95066 260.60481 C 151.66399 263.06291 153.70347 267.27963 150.81612 269.59291 C 148.27497 270.59235 149.41464 273.41403 147.52047 274.68623 C 145.31341 278.98893 142.03708 270.89033 140.62956 274.02706 C 140.45544 276.63356 135.84914 280.27285 139.3113 282.17636 C 143.00408 283.12233 139.08791 285.65462 140.56964 287.86882 C 142.93153 289.88875 144.31801 294.09045 140.80933 295.83829 C 137.74333 298.88983 143.30353 301.13348 143.26608 303.86772 C 143.72771 306.89021 148.06168 308.89002 146.86134 312.37649 C 145.75321 315.77837 145.29624 319.41687 145.42324 322.86263 C 142.11533 322.7754 145.03898 327.00019 142.24743 326.81745 C 139.75873 326.65449 140.53032 326.07448 141.04901 327.77618 C 139.9201 324.80274 138.30887 330.43662 137.51367 329.27416 C 135.44756 328.39154 134.49907 323.94785 134.69739 326.15828 C 134.23964 327.45438 134.71689 331.2653 134.03826 332.5099 C 132.57096 335.20099 130.13717 339.29202 130.38308 342.63658 C 126.65709 344.36615 129.38289 347.88505 127.5668 350.78581 C 129.2196 352.66536 126.76326 354.29518 126.66799 355.6394 C 125.09443 356.69828 125.46715 357.63379 125.34972 359.59422 C 126.72376 362.35519 124.69149 364.90119 125.46957 366.30531 C 124.87571 367.84657 122.29974 369.12526 122.7132 370.79943 C 124.16618 371.17432 125.12139 371.17796 124.51083 372.7768 C 124.90221 374.30152 122.79029 376.68827 124.33107 377.51052 C 125.45769 378.98401 124.24179 380.9216 123.91162 382.60385 C 123.44499 384.27133 123.88712 386.72228 122.35368 387.81697 C 120.56958 387.46763 121.04807 388.85824 122.11399 389.49471 C 123.21554 390.85071 126.29172 393.22872 123.79178 394.70783 C 121.36948 395.5048 123.21752 397.70814 122.05407 399.32175 C 122.28998 401.1643 121.10972 401.74596 120.01676 402.91703 C 119.01038 404.43817 117.10577 405.07225 117.2604 407.11151 C 115.99345 407.19015 115.57446 407.78749 116.78103 408.60949 C 118.65785 410.41696 116.86366 413.96246 114.20443 413.22341 L 112.64649 414.96111 C 112.88459 415.32707 113.17903 415.59301 113.5453 415.80005 C 113.54867 415.80528 113.60188 415.79475 113.60522 415.80005 C 113.61631 415.80607 113.59404 415.85399 113.60522 415.85995 C 114.15653 416.76594 114.32615 418.00445 115.22309 418.6762 C 116.84187 418.84253 115.37691 420.2346 115.28301 421.07307 C 116.27332 423.54375 112.86038 423.93366 112.58656 426.40606 C 111.30468 428.02926 111.01048 430.14027 109.5306 431.61918 C 107.33237 432.7469 107.50101 435.46227 105.99526 437.012 C 104.81155 438.91704 101.72224 437.49306 101.20159 439.76842 C 100.47331 441.92556 97.084531 440.76733 96.587675 443.4236 C 95.377754 445.24477 94.187404 447.66991 95.269417 449.83512 C 96.961719 450.74813 96.002578 452.41739 95.329337 453.72997 C 94.344118 456.17358 96.638045 453.60819 97.306725 454.98835 C 98.213882 456.44336 100.02602 458.23111 98.864672 460.0217 C 100.47117 461.29477 100.60474 463.10614 98.924592 464.33598 C 101.20632 463.68635 103.40306 467.02124 100.72222 468.17093 C 98.066256 467.71801 97.535538 471.28496 99.763482 472.36542 C 101.99141 473.44581 97.568136 474.23252 100.12301 473.86339 C 102.67786 473.49426 108.80759 476.09738 109.29091 472.42532 C 110.34941 469.43745 112.51341 469.61688 114.80364 470.92728 C 116.93201 475.3425 120.96137 472.82 124.87036 473.50386 C 126.18628 476.6852 124.49219 484.35192 128.46561 483.99007 C 129.2986 485.38055 131.04363 484.56405 132.48032 484.16983 C 134.36245 483.6533 135.37777 486.64177 134.27795 489.02342 C 136.94915 491.27296 141.66195 486.62674 140.98909 483.2111 C 145.62685 481.62781 139.8598 478.00492 144.40458 474.40269 C 142.14695 470.92926 145.32386 471.36796 147.46055 470.20821 C 148.31451 467.48469 149.45804 468.18596 151.53517 468.65027 C 153.05933 468.99101 155.60748 469.04945 157.16774 468.3507 C 164.42658 462.02138 164.19128 465.95429 164.7777 462.11888 C 161.75007 459.80963 168.00463 458.83978 169.51145 459.6022 C 170.84154 459.28933 173.16379 457.80578 173.76584 457.80459 C 174.56763 457.803 174.14901 459.38901 176.2226 459.18276 C 177.67263 458.78709 178.89731 458.29074 179.63809 458.64346 C 180.77396 459.18429 180.75536 461.30648 179.57817 463.07761 C 179.39112 467.28295 186.15513 469.63548 183.53296 474.16303 C 187.88043 476.63317 183.60239 480.75942 186.16947 483.3309 C 189.01774 484.99924 187.14245 485.60844 185.86987 487.88492 C 184.43929 489.99195 193.65704 495.74292 193.00046 490.16193 C 197.06212 488.11499 200.86444 489.79279 203.24694 493.2179 C 205.61864 496.31737 207.70661 499.64975 209.77833 503.16475 C 211.93247 502.52749 213.43645 505.78157 215.11129 503.82385 C 219.53516 505.69188 223.43936 501.27931 227.75461 501.36714 C 229.03125 501.4144 229.23125 499.45277 228.11413 497.29252 C 227.5066 496.11768 226.97563 494.36084 226.97563 493.39761 C 226.97563 492.43443 226.42641 491.26601 225.71729 490.76113 C 222.42406 488.41641 223.59216 482.06789 227.75461 479.91545 C 229.74141 478.88794 229.93981 478.58315 229.61215 476.1404 C 229.29224 473.75524 229.55241 473.16226 231.82923 470.98718 C 235.02847 467.93094 236.86211 466.97253 239.55903 466.97253 C 242.25988 466.97253 243.01722 465.64592 242.61499 461.45977 C 242.37742 458.98711 242.69597 457.35848 243.81341 455.16805 C 244.90868 453.02123 245.23487 451.15962 245.13168 448.21722 C 245.02171 445.08241 245.40965 443.39831 246.80946 440.66719 C 247.79962 438.73535 249.01336 435.78289 249.5059 434.13586 C 250.341 431.34318 250.27629 431.04738 248.78685 429.46197 C 247.521 428.11451 247.25207 427.2129 247.52851 425.08779 C 247.96393 421.74032 249.55332 417.57429 251.00393 415.91985 C 252.88065 413.77939 253.61888 407.00985 252.26227 404.47497 C 251.77018 403.55555 251.95928 402.77817 252.98132 401.47889 C 253.75853 400.49083 254.18125 399.17137 253.94005 398.54278 C 253.63069 397.73661 254.12097 397.20703 255.61784 396.68527 C 256.76698 396.28463 258.0174 395.20305 258.43412 394.28839 C 258.85087 393.37374 260.10508 392.22683 261.19048 391.71182 C 263.22448 390.74673 267.72189 382.93611 267.72187 380.38674 C 267.72187 378.5426 269.5919 378.12191 271.67665 379.48797 C 273.65623 380.78499 275.45167 380.50283 275.45167 378.8887 C 275.45167 378.32332 276.44093 377.20361 277.60882 376.37202 C 279.88735 374.74961 282.4624 370.296 282.46242 368.04302 C 282.46242 367.28457 283.26642 365.68857 284.26005 364.5077 C 285.25368 363.32684 285.9125 362.09812 285.69815 361.75136 C 285.4838 361.40453 286.01888 359.99856 286.89656 358.69538 C 288.00675 357.04709 289.06285 356.34755 290.37198 356.2985 C 292.7019 356.21113 293.76625 355.33394 295.22558 352.34375 C 296.69846 349.32577 299.81351 338.92289 300.31886 335.32622 C 300.55217 333.66568 301.30961 332.08517 302.17641 331.43137 C 303.48742 330.44251 303.55708 329.85728 303.13514 325.73884 C 302.67173 321.2156 302.71581 321.13287 304.93277 319.26742 C 306.16741 318.22846 307.40107 317.34994 307.68913 317.34994 C 308.23558 317.34994 310.55914 313.92357 311.52407 311.95705 C 311.91691 311.67966 312.00344 311.07053 312.00344 310.81855 C 312.00344 310.3645 311.33885 308.7863 310.56534 307.34313 L 309.18716 304.70659 L 310.92486 304.70659 C 311.89156 304.70659 312.66255 304.43389 312.66257 304.04749 C 312.66257 303.66108 313.34812 302.6429 314.16059 301.83038 C 314.97307 301.01792 315.99434 298.89208 316.43759 297.09666 C 317.10197 294.40538 317.74281 293.58127 319.913 292.42284 C 323.0059 290.7719 323.17595 289.87657 320.7519 288.28825 C 319.10768 287.21091 319.00186 286.82079 319.43363 283.43467 C 319.79293 280.61683 320.38487 279.3169 322.07016 277.68224 C 323.27362 276.51488 324.61992 274.95985 325.00628 274.2668 C 325.43497 273.49782 326.80803 272.88796 328.60154 272.64889 C 331.50392 272.26202 331.58257 272.27201 333.69482 275.70487 C 335.26724 278.2604 336.50987 279.40718 338.30873 279.95925 C 340.62576 280.67038 340.82265 280.54469 342.5032 278.34141 C 344.15076 276.18136 344.46439 276.11345 346.39806 276.84337 C 348.31623 277.56741 348.65626 277.39843 350.8322 275.16557 C 353.50569 272.42213 359.90809 269.95245 364.31442 269.95245 C 367.11829 269.95245 367.154 269.94007 367.19062 267.1362 C 367.23992 263.36334 367.9839 261.34731 369.7073 260.42504 C 370.84336 259.81703 371.66421 258.585 371.32517 256.88972 L 361.79774 242.2091 L 343.40201 213.74661 L 345.43932 195.53067 L 353.1092 189.53858 L 360.83901 183.84605 L 351.6711 135.78946 C 350.43959 132.06458 347.80424 132.92436 348.91474 127.40055 C 349.48585 124.55988 350.22673 124.61244 348.13577 122.12753 C 347.01817 120.79933 346.04714 118.45977 345.55916 115.8358 L 344.78019 111.58142 L 347.05719 109.30441 C 349.91861 106.41218 350.86812 104.16012 349.93339 102.41355 C 347.51309 101.72817 348.56583 98.371232 349.03458 96.181723 z" stroke-linecap="round"/>
  </g>
</svg>