<?xml version="1.0" encoding="utf-8"?>
<svg viewBox="159.5512 145.0391 298.7722 203.3117" xmlns="http://www.w3.org/2000/svg">
  <g transform="matrix(1, 0, 0, 1, 308.940007044971, 246.69000611737374)" id="path3216">
    <path style="stroke: rgb(215,151,106); stroke-width: 2; stroke-dasharray: none; stroke-linecap: butt; stroke-dashoffset: 0; stroke-linejoin: miter; stroke-miterlimit: 4; fill: rgb(253,249,210); fill-rule: evenodd; opacity: 1;" transform=" translate(-242.94, -279.49)" d="M 330.02324 177.83904 C 329.88024 178.62164 329.60042 176.68148 328.41083 179.34403 C 326.87273 180.50575 327.23101 178.69775 325.93848 179.45149 L 325.40101 179.88143 C 325.78472 180.7659 325.48721 179.72898 323.8961 179.77398 C 322.305 179.8191 319.55165 179.51917 320.24132 181.81637 C 319.45636 183.04042 318.35455 185.26721 316.80152 184.07367 C 315.72318 185.67246 314.75588 182.40851 313.14675 183.42869 C 312.06142 183.75866 311.61346 183.46218 311.10437 184.93368 C 309.92517 185.6993 308.68849 186.84819 307.55708 185.47108 C 305.19686 185.52641 305.01249 185.77552 304.11729 187.19098 C 303.86089 187.59635 303.29534 187.19182 302.93486 187.40602 C 302.13658 188.01419 303.11296 189.34796 301.64494 189.55586 C 300.04288 189.63091 299.96328 190.7006 300.03253 191.81329 C 298.64935 192.8647 296.80772 195.19859 295.5178 192.78063 C 294.4981 191.55776 292.99306 190.81364 292.93795 189.23337 C 292.13989 187.89818 289.85197 186.86303 288.96069 189.23337 C 288.07326 189.87669 288.37262 190.21117 287.45578 190.3083 C 286.94725 191.41825 284.64856 189.87954 284.66095 191.92074 C 282.39908 194.48629 281.83488 195.29678 280.3612 193.96313 C 278.73113 193.70298 276.5183 190.795 275.73899 193.53307 C 275.87609 195.45173 274.22313 195.82587 272.83666 196.32801 C 273.04989 196.99923 272.83026 197.35188 273.26663 197.61785 C 273.70297 197.88394 274.35922 198.71676 274.77154 199.01526 C 277.83533 199.45613 276.39805 200.75036 276.81392 202.56264 C 277.14486 202.89653 277.26467 203.21842 277.35138 203.52999 C 277.60577 204.44438 276.91997 205.24858 275.95397 205.78741 C 275.54078 206.01788 277.11277 208.8748 274.34156 210.19468 C 274.18324 210.26996 274.09958 210.345 273.91159 210.40959 C 270.96631 208.9312 268.18637 209.72852 265.5271 211.48452 C 261.60336 211.62617 266.43183 218.6194 262.1948 218.14921 C 256.98509 216.95008 255.60308 223.51159 258.21753 226.85617 C 258.53571 227.45698 259.91002 229.40877 260.3674 229.65099 C 260.70928 229.83207 260.67365 229.93121 260.4749 230.08094 C 259.9475 230.47811 257.90135 230.98215 256.49763 232.44582 C 255.68437 232.06812 252.83316 235.68662 252.0904 235.56313 C 252.66189 235.58854 253.26358 235.45615 253.5953 235.88562 C 253.26423 235.45627 252.66312 235.58973 252.0904 235.56313 C 251.73648 235.50495 249.84084 234.89275 248.00564 234.70312 C 244.84568 235.07797 244.07802 233.63485 243.16843 233.41329 C 243.03342 233.3804 241.86375 235.28351 239.29867 236.10054 C 237.00894 240.04568 234.08073 232.77424 230.59168 233.84323 C 226.78136 233.81877 219.4223 233.22628 217.90744 228.89856 C 213.25918 227.92017 215.50172 223.32743 212.31778 221.37398 C 210.38492 220.95068 208.54085 221.12154 208.87799 216.53676 C 208.1944 211.58319 205.87239 215.31556 203.7183 210.83954 C 203.67092 212.78623 202.74201 213.29857 201.35343 213.52691 C 199.99667 213.65989 199.37954 215.21807 197.69865 214.60183 C 196.86794 215.41233 198.86151 217.52703 196.62372 216.96671 C 194.90523 216.53154 192.60687 215.50803 191.35654 217.50423 C 191.36995 219.34548 188.66975 216.54234 188.02424 215.89178 C 186.89756 214.81734 186.43398 212.36269 187.27178 211.59209 C 184.96756 211.70833 183.2529 210.04151 182.00459 208.3672 C 181.68221 209.01372 180.87015 209.04376 179.96222 208.79727 C 178.9032 208.50969 177.69662 207.88727 177.05989 207.50731 C 174.51272 206.88857 171.64434 206.93251 169.32036 208.15229 C 167.54005 207.36364 166.73298 204.37254 164.59063 203.52999 C 164.3936 205.33752 164.03183 207.2341 162.65575 208.47478 C 163.98633 209.29798 164.80442 211.18874 162.54825 211.37706 C 161.071 213.54828 160.21332 208.59031 158.67848 208.04471 C 157.43094 206.03308 154.82031 207.65419 153.94877 206.32481 C 153.01852 204.90579 150.51926 205.55267 149.64903 205.57238 C 149.09295 204.66725 149.22538 203.20215 149.86402 202.34761 C 148.74202 200.93701 146.28099 202.14635 144.70432 201.05765 C 144.63571 200.97988 144.56278 200.88715 144.38185 200.84274 C 142.38074 200.62533 145.40356 198.66784 143.19942 197.94034 C 140.50829 197.7354 140.90799 198.77862 139.86711 199.23029 C 138.9133 199.64421 140.04591 197.49591 139.11466 196.32801 C 138.14109 195.10704 138.23022 196.88263 135.67486 196.65038 C 134.98856 196.58805 136.59949 193.28621 136.10484 193.2107 C 134.4912 192.9642 133.22797 198.26437 131.91259 194.82302 C 131.30395 193.23065 129.15663 193.53841 128.15031 192.13566 C 127.606 191.37705 127.58482 190.30094 125.14049 193.2107 C 124.37621 194.12034 123.86588 192.83193 123.09811 192.35069 C 123.89449 191.12996 125.64277 190.33644 124.38805 188.15845 C 123.56882 187.28704 124.6946 190.76923 123.09811 190.63079 C 122.1822 192.53378 120.61761 192.99947 121.27073 195.57546 C 121.23784 197.87278 119.64518 198.7462 118.3684 199.7677 C 117.67638 200.51146 118.60052 202.23599 116.21853 201.4876 C 116.67193 201.59921 115.43584 203.06264 116.21853 203.42253 C 116.85152 205.43346 115.788 205.84785 116.11104 207.29228 C 114.39186 210.67402 112.25344 211.66891 112.34876 212.12949 C 111.29036 214.68209 110.0207 214.75844 108.3715 215.24681 C 108.29565 218.44676 108.4621 220.41268 107.83403 221.26652 C 107.40155 220.80214 107.29315 222.91067 106.86659 223.52382 C 106.44002 224.1371 104.46389 225.30048 104.71672 224.38383 C 105.0329 223.23755 103.90228 225.01813 102.78183 225.8887 C 103.75066 227.32375 102.38182 229.20015 102.35185 230.94083 C 101.53446 232.07536 99.980218 231.90901 98.697078 232.01587 C 97.283114 232.12618 98.976323 233.9514 99.772014 234.59567 C 99.720897 234.89239 99.734137 239.15907 100.20198 239.54034 C 99.734137 239.15907 98.833186 239.72343 99.664521 240.72284 C 100.49584 241.72212 100.04967 242.59258 100.30948 244.05506 C 100.70454 244.35369 101.0782 245.39014 100.95444 245.66751 C 101.18205 246.42434 101.53553 247.08641 102.24436 247.49487 C 102.09556 248.51303 103.31287 248.37957 102.56685 249.4298 C 102.4965 251.01327 103.53301 252.90142 103.2118 254.15944 C 103.53096 255.81522 103.87042 255.68164 102.99682 257.06184 C 103.05341 258.78328 105.42896 261.1427 103.96426 262.86652 C 104.05913 265.38231 104.79569 267.41734 104.39423 269.96104 C 104.47215 271.22535 105.03737 273.35168 103.85677 273.18581 C 103.41341 273.12359 102.36803 274.71633 101.7069 275.98063 C 100.83436 276.4969 98.693813 275.67797 98.589586 276.73319 C 98.441533 278.23236 97.620041 277.94205 97.084669 278.34551 C 96.564923 279.34718 97.466313 280.99773 96.6547 281.89289 C 96.114994 282.488 96.046614 283.4614 95.579765 284.15019 C 94.362357 283.92887 93.680037 283.58513 93.859863 284.04274 C 94.149534 284.77997 94.256195 285.73248 94.289845 285.8701 C 97.566824 290.97744 94.986224 289.74507 97.084669 292.10472 C 97.562122 294.30088 97.938529 297.64106 96.547208 299.09178 C 95.243799 301.29447 94.526048 302.44645 94.182352 304.14403 C 94.306385 305.11922 93.927116 305.6825 93.859863 305.97139 C 93.843525 306.04168 93.823578 306.14795 93.859863 306.18642 C 93.060872 308.1489 93.96732 309.5063 94.827306 310.91606 C 95.846625 314.85705 95.75781 313.97496 94.934799 316.2908 C 94.137387 317.50785 95.369518 318.78415 95.257288 320.80552 C 96.285025 323.19451 94.750567 322.14487 94.397337 323.1704 C 94.489869 324.44373 94.724872 325.89505 93.967356 325.96523 C 93.603262 325.99895 95.046874 326.49266 94.504829 327.25518 C 94.059104 327.88211 95.668722 328.98292 95.902242 329.61994 C 97.097742 331.6748 97.913796 330.69249 98.804571 330.15746 C 99.553728 330.66126 99.224982 331.91904 99.557029 332.73726 C 99.991202 333.80743 102.11723 331.61733 102.67434 331.66233 C 104.41289 331.80256 103.09444 332.24082 106.00664 333.91976 C 105.14012 334.90848 105.2084 335.26884 104.93171 336.49955 C 105.76713 338.67718 105.4303 338.44529 105.57666 339.5094 C 106.27102 339.98696 106.99004 340.4986 107.72654 340.90682 C 108.4245 341.10891 109.15244 341.12339 109.87641 341.22931 C 110.80312 340.79829 111.12227 342.63337 112.02628 343.59418 C 112.29627 343.99551 112.76147 344.22765 113.10122 344.45408 C 113.03524 345.75365 113.1439 346.31824 113.10122 347.57139 C 113.73029 348.20069 114.2628 348.80257 114.60612 349.61378 C 115.54319 350.53102 116.61668 351.25793 117.72344 351.97866 C 118.69349 352.28156 120.16969 351.87868 121.16323 351.8712 C 121.42452 352.28607 121.55629 352.45919 122.13067 352.62364 C 123.47821 352.66163 125.03197 352.34259 126.32292 352.73109 C 126.95822 353.1684 127.41682 353.54408 127.39785 354.34354 C 127.11456 354.72124 127.92483 355.54325 128.15031 355.63337 C 130.27962 355.13979 130.85547 355.387 132.02008 355.84841 C 132.68072 355.72694 133.85191 354.84817 134.92241 353.80602 C 133.85191 354.84817 135.72856 353.47712 135.99735 354.34354 C 136.26617 355.20984 139.20158 356.16947 137.39476 356.60084 C 138.65458 356.85945 139.54113 357.51879 138.89967 359.18075 C 138.25763 360.25829 140.02046 361.14347 140.72706 361.868 C 141.98513 362.35648 140.79366 363.55026 140.61957 363.48045 C 142.04863 363.70189 143.4028 364.37394 144.38185 365.41538 C 144.28979 366.65309 146.06902 366.82752 146.20923 368.2102 C 146.84759 368.96988 147.6557 369.46775 147.92913 370.46751 C 148.88381 370.79475 147.48598 373.12733 149.00406 372.61735 C 150.26248 372.06998 151.85785 372.50218 152.22887 370.79 C 153.91131 370.65428 153.55949 368.44887 154.27125 367.35019 C 154.63958 365.60441 151.97261 365.83986 151.58392 364.98532 C 152.17821 364.01547 152.03978 362.00122 153.51879 362.08303 C 154.6971 361.25912 154.69824 359.83523 155.34618 358.75069 C 156.05857 357.01405 157.29559 359.14763 158.57099 358.64323 C 160.08419 358.84176 161.73006 359.29082 162.87073 360.36313 C 163.54761 361.17684 161.87099 362.41467 163.5157 362.51298 C 165.10247 363.08149 165.55925 361.00728 166.848 360.57817 C 167.77027 359.80412 169.32355 360.65558 168.03042 361.65309 C 169.16666 361.87845 169.90663 361.33262 170.71777 360.68562 C 170.71777 360.68574 171.40549 359.97047 171.9002 361.54551 C 172.19313 362.47807 173.33989 361.45848 172.97513 361.00811 C 172.63407 360.58707 173.29761 360.04064 173.29761 360.04064 C 173.49492 360.05644 174.18322 361.89864 176.19994 361.3306 C 177.22067 361.04314 177.35251 362.39864 179.42474 363.48045 C 180.05065 363.80733 181.26954 363.38011 182.11209 364.12542 C 182.88243 364.80674 183.91849 365.5955 184.69193 364.98532 C 185.31136 364.87976 185.37501 364.0904 185.44439 363.48045 C 185.52395 362.90505 185.73254 362.60678 186.19684 362.29807 C 186.87489 362.05691 187.37287 361.93248 187.91673 361.43806 C 188.1052 362.1956 188.27478 361.76434 188.88418 362.40552 C 189.01819 363.23799 189.33617 363.18978 189.74413 363.80294 C 190.0606 364.47914 190.20097 364.99434 190.06662 365.3078 C 190.46318 365.60536 190.45506 365.73787 190.81906 365.73787 C 191.09018 365.09776 191.08434 364.90707 191.7865 364.66283 C 192.5324 364.21483 193.54978 364.09657 194.15136 364.7704 C 195.11688 364.99743 195.15483 365.74297 195.76377 366.27527 C 196.50577 366.81707 197.2455 366.87038 198.12862 366.81279 L 198.55861 365.20035 C 198.50622 365.06926 198.07954 364.61391 198.02113 364.55537 C 197.48267 363.91229 197.00732 364.69394 196.40873 364.12542 C 196.20076 363.84817 196.09295 363.34616 195.87126 363.0505 C 195.35736 362.5131 195.60413 361.35245 195.65628 360.68562 C 194.6272 359.44613 194.98648 359.22385 195.44129 358.96572 C 195.95512 358.57591 196.22257 357.97154 196.40873 357.35328 C 196.51364 356.83214 196.31173 356.32205 196.08625 355.84841 C 195.69332 355.22338 195.92609 355.38985 196.40873 354.98852 C 196.68677 354.48436 196.32119 354.0708 196.73121 353.48353 C 197.20735 353.36455 197.2187 353.0461 197.37618 352.73109 C 198.38366 352.86099 198.87947 353.20141 199.09607 352.08612 C 199.22323 351.57733 199.58435 351.78049 199.84853 351.97866 C 200.6599 352.59906 201.25258 352.67778 202.10589 352.19357 C 202.8365 351.56795 203.89052 351.40136 204.57824 350.79616 C 205.74148 349.99849 205.58129 348.59276 205.97566 347.46393 C 206.36222 347.23204 206.80967 346.38901 207.26558 346.38901 C 208.00489 346.57626 208.9387 346.46073 209.63044 346.17398 C 210.23763 345.92226 210.68856 345.50157 210.70537 345.20651 C 211.16658 345.75092 211.69377 346.16329 212.31778 346.49647 C 212.61752 346.61627 212.89009 346.8509 212.96275 347.14144 C 213.57141 348.57483 212.73393 349.71281 212.96275 351.11865 C 213.74116 351.62138 214.7513 351.48198 215.65008 351.65617 C 216.42888 352.06569 216.34323 351.38937 217.15499 351.33368 C 218.70324 351.31884 218.28981 351.73192 218.55241 352.19357 C 219.59559 351.87275 219.63013 353.22171 220.91726 352.83855 C 221.02448 352.91098 221.46612 351.612 223.06713 350.58125 C 223.86159 349.80257 223.71299 348.81824 224.03458 347.78642 C 224.28361 347.29735 224.91933 347.52579 225.43199 347.35648 C 226.04878 347.00834 226.68058 346.99837 227.36687 347.03399 C 228.14589 347.09787 229.05829 347.03221 229.62424 346.49647 C 229.56714 345.26398 230.69268 344.68419 231.55912 344.88402 C 232.4176 345.04455 235.75048 350.13836 237.1488 351.01119 C 238.3791 350.86633 239.33254 350.44969 240.26611 350.04373 C 241.66548 349.80174 241.3407 348.66389 242.52347 348.00134 C 243.14099 347.19618 243.77666 346.48091 244.13587 345.529 C 244.29025 345.39637 246.85208 348.20865 247.0382 347.46393 C 248.15221 348.85838 248.37986 350.74605 248.86559 351.11865 C 251.97375 350.62815 251.78089 352.7977 252.0904 352.51606 C 253.05131 351.6418 255.10338 354.66341 256.06766 357.03079 C 257.50339 360.55549 258.82723 358.61628 262.30229 356.92333 C 264.24002 355.97925 265.60026 356.8756 266.81702 355.52592 C 267.81903 354.41442 268.61654 355.40956 269.18187 355.63337 C 269.89629 355.91621 271.52407 355.07472 271.65423 355.41846 C 272.51029 356.42286 273.63503 356.91288 274.87904 357.35328 C 276.95973 358.52996 276.36272 357.83107 278.31883 357.99825 C 278.86167 358.0448 278.74694 357.14287 278.64132 356.27835 C 278.58435 355.81207 278.49571 355.2742 278.53381 355.20343 C 279.66782 355.08232 282.36338 356.8807 282.1886 356.81587 C 281.83189 356.68348 282.80786 355.97735 283.801 356.1709 C 284.48074 356.30329 285.04958 356.98674 286.05837 357.8908 C 286.55322 358.33428 287.06901 359.16698 287.88575 359.39567 C 288.53478 359.57745 288.06532 360.37489 288.53072 360.90065 C 289.77004 362.3008 291.38062 362.98294 292.18551 362.94304 C 292.82743 362.91134 293.52069 364.80579 293.7979 366.16781 C 293.97522 367.0391 294.84683 366.70557 294.98033 367.02771 C 295.59561 368.51322 296.26891 367.99517 297.23769 367.99517 C 298.05826 367.99517 299.62396 371.2691 300.24751 373.58482 C 300.78918 375.59646 300.25061 374.2729 304.43976 376.59468 C 306.68008 377.83631 306.32143 379.12021 307.01961 378.42204 C 307.43524 378.00646 307.59677 377.34486 307.77206 376.48722 C 307.28341 373.43711 308.1986 373.58482 311.31936 373.47736 C 314.14769 373.03828 314.1029 373.93225 314.32918 372.61735 C 314.93217 370.8521 313.04307 369.69263 316.80152 370.14502 C 317.6249 370.24405 317.88025 369.008 318.19894 368.96264 C 318.77297 368.87703 317.97394 371.60275 318.9514 371.9725 C 318.9514 372.36706 320.46319 371.87691 321.10127 372.29498 C 321.0118 372.38226 320.00631 374.08126 320.77879 374.76732 C 320.77882 375.69074 323.87003 375.84224 325.18602 375.84224 C 325.9296 375.84224 325.55553 376.85412 326.47594 377.88463 C 327.13103 378.61795 327.5835 379.48152 328.62581 379.49696 C 330.83915 379.52997 330.6177 377.77848 330.99068 378.09955 C 331.18276 378.26495 330.98328 379.41016 332.2806 379.3895 C 332.1794 378.84723 334.08945 378.41634 336.15037 378.31458 C 337.11825 377.00919 337.41636 378.00563 338.9452 378.95956 C 340.07779 379.65951 340.29147 380.87953 341.20257 380.67946 C 341.92055 380.52166 341.86985 379.46324 342.49249 379.71199 C 343.235 379.62579 346.57604 381.44484 347.11471 381.1094 C 347.29451 380.92964 347.07223 380.34142 347.75968 380.24939 C 348.86192 381.09064 350.12023 379.02201 350.23202 378.52961 C 351.06556 377.26447 350.37984 375.14229 350.33952 371.11249 C 350.08828 369.21852 351.59625 369.71199 352.2744 368.96264 C 353.35354 366.79748 351.98246 365.82906 355.71419 361.97558 C 356.07995 361.03922 355.69841 358.64798 356.46665 358.10583 C 357.65531 357.26684 357.21911 355.34069 357.21911 354.45099 C 357.21907 353.72955 357.96193 353.11069 358.72401 351.54871 C 360.5338 347.83914 361.00797 345.60772 360.22893 344.66911 C 358.85386 344.29212 355.16431 342.76718 354.42427 341.76671 C 353.85802 341.47509 352.70145 341.58528 352.38189 341.12185 C 351.79988 340.27763 352.28459 338.64156 352.2744 337.35956 C 352.2744 336.1222 355.29726 334.26694 357.3266 333.59727 C 358.64858 333.16091 357.16225 333.79686 357.97157 331.55488 C 360.63558 327.67729 358.8084 328.81799 359.69146 327.25518 L 359.90644 327.04015 L 364.09869 324.35278 L 364.20619 321.12801 C 362.66499 315.91606 363.9288 317.05178 363.66872 315.53836 C 363.50991 314.61447 365.11884 307.62717 365.49611 309.73368 C 365.52618 309.90146 367.08568 305.44942 367.75348 305.21896 C 368.26796 305.04121 369.55676 305.80943 369.68836 304.78901 C 369.98859 302.46118 371.85419 299.54951 372.59069 298.87687 C 373.32711 297.70589 373.66563 296.39444 373.66563 296.08205 C 373.66566 295.76953 374.81228 293.54369 375.49301 292.10472 C 376.17372 290.66587 376.62426 288.3657 376.78294 287.59 C 376.92235 286.60282 377.84484 289.06851 380.11524 287.26751 C 381.50522 287.04155 381.768 285.1591 384.30749 282.53775 C 385.68141 283.44086 386.19621 281.53763 386.34987 280.92542 C 387.51761 280.27202 385.84497 279.22595 386.77984 278.34551 C 387.5014 277.87793 388.3142 277.8746 389.0372 277.48562 C 391.67845 276.06446 392.77399 275.54736 392.15451 272.43337 C 391.8394 270.84955 389.33048 269.85073 390.54212 265.66135 C 391.52238 262.27189 390.3069 258.33422 390.43462 257.59924 C 390.66564 256.26963 386.93467 255.27734 390.43462 254.48193 L 390.64961 254.37447 C 389.65919 253.35987 388.63021 252.37934 387.63979 251.36461 C 386.69144 248.73412 386.39148 246.78838 386.99482 246.09745 C 386.72188 245.07751 386.50421 244.00033 386.99482 242.98014 C 383.82207 240.4514 386.54775 240.0819 384.52247 239.9704 L 384.41498 238.7879 L 382.69508 237.82044 L 381.83514 238.7879 C 380.38798 238.84062 378.84083 239.12618 377.75038 238.46541 C 377.60119 237.08451 377.7272 235.504 374.95555 236.74551 L 372.80568 234.91815 C 372.85507 233.40117 371.9901 230.85582 370.44082 231.47835 C 369.4936 231.29847 369.60151 230.98346 369.58087 230.61846 C 371.3017 230.09816 370.28 228.52988 370.01084 227.28612 C 371.08839 225.89298 375.37077 223.46588 371.94573 223.63128 C 371.04539 223.75477 370.79161 222.95852 370.65581 222.12641 C 369.41376 221.39974 369.42569 220.15704 370.65581 219.33159 L 369.0434 216.32173 L 368.72092 213.31199 L 369.0434 211.16203 L 367.32351 209.11964 L 364.85115 209.01218 L 363.45374 208.68969 L 358.83151 209.11964 C 359.13594 211.1511 357.41387 211.67438 357.75657 213.74194 C 357.67327 213.77875 357.61733 213.80594 357.54159 213.84939 C 356.63259 214.3716 356.30512 215.31686 355.71419 215.5693 C 355.66494 215.59019 355.55163 215.66618 355.49921 215.67675 C 355.39443 215.69777 355.29911 215.70561 355.17673 215.67675 C 353.94081 214.8488 353.04984 214.47537 352.16691 213.52691 C 351.47427 213.72662 351.03705 214.09554 350.66201 214.27934 C 350.56826 214.32529 350.42231 214.36234 350.33952 214.38692 C 350.0912 214.46089 349.908 214.32838 349.69456 214.06443 L 349.37207 214.81686 L 348.51213 214.27934 C 347.99922 212.80784 347.28216 213.23196 346.57725 214.06443 C 344.27485 213.4787 344.02505 212.54234 344.42738 211.37706 C 342.38221 210.57487 345.60003 210.59696 344.42738 208.58223 L 345.39482 207.50731 C 347.42219 206.83099 347.11361 206.10004 346.36225 205.24989 C 346.34348 205.25036 346.27344 205.24929 346.25476 205.24989 C 346.21666 205.19919 346.1957 205.08579 346.14727 205.03497 C 347.01327 204.4553 347.21966 203.74502 346.14727 202.77755 L 345.93228 200.19776 L 343.9974 200.09018 L 342.70748 198.80035 C 342.67741 197.50315 344.19533 195.46456 341.52505 195.57546 L 340.12762 194.17805 C 340.13864 193.37147 339.86277 192.75 339.37518 192.24323 C 339.1582 192.01763 338.91658 191.7779 338.62272 191.59825 C 338.4456 189.86767 337.57045 189.205 339.05269 189.44841 C 338.62874 188.12568 339.4317 188.03876 339.91264 187.62093 C 339.01867 186.49388 339.23507 185.91991 339.48267 185.36363 C 339.20886 184.98581 338.85556 184.97085 338.9452 183.32124 C 337.1465 182.81067 337.09517 182.02594 336.36536 183.42869 C 334.19322 182.31162 333.28567 181.21366 333.24804 180.09647 C 332.85109 179.91421 332.58819 179.74109 332.38809 179.55894 C 332.25473 179.4376 332.13905 179.25047 332.06562 179.129 C 331.95544 178.94686 331.88795 178.77362 331.85063 178.59148 C 330.73909 178.63019 330.16326 178.38333 330.02324 177.83904 z" stroke-linecap="round"/>
  </g>
</svg>