<?xml version="1.0" encoding="UTF-8" standalone="no" ?>
<!DOCTYPE svg PUBLIC "-//W3C//DTD SVG 1.1//EN" "http://www.w3.org/Graphics/SVG/1.1/DTD/svg11.dtd">
<svg xmlns="http://www.w3.org/2000/svg" xmlns:xlink="http://www.w3.org/1999/xlink" version="1.1" width="640" height="480" viewBox="0 0 640 480" xml:space="preserve">
<desc>Created with Fabric.js 3.6.6</desc>
<defs>
</defs>
<g transform="matrix(1 0 0 1 299.32 242.43)" id="path5458"  >
<path style="stroke: rgb(215,151,106); stroke-width: 2; stroke-dasharray: none; stroke-linecap: butt; stroke-dashoffset: 0; stroke-linejoin: miter; stroke-miterlimit: 4; fill: rgb(253,249,210); fill-rule: evenodd; opacity: 1;"  transform=" translate(-226.18, -332.95)" d="m 369.78074 282.72892 c -0.16173 1.43462 0.7544 3.09021 1.64705 4.36464 c 0.51691 0.7381 1.39725 1.34975 0.90588 1.97642 c -0.42391 0.54061 -2.8577 2.25059 -3.62352 1.97651 c -1.3593 -0.4863 -1.81175 0.026 -1.81175 0.41171 c 0 0.91676 1.15824 1.74937 0.0823 2.3059 c -0.48135 0.24879 -1.87705 1.74509 -1.97645 2.14116 c -0.24404 0.97143 -1.01454 1.67359 -2.22352 1.56471 c -1.87076 -0.16838 -1.15149 1.10651 -1.23529 2.38822 c -0.0633 0.96624 0.12035 2.65302 0.65882 3.8706 c 0.41911 0.94805 0.98723 2.86216 0.98823 3.29407 c 1.13778 1.51504 1.12368 1.62847 0.98823 3.54112 c -0.24131 0.84117 -0.0148 2.47064 0.49411 3.29416 c 0.58814 0.95187 -1.05489 0.94368 3.04705 1.23541 c 1.39567 0.0993 1.5697 2.90272 2.14116 5.18806 c 0.26735 1.06913 1.11533 -0.082 1.31764 0.16474 c 0.20232 0.24661 0.94923 2.57307 1.48234 3.4588 c 0.89685 1.49021 -0.22486 0.2548 -0.3294 2.22358 c -0.046 0.86709 0.1929 1.737 -0.1647 2.80002 c -0.61798 1.83734 -0.98581 3.92419 -1.5647 4.19982 c -1.26341 0.60165 -0.22833 2.06374 0 2.47063 c 0.43294 0.7713 1.17963 3.56787 1.15293 4.52948 c -0.0352 1.26761 -0.44681 2.05892 -2.14117 2.96467 c -1.25534 0.67097 -1.29466 1.87608 -2.88233 1.31764 c -1.85384 -0.6525 -1.38187 1.19357 -2.05882 2.55287 c -0.44557 0.89411 -0.88867 0.76658 -0.90587 1.97642 c -0.004 0.27436 0.0879 0.89729 0.1647 1.40015 c 0.1992 1.305 0.50049 2.83842 0.0824 3.12942 c -1.86907 1.29836 -0.98171 2.60654 0.82353 4.03507 c 0.77427 0.61302 0.4237 1.20885 0.65882 2.22366 c 0.26851 1.15873 0.80534 1.9767 1.81176 2.96468 c 1.46555 1.43835 1.88374 1.57016 1.07058 3.12941 c -0.4193 0.80351 -1.44277 1.06967 -0.90588 1.64703 c 0.31974 0.34395 1.30249 1.73009 1.5647 2.38814 c 0.27203 0.68279 1.24359 1.61728 1.7294 1.89418 c 1.8045 1.0291 1.61738 2.50648 -0.65882 3.04691 c -0.8319 0.1974 -0.93005 0.85308 -1.4 1.31764 c -1.78379 1.76411 -2.05369 0.89238 -2.30587 1.153 c -0.53904 0.55653 -0.59093 0.8981 4.19999 0.41189 c 0.83082 -0.1178 1.3067 1.47993 2.55292 3.29406 c 1.92908 2.80794 0.82108 0.99535 0.90588 4.6118 c 0.0771 3.28724 0.32635 4.46962 1.15293 5.18807 c 0.46635 0.40525 2.24805 1.053 2.63529 1.1529 c 1.50192 0.38688 0.82352 0.6928 0.82352 1.89428 c 0 0.78049 1.08927 1.74318 1.5647 2.38804 c 0.67479 0.91521 -0.5527 1.40224 0.98823 5.43531 c 0.41181 1.07831 -0.80769 2.18009 -0.41177 2.30581 c 0.59453 0.18875 2.96469 1.45809 2.96469 1.89428 c 0 0.151 0.66006 1.70424 1.23529 1.894 c 0.5752 0.18994 1.64692 0.38842 1.89411 0.74128 c 0.47994 0.68516 0.65136 2.24468 0.24705 2.88217 c -0.39033 0.61457 -1.82 0.40989 -2.71763 0.41189 c -0.45313 0.00082 -1.50535 1.31874 -1.97645 1.56462 c -1.46527 0.76421 -0.63284 0.20786 -3.04705 -2.14116 c -2.04203 -1.98733 -3.11861 -2.55287 -4.11762 -2.55287 c -0.74819 0 -1.97167 0.39952 -2.63529 0.90575 c -0.94645 0.72181 -1.25625 1.83108 -2.14115 1.89428 c -1.21435 0.0864 -2.34394 -0.3776 -3.54117 -0.98826 c -0.69558 -0.3544 -2.62658 -0.35258 -3.04704 -0.24715 c -0.3856 0.0967 -1.54132 -0.37215 -3.21175 -0.57636 c -2.60476 -0.31939 -3.59328 0.20558 -3.87057 0.57636 c -1.29961 1.73344 -2.49932 2.10795 -3.04703 0.41189 c -0.39527 -1.22222 -0.0836 -2.07421 -2.05882 -1.97651 c -0.96862 0.048 -2.55912 0.50231 -2.88234 0.32948 c -0.33381 -0.17864 -1.76848 -0.27226 -2.55293 -0.16474 c -1.09487 0.15017 -0.72214 -0.85308 -1.8941 0.24697 c -0.81617 0.61057 -1.50894 1.70389 -2.38822 2.05893 c -0.28927 0.1167 -0.56493 0.1707 -0.90588 0.0822 l 0.1647 2.88244 c 0.12903 1.08887 0.69106 0.98107 0.41176 1.31765 c -0.21933 0.26434 -1.24448 1.73636 -1.5647 2.96467 c -0.85509 3.28015 -2.59012 3.09275 -2.55292 3.21165 c 0.36728 1.17082 -1.14893 0.14099 -2.05881 -0.16474 c -0.27575 -0.0925 -0.78303 1.07203 -1.31764 1.31764 c -0.53456 0.24561 -2.05884 1.08413 -2.05882 1.23541 c 0 0.44301 -0.38398 1.35612 -1.39998 1.56462 c -0.39135 0.08 -1.76474 -0.69071 -2.05882 -0.49413 c -0.3462 0.23078 0.29122 2.20811 0.32942 2.7177 c 0.0885 1.18038 -0.35158 0.56927 -1.89412 1.894 c -1.32446 1.13663 -1.43973 0.22005 -2.88233 -0.65877 c -1.45616 -0.88756 -2.52935 0.90575 -3.29411 2.63529 c -0.34487 0.78003 -1.23157 1.04829 -1.64705 1.48229 c -0.5885 0.61429 -0.9387 2.97895 -1.15293 4.69421 c -0.45197 3.61908 -1.45894 2.16435 -3.2941 0.32948 c -0.50231 -0.50232 -1.1557 -0.98826 -1.39999 -0.98826 c -0.76832 0 -2.67563 -1.64284 -3.04705 -2.88253 c -0.3615 -1.20639 -1.16565 -1.5648 -0.3294 -1.56452 c 0.21482 -0.00028 1.88117 -0.1521 2.14117 -0.4119 c 0.43083 -0.4309 0.15007 -1.97196 -0.32942 -2.80002 c -0.28935 -0.49986 -1.20293 -1.32474 -1.5647 -1.56453 c -0.56471 -0.37578 -1.48203 -1.07331 -1.15293 -1.89428 c 0.18228 -0.45483 1.08436 -0.21258 1.23528 -0.49403 c 0.1746 -0.3263 -0.24905 -1.92539 -0.24705 -2.47064 c 0.001 -0.293 0.33136 -0.37342 0.65882 -0.41162 c 0.2821 -0.0329 0.54874 -0.057 0.65882 -0.24716 c 0.23786 -0.41135 -0.10515 -2.10322 0 -2.3059 c 0.1096 -0.21104 -0.9442 -0.23087 -1.64705 -0.90574 c -1.2833 -1.23305 -1.0514 -1.40379 -0.49412 -2.79994 c 0.18479 -0.46302 0.68328 -1.73117 0.82353 -2.96476 c 0.14025 -1.2335 0.38871 -1.78931 0.49412 -2.63529 l -0.41177 -3.70596 l -1.39999 -0.74101 l -1.89411 -2.22366 c -1.36292 -1.37723 -2.57084 -0.93341 -3.4588 -1.81177 c -0.66347 -0.65614 -0.39835 -0.83698 -0.74117 -0.49413 c -0.16076 0.16074 -2.09874 1.15581 -3.04705 1.48238 c -0.94828 0.32621 -2.20886 0.4058 -2.63527 0.74128 c -0.42647 0.33521 -0.13046 0.57637 -0.41177 0.57637 c -0.28131 0 -1.7649 0.49885 -2.05882 0.82351 c -0.29391 0.32466 -1.2014 0.81672 -1.48234 0.90602 c -0.28094 0.0891 -0.72879 1.49312 -0.98823 1.89392 c -0.64649 0.99984 -0.67144 -0.54394 -2.55293 -0.0822 c -0.82926 0.20313 -0.8348 -1.42835 -1.81175 -2.3884 c -1.73159 -1.70161 -2.14232 -1.03383 -1.8941 -1.48229 c 0.49392 -0.89283 0.0788 -2.87626 -0.74118 -2.88226 c -0.5844 -0.004 -1.72866 -0.62221 -1.81176 -1.31765 c -0.18653 -1.56115 -1.3666 -0.86781 -1.23528 -2.14115 c 0.11919 -1.15582 -2.90182 -0.92868 -3.45881 -0.32939 c -0.69255 0.74474 -1.22256 1.76692 -1.48234 2.05865 c -0.5079 -0.26435 -1.17125 -1.39533 -2.55293 0.24725 l -2.05881 0.32938 l -1.81175 -1.23541 c -1.15218 -0.49012 -2.11625 -0.49412 -2.55294 -0.49412 c -0.51649 0 -1.03421 -0.16656 -1.64705 -0.82352 c -1.297 -1.39041 -1.05592 -1.35903 -2.05881 -3.21165 c -0.44641 -0.82488 -0.0669 -1.32874 -0.57647 -1.89427 c -0.24062 -0.26717 -0.89652 0.26071 -0.98822 -0.16465 c -0.30425 -1.4107 -1.53635 -1.61042 -2.05882 -1.56462 c -0.48955 0.043 -1.18643 -0.50331 -1.5647 -0.90593 c -0.37832 -0.40271 -0.86645 -0.7411 -1.07058 -0.7411 c -0.39437 0 -2.63526 -2.95257 -2.63528 -3.37657 c 0 -0.13808 -0.94785 -0.009 -1.56469 -0.32939 c -0.61682 -0.3202 -1.14739 -1.26497 -1.64705 -1.72926 c -0.63793 -0.59301 -1.20262 -1.39251 -2.71764 -0.74137 c -0.99239 0.42645 -2.01243 -0.26217 -3.70586 -0.49404 c -0.77462 -0.10625 -1.76996 0.5297 -2.14116 0.65878 c -0.54725 0.19002 -1.02378 -0.45775 -1.81176 -1.31765 c -1.56957 -1.71371 -2.18123 -1.82732 -4.03527 -2.05865 c -1.39531 -0.17447 -1.9198 -0.40216 -2.88234 -1.31764 c -0.64299 -0.61193 -1.15294 -1.36322 -1.15294 -1.64703 c 0 -0.28382 -0.51317 -1.12453 -1.15293 -1.89428 c -0.63977 -0.76948 -1.29168 -1.6987 -1.4 -2.05865 c -0.1083 -0.36005 -0.93952 -1.41989 -1.81175 -2.3059 c -0.39126 -0.39771 -0.72164 -0.77631 -1.07058 -1.23541 c -1.35245 -1.77957 -2.35802 -3.98823 -2.79999 -5.6822 c -0.40481 -1.55169 -0.0582 -1.72662 0.57647 -3.04718 c 0.27164 -0.56499 -0.90472 -1.2486 -1.48234 -2.3059 c -0.40902 -0.74892 0.89088 -2.18469 0.57647 -2.22339 c -0.90233 -0.11198 -1.32268 -1.24514 -0.82353 -2.22357 c 0.2046 -0.40116 -0.049 -0.871 -0.41177 -1.31764 c -0.35499 -0.43701 -0.79032 -0.79696 -0.82352 -0.90575 c -0.088 -0.28909 -1.14737 0.59373 -1.81175 1.1529 c -0.50574 0.42562 -1.25401 0.41162 -1.48235 0.41162 c -0.22834 0 -0.5563 0.80751 -0.74117 1.15291 c -0.63123 0.0108 -2.68311 -1.98297 -2.88234 0.24724 c -0.55813 -0.13781 -1.19059 -0.22086 -1.81176 0 c -1.20863 0.42927 -1.51669 0.85253 -1.56469 1.0704 c -0.0182 -0.0315 -0.0372 -0.0279 -0.0824 -0.0821 c -0.14765 -0.17793 -0.51319 -1.1757 -1.48234 -1.2355 c -0.74982 -0.046 -1.9709 0.85392 -2.88233 0.90602 l -2.05882 0.16474 l 0.90588 -1.31765 c 0.1116 -0.72309 0.8435 -2.24185 0.32941 -2.38831 c -0.36335 -0.10361 -1.43074 -0.75056 -1.48234 -1.64712 c -0.0131 -0.22796 0.0175 -0.48167 0.1647 -0.74101 c -0.25301 0.19894 -1.00486 0.95845 -1.23529 0.90575 c -0.46926 -0.10725 -1.20885 -0.66888 -1.89411 -0.98826 c -1.15818 -0.5397 -0.86377 0.22851 -1.8941 0.65887 c -0.60962 0.2548 -1.70988 0.11807 -2.14117 0 c -0.35355 -0.0965 0.24614 -0.63167 -2.47057 -0.82352 c -0.75831 -0.0535 -1.21054 -0.99271 -1.7294 -1.31764 c -0.89516 -0.56053 -1.33369 -1.43808 -1.5647 -1.81177 c -0.40323 -0.6525 0.14364 -1.75801 -0.16471 -1.64703 c -0.39123 0.14072 -1.70558 1.67341 -3.12939 1.89418 c -1.18327 0.18348 -3.56873 -0.15655 -4.44704 -0.24715 c -1.51734 -0.15655 -2.16955 0.58846 -2.63528 1.40015 c -0.51954 0.90493 -1.15362 0.49385 -3.21175 0.49404 c -0.90042 0 -2.11185 1.05284 -2.88234 1.72926 c -1.06758 0.93768 -0.51717 -0.10507 -1.07058 -0.65878 c -0.31615 -0.31592 -0.87665 0.32675 -5.59997 1.15291 c -0.49348 0.0862 -1.19249 0.72818 -1.64704 1.15299 c -0.97624 0.91285 -1.60674 1.21877 -2.22352 0.24716 c -0.60134 -0.94741 -2.07096 -2.10059 -3.45881 -0.57664 c -0.0769 -0.002 -0.0935 0 -0.16471 0 c -2.89126 0.00055 -1.22746 1.76465 0.57647 2.47064 c 0.6443 0.25216 -1.77156 1.33502 -1.39999 2.55305 c 0.17653 0.57846 -0.96514 2.51485 -1.15293 2.38804 c -0.72331 -0.48886 -1.93915 -0.0962 -2.47058 0.0825 c -0.78918 0.26517 0.36622 1.51682 -0.41177 1.56462 c -0.377 0.0232 -0.79285 0.0257 -1.07057 0.0824 c -0.81831 0.16583 -0.99351 0.49731 0.24705 1.23523 c 0.19114 0.11353 0.36027 0.31329 0.49412 0.57654 c 0.53227 1.04593 0.65465 2.98687 1.31764 3.12942 c 0.411 0.0881 1.46076 -0.44483 1.81175 -0.57664 c 0.4396 -0.16465 1.18794 -1.32765 1.5647 -1.72926 c 1.03832 -0.67777 2.30044 0.42911 3.1294 -0.0824 c -0.23797 0.45083 -0.13058 1.97852 1.64705 1.31756 c 0.55852 -0.20786 0.12801 1.14899 0.24705 1.72953 c 0.1012 0.49368 0.63047 1.28763 0.82353 1.64713 c 0.37073 0.68988 0.42887 1.27125 0.1647 1.81168 c -0.30244 0.61884 -0.9439 1.22676 -1.7294 1.894 c -1.57431 0.48257 -1.05798 1.66686 -0.1647 2.47055 c 1.71632 2.93229 1.96966 1.17673 1.39999 2.14125 c -0.28659 0.48512 -1.23529 0.51332 -1.23529 0.74128 c 0 0.22769 -0.18307 1.94267 -0.49411 2.55278 c -0.31108 0.61002 -0.63937 1.57062 -0.74117 1.97642 c -0.11201 0.44619 -1.27446 0.85808 -2.05882 1.31764 c -0.68051 0.39898 -1.08647 1.45946 -1.39999 2.05902 c -0.015 0.0287 -0.0682 0.13825 -0.0824 0.16465 c -0.56002 1.03965 -1.67735 0.57236 -3.21174 0.57636 c -0.83617 0.002 -0.96431 1.66549 -1.23529 2.55305 c -0.26334 0.86227 -0.43409 3.07247 1.07058 1.97642 c 0.0438 -0.0318 1.0562 4.85049 0.57647 5.02342 c -1.4927 0.025 -1.09259 2.09058 -0.65882 2.63528 c 0.25696 0.32284 -1.50546 1.07149 -1.97646 1.81177 c -0.76267 1.19848 -0.60276 0.59638 -2.88234 1.4823 l -1.56469 0.24724 l -0.41177 1.72927 c -0.0913 0.68042 -0.45711 0.83452 -0.49411 1.1529 c -0.10515 0.90575 -1.19231 3.54686 -1.89411 4.20008 c -0.568 0.5287 0.41676 1.57044 0.41176 1.81178 c -0.002 0.0917 0.89663 -0.17921 1.31765 0.32938 c 0.84028 1.69033 1.05474 1.19275 1.8941 0.49413 c 1.02997 -0.13226 0.84081 0.33184 1.4 1.39988 c 0.56866 1.0862 1.05234 1.1273 2.47057 1.1529 c 1.60644 0.029 2.54816 0.31129 3.4588 1.31764 c 0.31297 0.34577 1.13784 0.90303 1.5647 0.90603 c 1.24188 0.007 1.19276 0.0801 1.81175 2.38813 v 1.5648 l -0.1647 1.81177 l -1.15293 0.74101 l 0.65881 1.97651 c 0.8356 1.452 1.14045 1.69524 -0.41176 3.37656 c -0.8133 0.88101 -0.94374 0.68198 -1.31764 0.57637 c -1.49131 -0.42213 -2.80676 -1.03756 -3.4588 -0.49413 c -0.46292 0.38578 -0.34791 2.58252 -0.49412 3.4588 c -0.22323 1.3382 -1.17433 0.95342 -2.38822 1.23541 c -0.80271 0.1863 -1.72411 1.2768 -2.38823 1.48238 c -0.96379 0.29858 -1.54408 -0.25752 -1.7294 0.24688 c -0.17071 0.46457 0.49776 1.34694 0 1.81178 c -0.49774 0.4651 -2.05883 1.4207 -2.0588 1.72953 c 0 0.75948 0.0613 2.30581 -0.49412 2.30581 c -0.24803 0 -1.65775 0.39143 -2.47058 0.7411 c -1.1483 0.49413 -1.87279 0.73946 -3.12939 2.38831 c 0.0297 0.0298 -0.0292 0.053 0 0.0822 c -0.90485 1.2022 -2.10154 2.70752 -2.38822 2.80002 c -0.51412 0.16602 -1.69085 1.41534 -3.2941 4.11758 c -0.71743 1.20912 -0.90263 2.16781 -0.82353 2.80003 c 0.0455 0.36413 1.17642 0.64222 1.7294 0.82351 c 1.58077 0.5186 0.75507 -1.64439 2.9647 3.12942 c -2.58061 2.31745 -0.87305 3.13778 0.0823 3.4588 c 0.91544 0.30728 2.38822 1.2768 2.38822 2.14116 c 0 0.30592 -0.50593 0.49722 -0.82353 0.74128 c -0.72254 0.55471 -0.9289 1.86053 0.74118 2.96467 c 0.21521 1.20858 0.52786 1.81678 0.57646 2.71752 c 0.02 0.37078 -2.35594 1.59145 -3.2941 1.07067 c -2.66742 -1.48047 -1.7462 -2.65002 -1.7294 -4.52947 c 0.0234 -2.61709 -1.92146 -3.91099 -2.88233 -5.18806 c -0.7826 -1.04066 -1.27696 -2.27088 -3.45881 -1.81178 c -0.73712 0.15519 -1.15605 -0.74128 -1.31764 -0.74128 c -0.36881 0 -0.30941 2.07949 -1.5647 2.22367 c -2.55467 0.29218 -2.06106 1.95402 -2.14116 1.97642 c -1.25434 0.35367 -1.24098 1.62674 -0.98823 2.22339 c 0.37397 0.88281 -0.0318 0.2185 -1.89411 0.82351 c -1.29553 0.42063 -2.05881 0.0654 -2.05881 0.49413 c 0 0.89938 -0.28813 2.47055 -0.90588 2.47055 c -0.31144 0 -1.265 -0.0474 -1.48234 0.16474 c -0.6968 0.6807 -0.8416 1.72954 -1.2353 1.72954 c -0.21013 0 -0.91855 0.43372 -1.31763 -0.32939 c 0.87621 -1.36458 -0.96326 -6.19133 -1.07059 -6.83546 c 0.164 -3.05901 1.00486 -1.59009 -0.0824 -6.67036 c 0.0378 -0.15128 1.07604 -0.99908 1.31764 -1.48238 c 0.26405 -0.52806 1.32338 -1.14736 0.90588 -1.5648 c -1.08725 -1.92903 0.11694 -1.96123 0.49412 -3.29416 c 0.28915 -0.38578 1.16324 -2.54777 0.1647 -3.0469 c -1.1212 -0.48194 -0.84492 -1.15555 -0.82352 -2.30581 c 0 -0.72 -0.15327 -0.63622 -0.57647 -1.48238 c -0.37775 -0.75584 -0.72192 -1.21595 -0.90588 -1.40015 c -0.33118 -0.50123 0.76906 -3.42269 1.48235 -3.95293 c 0.83484 -0.47957 1.47777 -0.9466 2.47057 -0.57627 c 1.69755 -4.84285 3.08126 -10.012 2.30587 -17.62349 c -0.45472 -4.46362 -1.63309 -9.81642 -3.95292 -16.38826 c -2.30852 -6.53973 -4.91409 -11.98842 -7.74114 -16.88212 c -1.2895 -2.2324 -2.62941 -4.32425 -4.03527 -6.34124 c -3.03398 -4.353 -6.32609 -8.30038 -9.96466 -12.18818 c 0.54717 -0.27353 2.21506 -0.51414 1.647059 -0.7411 c -2.10278 -0.84116 -0.411776 -0.95423 -0.411767 -1.23541 c 0 -0.5226 -0.43953 -0.19312 -0.658822 -1.0704 c 0.302108 -0.98298 0.592262 -1.5517 0.164704 -2.55305 c -0.632597 -2.07957 -0.480165 -4.40567 -1.976456 -6.09409 c -0.348346 -0.69653 -1.174727 -0.80168 -0.57647 -1.39987 c 0.783081 -0.90603 0.12043 -2.3915 0.411767 -3.21192 c 2.551488 0.75374 2.801502 -1.3353 2.882332 -3.45881 c -0.584561 -0.58445 -0.498241 -1.08677 -0.576461 -1.39987 c -0.147847 -1.40379 1.278728 -1.25515 1.894104 -2.14116 c 1.04825 -1.5366 1.35966 -2.16987 2.79998 -2.22367 c 0.21444 -0.21449 0.67007 -1.10805 0.57647 -1.48229 c -0.66625 -1.9404 0.74953 -1.57908 0.82353 -3.04691 c -0.97438 -1.01536 -0.2373 -1.55615 -0.90588 -2.63528 c -0.489 -0.48885 -0.82351 -0.88465 -0.82352 -1.48239 c 0 -0.17283 0.50781 -1.07067 0.90587 -1.07067 c 1.28116 -0.27644 -0.43025 -2.10195 -0.41175 -3.21164 c 0.0006 -0.0371 -0.005 -0.12965 0 -0.16465 c -0.43781 -1.27999 -1.42324 -2.09086 -1.97647 -3.29416 c 0.58245 -2.26869 -2.230622 -2.78965 -2.223522 -5.10583 c -1.324529 0.27172 -2.013097 -1.29081 -3.458802 -1.64703 c -1.341112 -1.00566 -1.226668 0.59525 -2.223519 0.0822 c -0.109123 -0.43645 0.259981 -1.36194 0.741173 -1.48238 c 0.533243 -0.13336 0.07356 -1.90292 -0.247055 -2.22339 c -0.541657 -0.54152 -1.437556 0.50832 -1.482346 0.32939 c -0.163384 -0.6535 0.180722 -1.01455 0.823525 -1.40006 c 0.767298 -0.89502 1.506543 -1.80941 1.811752 -2.96477 c 0.591261 -0.6837 1.274653 -2.03809 0 -2.3058 c -0.341595 0 -0.905368 0.57845 -0.988228 0.24706 c 0.84845 -1.70443 1.058945 -1.88709 1.894114 -2.63529 c -0.0581 -0.73409 -0.773874 -1.29144 -0.823534 -2.05883 c -0.04134 -0.6072 0.353949 -0.9083 0.164712 -1.39997 c -0.397995 -0.57554 1.111632 -1.21712 0.164703 -1.97651 c -0.200661 -0.52324 -0.421836 -1.06112 -0.08235 -1.56471 c 0.151622 -0.0505 1.152931 -0.80195 1.152931 -1.23522 c 0.100783 -0.8187 0.183444 -1.49294 -0.08235 -2.22358 c 0.61393 -0.48767 1.365428 -0.78485 1.894113 -1.31764 c 0.846035 -0.53243 0.14168 -1.05903 0.823525 -1.64703 c 0.5808 -0.51714 0.935258 -1.19311 1.399988 -1.81177 c 0.53819 -0.49895 1.68678 -0.3273 2.14117 -1.15291 c 0.10885 -0.10888 0.58454 -0.78019 0.74117 -0.74119 c 1.3119 0.26489 0.28755 1.04393 0.82352 1.97651 c 0.66338 0.58673 1.44751 1.03883 1.64705 1.97642 c -0.2064 0.80041 -1.04227 1.87035 -0.1647 2.38822 c 0.4321 0.21607 1.18393 -0.18511 1.39999 0.24707 c 0.61161 0.9807 1.84882 1.49211 2.96469 1.1529 c 0.88534 -0.2829 1.8019 -0.52296 2.71764 -0.65877 c 0.95363 0.30109 1.82832 0.65604 2.88233 0.49412 c 0.63292 0.0277 1.27548 0.088 1.89411 -0.0824 c 0.47412 0.23715 0.47154 0.60128 0.82353 1.07058 c 0.69127 0.90083 0.92572 1.04392 0.98822 2.22357 c 0.39189 0.39188 1.24154 1.20366 1.81176 1.31764 c 1.39406 0.27882 3.08138 -0.0823 4.52939 -0.0824 c 2.49492 0.33066 4.88151 0.62976 6.7529 -1.07058 c 1.26583 -0.0828 2.04255 -1.04047 3.21174 -1.48229 c 1.21018 -0.50159 2.2532 -1.4732 3.62352 -1.64703 c 0.31939 -0.0639 1.28386 -0.34422 1.39999 -0.57655 c 0.68246 -1.25924 1.77075 -2.04191 2.71763 -3.047 c 0.13108 -0.39324 1.63348 -1.63347 1.89411 -1.89409 c 0.69651 -0.82461 0.14742 -1.15218 0.90588 -1.8941 c 0.20734 -0.6353 -0.13169 -0.79486 0.41176 -1.23531 c 0.005 -0.002 0.0774 0.003 0.0824 0 c 0.4333 -0.22751 1.4 -1.22359 1.4 -1.72936 c 0 -0.5468 -1.17855 -0.82497 -0.74118 -1.15299 c 0 -0.06 -0.0479 -0.12875 0 -0.16465 c 0.27073 -0.20313 0.6788 -1.21965 1.07058 -1.31765 c 1.18303 -0.41944 2.06372 -1.895 2.71764 -2.88235 c 0.75669 -0.71899 0.46716 -1.50639 0.32941 -2.47063 c -0.11814 -0.52388 -0.22737 -1.04166 -0.32941 -1.56462 c -0.13116 -0.67233 -0.18696 -1.29372 -0.24706 -1.97651 c -0.1807 -0.72282 -0.55489 -1.31373 -0.74118 -2.05883 c -0.1773 -0.77449 -0.33725 -1.54879 -0.0824 -2.30581 c -0.0946 -0.37851 -0.19329 -0.98125 -0.82352 -0.82352 c -0.59552 0.53834 -1.55977 1.73436 -2.47058 0.98817 c -0.31982 -0.85054 -0.0478 -1.79868 -0.74117 -2.47055 c -0.25564 -0.25562 -1.39999 -0.82061 -1.39999 -1.23532 c 0.0722 -0.69644 0.87528 -1.08904 0.90588 -1.81177 c 0.40473 -1.2989 0.61605 -1.73945 0.90588 -2.96467 c 0.73018 -2.70115 0.46107 -6.24692 1.23528 -7.90577 c 0.0769 -0.16483 0.14626 -0.36969 0.24706 -0.49413 c 0.57871 -1.35121 -0.56145 -3.61954 -0.16471 -5.10592 c 1.00969 -1.00327 -0.27171 -0.41736 -0.1647 -3.70587 c 0.66017 -0.51978 -0.96583 -1.37895 -0.65882 -2.14116 c 0.38949 0 1.63182 0.00009 2.14116 0 c -0.15004 0.8046 2.7014 0.82106 4.44704 1.07058 c 1.33082 0.56545 2.27723 1.78112 2.96469 2.96477 c 0.99213 1.21476 0.78905 2.16835 1.48234 3.4588 c 0.26627 1.50148 0.2209 2.30562 1.15294 4.03525 c -0.0777 0.90002 0.15234 1.50858 0.65882 2.3059 c 0.33594 0.91594 0.18071 1.30245 0.16471 2.22348 c -0.21465 1.03656 0.0112 1.6021 0.41176 2.14116 c 0.21267 0.28618 0.40749 0.57964 0.74117 0.98826 c 0.71722 1.06666 1.45979 1.36822 2.71764 1.64703 c 0.59514 0.29755 0.81434 -0.0388 1.31763 -0.16474 c 0.8859 -0.0679 1.73642 -0.091 2.55293 -0.49413 c 0.95619 -0.14755 1.86786 0.0905 2.22352 1.07058 c -0.67058 0.99735 -1.58465 1.66959 -2.47058 2.47064 c 0.21214 0.21213 0.80587 0.54116 0.90588 0.74119 c 0.13598 0.7008 -0.5119 1.2959 -0.32941 2.05874 c 0.17361 0.88292 0.29451 1.83406 0.32941 2.7177 c 0.0913 0.8962 -0.34968 1.08377 -0.90588 1.8941 c -0.0743 0.69589 -0.0967 1.32028 -0.0823 1.97642 c 0.0183 0.83316 0.16597 1.6423 0.41177 2.47055 c -0.43004 1.05848 0.41731 1.75364 0.1647 2.80002 c -0.19333 1.01555 0.53976 1.45155 0.98823 2.3059 c 0.2552 0.8579 0.0436 1.68669 0.1647 2.55287 c 0.55679 1.04784 1.68221 1.4228 2.63529 2.05884 c 1.06156 0.62248 1.98447 1.1217 3.54115 2.14115 c 0.31423 0.18858 1.73354 0.57533 2.05882 0.49413 c 1.05045 -0.36131 1.85905 -0.0466 1.81175 0.57645 c 0.5542 0.33258 1.66454 0.75866 2.14116 1.23532 c 0.71355 0.64859 0.70233 1.40099 2.71764 1.48229 c 1.06705 -0.0609 1.4627 -1.0905 2.79998 -0.41171 c 0.0797 0.0404 0.0773 0.0285 0.16471 0.0823 c 1.03692 0 0.68897 -0.0441 0.57646 -0.49413 c -0.1048 -0.41917 -0.33998 -1.23104 -0.74117 -1.07058 c -0.12209 0.0488 -0.26184 0.0567 -0.41176 0.0824 c -0.37358 0.0641 -0.8406 0.16465 -1.31764 0.16465 c -0.56306 0 -1.42095 0.13891 -1.97646 0 c -0.4967 -0.12417 -0.5712 -0.42836 -0.98824 -0.74119 c -0.43152 -0.32356 -0.6667 -0.86117 -1.15293 -1.1529 c -0.3888 -0.23324 -0.79791 -0.65887 -1.23528 -0.65878 c -0.59929 0 -1.01477 -0.65877 -1.48235 -0.65886 c -0.64675 0 -1.21031 0.14236 -1.72941 -0.24707 c -0.40056 -0.30037 -0.65792 -0.57554 -1.07058 -0.98825 c -0.24281 -0.24279 -1.32399 -0.93131 -1.39999 -1.23523 c -0.14062 -0.56244 -0.0457 -0.53979 -0.49411 -0.98826 c -0.36918 -0.36914 -0.66652 -0.58427 -0.98823 -0.90584 c -0.38689 -0.38697 -0.7087 -0.61129 -0.82352 -1.07058 c -0.0255 -0.10197 -0.31086 -1.13434 -0.57647 -1.40005 c -0.29982 -0.29983 -0.77488 -0.87592 -0.90588 -1.39997 c -0.1285 -0.51396 -0.1444 -0.84662 -0.0824 -0.98826 c 0.0653 -0.14918 0.18175 -0.34494 0.24705 -0.49412 c -0.70148 -0.51178 -0.4895 -3.94436 0 -4.03526 c -0.79635 -1.36267 -1.35654 -0.71435 -0.90587 -2.30581 c 0.19709 -2.37812 1.52714 -0.34867 0.3294 -3.04709 c -0.23596 -0.47193 -0.68259 -0.63612 -0.57647 -1.1529 c 0.32111 -1.5638 -0.0249 -1.79239 -0.0823 -1.97651 c -0.31494 -1.01 1.52075 -1.80058 1.64705 -2.30581 c 0.15712 -0.62857 0.002 -1.2596 -0.65881 -2.14116 c -1.16804 -1.28344 -2.77021 -0.4389 -4.36469 -0.4118 c -0.52958 0 -1.08887 -0.099 -1.5647 -0.24706 c -0.49924 -0.15537 -0.9609 -0.37533 -1.23528 -0.74119 c -1.0723 -1.4541 -1.88416 -3.91482 -1.81176 -5.76461 c 0.0698 -0.3696 -1.05463 -2.49217 -0.82352 -2.55297 c 1.76843 -1.07039 -0.2415 -3.42532 -0.74118 -4.69412 c -0.11073 -0.44837 -0.26407 -0.90102 -0.41176 -1.31764 c -0.6366 -1.79558 -1.56617 -3.3249 -3.12939 -4.61171 c -0.38572 -0.28463 -0.82819 -0.39902 -1.23529 -0.49412 c -0.5816 -0.13582 -1.14374 -0.15446 -1.81176 -0.57645 c -0.39179 -0.24752 -1.98215 -1.51086 -3.4588 -0.82352 c -0.7109 0.33084 -1.81321 -0.003 -2.71764 0 c -0.91382 0.003 -0.67333 2.45599 -0.98822 2.14116 c -0.66944 -0.66951 -1.77868 -1.61256 -1.23529 -2.38822 c 0.23533 -0.33594 -0.93853 -1.96533 -1.89411 -1.72945 c -1.07433 0.26517 -2.24362 1.15208 -1.97645 0.57645 c 0.4453 -0.95933 -0.88693 -2.30717 -0.24707 -2.14116 c 1.76756 0.45865 0.46125 -1.13635 0.98824 -1.39997 c 0.53219 -0.26607 1.5647 -0.64567 1.5647 -1.1529 c 0 -0.6474 0.0279 -1.16555 0.24705 -1.31764 c 0.21917 -0.15219 0.67508 0.0739 1.5647 0.74119 c 0.73317 0.55007 0.61162 1.72945 0.74117 1.72935 c 0.94296 -0.0686 1.69596 -0.10715 2.30587 -0.32938 c 0.0263 0.007 0.0564 -0.008 0.0823 0 c 0.4971 -0.19412 0.87381 -0.52752 1.31764 -1.15291 c 0.0584 -0.11671 1.53118 -2.6764 0.98824 -3.62354 c -0.57175 -0.99735 -0.49681 0.13691 -1.72941 0 c -0.31913 -0.0354 -2.74148 -2.04686 -2.55293 -2.14116 c 1.37934 -0.67142 1.43138 -0.64486 1.7294 -2.22357 c 1.3396 -0.001 1.05557 -1.15909 1.4 -1.97642 c 0.28978 -0.68761 0.18209 -1.41752 0 -2.14116 c -0.28554 -1.13453 1.53228 -0.67151 0.82352 -1.72945 c -0.46262 -1.36849 -1.12207 -1.87935 0.49412 -2.05874 c 0.45669 -0.15582 0.0812 -2.37631 0.65882 -3.54122 c 1.48005 1.68933 2.63628 -0.11789 2.63528 2.38823 c -0.0801 0.70535 0.29999 0.66468 0 1.5647 c -0.60167 1.77002 -0.29584 3.6512 -0.57647 5.51764 c -0.14665 0.58655 -0.57646 1.00417 -0.57646 1.81177 c 0 0.65168 -1.03725 1.68042 -0.57647 2.14116 c 0.81501 0.81505 0.22436 0.88319 0.98822 1.64703 c 1.24009 1.0361 2.96949 1.17042 4.5294 1.23532 c 1.66306 -0.18921 3.28055 0.24679 4.94114 0.41171 c 0.20155 0.02 0.45791 0.0734 0.65883 0.0824 c 0.44356 0 1.48693 -0.0588 1.8941 -0.41181 c 0.84767 -0.735 -0.31201 -1.63548 -0.32941 -2.22348 c 1.08589 0.26489 1.50277 -0.78849 1.97646 -1.64712 c 0.20932 -0.41854 0.60002 -1.2798 0.65882 -1.97642 c 0.0144 -0.16993 0.0345 -0.35613 0 -0.49413 c -0.25457 -1.01827 -0.78286 -1.65785 -1.31764 -2.3059 c -0.75749 -0.91775 1.06152 -0.82015 0.41176 -1.56461 c 0.66457 -1.44718 2.69068 -3.34246 1.31765 -5.51764 c -0.26472 -0.52951 -1.4418 -0.98953 -1.72941 -1.56471 c -0.28237 -0.5648 -0.28237 -0.99999 0 -1.5647 c 0.51794 -1.68251 -1.90926 -1.42953 -2.14116 -2.71761 c 0.0472 -0.0945 0.74942 -1.29915 0.82352 -1.31765 c 1.58731 -0.37287 0.85694 -1.51222 1.31764 -2.80002 c -0.26967 -1.58945 -0.33781 -2.75082 1.48234 -3.21174 c 1.11814 0.46984 0.27199 1.57326 1.15294 2.80002 c 0.0612 0.75893 -0.0447 1.19039 -0.0823 1.39997 c 0.15716 -0.39261 0.78205 -1.46992 2.71763 -2.38822 c -0.31702 -0.70508 -2.18064 -3.04191 0.57647 -2.80003 c 0.59989 0.0527 -0.39034 -1.15818 1.07058 -1.72935 c 0.74109 -0.28982 -0.8815 -1.95077 -0.1647 -2.63529 l 0.45992 0.16463 l 0.35667 0.12805 l 0.10324 0.24693 c 0 0 0.019 0.71258 0.11264 1.22556 c 0.0468 0.25648 0.1005 0.48596 0.17834 0.63108 c 0.0388 0.0725 0.0844 0.12804 0.1314 0.14633 c 0.0469 0.0182 0.0952 -0.00097 0.15017 -0.0549 c 0.14394 -0.14027 0.32563 -0.3403 0.48808 -0.4756 c 0.0813 -0.0677 0.16137 -0.11852 0.22525 -0.13717 c 0.064 -0.0187 0.11828 -0.008 0.15019 0.0549 c 0.11067 0.21567 0.19898 0.36278 0.34728 0.44814 c 0.14832 0.0853 0.35033 0.10977 0.69457 0.10977 c 0.2018 0 0.44411 -0.0635 0.66641 -0.1189 c 0.22229 -0.0555 0.42481 -0.10006 0.57254 -0.064 c 0.33843 0.0824 0.53699 0.21974 0.7415 0.33841 c 0.10226 0.0594 0.21334 0.11613 0.33791 0.15548 c 0.12456 0.0393 0.26645 0.064 0.45053 0.064 c 0.15025 0 0.26895 -0.0307 0.36605 -0.0823 c 0.0971 -0.0515 0.16926 -0.12742 0.24404 -0.20121 c 0.14952 -0.14757 0.29012 -0.30618 0.535 -0.36584 c 0.37409 -0.091 0.5225 -0.28474 0.68518 -0.35669 c 0.0813 -0.036 0.1681 -0.0406 0.28158 0.009 c 0.11347 0.0498 0.25766 0.1581 0.45991 0.34756 l -0.18771 3.33827 l 0.94799 1.49079 c 0.1402 0.0683 0.11138 0.014 0.0844 -0.0182 c -0.0269 -0.0323 -0.0546 -0.0442 0.10325 0.10975 c 0.16576 0.16154 0.22612 0.29365 0.22527 0.41157 c -0.00082 0.11794 -0.0597 0.22552 -0.1314 0.31096 c -0.0717 0.0854 -0.15018 0.15543 -0.19712 0.2195 c -0.0469 0.0641 -0.0643 0.11999 0.01 0.17378 c 0.27209 0.19884 0.42856 0.31213 0.49746 0.38413 c 0.0688 0.072 0.0489 0.1037 0 0.11889 c -0.049 0.0152 -0.1344 0.0171 -0.21588 0.0457 c -0.0816 0.0285 -0.15904 0.0804 -0.18772 0.19206 c -0.0424 0.16542 -0.0915 0.40721 -0.21587 0.56704 c -0.0623 0.0799 -0.14047 0.13493 -0.24404 0.1555 c -0.10355 0.0206 -0.23529 0.004 -0.39421 -0.0732 c -0.12773 -0.0623 -0.23175 -0.0892 -0.31913 -0.0823 c -0.0874 0.007 -0.15881 0.0514 -0.22527 0.10977 c -0.13289 0.11654 -0.23781 0.31508 -0.40359 0.53048 c -0.0762 0.099 -0.21106 0.2973 -0.31913 0.51216 c -0.10807 0.21487 -0.19153 0.44785 -0.15955 0.60363 c 0.0543 0.26511 0.17759 0.46421 0.27219 0.64937 c 0.0946 0.18517 0.15488 0.35664 0.10325 0.5579 c -0.0353 0.13732 -0.16664 0.35332 -0.22528 0.5579 c -0.0294 0.10229 -0.0402 0.20308 -0.01 0.28353 c 0.0308 0.0805 0.0998 0.14092 0.23465 0.17377 c 0.10076 0.0246 0.41008 0.15851 0.69457 0.3201 c 0.14225 0.0808 0.28444 0.16616 0.38482 0.2561 c 0.10038 0.09 0.15956 0.18288 0.15956 0.26523 c 0 0.1453 0.0339 0.25504 0.0844 0.34754 c 0.0507 0.0924 0.12315 0.16635 0.20649 0.22866 c 0.1667 0.1246 0.38175 0.20812 0.57255 0.34754 c 0.24814 0.18133 0.38841 0.28397 0.46931 0.40243 c 0.081 0.11844 0.10324 0.25708 0.10324 0.53046 c 0 0.26406 0.14105 0.54364 0.2722 0.7591 c 0.13112 0.21547 0.24518 0.36842 0.1971 0.3567 c -0.12705 -0.031 -0.24839 -0.0606 -0.37544 -0.0914 v 4.07909 c 0.11117 0.0619 0.21156 0.17259 0.31913 0.25609 c 0.10756 0.0835 0.22171 0.14336 0.34727 0.11889 c 0.19088 0.13952 0.42534 0.23443 0.68517 0.28354 c 0.25987 0.0491 0.54106 0.0482 0.83538 -0.009 c 0.29884 -0.0582 0.44774 -0.15036 0.6007 -0.22865 c 0.15296 -0.0782 0.31024 -0.13719 0.63826 -0.13719 c 0.30759 0 0.47516 0.0432 0.51623 0.13719 c 0.041 0.0939 -0.0392 0.23948 -0.22527 0.42071 c -0.28328 0.27603 -0.38068 0.64531 -0.66641 0.92374 c -0.27308 0.26608 -0.35372 0.34185 -0.30036 0.38413 c 0.0534 0.0423 0.23787 0.0518 0.48809 0.17377 c 0.30165 0.14698 0.50032 0.27228 0.70395 0.32012 c 0.2036 0.0478 0.40955 0.0154 0.72272 -0.1372 c 0.19964 -0.0973 0.3652 -0.23096 0.55378 -0.31096 c 0.0943 -0.04 0.1981 -0.0661 0.30973 -0.064 c 0.11162 0.002 0.23305 0.0313 0.37544 0.10062 c 0.17283 0.0842 0.4082 0.24543 0.63825 0.33839 c 0.11503 0.0465 0.23511 0.0769 0.3379 0.0732 c 0.1028 -0.004 0.18995 -0.0484 0.26282 -0.1372 c 0.13498 -0.16439 0.32627 -0.41355 0.50684 -0.51216 c 0.0202 -0.0109 0.0369 0.007 0.0561 0.00002 c 0.0683 -0.0239 0.13689 -0.0471 0.19695 0.00002 c 0.0772 0.0608 0.14928 0.18769 0.19711 0.4207 c 0.043 0.20987 0.0897 0.48467 0.10323 0.74082 c 0.0135 0.25618 -0.006 0.49117 -0.10323 0.64938 c -0.1205 0.19564 -0.28662 0.46038 -0.38484 0.70423 c -0.0491 0.12193 -0.08 0.23503 -0.0844 0.33839 c -0.005 0.10336 0.0183 0.20082 0.0844 0.26524 c 0.28842 0.28106 0.46367 0.63473 0.76027 0.92374 c 0.1684 0.16412 0.29823 0.35595 0.45054 0.49388 c 0.0762 0.069 0.15609 0.12637 0.25341 0.15548 c 0.0972 0.0292 0.21199 0.0329 0.34729 0 c 0.34946 -0.0851 0.6856 -0.19789 1.00431 -0.29267 c 0.31868 -0.0948 0.61959 -0.17378 0.90104 -0.17377 c 0.23815 0 0.53743 -0.0325 0.81659 -0.0274 c 0.13959 0.003 0.27258 0.0127 0.39421 0.0457 c 0.12165 0.0329 0.23426 0.0909 0.31914 0.17377 c 0.14127 0.13765 0.3584 0.30664 0.56315 0.48474 c 0.20476 0.1781 0.39081 0.35919 0.47869 0.53047 c 0.0918 0.17883 0.1843 0.31754 0.28159 0.42071 c 0.0972 0.10316 0.20177 0.17136 0.3191 0.2195 c 0.23471 0.0962 0.52696 0.10975 0.92923 0.10976 c 0.0843 0 0.39678 -0.064 0.6758 -0.0732 c 0.13952 -0.005 0.268 -0.002 0.35668 0.0367 c 0.0886 0.0382 0.13174 0.10842 0.10324 0.21951 c -0.0286 0.1112 -0.019 0.21422 0.01 0.3201 c 0.0283 0.10586 0.0828 0.2104 0.15017 0.31096 c 0.13484 0.20114 0.33144 0.39612 0.51626 0.57619 c 0.0711 0.0695 0.25826 0.2974 0.46929 0.51217 c 0.21101 0.21478 0.43965 0.41157 0.57253 0.41157 c 0.31626 0 0.5465 0.008 0.76029 0.0457 c 0.21377 0.0382 0.40847 0.11212 0.66639 0.23779 c 0.2297 0.11191 0.44375 0.1512 0.60072 0.24693 c 0.0785 0.0478 0.14321 0.10842 0.18772 0.20123 c 0.0445 0.0927 0.0751 0.21375 0.0751 0.38412 c 0 0.35914 0.0312 0.58382 0.13139 0.77741 c 0.10025 0.19359 0.26895 0.35351 0.53501 0.61277 c 0.13537 0.13191 0.19718 0.41309 0.24404 0.66767 c 0.0468 0.25457 0.0731 0.48276 0.13141 0.5396 c 0.0954 0.0928 0.18316 0.20473 0.29096 0.28353 c 0.2177 0.1591 0.38514 0.27788 0.49747 0.43901 c 0.11231 0.16113 0.16895 0.3662 0.16895 0.67679 c 0 0.22533 0.0431 0.65045 0.11262 0.96947 c 0.0168 0.0773 0.0367 0.11421 0.0563 0.17373 c 0.0212 0.0634 0.0423 0.14796 0.0659 0.18289 c 0.0455 0.0678 0.0984 0.0733 0.15017 -0.0274 c 0.0446 -0.0869 0.37624 -0.23069 0.67579 -0.29267 c 0.14976 -0.031 0.29391 -0.0459 0.38482 -0.0182 c 0.0909 0.0276 0.12479 0.0985 0.0751 0.2195 c -0.0443 0.10793 -0.29824 0.30727 -0.535 0.52132 c -0.11838 0.10703 -0.23095 0.21844 -0.30974 0.3201 c -0.0789 0.10167 -0.12248 0.19934 -0.10324 0.27438 c 0.0258 0.10071 0.1214 0.1652 0.25342 0.21036 c 0.13201 0.0451 0.29807 0.0678 0.45052 0.0913 c 0.15245 0.0237 0.29769 0.046 0.38484 0.0823 c 0.0871 0.0364 0.12023 0.0815 0.0563 0.16464 c -0.0921 0.1196 -0.21082 0.26373 -0.31913 0.42071 c -0.1083 0.15698 -0.20699 0.33122 -0.25342 0.51217 c -0.10376 0.40442 -0.36641 0.80554 -0.57254 1.20727 c -0.0926 0.18047 -0.33603 0.36506 -0.51624 0.53961 c -0.0901 0.0872 -0.16276 0.17516 -0.1971 0.25607 c -0.0344 0.081 -0.0263 0.15733 0.0469 0.22867 c 0.0679 0.0993 0.0624 0.15212 0.18772 0.27437 c 0.16426 0.16005 0.33423 0.33315 0.45992 0.53047 c 0.12569 0.19731 0.20649 0.41903 0.20649 0.6768 c 0 0.17749 0.0256 0.50835 0.0751 0.81398 c 0.0495 0.30564 0.12808 0.58211 0.21588 0.66766 c 0.17901 0.17444 0.33819 0.30637 0.43176 0.46645 c 0.0935 0.16007 0.11438 0.34989 0.0375 0.64936 c -0.12155 0.4738 -0.14852 0.68864 -0.28159 1.20727 c -0.0679 0.26492 -0.1776 0.45946 -0.17833 0.60363 c -0.00029 0.072 0.0324 0.12912 0.10325 0.18291 c 0.0709 0.0538 0.17831 0.10288 0.35667 0.14633 c 0.18519 0.0451 0.3223 0.094 0.42238 0.15549 c 0.10006 0.0614 0.16687 0.13732 0.22525 0.2195 c 0.11679 0.16437 0.19295 0.36653 0.4036 0.64022 c 0.10804 0.14036 0.22239 0.23491 0.33791 0.30182 c 0.11551 0.0669 0.23138 0.1118 0.34728 0.14632 c 0.23179 0.0691 0.45687 0.11595 0.64764 0.30183 c 0.33827 0.32963 0.75501 0.55076 1.14509 0.74082 c 0.18094 0.0881 0.36437 0.29787 0.55377 0.48473 c 0.0947 0.0934 0.19282 0.18239 0.29098 0.24695 c 0.0981 0.0646 0.19789 0.10061 0.30035 0.10061 c 0.20007 0 0.58134 0.0757 0.81659 0.19206 c 0.11761 0.0581 0.1924 0.12298 0.19709 0.20121 c 0.005 0.0782 -0.0641 0.16381 -0.25341 0.2561 c -0.1632 0.0795 -0.35163 0.12892 -0.57255 0.15547 c -0.22093 0.0266 -0.47314 0.0367 -0.76027 0.0367 c -0.41061 0 -0.63016 0.007 -0.76966 0.0914 c -0.13949 0.085 -0.20204 0.24789 -0.28157 0.55792 c -0.0274 0.10669 -0.10304 0.19195 -0.19712 0.27436 c -0.0941 0.0824 -0.20254 0.16349 -0.30974 0.23782 c -0.1072 0.0744 -0.20547 0.14623 -0.27219 0.22864 c -0.0667 0.0824 -0.10246 0.16769 -0.0751 0.27438 c 0.0552 0.21559 0.12947 0.45224 0.23465 0.67679 c 0.10517 0.22456 0.24079 0.445 0.43176 0.63108 c 0.22976 0.22388 0.37442 0.39251 0.4599 0.5762 c 0.0854 0.18368 0.11265 0.37345 0.11264 0.62192 c 0 0.30831 -0.0917 0.46064 -0.19711 0.58534 c -0.10536 0.12469 -0.22661 0.22476 -0.28159 0.439 c -0.0364 0.14189 -0.0768 0.25043 -0.1314 0.32926 c -0.0545 0.0788 -0.12491 0.13046 -0.20649 0.16463 c -0.16313 0.0684 -0.39056 0.064 -0.71334 0.064 h -1.52053 c -0.21542 0 -0.47119 0.0239 -0.72272 0.0367 c -0.25154 0.0125 -0.4962 0.014 -0.70396 -0.0367 c -0.26903 -0.0656 -0.50051 -0.22887 -0.75088 -0.37499 c -0.12519 -0.073 -0.25163 -0.14137 -0.39421 -0.19206 c -0.14259 -0.0508 -0.30401 -0.0823 -0.47869 -0.0823 c -0.21543 0 -0.47119 0.0239 -0.72274 0.0366 c -0.25152 0.0126 -0.49618 0.014 -0.70394 -0.0366 c -0.2107 -0.0513 -0.66869 -0.69397 -0.76027 -0.64936 c -0.13492 0.0658 -0.37293 0.17509 -0.6007 0.32012 c -0.22779 0.14503 -0.447 0.32237 -0.54439 0.51216 c -0.0512 0.0999 -0.1561 0.17413 -0.28159 0.22866 c -0.12548 0.0545 -0.27592 0.0963 -0.41297 0.13719 c -0.13707 0.0409 -0.26131 0.0784 -0.3473 0.13717 c -0.0859 0.0588 -0.13101 0.1387 -0.10324 0.24694 c 0.0391 0.15251 0.23366 0.39895 0.40359 0.65851 c 0.0848 0.12979 0.16432 0.25846 0.21589 0.38415 c 0.0515 0.12567 0.0728 0.24655 0.0469 0.34753 c -0.0244 0.0956 -0.10856 0.17245 -0.21587 0.24694 c -0.10733 0.0745 -0.23775 0.1472 -0.35669 0.21036 c -0.11892 0.0632 -0.22224 0.12138 -0.28157 0.18291 c -0.0593 0.0616 -0.0714 0.12244 0 0.19207 c 0.12679 0.12356 0.28684 0.26902 0.43175 0.43901 c 0.10844 0.12724 0.17776 0.28399 0.24404 0.43901 l -0.00001 0.00003 c 0.29657 0.015 0.50126 0.0108 0.88228 0.0457 c 0.70146 0.0642 1.48268 0.16912 2.06494 0.31096 c 0.6341 0.15447 1.29377 0.17787 1.95228 0.2012 c 0.65854 0.0234 1.31384 0.0411 1.93354 0.19207 c 0.73837 0.17987 1.1615 0.42055 1.52053 0.49389 c 0.17952 0.0367 0.33668 0.0359 0.51623 -0.0367 c 0.17954 -0.0724 0.37665 -0.22069 0.61949 -0.45728 c 0.11087 -0.10805 0.22301 -0.17882 0.33789 -0.22866 c 0.11487 -0.0498 0.23222 -0.0791 0.34728 -0.0823 c 0.23012 -0.007 0.45846 0.0716 0.66641 0.18292 c 0.41588 0.22253 0.7572 0.59149 0.90106 0.73168 c 0.14469 0.14099 0.32548 0.18435 0.52562 0.18291 c 0.20013 -0.002 0.42262 -0.0521 0.64764 -0.10976 c 0.225 -0.0574 0.45648 -0.11899 0.67579 -0.14633 c 0.2193 -0.0273 0.42706 -0.016 0.61009 0.0732 c 0.12835 0.0626 0.21883 0.14248 0.29096 0.22864 c 0.0721 0.0861 0.12659 0.18077 0.15957 0.27439 c 0.0661 0.1872 0.0637 0.36505 0.0751 0.48473 c 0.006 0.0598 0.0199 0.1094 0.0375 0.12805 c 0.0178 0.0186 0.0378 0.0113 0.0844 -0.0274 c 0.0933 -0.0775 0.26129 -0.2907 0.57255 -0.69511 c 0.23436 -0.30446 0.38921 -0.62622 0.50685 -0.98776 c 0.11765 -0.36153 0.20554 -0.75542 0.31913 -1.19812 c 0.0652 -0.25352 0.0443 -0.45444 -0.01 -0.62191 c -0.0537 -0.16751 -0.14686 -0.30592 -0.21589 -0.44816 c -0.0689 -0.14225 -0.11309 -0.28866 -0.0938 -0.46645 c 0.0192 -0.17778 0.10813 -0.38437 0.31912 -0.65851 c 0.37588 -0.48835 0.48046 -0.66936 0.81659 -0.9969 h 2.04614 l 1.22958 2.38709 l 1.2202 -1.39019 l 1.43606 1.19812 l -1.83967 1.39018 l 0.40361 0.99692 l 0.82596 -0.99692 l 3.27574 0.60364 l 0.19711 0.99691 l 1.02308 -0.40243 l 0.20648 -1.59139 c 0.27283 -0.13294 0.54374 -0.2695 0.81658 -0.40241 c 0.56536 -0.27547 0.83243 -0.37137 1.08407 -0.80486 c 0.33064 -0.13337 0.60369 -0.0334 0.92452 0.13718 c 0.4068 0.21626 0.82841 0.49039 1.14508 0.80485 c 0.15834 0.15721 0.29152 0.32599 0.38484 0.50302 c 0.0933 0.17703 0.15018 0.36422 0.15018 0.5579 c 0 0.40743 0.0486 0.64854 0.1314 0.80484 c 0.0827 0.15632 0.20085 0.23008 0.32851 0.30181 c 0.12767 0.0717 0.26915 0.13894 0.4036 0.29267 c 0.13445 0.15374 0.26285 0.39343 0.36607 0.79571 c 0.11681 0.45536 0.32289 0.86913 0.55377 1.26214 c 0.23086 0.393 0.47893 0.75963 0.6664 1.12496 c 0.12403 0.2417 0.27563 0.40712 0.44113 0.5396 c 0.16553 0.13248 0.35076 0.23774 0.52563 0.3567 c 0.17488 0.11895 0.34533 0.25611 0.49745 0.45729 c 0.15213 0.20119 0.28758 0.46232 0.38484 0.84143 c 0.084 0.32774 0.19521 0.53182 0.34728 0.64936 c 0.15208 0.11753 0.34214 0.15351 0.56317 0.14633 c 0.44205 -0.0143 1.02208 -0.20121 1.7458 -0.20121 c 0.17469 0 0.36114 0.0583 0.56316 0.14634 c 0.20203 0.0879 0.42204 0.20822 0.65702 0.3384 c 0.23497 0.13019 0.48672 0.27576 0.76027 0.40242 c 0.27355 0.12668 0.56452 0.23356 0.88228 0.31096 c 1.05588 0.25723 2.02108 0.3483 3.06924 0.60365 c 0.44905 0.10938 0.97989 0.32142 1.49239 0.57619 c 0.51249 0.25476 1.00461 0.54669 1.37034 0.81399 c 0.42389 0.30978 0.81549 0.65312 1.21081 0.96946 c 0.39532 0.31635 0.798 0.61288 1.24834 0.83229 c 0.23013 0.1121 0.45697 0.17811 0.6758 0.22865 c 0.21882 0.0505 0.43246 0.0842 0.72268 0.1281 l 0.0845 0.0184 c -0.02 0.1355 -0.0469 0.25478 -0.0469 0.42072 c 0 0.15347 0.0726 0.33082 0.18773 0.53046 c 0.1151 0.19965 0.2689 0.42225 0.42236 0.64022 c 0.15348 0.21796 0.30728 0.4318 0.42237 0.64022 c 0.11512 0.20841 0.18773 0.40516 0.18773 0.57619 c 0 0.35933 -0.0446 0.60678 -0.13141 0.7774 c -0.0867 0.17063 -0.21477 0.26505 -0.36605 0.34755 c -0.15127 0.0825 -0.32274 0.15201 -0.51623 0.24693 c -0.19348 0.0949 -0.40606 0.2219 -0.61949 0.42986 c -0.37264 0.36314 -0.72027 0.54012 -1.03245 0.74083 c -0.15609 0.10036 -0.30608 0.20535 -0.44115 0.33839 c -0.13507 0.13304 -0.25594 0.29759 -0.36605 0.51219 c -0.20749 0.40437 -0.33813 0.67214 -0.44115 0.84142 c -0.10303 0.16929 -0.17984 0.24172 -0.28158 0.26524 c -0.20347 0.047 -0.50605 -0.10974 -1.32343 -0.10974 c -0.2191 0 -0.38872 0.0311 -0.535 0.0823 c -0.14627 0.0511 -0.27191 0.11949 -0.4036 0.21034 c -0.26337 0.18169 -0.55302 0.43406 -1.10757 0.70424 c -0.27281 0.13293 -0.54373 0.26948 -0.81656 0.40242 l 0.61008 1.79261 l -1.83966 2.38709 l 1.02308 0.40242 l 0.40359 3.19194 h -1.02307 l 0.41298 0.99691 l -1.43606 0.39328 l 1.08878 5.46013 c 0.35843 -0.2706 0.7057 -0.56955 0.95737 -0.66766 c 0.48164 -0.18772 0.98663 -0.2505 1.39852 -0.38413 c 0.20596 -0.0668 0.38784 -0.15624 0.53501 -0.28353 c 0.14716 -0.12726 0.25831 -0.29339 0.31913 -0.53046 c 0.0224 -0.0873 0.0733 -0.16086 0.14078 -0.2195 c 0.0676 -0.0587 0.15145 -0.10213 0.25342 -0.13719 c 0.20397 -0.0701 0.47263 -0.10355 0.75089 -0.10975 c 0.55653 -0.0123 1.1761 0.064 1.52054 0.064 c 0.19489 0 0.40047 0.053 0.61009 0.12804 c 0.20961 0.075 0.41719 0.1737 0.61948 0.28352 c 0.40456 0.21967 0.77084 0.46703 1.0137 0.58534 c 0.30364 0.14795 0.58278 0.30652 0.83534 0.439 c 0.25258 0.1325 0.48098 0.23671 0.69458 0.28354 c 0.21361 0.0467 0.41395 0.036 0.6007 -0.0732 c 0.18675 -0.10909 0.363 -0.31416 0.535 -0.64937 c 0.0509 -0.0992 0.12228 -0.174 0.2065 -0.22865 c 0.0841 -0.0546 0.18187 -0.0876 0.29097 -0.10974 c 0.21819 -0.0442 0.47464 -0.0322 0.74149 -0.0183 c 0.26687 0.014 0.54067 0.0326 0.78843 0.009 c 0.24776 -0.0235 0.46799 -0.0902 0.62887 -0.24696 c 0.38221 -0.37243 0.54327 -0.67202 0.80719 -0.87799 c 0.13197 -0.103 0.28872 -0.18384 0.51624 -0.23781 c 0.2275 -0.0539 0.5227 -0.0823 0.92921 -0.0823 c 0.21196 0 0.43504 -0.0488 0.65702 -0.11888 c 0.22199 -0.0702 0.44313 -0.16014 0.63827 -0.2561 c 0.39023 -0.19192 0.68952 -0.39082 0.75087 -0.42071 c 0.17039 -0.083 0.25917 -0.0983 0.30036 -0.0549 c 0.0411 0.0434 0.0332 0.1463 0.0281 0.27438 c -0.005 0.1281 -0.013 0.28609 0.0187 0.45732 c 0.032 0.17121 0.10159 0.34857 0.25343 0.52131 c 0.0932 0.10599 0.26668 0.21706 0.47869 0.31097 c 0.21201 0.0939 0.46714 0.1747 0.72272 0.24694 c 0.51117 0.14444 1.03332 0.23777 1.26711 0.23777 c 0.5065 0 1.1475 0.0606 1.77397 0.16463 c 0.1269 0.0212 0.22242 0.058 0.34729 0.0823 c 0.039 -0.24705 0.0709 -0.48403 0.15955 -0.77741 c 0.12846 -0.42479 0.28477 -0.87213 0.38483 -1.26214 c 0.0474 -0.18466 -0.014 -0.365 -0.10325 -0.53047 c -0.0892 -0.16548 -0.21171 -0.31985 -0.28158 -0.44816 c -0.035 -0.0641 -0.0554 -0.12228 -0.0563 -0.17377 c -0.00082 -0.0514 0.0225 -0.0914 0.0751 -0.12803 c 0.10544 -0.0731 0.33291 -0.1189 0.76965 -0.1189 c 0.48873 0 1.03816 0.007 1.54869 0.0366 c 0.51053 0.0296 0.98013 0.0833 1.31404 0.16464 c 0.23341 0.0567 0.7376 0.44652 1.23896 0.878 c 0.50135 0.43148 1.00348 0.90465 1.22019 1.11581 c 0.51289 0.49979 0.85024 0.78704 1.14509 0.93289 c 0.14743 0.0729 0.2775 0.1116 0.42237 0.1189 c 0.14488 0.008 0.30172 -0.0117 0.47869 -0.0549 c 0.22635 -0.0551 0.3871 -0.13438 0.52563 -0.21951 c 0.13852 -0.0851 0.25198 -0.1793 0.38482 -0.26521 c 0.13284 -0.0858 0.28821 -0.16196 0.49746 -0.21951 c 0.20923 -0.0576 0.47697 -0.0913 0.84475 -0.0913 c 0.60039 0.00001 0.99199 0.14211 1.37035 0.19206 c 0.18919 0.025 0.37514 0.0287 0.58194 -0.0274 c 0.20679 -0.0562 0.43081 -0.16624 0.70396 -0.36585 c 0.40233 -0.29402 0.69828 -0.43047 0.97614 -0.57619 c 0.27785 -0.14571 0.53566 -0.30246 0.86351 -0.62192 c 0.0566 -0.0552 0.22535 -0.0751 0.44115 -0.0732 c 0.21579 0.002 0.47812 0.0222 0.75089 0.0457 c 0.54552 0.047 1.10698 0.10545 1.26711 0.0274 c 0.28758 -0.14011 0.55003 -0.22705 0.7978 -0.29267 c 0.24779 -0.0656 0.47838 -0.10917 0.69458 -0.15549 c 0.21619 -0.0462 0.41724 -0.10076 0.61008 -0.1829 c 0.19285 -0.0821 0.37608 -0.19269 0.55378 -0.36585 c 0.22547 -0.21971 0.55033 -0.44945 0.88228 -0.6585 c 0.33196 -0.20906 0.67844 -0.39913 0.96677 -0.53962 c 0.57393 -0.27962 0.85704 -0.43252 1.06063 -0.64022 c 0.20358 -0.2077 0.32381 -0.46646 0.57253 -0.95117 c 0.0979 -0.19068 0.15244 -0.41235 0.18773 -0.64936 c 0.0354 -0.23703 0.0561 -0.48874 0.0658 -0.73169 c 0.01 -0.24294 0.008 -0.47746 0.0282 -0.68594 c 0.0208 -0.20848 0.0629 -0.39688 0.13141 -0.53047 c 0.26664 -0.51966 0.3146 -0.83908 0.45052 -1.07006 c 0.068 -0.11551 0.14941 -0.21013 0.30037 -0.29268 c 0.15094 -0.0826 0.36476 -0.15288 0.67579 -0.22864 c 0.17433 -0.0425 0.34657 -0.1301 0.50684 -0.24695 c 0.16025 -0.11685 0.30935 -0.26528 0.45992 -0.41157 c 0.3011 -0.29255 0.58438 -0.60025 0.8729 -0.74083 c 0.2549 -0.12419 0.55356 -0.19581 0.8729 -0.23779 c 0.31934 -0.0419 0.66578 -0.0517 1.01368 -0.0457 c 0.69581 0.0121 1.41375 0.0913 2.00862 0.0913 c 0.3241 0 0.65593 0.0723 0.98553 0.19205 c 0.32959 0.11975 0.65795 0.28176 0.97615 0.45731 c 0.63639 0.35109 1.22814 0.75123 1.71763 0.94204 c 0.17702 0.069 0.36288 0.0991 0.55379 0.10061 c 0.19092 0.002 0.38746 -0.0269 0.58194 -0.0732 c 0.38895 -0.0926 0.77589 -0.2637 1.11693 -0.42986 c 0.10048 -0.049 0.20892 -0.0482 0.32851 -0.009 c 0.11961 0.039 0.25375 0.12316 0.38483 0.22867 c 0.26219 0.21099 0.53544 0.53044 0.79782 0.87799 c 0.52472 0.6951 0.98582 1.49424 1.14508 1.70116 c 0.19579 0.25435 0.42194 0.38577 0.64765 0.439 c 0.2257 0.0532 0.45161 0.0242 0.66641 -0.0549 c 0.2148 -0.0791 0.41889 -0.20492 0.58193 -0.34755 c 0.16306 -0.14263 0.28618 -0.30164 0.35666 -0.439 c 0.12511 -0.24378 0.24275 -0.40805 0.36607 -0.53047 c 0.12332 -0.1224 0.2535 -0.205 0.39421 -0.26523 c 0.28143 -0.12046 0.6136 -0.17547 1.07939 -0.40243 c 0.17295 -0.0842 0.41322 -0.11919 0.68518 -0.12804 c 0.27197 -0.009 0.58043 0.009 0.88229 0.0457 c 0.60372 0.0732 1.19313 0.20834 1.50178 0.28353 c 0.31893 0.0776 0.60677 0.0993 0.8635 0.0823 c 0.25675 -0.0169 0.4846 -0.071 0.68518 -0.15548 c 0.20059 -0.0845 0.37512 -0.19511 0.52562 -0.3201 c 0.15049 -0.125 0.27835 -0.2641 0.38483 -0.40244 c 0.10574 -0.13737 0.26753 -0.22952 0.45992 -0.29267 c 0.19237 -0.0632 0.41239 -0.1034 0.65702 -0.11887 c 0.48924 -0.031 1.04759 0.009 1.5393 0.009 c 0.35175 0 0.60493 0.0987 0.80721 0.22864 c 0.20226 0.12986 0.35273 0.29523 0.50685 0.43901 c 0.15411 0.14377 0.31829 0.26009 0.52561 0.30181 c 0.10366 0.021 0.21132 0.0265 0.34729 0 c 0.13596 -0.0265 0.29775 -0.0856 0.47869 -0.17377 c 0.0947 -0.0461 0.10549 -0.21792 0.0659 -0.4573 c -0.0397 -0.23937 -0.13425 -0.54711 -0.23465 -0.85972 c -0.2008 -0.62523 -0.45053 -1.2742 -0.45053 -1.4725 c 0.00001 -0.3181 0.15628 -0.7041 0.30974 -1.11579 c 0.15347 -0.41171 0.30975 -0.8435 0.30975 -1.27129 c -0.00001 -0.13352 0.27394 -0.51558 0.56314 -0.8963 c 0.28923 -0.38072 0.59554 -0.76732 0.66643 -0.90545 c 0.14328 -0.27926 0.21464 -0.48937 0.24402 -0.66767 c 0.0294 -0.17828 0.0167 -0.32584 -0.0375 -0.46644 c -0.10853 -0.2812 -0.35776 -0.54176 -0.61948 -1.05179 c -0.0608 -0.11858 -0.0372 -0.27276 0.0281 -0.44815 c 0.0655 -0.17537 0.17345 -0.37367 0.29098 -0.57619 c 0.11752 -0.20253 0.24215 -0.41272 0.33791 -0.61277 c 0.0958 -0.20006 0.15955 -0.38997 0.15955 -0.5579 c -0.00001 -0.15376 -1.41281 -1.76558 -1.63317 -2.19504 c -0.26383 -0.51415 -0.52352 -0.81269 -0.71334 -1.1341 c -0.0949 -0.16069 -0.17057 -0.3309 -0.22527 -0.53045 c -0.0281 -0.10241 -0.0324 -0.25083 -0.23453 -0.43868 c -0.30349 0.022 0.37441 0.13564 0.76037 0.20155 c 0.31 0.06 0.59559 0.0913 0.81659 0.0913 c 0.13928 0 0.30281 -0.0459 0.47868 -0.11889 c 0.17587 -0.0729 0.36648 -0.1753 0.55376 -0.28353 c 0.3746 -0.21643 0.74438 -0.46327 1.01371 -0.59449 c 0.16122 -0.0785 0.38747 -0.12246 0.64763 -0.13717 c 0.26017 -0.0147 0.55701 -0.002 0.85413 0.0182 c 0.59423 0.0393 1.19744 0.1189 1.56747 0.1189 c 0.0148 -0.10179 0.23979 -0.13443 0.55378 -0.1006 c 0.31399 0.0338 0.71989 0.13434 1.09817 0.30181 c 0.18913 0.0838 0.37384 0.18505 0.535 0.30182 c 0.16116 0.11677 0.29976 0.2437 0.4036 0.39327 c 0.10384 0.14957 0.17058 0.32092 0.18773 0.50303 c 0.0172 0.18213 -0.0137 0.38006 -0.11265 0.59449 c -0.0805 0.0196 -0.11686 0.0593 -0.12202 0.1189 c -0.005 0.0595 0.0236 0.13214 0.0751 0.2195 c 0.10318 0.1747 0.29765 0.39898 0.51622 0.61279 c 0.43715 0.42758 0.95157 0.83575 0.95737 0.84142 c 0.14911 0.14528 0.28045 0.30912 0.38485 0.48473 c 0.10438 0.17561 0.18776 0.36504 0.26279 0.56705 c 0.15007 0.40402 0.25076 0.85842 0.37544 1.34445 c 0.0659 0.25651 0.19567 0.47235 0.35669 0.66766 c 0.16099 0.19529 0.35666 0.36799 0.58193 0.52133 c 0.4505 0.30666 0.99868 0.55058 1.52052 0.80483 c 0.58111 0.28312 1.06548 0.44339 1.49239 0.63108 c 0.21346 0.0938 0.4073 0.19956 0.60071 0.3201 c 0.1934 0.12055 0.37746 0.25807 0.56316 0.43901 c 0.11131 0.10846 0.22462 0.16959 0.32851 0.19207 c 0.10389 0.0225 0.20542 0.008 0.30036 -0.0366 c 0.18985 -0.088 0.36214 -0.29354 0.50684 -0.53048 c 0.28939 -0.47386 0.4726 -1.08294 0.50685 -1.2164 c 0.0313 -0.12198 0.0913 -0.21736 0.16895 -0.28353 c 0.0776 -0.0661 0.1679 -0.10405 0.28158 -0.12806 c 0.22737 -0.048 0.52502 -0.0301 0.83535 0.009 c 0.31033 0.0392 0.63652 0.10116 0.948 0.11891 c 0.31146 0.0177 0.60454 -0.007 0.83535 -0.11891 c 0.18372 -0.0895 0.38745 -0.0675 0.61009 0.009 c 0.22264 0.0767 0.46548 0.2097 0.71334 0.35669 c 0.24785 0.14702 0.50088 0.30844 0.76027 0.42988 c 0.25938 0.12144 0.52181 0.2012 0.77903 0.2012 c 0.36278 0 0.6624 0.0219 0.91984 0.0732 c 0.25744 0.0513 0.47341 0.13605 0.65702 0.24694 c 0.18362 0.11087 0.33738 0.25131 0.47869 0.42985 c 0.14132 0.17853 0.2731 0.39504 0.4036 0.64936 c 0.12973 0.25281 0.28344 0.41262 0.45053 0.53046 c 0.16708 0.11785 0.34237 0.19069 0.51624 0.28353 c 0.17387 0.0928 0.34741 0.19717 0.49745 0.37499 c 0.15004 0.17782 0.2798 0.43209 0.37544 0.80485 c 0.0291 0.11312 0.0777 0.19021 0.15017 0.24693 c 0.0725 0.0566 0.16592 0.0863 0.2722 0.10062 c 0.21257 0.0285 0.48898 -0.007 0.77904 -0.0641 c 0.29007 -0.0576 0.59173 -0.13217 0.8823 -0.16463 c 0.29055 -0.0324 0.56496 -0.022 0.77906 0.0823 c 0.40064 0.19528 0.67657 0.34264 0.88227 0.43899 c 0.20553 0.0964 0.34313 0.13906 0.45991 0.12806 c 0.11677 -0.011 0.21322 -0.0836 0.34729 -0.21037 c 0.13392 -0.12676 0.30561 -0.30695 0.56318 -0.5579 c 0.0761 -0.0743 0.16536 -0.0953 0.2628 -0.0823 c 0.0971 0.013 0.20091 0.0587 0.30972 0.1189 c 0.21766 0.12024 0.45239 0.29023 0.65703 0.3567 c 0.26041 0.0845 0.5366 0.12219 0.81659 0.1189 c 0.27982 -0.003 0.5629 -0.0442 0.82597 -0.10061 c 0.52596 -0.11282 0.98065 -0.29485 1.22019 -0.41157 c 0.30714 -0.14972 0.76347 -0.26419 1.22018 -0.35669 c 0.45655 -0.0924 0.9169 -0.1685 1.23897 -0.24694 c 0.32578 -0.0794 0.51938 -0.18438 0.657 -0.28353 c 0.13752 -0.0992 0.21749 -0.1894 0.30973 -0.24694 c 0.0923 -0.0574 0.19473 -0.082 0.38485 -0.0366 c 0.18994 0.0454 0.46099 0.16515 0.89166 0.37497 c 0.16751 0.0816 0.32856 0.2122 0.4787 0.37499 c 0.1501 0.1628 0.29597 0.35148 0.44113 0.54877 c 0.29032 0.39457 0.58377 0.81769 0.92923 1.07007 c 0.1667 0.12183 0.38664 0.18712 0.63825 0.22866 c 0.25142 0.0415 0.52863 0.0512 0.81656 0.0457 c 0.57587 -0.011 1.18196 -0.0823 1.61441 -0.0823 h 3.06924 l 1.07811 -0.68457 c -1.8162 -0.0272 -2.48359 1.34224 -2.63567 2.6919 z M 158.13482 213.05866 c -1.02674 -0.0476 -1.64295 2.1528 -1.97647 3.12941 c 0.25834 0.53206 1.22359 1.39351 -0.0823 2.55287 c 0.2172 0.43446 1.8258 -0.48002 1.48235 -0.82351 c -0.333 -0.33285 0.62121 -1.98361 0.74117 -2.22348 c -0.46484 -0.95833 -0.0176 -1.64976 -0.1647 -2.63529 z m -49.74092 51.63506 c -0.093 -0.004 -0.2257 0.0163 -0.41176 0.0823 c -0.507 -0.028 -0.47261 0.70844 -0.90587 0.90584 c -0.32341 0.56936 -0.27132 1.24405 0 1.81177 c -0.18744 0.74529 -0.10619 1.72708 -0.24707 2.22349 c 0.16819 0.87372 -1.0229 1.82177 -0.82352 2.22357 c 0.79499 0.67588 0.8215 2.27542 1.07059 2.55287 c 1.2904 0.7884 1.11627 2.45381 1.8941 3.45889 c 0.2606 0.6898 1.1463 0.21532 0.90588 -0.4118 c 0.0246 -0.92622 0.33259 -1.82278 0.41176 -2.55296 c 0.95008 -1.40243 1.96127 -1.15072 3.04704 -0.7411 c 0.6635 0.2537 1.67437 1.34257 2.38822 1.48229 c 0.27988 0.0398 0.43133 -0.24643 0.41177 -0.49413 c -0.46642 -0.34731 -1.80788 -0.85954 -1.7294 -1.56471 c 0.45077 -0.67633 0.14913 -1.00517 -0.32942 -1.39996 c -1.20474 -1.24878 -3.09729 -1.36495 -4.36468 -2.47055 c -0.41534 -0.37069 -1.65104 -0.59947 -0.98822 -1.31764 c 0.41918 -0.42054 1.01643 -1.29172 0.24705 -1.64703 c -1.22343 -0.50796 0.0745 -2.11178 -0.57647 -2.14116 z M 66.229297 447.68096 c -0.339603 0.3736 -1.938341 0.43236 -0.905885 1.0704 c 0.854125 0.44036 1.989709 1.42625 0.823524 2.22366 c -1.002418 1.07358 0.99586 1.05066 1.235292 1.81177 c 0.183642 1.05512 -0.953697 1.78066 -0.905876 2.79994 c -0.0273 1.25314 1.696226 0.70025 2.141159 1.64712 c 0.429723 0.8498 0.337475 1.98779 0.741173 2.88217 c 0.864441 0.77002 1.632922 0.51496 2.635286 0.90602 c 0.771274 0.48385 1.965658 1.68469 2.141159 0.0822 c -0.718859 -2.46081 1.1029 -0.54716 1.894113 -4.36455 c 0.01401 -1.0391 -1.743137 -2.60581 -2.552926 -2.96476 c -0.377863 -2.35803 -0.734778 -0.96788 -1.482346 -1.40006 c 0.399814 -1.00008 0.111152 -0.82488 -0.494118 -1.39988 c -1.720177 -0.89629 -3.08757 -3.12941 -5.270555 -3.29406 z m 5.188203 17.12927 c 0.105221 0.72791 0.116255 1.49448 1.152931 1.23514 c 0.555712 -0.13882 -0.640592 -0.97925 -1.152931 -1.23514 z" stroke-linecap="round" />
</g>
</svg>