<?xml version="1.0" encoding="utf-8"?>
<svg viewBox="299.9043 13.1462 34.6064 32.9647" xmlns="http://www.w3.org/2000/svg">
  <path d="M -5.148 22.542 C -5.268 22.532 -5.338 22.792 -5.378 22.902 C -5.348 22.972 -5.238 23.072 -5.388 23.202 C -5.368 23.252 -5.178 23.152 -5.218 23.112 C -5.258 23.072 -5.138 22.872 -5.128 22.852 C -5.178 22.732 -5.128 22.652 -5.148 22.542 Z M -10.978 28.592 C -10.988 28.592 -11.008 28.592 -11.028 28.602 C -11.088 28.602 -11.088 28.682 -11.138 28.712 C -11.168 28.772 -11.168 28.852 -11.138 28.922 C -11.158 29.012 -11.148 29.122 -11.168 29.182 C -11.148 29.282 -11.288 29.392 -11.258 29.442 C -11.168 29.522 -11.168 29.712 -11.138 29.742 C -10.988 29.832 -11.008 30.032 -10.908 30.152 C -10.878 30.232 -10.778 30.172 -10.808 30.102 C -10.808 29.992 -10.768 29.882 -10.758 29.802 C -10.648 29.632 -10.528 29.662 -10.398 29.712 C -10.318 29.742 -10.208 29.872 -10.118 29.892 C -10.088 29.892 -10.068 29.862 -10.068 29.832 C -10.128 29.792 -10.288 29.732 -10.278 29.642 C -10.218 29.572 -10.258 29.532 -10.318 29.482 C -10.458 29.332 -10.678 29.322 -10.828 29.192 C -10.878 29.152 -11.018 29.122 -10.938 29.042 C -10.888 28.992 -10.818 28.882 -10.908 28.842 C -11.058 28.782 -10.908 28.602 -10.978 28.592 Z M -2.878 19.752 L -2.848 19.772 C -2.838 19.772 -2.818 19.782 -2.808 19.792 C -2.798 19.792 -2.798 19.802 -2.798 19.822 C -2.798 19.832 -2.798 19.902 -2.788 19.972 C -2.778 20.002 -2.768 20.032 -2.768 20.042 C -2.758 20.052 -2.758 20.062 -2.748 20.062 C -2.748 20.062 -2.738 20.062 -2.728 20.062 C -2.718 20.042 -2.698 20.012 -2.678 20.002 C -2.668 19.992 -2.658 19.982 -2.648 19.982 C -2.638 19.982 -2.638 19.982 -2.628 19.992 C -2.618 20.012 -2.608 20.032 -2.588 20.042 C -2.578 20.052 -2.548 20.052 -2.508 20.052 C -2.488 20.052 -2.458 20.052 -2.438 20.042 C -2.408 20.032 -2.388 20.032 -2.368 20.032 C -2.328 20.042 -2.308 20.062 -2.288 20.072 C -2.278 20.082 -2.258 20.092 -2.248 20.092 C -2.228 20.102 -2.218 20.102 -2.198 20.102 C -2.178 20.102 -2.168 20.102 -2.158 20.092 C -2.138 20.092 -2.138 20.082 -2.128 20.072 C -2.108 20.052 -2.088 20.032 -2.068 20.022 C -2.018 20.012 -2.008 19.992 -1.988 19.982 C -1.978 19.972 -1.968 19.972 -1.948 19.982 C -1.938 19.982 -1.928 20.002 -1.898 20.022 L -1.918 20.432 L -1.808 20.612 C -1.798 20.622 -1.798 20.622 -1.798 20.612 C -1.808 20.612 -1.808 20.612 -1.788 20.622 C -1.768 20.642 -1.768 20.662 -1.768 20.682 C -1.768 20.692 -1.768 20.702 -1.778 20.712 C -1.788 20.722 -1.798 20.732 -1.798 20.742 C -1.808 20.752 -1.808 20.762 -1.798 20.762 C -1.768 20.792 -1.748 20.802 -1.748 20.812 C -1.738 20.822 -1.738 20.822 -1.748 20.822 C -1.748 20.832 -1.758 20.832 -1.768 20.832 C -1.778 20.832 -1.788 20.842 -1.788 20.852 C -1.798 20.872 -1.798 20.902 -1.818 20.922 C -1.818 20.932 -1.828 20.942 -1.848 20.942 C -1.858 20.942 -1.868 20.942 -1.888 20.932 C -1.908 20.922 -1.918 20.922 -1.928 20.922 C -1.938 20.922 -1.948 20.932 -1.948 20.942 C -1.968 20.952 -1.978 20.972 -1.998 21.002 C -2.008 21.012 -2.018 21.042 -2.038 21.062 C -2.048 21.092 -2.058 21.122 -2.048 21.142 C -2.048 21.172 -2.028 21.192 -2.018 21.222 C -2.008 21.242 -2.008 21.262 -2.008 21.292 C -2.018 21.302 -2.028 21.332 -2.038 21.352 C -2.038 21.372 -2.038 21.382 -2.038 21.392 C -2.038 21.402 -2.028 21.412 -2.008 21.412 C -1.998 21.412 -1.958 21.432 -1.928 21.452 C -1.918 21.462 -1.898 21.472 -1.888 21.482 C -1.878 21.492 -1.868 21.502 -1.868 21.512 C -1.868 21.532 -1.868 21.542 -1.858 21.562 C -1.848 21.572 -1.848 21.582 -1.838 21.582 C -1.818 21.602 -1.788 21.612 -1.768 21.632 C -1.738 21.652 -1.728 21.662 -1.718 21.682 C -1.708 21.692 -1.698 21.712 -1.698 21.742 C -1.698 21.772 -1.688 21.812 -1.668 21.832 C -1.658 21.862 -1.638 21.882 -1.648 21.882 C -1.658 21.872 -1.678 21.872 -1.688 21.872 L -1.688 22.372 C -1.678 22.372 -1.668 22.392 -1.658 22.402 C -1.638 22.412 -1.628 22.422 -1.618 22.412 C -1.598 22.432 -1.568 22.442 -1.538 22.452 C -1.508 22.452 -1.478 22.452 -1.438 22.452 C -1.408 22.442 -1.388 22.432 -1.368 22.422 C -1.358 22.412 -1.338 22.402 -1.298 22.402 C -1.268 22.402 -1.248 22.412 -1.238 22.422 C -1.238 22.432 -1.248 22.452 -1.268 22.472 C -1.298 22.502 -1.308 22.552 -1.338 22.582 C -1.368 22.622 -1.378 22.632 -1.378 22.632 C -1.368 22.642 -1.348 22.642 -1.318 22.652 C -1.288 22.672 -1.258 22.692 -1.238 22.692 C -1.218 22.702 -1.188 22.692 -1.158 22.672 C -1.138 22.662 -1.118 22.652 -1.088 22.642 C -1.078 22.632 -1.068 22.632 -1.058 22.632 C -1.048 22.632 -1.028 22.632 -1.018 22.642 C -0.998 22.652 -0.968 22.672 -0.938 22.682 C -0.928 22.692 -0.918 22.692 -0.898 22.692 C -0.888 22.692 -0.878 22.692 -0.868 22.682 C -0.858 22.662 -0.838 22.622 -0.818 22.612 C -0.808 22.612 -0.808 22.612 -0.808 22.612 C -0.798 22.612 -0.788 22.612 -0.788 22.612 C -0.778 22.622 -0.768 22.642 -0.758 22.662 C -0.758 22.692 -0.748 22.722 -0.748 22.752 C -0.748 22.792 -0.748 22.822 -0.758 22.832 C -0.778 22.862 -0.798 22.892 -0.808 22.922 C -0.808 22.942 -0.818 22.952 -0.818 22.962 C -0.818 22.982 -0.818 22.992 -0.808 22.992 C -0.768 23.032 -0.748 23.072 -0.718 23.112 C -0.698 23.132 -0.688 23.152 -0.668 23.172 C -0.658 23.182 -0.648 23.182 -0.638 23.192 C -0.628 23.192 -0.618 23.192 -0.598 23.192 C -0.558 23.182 -0.518 23.162 -0.478 23.152 C -0.448 23.142 -0.408 23.132 -0.378 23.132 C -0.348 23.132 -0.318 23.132 -0.288 23.132 C -0.268 23.132 -0.258 23.132 -0.238 23.132 C -0.228 23.142 -0.218 23.142 -0.208 23.152 C -0.188 23.172 -0.158 23.192 -0.138 23.212 C -0.118 23.232 -0.098 23.262 -0.088 23.282 C -0.078 23.302 -0.068 23.322 -0.048 23.332 C -0.038 23.342 -0.028 23.352 -0.018 23.362 C 0.012 23.372 0.042 23.372 0.092 23.372 C 0.102 23.372 0.132 23.362 0.172 23.362 C 0.182 23.362 0.202 23.362 0.212 23.372 C 0.222 23.372 0.222 23.382 0.222 23.392 C 0.222 23.412 0.222 23.422 0.222 23.432 C 0.222 23.442 0.232 23.462 0.242 23.472 C 0.252 23.492 0.282 23.522 0.302 23.542 C 0.302 23.552 0.332 23.582 0.352 23.602 C 0.372 23.632 0.402 23.652 0.422 23.652 C 0.452 23.652 0.482 23.662 0.502 23.662 C 0.532 23.662 0.552 23.672 0.582 23.692 C 0.612 23.702 0.632 23.712 0.652 23.722 C 0.662 23.722 0.672 23.732 0.672 23.742 C 0.682 23.752 0.682 23.772 0.682 23.792 C 0.682 23.832 0.682 23.862 0.692 23.892 C 0.702 23.912 0.722 23.932 0.752 23.962 C 0.772 23.982 0.782 24.012 0.782 24.042 C 0.792 24.072 0.792 24.102 0.802 24.112 C 0.812 24.122 0.822 24.132 0.832 24.142 C 0.862 24.162 0.882 24.182 0.892 24.202 C 0.902 24.222 0.912 24.242 0.912 24.282 C 0.912 24.312 0.912 24.362 0.922 24.402 C 0.922 24.412 0.932 24.412 0.932 24.422 C 0.932 24.432 0.932 24.442 0.932 24.442 C 0.942 24.452 0.952 24.452 0.952 24.442 C 0.962 24.432 1.002 24.412 1.032 24.402 C 1.052 24.402 1.062 24.402 1.072 24.402 C 1.082 24.412 1.092 24.412 1.082 24.432 C 1.082 24.442 1.052 24.472 1.022 24.492 C 1.012 24.512 0.992 24.522 0.992 24.532 C 0.982 24.542 0.972 24.562 0.972 24.572 C 0.982 24.582 0.992 24.592 1.002 24.592 C 1.022 24.602 1.042 24.602 1.052 24.602 C 1.072 24.612 1.092 24.612 1.102 24.612 C 1.112 24.622 1.112 24.622 1.102 24.632 C 1.092 24.652 1.082 24.662 1.072 24.682 C 1.062 24.702 1.042 24.722 1.042 24.752 C 1.032 24.802 1.002 24.852 0.972 24.902 C 0.962 24.922 0.932 24.942 0.912 24.962 C 0.902 24.972 0.902 24.982 0.892 24.992 C 0.892 25.002 0.892 25.012 0.902 25.022 C 0.902 25.032 0.902 25.042 0.922 25.052 C 0.942 25.072 0.962 25.102 0.972 25.122 C 0.992 25.142 0.992 25.172 0.992 25.202 C 0.992 25.222 1.002 25.262 1.002 25.302 C 1.012 25.342 1.022 25.372 1.032 25.382 C 1.052 25.412 1.072 25.422 1.082 25.442 C 1.092 25.462 1.092 25.482 1.082 25.522 C 1.072 25.582 1.072 25.612 1.052 25.672 C 1.042 25.702 1.032 25.732 1.032 25.742 C 1.032 25.752 1.032 25.762 1.042 25.772 C 1.052 25.772 1.062 25.782 1.082 25.782 C 1.102 25.792 1.122 25.802 1.132 25.802 C 1.142 25.812 1.152 25.822 1.162 25.832 C 1.172 25.852 1.182 25.872 1.202 25.912 C 1.212 25.932 1.232 25.942 1.242 25.952 C 1.252 25.952 1.272 25.962 1.282 25.962 C 1.312 25.972 1.332 25.982 1.362 26.002 C 1.392 26.042 1.442 26.072 1.492 26.092 C 1.512 26.102 1.532 26.132 1.552 26.152 C 1.562 26.162 1.572 26.172 1.582 26.182 C 1.602 26.192 1.612 26.192 1.622 26.192 C 1.642 26.192 1.682 26.202 1.712 26.222 C 1.732 26.222 1.732 26.232 1.732 26.242 C 1.742 26.252 1.732 26.262 1.712 26.272 C 1.692 26.282 1.672 26.292 1.642 26.292 C 1.612 26.302 1.592 26.302 1.552 26.302 C 1.512 26.302 1.482 26.302 1.462 26.312 C 1.452 26.322 1.442 26.342 1.432 26.382 C 1.432 26.392 1.422 26.402 1.412 26.412 C 1.402 26.422 1.392 26.432 1.372 26.442 C 1.362 26.452 1.352 26.462 1.342 26.472 C 1.332 26.482 1.332 26.492 1.332 26.502 C 1.342 26.532 1.352 26.562 1.362 26.582 C 1.372 26.612 1.392 26.642 1.412 26.662 C 1.442 26.692 1.452 26.712 1.462 26.732 C 1.472 26.752 1.482 26.782 1.482 26.812 C 1.482 26.852 1.472 26.872 1.452 26.882 C 1.442 26.902 1.432 26.912 1.422 26.932 C 1.422 26.952 1.412 26.972 1.412 26.972 C 1.402 26.982 1.392 26.992 1.382 27.002 C 1.362 27.002 1.342 27.002 1.302 27.002 L 1.132 27.002 C 1.102 27.002 1.072 27.012 1.042 27.012 C 1.012 27.012 0.992 27.012 0.962 27.002 C 0.932 27.002 0.912 26.972 0.882 26.962 C 0.862 26.952 0.852 26.942 0.832 26.932 C 0.822 26.932 0.802 26.922 0.782 26.922 C 0.752 26.922 0.722 26.932 0.692 26.932 C 0.662 26.932 0.642 26.932 0.612 26.922 C 0.592 26.922 0.542 26.842 0.532 26.842 C 0.512 26.852 0.482 26.862 0.462 26.882 C 0.432 26.902 0.412 26.922 0.392 26.942 C 0.392 26.962 0.382 26.972 0.362 26.972 C 0.352 26.982 0.332 26.982 0.312 26.992 C 0.302 26.992 0.282 27.002 0.272 27.012 C 0.262 27.012 0.262 27.022 0.262 27.042 C 0.272 27.062 0.292 27.092 0.312 27.122 C 0.322 27.132 0.332 27.152 0.332 27.162 C 0.342 27.182 0.342 27.202 0.342 27.212 C 0.342 27.222 0.332 27.232 0.312 27.242 C 0.302 27.252 0.292 27.262 0.272 27.262 C 0.262 27.272 0.252 27.282 0.242 27.292 C 0.232 27.292 0.232 27.302 0.242 27.312 C 0.262 27.322 0.272 27.342 0.292 27.362 C 0.302 27.382 0.312 27.402 0.322 27.422 C 0.352 27.422 0.382 27.422 0.422 27.422 C 0.502 27.432 0.592 27.442 0.662 27.462 C 0.732 27.482 0.812 27.482 0.882 27.492 C 0.962 27.492 1.032 27.492 1.102 27.512 C 1.192 27.532 1.242 27.562 1.282 27.572 C 1.302 27.572 1.322 27.572 1.342 27.562 C 1.362 27.562 1.382 27.542 1.412 27.512 C 1.422 27.502 1.432 27.492 1.452 27.482 C 1.462 27.482 1.472 27.472 1.492 27.472 C 1.512 27.472 1.542 27.482 1.562 27.492 C 1.612 27.522 1.652 27.572 1.672 27.582 C 1.682 27.602 1.702 27.612 1.732 27.602 C 1.752 27.602 1.772 27.602 1.802 27.592 C 1.832 27.592 1.852 27.582 1.882 27.572 C 1.902 27.572 1.932 27.572 1.952 27.582 C 1.962 27.592 1.972 27.602 1.982 27.612 C 1.992 27.622 2.002 27.632 2.002 27.642 C 2.012 27.672 2.012 27.692 2.012 27.702 C 2.012 27.712 2.012 27.722 2.012 27.722 C 2.012 27.722 2.022 27.722 2.022 27.722 C 2.032 27.712 2.052 27.682 2.092 27.632 C 2.122 27.592 2.132 27.552 2.152 27.512 C 2.162 27.472 2.172 27.422 2.182 27.362 C 2.192 27.332 2.192 27.312 2.182 27.292 C 2.182 27.272 2.172 27.252 2.162 27.232 C 2.152 27.212 2.142 27.202 2.152 27.172 C 2.152 27.152 2.162 27.132 2.182 27.092 C 2.232 27.032 2.242 27.012 2.282 26.972 L 2.512 26.972 L 2.652 27.262 L 2.792 27.092 L 2.962 27.242 L 2.752 27.412 L 2.792 27.532 L 2.892 27.412 L 3.262 27.482 L 3.292 27.612 L 3.402 27.562 L 3.432 27.362 C 3.462 27.352 3.492 27.332 3.522 27.312 C 3.592 27.282 3.622 27.272 3.652 27.212 C 3.682 27.202 3.712 27.212 3.752 27.232 C 3.802 27.262 3.852 27.292 3.882 27.332 C 3.902 27.352 3.922 27.372 3.932 27.392 C 3.942 27.412 3.942 27.442 3.942 27.462 C 3.942 27.512 3.952 27.542 3.962 27.562 C 3.972 27.582 3.982 27.592 4.002 27.602 C 4.012 27.602 4.032 27.612 4.042 27.632 C 4.062 27.652 4.072 27.682 4.092 27.732 C 4.102 27.792 4.122 27.842 4.152 27.882 C 4.182 27.932 4.202 27.982 4.232 28.022 C 4.242 28.052 4.262 28.072 4.282 28.092 C 4.302 28.102 4.322 28.122 4.342 28.132 C 4.362 28.152 4.382 28.162 4.392 28.192 C 4.412 28.212 4.432 28.242 4.442 28.292 C 4.452 28.332 4.462 28.362 4.482 28.372 C 4.492 28.392 4.522 28.392 4.542 28.392 C 4.592 28.392 4.662 28.362 4.742 28.362 C 4.762 28.362 4.782 28.372 4.812 28.382 C 4.832 28.392 4.862 28.412 4.882 28.422 C 4.912 28.442 4.942 28.462 4.972 28.472 C 5.002 28.492 5.032 28.502 5.072 28.512 C 5.192 28.542 5.302 28.552 5.422 28.592 C 5.472 28.602 5.542 28.622 5.592 28.662 C 5.652 28.692 5.712 28.722 5.752 28.762 C 5.802 28.792 5.852 28.842 5.892 28.872 C 5.942 28.912 5.982 28.952 6.032 28.982 C 6.062 28.992 6.092 29.002 6.112 29.002 C 6.142 29.012 6.162 29.022 6.192 29.022 L 6.202 29.022 C 6.202 29.042 6.202 29.052 6.202 29.072 C 6.202 29.092 6.212 29.112 6.222 29.142 C 6.232 29.162 6.252 29.192 6.272 29.222 C 6.292 29.242 6.302 29.272 6.322 29.302 C 6.332 29.322 6.342 29.352 6.342 29.372 C 6.342 29.412 6.332 29.442 6.322 29.462 C 6.312 29.482 6.302 29.492 6.282 29.512 C 6.262 29.522 6.252 29.522 6.222 29.542 C 6.202 29.552 6.182 29.562 6.152 29.592 C 6.112 29.632 6.072 29.652 6.032 29.682 C 6.022 29.692 6.002 29.702 5.982 29.722 C 5.972 29.742 5.952 29.762 5.942 29.782 C 5.922 29.832 5.902 29.872 5.892 29.892 C 5.882 29.912 5.872 29.922 5.862 29.922 C 5.832 29.922 5.802 29.912 5.712 29.912 C 5.682 29.912 5.662 29.912 5.642 29.922 C 5.632 29.922 5.612 29.932 5.602 29.942 C 5.572 29.962 5.532 29.992 5.472 30.032 C 5.442 30.042 5.412 30.062 5.382 30.082 L 5.452 30.302 L 5.242 30.592 L 5.352 30.642 L 5.402 31.032 L 5.282 31.032 L 5.332 31.152 L 5.172 31.202 L 5.292 31.872 C 5.332 31.842 5.372 31.802 5.402 31.792 C 5.462 31.772 5.512 31.762 5.562 31.742 C 5.582 31.732 5.612 31.722 5.622 31.712 C 5.642 31.692 5.652 31.672 5.662 31.642 C 5.662 31.632 5.672 31.622 5.672 31.612 C 5.682 31.612 5.692 31.602 5.702 31.602 C 5.732 31.592 5.762 31.582 5.792 31.582 C 5.852 31.582 5.922 31.592 5.962 31.592 C 5.992 31.592 6.012 31.602 6.032 31.612 C 6.062 31.622 6.082 31.632 6.112 31.642 C 6.152 31.672 6.192 31.702 6.222 31.712 C 6.262 31.732 6.292 31.752 6.322 31.772 C 6.352 31.782 6.372 31.802 6.402 31.802 C 6.422 31.812 6.442 31.812 6.472 31.792 C 6.492 31.782 6.512 31.752 6.532 31.712 C 6.532 31.702 6.542 31.692 6.552 31.692 C 6.562 31.682 6.572 31.672 6.582 31.672 C 6.612 31.672 6.642 31.672 6.672 31.672 C 6.702 31.672 6.732 31.672 6.762 31.672 C 6.792 31.672 6.812 31.662 6.832 31.642 C 6.882 31.592 6.892 31.562 6.932 31.532 C 6.942 31.522 6.962 31.512 6.982 31.502 C 7.012 31.502 7.042 31.492 7.092 31.492 C 7.122 31.492 7.142 31.492 7.172 31.482 C 7.192 31.472 7.222 31.462 7.242 31.452 C 7.282 31.422 7.322 31.402 7.332 31.402 C 7.352 31.392 7.362 31.382 7.362 31.392 C 7.372 31.402 7.362 31.412 7.362 31.422 C 7.362 31.442 7.362 31.462 7.372 31.482 C 7.372 31.502 7.382 31.522 7.392 31.542 C 7.402 31.562 7.422 31.572 7.452 31.582 C 7.472 31.592 7.502 31.602 7.532 31.612 C 7.592 31.632 7.652 31.642 7.682 31.642 C 7.742 31.642 7.812 31.652 7.882 31.662 C 7.902 31.662 7.912 31.672 7.922 31.672 C 7.932 31.642 7.932 31.612 7.942 31.582 C 7.952 31.522 7.972 31.472 7.982 31.422 C 7.992 31.402 7.982 31.382 7.972 31.362 C 7.962 31.342 7.952 31.322 7.942 31.302 C 7.942 31.292 7.932 31.292 7.932 31.282 C 7.932 31.282 7.942 31.272 7.942 31.262 C 7.952 31.262 7.982 31.252 8.032 31.252 C 8.092 31.252 8.152 31.252 8.212 31.262 C 8.272 31.262 8.322 31.272 8.362 31.282 C 8.382 31.282 8.442 31.332 8.502 31.382 C 8.562 31.442 8.622 31.492 8.642 31.522 C 8.702 31.582 8.742 31.622 8.772 31.632 C 8.792 31.642 8.802 31.652 8.822 31.652 C 8.842 31.652 8.852 31.652 8.872 31.642 C 8.902 31.642 8.922 31.632 8.942 31.622 C 8.952 31.612 8.962 31.592 8.982 31.582 C 8.992 31.572 9.012 31.562 9.042 31.562 C 9.062 31.552 9.092 31.552 9.132 31.552 C 9.202 31.552 9.252 31.562 9.292 31.572 C 9.312 31.572 9.332 31.572 9.362 31.562 C 9.382 31.562 9.412 31.542 9.442 31.522 C 9.482 31.482 9.522 31.472 9.552 31.452 C 9.582 31.432 9.612 31.412 9.652 31.372 C 9.662 31.372 9.682 31.362 9.702 31.362 C 9.722 31.362 9.752 31.372 9.792 31.372 C 9.852 31.372 9.912 31.382 9.932 31.372 C 9.962 31.362 9.992 31.352 10.022 31.342 C 10.052 31.332 10.082 31.322 10.102 31.322 C 10.132 31.312 10.152 31.312 10.172 31.302 C 10.192 31.292 10.222 31.272 10.242 31.252 C 10.262 31.222 10.302 31.202 10.342 31.172 C 10.382 31.142 10.422 31.122 10.452 31.102 C 10.512 31.072 10.552 31.052 10.572 31.032 C 10.592 31.002 10.612 30.972 10.642 30.912 C 10.652 30.892 10.652 30.862 10.662 30.832 C 10.662 30.802 10.662 30.772 10.662 30.742 C 10.672 30.712 10.662 30.682 10.672 30.662 C 10.672 30.632 10.672 30.612 10.682 30.592 C 10.712 30.532 10.722 30.492 10.732 30.462 C 10.742 30.442 10.752 30.432 10.772 30.422 C 10.792 30.412 10.812 30.402 10.852 30.392 C 10.872 30.392 10.892 30.382 10.902 30.362 C 10.922 30.352 10.942 30.332 10.962 30.312 C 10.992 30.282 11.022 30.242 11.062 30.222 C 11.092 30.212 11.122 30.202 11.162 30.192 C 11.192 30.192 11.232 30.192 11.272 30.192 C 11.352 30.192 11.442 30.202 11.502 30.202 C 11.542 30.202 11.582 30.212 11.622 30.222 C 11.652 30.242 11.692 30.262 11.732 30.282 C 11.802 30.322 11.872 30.372 11.932 30.402 C 11.952 30.402 11.972 30.412 11.992 30.412 C 12.012 30.412 12.032 30.402 12.062 30.402 C 12.102 30.392 12.152 30.372 12.182 30.352 C 12.202 30.342 12.212 30.342 12.222 30.352 C 12.242 30.352 12.252 30.362 12.272 30.372 C 12.302 30.402 12.332 30.442 12.362 30.482 C 12.422 30.572 12.472 30.662 12.492 30.692 C 12.512 30.722 12.542 30.742 12.562 30.742 C 12.592 30.752 12.622 30.752 12.642 30.742 C 12.672 30.732 12.692 30.712 12.712 30.692 C 12.732 30.682 12.742 30.662 12.752 30.642 C 12.762 30.612 12.782 30.592 12.792 30.582 C 12.802 30.562 12.822 30.552 12.842 30.542 C 12.872 30.532 12.912 30.522 12.962 30.492 C 12.982 30.482 13.012 30.482 13.042 30.482 C 13.072 30.482 13.102 30.482 13.142 30.482 C 13.212 30.492 13.282 30.512 13.312 30.522 C 13.352 30.532 13.382 30.532 13.412 30.532 C 13.442 30.532 13.472 30.522 13.492 30.512 C 13.512 30.502 13.532 30.482 13.552 30.472 C 13.572 30.452 13.582 30.442 13.592 30.422 C 13.612 30.402 13.622 30.392 13.652 30.382 C 13.672 30.382 13.692 30.372 13.722 30.372 C 13.782 30.372 13.842 30.372 13.902 30.372 C 13.942 30.372 13.972 30.382 13.992 30.402 C 14.012 30.412 14.032 30.442 14.052 30.452 C 14.072 30.472 14.092 30.482 14.112 30.492 C 14.122 30.492 14.132 30.492 14.152 30.492 C 14.162 30.492 14.182 30.482 14.202 30.472 C 14.222 30.462 14.222 30.442 14.212 30.412 C 14.212 30.382 14.202 30.352 14.192 30.312 C 14.162 30.232 14.132 30.152 14.132 30.132 C 14.132 30.092 14.152 30.042 14.172 29.992 C 14.192 29.942 14.202 29.892 14.202 29.832 C 14.202 29.822 14.242 29.772 14.272 29.722 C 14.302 29.682 14.342 29.632 14.352 29.612 C 14.362 29.582 14.372 29.552 14.372 29.532 C 14.382 29.512 14.382 29.492 14.372 29.472 C 14.362 29.442 14.332 29.412 14.302 29.342 C 14.292 29.332 14.292 29.312 14.302 29.292 C 14.312 29.272 14.322 29.242 14.332 29.222 C 14.352 29.192 14.362 29.172 14.372 29.142 C 14.382 29.122 14.392 29.102 14.392 29.082 C 14.392 29.062 14.232 28.862 14.202 28.812 C 14.172 28.742 14.142 28.712 14.122 28.672 C 14.112 28.652 14.102 28.632 14.102 28.602 C 14.092 28.592 14.092 28.572 14.122 28.562 C 14.192 28.582 14.222 28.582 14.252 28.582 C 14.272 28.582 14.292 28.582 14.312 28.572 C 14.332 28.562 14.352 28.552 14.372 28.532 C 14.412 28.512 14.452 28.482 14.492 28.462 C 14.502 28.452 14.532 28.452 14.562 28.442 C 14.592 28.442 14.622 28.442 14.662 28.452 C 14.732 28.452 14.792 28.462 14.842 28.462 C 14.842 28.452 14.862 28.452 14.902 28.452 C 14.942 28.452 14.982 28.472 15.032 28.492 C 15.052 28.502 15.072 28.512 15.092 28.522 C 15.112 28.542 15.122 28.552 15.132 28.572 C 15.152 28.592 15.152 28.612 15.162 28.632 C 15.162 28.662 15.162 28.682 15.142 28.712 C 15.132 28.712 15.132 28.712 15.132 28.722 C 15.132 28.732 15.132 28.742 15.142 28.752 C 15.152 28.772 15.172 28.802 15.202 28.822 C 15.252 28.882 15.312 28.932 15.312 28.932 C 15.322 28.942 15.342 28.962 15.352 28.992 C 15.362 29.012 15.372 29.032 15.382 29.062 C 15.402 29.102 15.412 29.162 15.422 29.222 C 15.432 29.252 15.452 29.282 15.462 29.302 C 15.482 29.332 15.512 29.352 15.532 29.372 C 15.582 29.402 15.652 29.432 15.712 29.462 C 15.772 29.502 15.832 29.522 15.882 29.542 C 15.902 29.552 15.922 29.572 15.952 29.582 C 15.972 29.602 15.992 29.612 16.012 29.642 C 16.022 29.652 16.042 29.662 16.052 29.662 C 16.062 29.662 16.072 29.662 16.082 29.652 C 16.102 29.642 16.122 29.622 16.142 29.592 C 16.172 29.532 16.202 29.462 16.202 29.442 C 16.202 29.422 16.212 29.412 16.222 29.402 C 16.232 29.402 16.242 29.392 16.252 29.392 C 16.282 29.382 16.312 29.382 16.352 29.392 C 16.382 29.392 16.422 29.402 16.462 29.402 C 16.492 29.412 16.522 29.402 16.552 29.392 C 16.572 29.382 16.602 29.382 16.622 29.392 C 16.652 29.402 16.672 29.422 16.702 29.432 C 16.732 29.452 16.762 29.472 16.792 29.492 C 16.822 29.502 16.852 29.512 16.882 29.512 C 16.922 29.512 16.962 29.512 16.992 29.522 C 17.012 29.532 17.042 29.542 17.062 29.552 C 17.082 29.562 17.102 29.582 17.122 29.602 C 17.132 29.632 17.152 29.652 17.162 29.682 C 17.182 29.712 17.192 29.732 17.212 29.752 C 17.232 29.762 17.252 29.772 17.272 29.782 C 17.292 29.792 17.312 29.812 17.332 29.832 C 17.352 29.852 17.362 29.882 17.372 29.932 C 17.382 29.942 17.382 29.952 17.392 29.962 C 17.402 29.962 17.412 29.972 17.422 29.972 C 17.452 29.972 17.482 29.972 17.512 29.962 C 17.542 29.962 17.582 29.952 17.612 29.942 C 17.652 29.942 17.682 29.942 17.702 29.952 C 17.752 29.982 17.782 30.002 17.802 30.012 C 17.832 30.022 17.842 30.022 17.862 30.022 C 17.872 30.022 17.882 30.012 17.902 30.002 C 17.912 29.982 17.932 29.962 17.962 29.932 C 17.972 29.922 17.982 29.922 17.992 29.922 C 18.002 29.922 18.012 29.922 18.032 29.932 C 18.052 29.952 18.082 29.972 18.102 29.982 C 18.132 29.992 18.162 29.992 18.192 29.992 C 18.232 29.992 18.262 29.992 18.292 29.982 C 18.352 29.972 18.402 29.942 18.432 29.932 C 18.462 29.912 18.522 29.902 18.572 29.892 C 18.622 29.872 18.672 29.862 18.712 29.852 C 18.752 29.842 18.772 29.832 18.792 29.822 C 18.802 29.812 18.812 29.802 18.822 29.792 C 18.832 29.782 18.842 29.782 18.872 29.782 C 18.892 29.792 18.922 29.802 18.972 29.832 C 18.992 29.842 19.012 29.862 19.022 29.882 C 19.042 29.902 19.062 29.922 19.072 29.942 C 19.112 29.992 19.142 30.042 19.182 30.082 C 19.202 30.092 19.232 30.102 19.252 30.102 C 19.282 30.112 19.322 30.112 19.352 30.112 C 19.412 30.112 19.482 30.102 19.532 30.102 L 19.892 30.102 L 20.052 30.102 C 20.052 30.102 20.252 30.022 20.252 30.052 C 20.252 30.182 20.132 30.232 19.942 30.312 C 19.772 30.392 19.692 30.552 19.672 30.712 C 19.652 30.872 19.762 31.072 19.862 31.222 C 19.922 31.302 20.032 31.382 19.972 31.452 C 19.922 31.512 19.632 31.712 19.542 31.682 C 19.382 31.622 19.332 31.682 19.332 31.732 C 19.332 31.842 19.472 31.932 19.342 32.002 C 19.282 32.032 19.122 32.202 19.112 32.252 C 19.082 32.362 18.992 32.452 18.852 32.432 C 18.632 32.412 18.712 32.562 18.702 32.712 C 18.702 32.832 18.722 33.022 18.782 33.172 C 18.832 33.282 18.902 33.502 18.902 33.552 C 19.032 33.732 19.032 33.742 19.012 33.972 C 18.982 34.072 19.012 34.262 19.072 34.362 C 19.142 34.472 18.952 34.472 19.432 34.502 C 19.592 34.512 19.612 34.842 19.682 35.112 C 19.712 35.232 19.812 35.102 19.832 35.132 C 19.862 35.162 19.952 35.432 20.012 35.532 C 20.112 35.712 19.982 35.562 19.972 35.792 C 19.962 35.902 19.992 36.002 19.952 36.122 C 19.882 36.342 19.832 36.582 19.772 36.622 C 19.622 36.692 19.742 36.862 19.772 36.902 C 19.822 37.002 19.902 37.322 19.902 37.442 C 19.902 37.582 19.852 37.682 19.652 37.782 C 19.502 37.862 19.502 38.002 19.312 37.942 C 19.092 37.862 19.152 38.082 19.072 38.242 C 19.022 38.342 18.972 38.332 18.962 38.472 C 18.962 38.502 18.972 38.572 18.982 38.632 C 19.012 38.792 19.042 38.972 18.992 39.002 C 18.772 39.152 18.882 39.312 19.092 39.472 C 19.182 39.552 19.142 39.622 19.172 39.732 C 19.202 39.872 19.262 39.972 19.382 40.082 C 19.552 40.252 19.602 40.272 19.512 40.452 C 19.462 40.542 19.342 40.572 19.402 40.642 C 19.442 40.682 19.552 40.842 19.582 40.922 C 19.622 41.002 19.732 41.112 19.792 41.142 C 20.002 41.262 19.982 41.442 19.712 41.502 C 19.612 41.522 19.602 41.602 19.542 41.662 C 19.342 41.862 19.302 41.762 19.272 41.792 C 19.212 41.862 19.202 41.902 19.772 41.842 C 19.862 41.832 19.922 42.012 20.072 42.232 C 20.292 42.552 20.162 42.342 20.172 42.772 C 20.182 43.152 20.212 43.292 20.312 43.372 C 20.362 43.422 20.572 43.502 20.622 43.512 C 20.792 43.562 20.712 43.592 20.712 43.732 C 20.712 43.822 20.842 43.942 20.902 44.012 C 20.982 44.122 20.832 44.182 21.012 44.652 C 21.062 44.782 20.922 44.912 20.962 44.922 C 21.032 44.942 21.312 45.092 21.312 45.142 C 21.312 45.162 21.392 45.342 21.462 45.362 C 21.522 45.392 21.652 45.412 21.682 45.452 C 21.732 45.532 21.752 45.712 21.712 45.792 C 21.662 45.862 21.492 45.842 21.392 45.842 C 21.342 45.842 21.212 45.992 21.162 46.022 C 20.992 46.112 21.082 46.052 20.802 45.772 C 20.562 45.542 20.432 45.472 20.322 45.472 C 20.232 45.472 20.092 45.522 20.012 45.582 C 19.902 45.662 19.862 45.792 19.762 45.802 C 19.612 45.812 19.482 45.752 19.342 45.682 C 19.262 45.642 19.032 45.642 18.982 45.652 C 18.942 45.662 18.802 45.612 18.612 45.592 C 18.302 45.552 18.192 45.612 18.152 45.652 C 18.002 45.862 17.862 45.902 17.802 45.702 C 17.752 45.562 17.792 45.462 17.562 45.472 C 17.442 45.482 17.262 45.532 17.222 45.512 C 17.182 45.492 17.012 45.482 16.922 45.492 C 16.792 45.512 16.832 45.392 16.702 45.522 C 16.602 45.592 16.522 45.722 16.422 45.762 C 16.382 45.772 16.352 45.782 16.312 45.772 L 16.332 46.112 C 16.342 46.242 16.412 46.222 16.382 46.262 C 16.352 46.292 16.232 46.472 16.192 46.612 C 16.092 47.002 15.892 46.972 15.892 46.992 C 15.942 47.122 15.762 47.002 15.652 46.972 C 15.622 46.962 15.562 47.092 15.502 47.122 C 15.442 47.152 15.262 47.252 15.262 47.272 C 15.262 47.322 15.212 47.432 15.092 47.452 C 15.052 47.462 14.892 47.372 14.852 47.392 C 14.812 47.422 14.892 47.652 14.892 47.712 C 14.902 47.852 14.852 47.782 14.672 47.932 C 14.512 48.072 14.502 47.962 14.332 47.862 C 14.162 47.752 14.032 47.962 13.942 48.162 C 13.902 48.262 13.802 48.292 13.752 48.342 C 13.682 48.412 13.642 48.692 13.622 48.892 C 13.562 49.312 13.442 49.142 13.232 48.932 C 13.172 48.872 13.092 48.812 13.062 48.812 C 12.972 48.812 12.752 48.622 12.712 48.472 C 12.672 48.332 12.572 48.292 12.672 48.292 C 12.692 48.292 12.892 48.272 12.922 48.242 C 12.972 48.192 12.942 48.012 12.882 47.912 C 12.852 47.862 12.742 47.762 12.702 47.732 C 12.632 47.692 12.522 47.602 12.562 47.512 C 12.582 47.452 12.692 47.482 12.712 47.452 C 12.732 47.412 12.682 47.222 12.682 47.162 C 12.682 47.132 12.722 47.122 12.762 47.112 C 12.792 47.112 12.822 47.112 12.832 47.082 C 12.862 47.042 12.822 46.842 12.832 46.812 C 12.852 46.792 12.722 46.792 12.642 46.712 C 12.492 46.562 12.522 46.542 12.582 46.382 C 12.602 46.322 12.662 46.182 12.682 46.032 C 12.702 45.892 12.722 45.822 12.742 45.722 L 12.692 45.292 L 12.522 45.202 L 12.302 44.942 C 12.142 44.782 12.002 44.832 11.902 44.732 C 11.822 44.652 11.852 44.632 11.812 44.672 C 11.792 44.692 11.562 44.802 11.452 44.842 C 11.342 44.882 11.192 44.892 11.142 44.932 C 11.092 44.972 11.132 45.002 11.102 45.002 C 11.062 45.002 10.892 45.062 10.852 45.092 C 10.822 45.132 10.712 45.192 10.682 45.202 C 10.652 45.212 10.592 45.382 10.562 45.422 C 10.492 45.542 10.492 45.362 10.262 45.412 C 10.172 45.442 10.172 45.242 10.052 45.132 C 9.852 44.932 9.802 45.012 9.832 44.962 C 9.892 44.852 9.842 44.622 9.742 44.622 C 9.672 44.622 9.542 44.552 9.532 44.472 C 9.512 44.282 9.372 44.362 9.392 44.212 C 9.402 44.082 9.052 44.112 8.982 44.182 C 8.902 44.262 8.842 44.382 8.812 44.422 C 8.752 44.392 8.672 44.252 8.512 44.452 L 8.272 44.492 L 8.052 44.342 C 7.922 44.282 7.812 44.282 7.752 44.282 C 7.692 44.282 7.632 44.262 7.562 44.192 C 7.412 44.022 7.442 44.032 7.322 43.812 C 7.272 43.712 7.312 43.652 7.252 43.592 C 7.222 43.562 7.152 43.622 7.142 43.572 C 7.102 43.402 6.962 43.382 6.892 43.382 C 6.842 43.392 6.762 43.332 6.712 43.282 C 6.672 43.232 6.612 43.192 6.592 43.192 C 6.542 43.192 6.282 42.852 6.282 42.802 C 6.282 42.782 6.172 42.792 6.092 42.762 C 6.022 42.722 5.962 42.612 5.902 42.552 C 5.822 42.482 5.762 42.392 5.582 42.472 C 5.462 42.522 5.352 42.442 5.152 42.412 C 5.062 42.402 4.942 42.472 4.902 42.492 C 4.832 42.512 4.782 42.432 4.682 42.332 C 4.502 42.132 4.432 42.122 4.212 42.092 C 4.052 42.072 3.982 42.042 3.872 41.942 C 3.802 41.862 3.742 41.782 3.742 41.742 C 3.742 41.712 3.682 41.612 3.602 41.522 C 3.532 41.432 3.452 41.322 3.442 41.282 C 3.422 41.242 3.332 41.112 3.222 41.012 C 3.182 40.962 3.142 40.922 3.102 40.862 C 2.942 40.662 2.822 40.402 2.772 40.202 C 2.722 40.022 2.762 40.002 2.842 39.842 C 2.872 39.772 2.732 39.692 2.662 39.572 C 2.622 39.482 2.772 39.312 2.732 39.312 C 2.632 39.302 2.582 39.162 2.642 39.052 C 2.662 39.002 2.632 38.952 2.592 38.892 C 2.552 38.842 2.492 38.802 2.492 38.792 C 2.482 38.752 2.362 38.862 2.282 38.922 C 2.222 38.972 2.132 38.972 2.102 38.972 C 2.082 38.972 2.042 39.072 2.022 39.112 C 1.942 39.112 1.702 38.872 1.682 39.142 C 1.612 39.122 1.542 39.112 1.472 39.142 C 1.332 39.192 1.292 39.242 1.282 39.262 C 1.282 39.262 1.282 39.262 1.272 39.252 C 1.262 39.232 1.212 39.112 1.102 39.112 C 1.012 39.102 0.872 39.212 0.762 39.212 L 0.522 39.232 L 0.632 39.082 C 0.642 38.992 0.732 38.812 0.672 38.802 C 0.622 38.792 0.502 38.712 0.492 38.602 C 0.492 38.582 0.492 38.552 0.512 38.522 C 0.482 38.542 0.392 38.632 0.372 38.622 C 0.312 38.612 0.222 38.552 0.142 38.512 C 0.012 38.442 0.042 38.532 -0.078 38.582 C -0.148 38.612 -0.278 38.602 -0.328 38.582 C -0.368 38.572 -0.298 38.512 -0.618 38.492 C -0.708 38.482 -0.758 38.372 -0.818 38.332 C -0.928 38.272 -0.978 38.172 -1.008 38.122 C -1.048 38.042 -0.988 37.922 -1.018 37.932 C -1.068 37.942 -1.218 38.122 -1.388 38.152 C -1.528 38.172 -1.808 38.132 -1.908 38.122 C -2.088 38.102 -2.168 38.192 -2.218 38.292 C -2.278 38.392 -2.358 38.342 -2.598 38.342 C -2.698 38.342 -2.848 38.472 -2.938 38.552 C -3.058 38.662 -2.998 38.532 -3.058 38.472 C -3.098 38.432 -3.158 38.512 -3.718 38.602 C -3.778 38.612 -3.858 38.692 -3.908 38.742 C -4.028 38.852 -4.098 38.882 -4.168 38.772 C -4.238 38.662 -4.418 38.522 -4.578 38.702 C -4.588 38.702 -4.588 38.702 -4.598 38.702 C -4.938 38.702 -4.738 38.912 -4.528 38.992 C -4.448 39.022 -4.738 39.152 -4.688 39.292 C -4.668 39.362 -4.808 39.582 -4.828 39.572 C -4.908 39.512 -5.058 39.562 -5.118 39.582 C -5.208 39.612 -5.078 39.762 -5.168 39.762 C -5.208 39.772 -5.258 39.772 -5.288 39.772 C -5.388 39.792 -5.408 39.832 -5.258 39.922 C -5.238 39.932 -5.218 39.952 -5.208 39.992 C -5.138 40.112 -5.128 40.342 -5.048 40.352 C -4.998 40.362 -4.878 40.302 -4.838 40.292 C -4.788 40.272 -4.698 40.132 -4.658 40.082 C -4.528 40.002 -4.388 40.132 -4.288 40.072 C -4.318 40.132 -4.298 40.302 -4.098 40.232 C -4.028 40.202 -4.078 40.362 -4.068 40.432 C -4.048 40.492 -3.988 40.582 -3.968 40.622 C -3.928 40.702 -3.918 40.772 -3.948 40.842 C -3.988 40.912 -4.058 40.982 -4.148 41.062 C -4.338 41.112 -4.278 41.252 -4.168 41.352 C -3.968 41.692 -3.938 41.482 -4.008 41.602 C -4.038 41.652 -4.148 41.662 -4.148 41.682 C -4.148 41.712 -4.168 41.912 -4.208 41.982 C -4.248 42.062 -4.288 42.172 -4.298 42.222 C -4.308 42.272 -4.448 42.322 -4.538 42.372 C -4.618 42.422 -4.668 42.542 -4.698 42.612 C -4.708 42.622 -4.708 42.632 -4.708 42.632 C -4.778 42.752 -4.908 42.702 -5.088 42.702 C -5.188 42.702 -5.198 42.892 -5.238 43.002 C -5.268 43.102 -5.288 43.362 -5.108 43.232 C -5.098 43.232 -4.988 43.802 -5.038 43.822 C -5.218 43.822 -5.168 44.062 -5.118 44.132 C -5.088 44.172 -5.298 44.252 -5.348 44.342 C -5.438 44.482 -5.418 44.412 -5.688 44.512 L -5.868 44.542 L -5.918 44.752 C -5.928 44.832 -5.968 44.842 -5.978 44.882 C -5.988 44.992 -6.118 45.302 -6.198 45.372 C -6.268 45.442 -6.148 45.562 -6.148 45.592 C -6.148 45.602 -6.048 45.572 -5.998 45.622 C -5.898 45.822 -5.868 45.762 -5.778 45.682 C -5.658 45.672 -5.678 45.722 -5.608 45.852 C -5.538 45.972 -5.488 45.982 -5.318 45.982 C -5.128 45.992 -5.018 46.022 -4.918 46.142 C -4.878 46.182 -4.778 46.242 -4.728 46.242 C -4.588 46.242 -4.588 46.252 -4.518 46.522 L -4.518 46.712 L -4.538 46.922 L -4.668 47.012 L -4.598 47.242 C -4.498 47.412 -4.458 47.442 -4.648 47.632 C -4.738 47.742 -4.758 47.712 -4.798 47.702 C -4.978 47.652 -5.128 47.582 -5.208 47.642 C -5.258 47.692 -5.248 47.952 -5.258 48.052 C -5.288 48.212 -5.398 48.162 -5.538 48.192 C -5.638 48.222 -5.748 48.342 -5.818 48.372 C -5.938 48.402 -6.008 48.342 -6.028 48.402 C -6.048 48.452 -5.968 48.552 -6.028 48.612 C -6.088 48.662 -6.268 48.782 -6.268 48.812 C -6.268 48.902 -6.258 49.082 -6.328 49.082 C -6.358 49.082 -6.518 49.132 -6.618 49.172 C -6.748 49.232 -6.838 49.262 -6.978 49.452 C -6.978 49.452 -6.988 49.452 -6.978 49.462 C -7.088 49.602 -7.228 49.782 -7.258 49.792 C -7.318 49.812 -7.458 49.952 -7.648 50.272 C -7.728 50.412 -7.758 50.522 -7.748 50.602 C -7.738 50.642 -7.608 50.672 -7.538 50.692 C -7.358 50.762 -7.448 50.502 -7.198 51.062 C -7.498 51.332 -7.298 51.432 -7.188 51.472 C -7.078 51.502 -6.908 51.622 -6.908 51.722 C -6.908 51.752 -6.958 51.782 -6.998 51.812 C -7.088 51.872 -7.108 52.022 -6.918 52.152 C -6.888 52.292 -6.848 52.372 -6.848 52.472 C -6.848 52.522 -7.118 52.662 -7.228 52.602 C -7.548 52.422 -7.438 52.292 -7.438 52.072 C -7.428 51.762 -7.658 51.612 -7.768 51.462 C -7.868 51.342 -7.918 51.192 -8.178 51.252 C -8.268 51.262 -8.318 51.162 -8.328 51.162 C -8.378 51.162 -8.368 51.402 -8.518 51.422 C -8.818 51.452 -8.758 51.652 -8.768 51.652 C -8.918 51.692 -8.908 51.842 -8.878 51.912 C -8.838 52.022 -8.888 51.942 -9.108 52.012 C -9.258 52.062 -9.348 52.022 -9.348 52.072 C -9.348 52.172 -9.378 52.362 -9.448 52.362 C -9.488 52.362 -9.598 52.352 -9.628 52.372 C -9.708 52.452 -9.728 52.582 -9.768 52.582 C -9.798 52.582 -9.878 52.632 -9.928 52.542 C -9.828 52.382 -10.038 51.812 -10.048 51.742 C -10.028 51.382 -9.938 51.552 -10.058 50.962 C -10.058 50.942 -9.938 50.842 -9.908 50.782 C -9.878 50.722 -9.748 50.652 -9.798 50.602 C -9.928 50.372 -9.788 50.372 -9.738 50.212 C -9.708 50.172 -9.608 49.912 -9.728 49.852 C -9.858 49.802 -9.818 49.722 -9.818 49.582 C -9.818 49.502 -9.838 49.512 -9.888 49.412 C -9.928 49.322 -9.968 49.272 -9.998 49.252 C -10.028 49.192 -9.908 48.842 -9.818 48.782 C -9.718 48.732 -9.648 48.672 -9.528 48.722 C -9.328 48.152 -9.168 47.542 -9.258 46.652 C -9.318 46.132 -9.448 45.502 -9.728 44.732 C -9.998 43.962 -10.298 43.322 -10.628 42.752 C -10.778 42.492 -10.938 42.242 -11.108 42.002 C -11.458 41.492 -11.848 41.032 -12.268 40.572 C -12.208 40.542 -12.018 40.512 -12.078 40.492 C -12.328 40.392 -12.128 40.382 -12.128 40.342 C -12.128 40.282 -12.178 40.322 -12.208 40.222 C -12.168 40.102 -12.138 40.042 -12.188 39.922 C -12.258 39.672 -12.238 39.402 -12.418 39.202 C -12.458 39.122 -12.558 39.112 -12.488 39.042 C -12.398 38.932 -12.468 38.762 -12.438 38.662 C -12.138 38.752 -12.108 38.512 -12.098 38.262 C -12.168 38.192 -12.158 38.132 -12.168 38.092 C -12.188 37.932 -12.018 37.952 -11.948 37.842 C -11.818 37.662 -11.788 37.592 -11.618 37.582 C -11.588 37.562 -11.538 37.452 -11.548 37.412 C -11.628 37.182 -11.458 37.222 -11.448 37.052 C -11.568 36.932 -11.478 36.872 -11.558 36.742 C -11.618 36.682 -11.658 36.642 -11.658 36.572 C -11.658 36.552 -11.598 36.442 -11.548 36.442 C -11.398 36.412 -11.598 36.202 -11.598 36.062 C -11.598 36.062 -11.598 36.052 -11.598 36.052 C -11.648 35.902 -11.768 35.802 -11.828 35.662 C -11.758 35.392 -12.088 35.332 -12.088 35.062 C -12.248 35.092 -12.328 34.912 -12.498 34.872 C -12.648 34.752 -12.638 34.942 -12.758 34.882 C -12.768 34.832 -12.728 34.722 -12.668 34.702 C -12.608 34.692 -12.658 34.482 -12.698 34.442 C -12.758 34.382 -12.868 34.502 -12.868 34.482 C -12.888 34.402 -12.848 34.362 -12.778 34.322 C -12.688 34.212 -12.598 34.112 -12.558 33.972 C -12.498 33.892 -12.418 33.732 -12.558 33.702 C -12.598 33.702 -12.668 33.772 -12.678 33.732 C -12.578 33.532 -12.558 33.512 -12.458 33.422 C -12.468 33.332 -12.548 33.272 -12.548 33.182 C -12.558 33.112 -12.508 33.072 -12.538 33.012 C -12.578 32.952 -12.408 32.872 -12.518 32.782 C -12.538 32.722 -12.568 32.662 -12.528 32.602 C -12.508 32.592 -12.388 32.502 -12.388 32.452 C -12.378 32.362 -12.368 32.282 -12.398 32.192 C -12.328 32.142 -12.238 32.102 -12.178 32.042 C -12.078 31.982 -12.158 31.912 -12.078 31.852 C -12.008 31.782 -11.968 31.712 -11.918 31.632 C -11.858 31.572 -11.718 31.592 -11.668 31.502 C -11.648 31.482 -11.598 31.412 -11.578 31.412 C -11.428 31.442 -11.548 31.532 -11.478 31.642 C -11.408 31.712 -11.308 31.762 -11.288 31.872 C -11.308 31.972 -11.408 32.092 -11.308 32.152 C -11.258 32.182 -11.168 32.132 -11.148 32.182 C -11.068 32.302 -10.928 32.362 -10.798 32.322 C -10.688 32.292 -10.588 32.262 -10.478 32.242 C -10.368 32.282 -10.268 32.322 -10.138 32.302 C -10.068 32.302 -9.988 32.312 -9.918 32.292 C -9.858 32.322 -9.858 32.362 -9.818 32.412 C -9.738 32.522 -9.708 32.542 -9.708 32.682 C -9.658 32.722 -9.558 32.822 -9.488 32.832 C -9.328 32.862 -9.128 32.822 -8.958 32.822 C -8.668 32.862 -8.388 32.892 -8.168 32.692 C -8.018 32.682 -7.928 32.572 -7.788 32.522 C -7.648 32.462 -7.528 32.352 -7.368 32.332 C -7.328 32.322 -7.218 32.292 -7.208 32.262 C -7.128 32.112 -6.998 32.022 -6.888 31.902 C -6.868 31.862 -6.698 31.712 -6.658 31.682 C -6.578 31.582 -6.648 31.552 -6.558 31.462 C -6.528 31.382 -6.568 31.372 -6.508 31.312 C -6.508 31.312 -6.498 31.312 -6.498 31.312 C -6.448 31.292 -6.338 31.172 -6.338 31.112 C -6.338 31.052 -6.468 31.012 -6.418 30.982 C -6.418 30.972 -6.428 30.962 -6.418 30.962 C -6.388 30.932 -6.338 30.812 -6.298 30.802 C -6.158 30.752 -6.058 30.582 -5.978 30.462 C -5.888 30.382 -5.918 30.292 -5.938 30.172 C -5.948 30.112 -5.968 30.052 -5.978 29.992 C -5.988 29.912 -5.998 29.842 -6.008 29.762 C -6.028 29.672 -6.068 29.602 -6.088 29.522 C -6.118 29.432 -6.128 29.342 -6.098 29.252 C -6.118 29.202 -6.128 29.132 -6.198 29.152 C -6.268 29.212 -6.378 29.352 -6.488 29.272 C -6.528 29.172 -6.498 29.062 -6.578 28.982 C -6.608 28.952 -6.738 28.882 -6.738 28.832 C -6.728 28.752 -6.638 28.702 -6.638 28.622 C -6.588 28.472 -6.558 28.422 -6.528 28.272 C -6.438 27.962 -6.478 27.542 -6.378 27.342 C -6.378 27.332 -6.368 27.302 -6.358 27.292 C -6.288 27.132 -6.418 26.862 -6.378 26.692 C -6.258 26.572 -6.408 26.642 -6.388 26.252 C -6.318 26.192 -6.508 26.092 -6.468 26.002 L -6.218 26.002 C -6.238 26.102 -5.898 26.102 -5.698 26.132 C -5.538 26.192 -5.428 26.342 -5.348 26.482 C -5.238 26.622 -5.258 26.732 -5.178 26.882 C -5.148 27.062 -5.148 27.152 -5.038 27.352 C -5.048 27.462 -5.018 27.532 -4.968 27.622 C -4.928 27.732 -4.938 27.782 -4.948 27.892 C -4.968 28.012 -4.948 28.072 -4.898 28.142 C -4.868 28.172 -4.848 28.202 -4.808 28.252 C -4.728 28.382 -4.638 28.412 -4.488 28.452 C -4.418 28.482 -4.398 28.442 -4.338 28.432 C -4.228 28.422 -4.128 28.422 -4.038 28.372 C -3.928 28.352 -3.818 28.382 -3.778 28.492 C -3.858 28.612 -3.958 28.692 -4.068 28.782 C -4.038 28.812 -3.968 28.852 -3.958 28.872 C -3.948 28.952 -4.018 29.022 -3.998 29.112 C -3.978 29.222 -3.968 29.332 -3.958 29.432 C -3.948 29.542 -3.998 29.562 -4.068 29.652 C -4.078 29.732 -4.078 29.812 -4.078 29.882 C -4.078 29.982 -4.058 30.082 -4.028 30.172 C -4.078 30.302 -3.978 30.382 -4.008 30.502 C -4.028 30.622 -3.948 30.672 -3.888 30.772 C -3.858 30.872 -3.888 30.972 -3.868 31.072 C -3.808 31.202 -3.678 31.242 -3.568 31.312 C -3.438 31.392 -3.328 31.452 -3.148 31.562 C -3.108 31.592 -2.948 31.632 -2.908 31.622 C -2.788 31.582 -2.688 31.622 -2.698 31.692 C -2.628 31.732 -2.498 31.782 -2.448 31.842 C -2.358 31.912 -2.358 32.002 -2.128 32.012 C -1.998 32.002 -1.958 31.882 -1.798 31.962 C -1.788 31.962 -1.788 31.962 -1.778 31.972 C -1.658 31.972 -1.698 31.972 -1.708 31.912 C -1.718 31.862 -1.748 31.772 -1.798 31.792 C -1.808 31.792 -1.828 31.792 -1.848 31.802 C -1.888 31.802 -1.948 31.822 -1.998 31.822 C -2.068 31.822 -2.168 31.832 -2.228 31.822 C -2.288 31.802 -2.298 31.772 -2.348 31.732 C -2.398 31.692 -2.428 31.632 -2.478 31.592 C -2.528 31.572 -2.578 31.522 -2.628 31.522 C -2.698 31.522 -2.748 31.442 -2.798 31.442 C -2.878 31.442 -2.938 31.462 -3.008 31.412 C -3.048 31.382 -3.078 31.342 -3.128 31.302 C -3.158 31.272 -3.288 31.192 -3.298 31.152 C -3.308 31.082 -3.298 31.092 -3.348 31.032 C -3.398 30.992 -3.428 30.972 -3.468 30.932 C -3.508 30.882 -3.548 30.862 -3.568 30.802 C -3.568 30.792 -3.598 30.672 -3.628 30.642 C -3.668 30.602 -3.718 30.542 -3.738 30.472 C -3.748 30.412 -3.758 30.382 -3.748 30.362 C -3.738 30.342 -3.728 30.322 -3.718 30.302 C -3.798 30.242 -3.778 29.842 -3.718 29.832 C -3.808 29.672 -3.878 29.742 -3.828 29.562 C -3.798 29.282 -3.648 29.522 -3.788 29.202 C -3.818 29.142 -3.868 29.132 -3.858 29.062 C -3.818 28.882 -3.858 28.852 -3.868 28.832 C -3.898 28.712 -3.688 28.622 -3.668 28.562 C -3.648 28.492 -3.668 28.412 -3.748 28.312 C -3.888 28.162 -4.068 28.262 -4.258 28.262 C -4.318 28.262 -4.388 28.252 -4.438 28.232 C -4.498 28.222 -4.558 28.192 -4.588 28.152 C -4.718 27.982 -4.808 27.692 -4.798 27.472 C -4.788 27.432 -4.928 27.182 -4.898 27.172 C -4.688 27.052 -4.928 26.772 -4.988 26.622 C -4.998 26.572 -5.018 26.522 -5.028 26.472 C -5.108 26.262 -5.218 26.082 -5.398 25.932 C -5.448 25.892 -5.498 25.882 -5.548 25.872 C -5.608 25.852 -5.678 25.852 -5.758 25.802 C -5.798 25.772 -5.988 25.622 -6.158 25.702 C -6.248 25.742 -6.378 25.702 -6.478 25.702 C -6.588 25.702 -6.558 25.992 -6.598 25.962 C -6.678 25.882 -6.808 25.772 -6.738 25.682 C -6.718 25.642 -6.848 25.442 -6.968 25.472 C -7.088 25.502 -7.228 25.612 -7.198 25.542 C -7.138 25.432 -7.298 25.272 -7.228 25.292 C -7.018 25.342 -7.168 25.162 -7.108 25.122 C -7.048 25.092 -6.928 25.052 -6.928 24.992 C -6.928 24.912 -6.918 24.852 -6.898 24.832 C -6.868 24.822 -6.818 24.842 -6.708 24.922 C -6.628 24.992 -6.638 25.122 -6.628 25.122 C -6.518 25.122 -6.428 25.112 -6.358 25.092 C -6.348 25.092 -6.348 25.092 -6.348 25.092 C -6.288 25.062 -6.238 25.022 -6.188 24.952 C -6.188 24.942 -6.008 24.642 -6.078 24.532 C -6.138 24.412 -6.128 24.542 -6.278 24.532 C -6.318 24.522 -6.598 24.292 -6.578 24.272 C -6.418 24.202 -6.408 24.202 -6.378 24.012 C -6.218 24.012 -6.248 23.882 -6.208 23.782 C -6.178 23.702 -6.188 23.622 -6.208 23.532 C -6.248 23.402 -6.028 23.452 -6.118 23.332 C -6.168 23.172 -6.248 23.112 -6.058 23.092 C -5.998 23.072 -6.048 22.812 -5.978 22.672 C -5.808 22.872 -5.668 22.662 -5.668 22.952 C -5.678 23.032 -5.638 23.032 -5.668 23.142 C -5.738 23.342 -5.708 23.562 -5.738 23.782 C -5.758 23.852 -5.808 23.902 -5.808 23.992 C -5.808 24.072 -5.928 24.192 -5.868 24.252 C -5.778 24.342 -5.848 24.352 -5.758 24.442 C -5.608 24.562 -5.408 24.582 -5.228 24.582 C -5.028 24.562 -4.838 24.612 -4.648 24.632 C -4.618 24.632 -4.588 24.642 -4.568 24.642 C -4.518 24.642 -4.398 24.642 -4.348 24.592 C -4.248 24.512 -4.378 24.402 -4.388 24.332 C -4.258 24.362 -4.208 24.242 -4.148 24.142 C -4.128 24.092 -4.078 23.992 -4.078 23.912 C -4.078 23.892 -4.068 23.872 -4.078 23.852 C -4.108 23.732 -4.168 23.662 -4.228 23.582 C -4.318 23.472 -4.108 23.482 -4.178 23.402 C -4.108 23.232 -3.868 23.002 -4.028 22.752 C -4.058 22.692 -4.198 22.632 -4.228 22.572 C -4.268 22.502 -4.268 22.452 -4.228 22.382 C -4.168 22.192 -4.458 22.212 -4.478 22.062 C -4.478 22.052 -4.398 21.912 -4.388 21.912 C -4.198 21.872 -4.288 21.732 -4.228 21.582 C -4.258 21.392 -4.268 21.262 -4.058 21.202 C -3.928 21.262 -4.028 21.392 -3.918 21.532 C -3.918 21.622 -3.928 21.672 -3.928 21.702 C -3.908 21.652 -3.838 21.522 -3.608 21.422 C -3.648 21.332 -3.868 21.062 -3.548 21.092 C -3.478 21.092 -3.588 20.952 -3.418 20.892 C -3.328 20.852 -3.518 20.662 -3.438 20.582 C -3.498 20.522 -3.558 20.552 -3.518 20.512 C -3.338 20.342 -3.368 20.232 -3.348 20.072 C -3.308 20.022 -3.288 19.892 -3.148 19.822 C -3.058 19.782 -2.998 19.652 -2.998 19.652 L -2.878 19.752 Z" fill="#fdf9d2" fill-rule="evenodd" id="Biobio" stroke="#d7976a" stroke-miterlimit="4" stroke-width="0.31" transform="matrix(1.0000000000000002, 0, 0, 1.0000000000000002, 312.77740944590283, -6.505781270649749)"/>
</svg>