<?xml version="1.0" encoding="utf-8"?>
<svg viewBox="221.1791 18.1606 221.1938 438.8785" xmlns="http://www.w3.org/2000/svg">
  <g transform="matrix(1, 0, 0, 1, 331.78000372320406, 237.60000964403162)" id="path2204">
    <path style="stroke: rgb(214,148,102); stroke-width: 2; stroke-dasharray: none; stroke-linecap: butt; stroke-dashoffset: 0; stroke-linejoin: miter; stroke-miterlimit: 4; fill: rgb(253,249,210); fill-rule: evenodd; opacity: 1;" transform=" translate(-267.78, -283.6)" d="M 283.46433 64.160617 C 282.61426 64.162299 279.32918 66.259619 277.45113 66.701375 C 275.32359 65.624785 266.48551 67.082591 270.7604 70.343222 C 269.93239 75.758532 270.25354 70.214586 260.00441 79.151256 C 257.80136 80.137944 254.19537 79.971047 252.04326 79.490006 C 249.11046 78.834404 247.48991 77.846599 246.28416 81.692014 C 243.26725 83.329532 238.77711 82.716214 241.96483 87.620541 C 235.54779 92.706736 243.68565 97.834832 237.13732 100.07044 C 238.08738 104.89318 231.42334 111.54664 227.65172 108.3703 C 229.20462 105.0075 227.7684 100.6962 225.11094 101.42552 C 223.0824 101.98216 220.6126 103.1347 219.43652 101.17143 C 213.82621 101.68232 216.29767 90.841886 214.43963 86.350123 C 208.92035 85.384477 203.21635 89.027179 200.21123 82.793025 C 196.97757 80.942857 193.91404 80.607104 192.4195 84.825705 C 191.73704 90.010489 183.06883 86.421781 179.46148 86.943042 L 180.4778 90.838889 C 181.39928 94.364561 182.8885 93.618584 181.5788 95.835747 C 180.54777 97.581122 180.51493 98.122505 181.32472 98.122505 C 181.89603 98.122505 182.71344 97.750082 183.18796 97.275494 C 184.77116 95.692325 187.88624 97.277361 193.43581 102.61119 L 198.94084 107.94688 L 198.51738 112.26615 C 198.10852 116.22747 198.19565 116.85661 199.95715 118.61817 C 201.62361 120.28461 201.78707 120.82945 201.05816 122.42936 C 200.5912 123.45411 200.46219 124.55399 200.71939 124.97012 C 200.97658 125.38623 200.57131 126.39996 199.87247 127.17213 C 198.73652 128.4273 199.74674 131.55874 200.29593 134.79449 C 200.70514 137.20548 200.218 139.82081 201.90509 141.06177 C 206.07506 144.12922 205.30769 144.71447 201.90509 147.32905 C 201.42577 147.69736 201.04813 148.64381 200.80408 149.70048 C 199.99694 153.85302 200.36991 158.28323 198.60206 162.23494 C 197.69997 164.47071 197.7458 164.83697 199.27961 166.46962 C 200.20885 167.45873 200.97346 168.86968 200.97346 169.60321 C 200.97346 170.33684 201.67796 173.37959 203.42956 173.07565 C 206.20194 172.59441 206.0056 175.12703 205.88565 179.597 C 205.78842 183.22006 207.1786 184.58421 205.71627 185.6102 C 204.72949 186.30247 204.86934 188.26518 204.86934 189.33672 C 204.86934 190.48927 200.66474 190.52239 199.95715 190.52239 C 198.67716 190.52239 199.09819 188.38296 200.29593 187.64288 L 195.55312 191.45406 C 200.8497 194.24235 194.87064 196.58244 195.12966 193.1479 C 195.16928 192.62242 193.66657 196.85664 192.4195 195.26516 C 191.6921 194.33702 187.251 199.04462 192.2501 200.26209 C 194.61125 200.83706 193.14887 207.34355 195.21436 208.13855 C 196.05946 209.50234 194.11762 211.97461 195.55312 213.64356 C 195.30891 214.03873 195.03549 220.51322 193.77457 221.7741 C 192.5137 223.03499 188.77745 223.52117 188.26954 222.19752 C 187.76165 220.87395 184.76658 218.90695 185.47467 223.12919 C 183.79963 227.35134 184.4827 222.86257 183.27266 229.98931 L 181.83289 233.12289 C 181.57203 236.62049 178.28565 237.18984 173.78706 238.2045 C 171.53098 238.71333 170.74402 238.63381 169.55241 237.44225 C 168.74628 236.63612 168.11263 235.32443 168.11263 234.56265 C 168.11263 233.80095 167.65863 232.53679 167.09633 231.7678 C 166.14122 230.46165 165.90299 230.49916 164.38615 232.95356 C 163.49312 234.39846 162.55667 237.17571 162.26882 239.05142 C 162.01697 240.69268 160.62979 243.85359 160.99843 244.47177 C 160.16061 245.52479 159.85775 246.63421 160.0668 246.84311 C 160.27588 247.0522 159.97184 250.28916 159.64334 254.04207 C 159.32167 257.71675 157.94791 263.63648 158.54233 267.33887 C 159.31466 272.14927 158.04591 275.18511 157.61071 276.8244 C 157.17536 278.46445 156.91014 282.17628 157.61071 284.87028 C 158.89564 289.81155 160.30809 292.62792 158.11887 295.4569 C 156.39783 297.68072 159.67641 310.53726 160.40559 312.81889 C 160.82533 314.13244 161.31815 317.10859 161.59129 319.42492 C 161.86443 321.74133 162.99306 325.43165 164.04737 327.64011 C 165.47185 330.62402 165.86897 332.30879 165.48716 334.16148 C 164.33005 339.77614 164.09399 342.44113 164.80961 344.49402 C 165.30261 345.90832 165.38338 348.17666 164.8943 351.01538 C 164.23777 354.82609 164.33544 356.17389 166.08001 361.77143 C 167.17318 365.27885 168.0977 369.51138 168.11263 371.1723 C 168.12753 372.83312 168.00414 376.17354 169.21364 376.08448 C 170.99999 375.95296 171.41227 376.67526 170.31465 379.89567 C 169.24838 383.02401 171.87681 390.25544 175.56561 399.7985 C 175.97259 400.85142 175.18182 404.1606 176.836 407.3361 C 178.02747 409.62344 176.11924 412.26355 175.22684 413.68814 C 174.4011 415.00628 177.69557 416.39336 178.19108 417.41457 C 178.9063 418.88866 179.11181 422.98171 179.63087 426.56144 C 179.98031 428.97142 180.20515 430.56235 180.56248 431.72772 C 180.76608 432.39577 181.01197 433.09815 181.40941 433.67564 C 184.35974 435.7665 185.61761 438.95838 183.27266 442.14492 C 182.61585 444.54291 176.80343 449.65689 182.17165 449.68263 C 187.01891 450.07684 184.78618 453.86727 183.52674 456.71206 C 182.05771 460.13763 185.58709 462.40644 185.89814 465.09669 C 183.88879 468.24525 184.27236 471.96867 184.0349 475.51389 C 184.13425 478.58901 182.84125 482.28868 184.62774 484.99952 C 184.33366 486.658 183.33279 488.13573 182.7645 489.74228 C 182.89034 491.66486 182.28654 494.22693 184.54305 495.16264 C 187.1202 494.87787 188.64924 492.38164 190.47155 490.75862 C 193.57219 492.07517 196.67088 493.50949 199.87247 494.56981 C 204.17935 496.4209 209.07942 495.29848 212.99986 493.04539 C 213.89866 490.54533 216.81175 489.66978 218.08143 487.11687 C 218.72456 483.82143 221.44917 485.17005 222.14668 487.62504 C 224.8442 491.89124 228.84778 486.69738 231.20882 484.74544 C 233.53291 481.42604 237.11787 479.78609 239.42404 476.61489 C 241.78917 475.33745 242.0631 473.85513 239.8475 472.12621 C 239.36772 467.52761 245.16044 470.30664 247.89333 470.26295 C 248.90311 470.41694 249.73456 470.69919 250.18003 471.36397 C 252.06447 474.1762 253.79039 477.17788 254.24529 473.39665 C 257.98668 471.96427 260.77606 472.38985 262.12173 470.26295 C 264.79175 468.99983 267.92138 467.97618 269.06654 467.97629 C 270.2117 467.97629 271.79825 467.48308 272.62364 466.87528 C 275.06482 465.0776 278.21339 465.61102 278.46745 467.80687 C 278.6653 469.51698 281.85343 471.75556 281.26232 470.1783 C 280.56921 468.32879 288.65014 470.42461 283.88779 474.41289 C 282.12992 475.88501 287.40037 480.00342 285.41227 479.83325 C 284.86104 479.78609 288.44124 482.18176 291.59484 483.81385 C 299.02966 485.07117 300.13172 488.22189 298.79374 482.03526 C 298.58002 481.04698 301.13803 483.45685 303.36716 484.1526 L 307.34773 485.50769 C 309.45208 487.25616 307.1721 491.63024 307.00895 494.73923 C 307.68492 495.30025 310.48135 494.81285 310.48135 495.9249 C 310.69717 498.24674 309.70047 502.12566 312.09052 503.0391 C 312.93284 502.83674 316.71204 500.99388 317.76494 500.75242 C 321.22559 499.95826 322.12959 498.09659 323.0159 495.58615 C 323.58357 493.9881 320.78384 492.03765 321.74551 488.38719 C 323.21573 482.80648 323.26947 481.68622 321.06796 481.273 C 317.78251 480.65631 317.1093 476.72398 318.69656 474.41289 C 318.96273 474.02539 318.3347 471.54629 314.20784 470.94055 C 312.63762 470.70994 311.13201 467.04376 317.51086 467.46812 C 318.07031 467.50525 318.43282 470.52807 318.69656 470.34761 C 319.53 469.77761 322.67613 471.68297 323.43936 471.61804 C 325.12369 471.47482 327.4279 468.66781 329.0291 466.45178 C 329.46078 465.85435 329.88923 462.02586 331.14643 461.96309 C 333.39499 461.85074 334.13061 457.48667 330.72295 454.93357 C 329.34982 453.90478 329.07135 452.99227 326.99647 451.37647 C 324.48909 449.42386 327.83714 446.88169 318.78127 448.4122 C 314.54002 449.12909 310.57751 446.86897 308.87218 444.60102 C 307.93814 443.35874 306.09735 443.68974 305.2304 443.16126 C 302.65742 441.59288 306.65871 441.86184 304.12939 434.60721 C 303.16769 431.84886 304.20129 429.96391 304.38347 429.27162 C 305.18649 426.22035 303.04502 421.79248 300.74167 422.2421 C 298.93838 422.59412 298.31701 420.72366 298.37028 420.29417 C 298.80967 416.75147 293.83115 413.16004 295.15195 412.16363 C 291.09183 410.92445 291.68956 413.98563 292.86524 403.69435 C 289.27613 388.59227 296.3477 392.54612 292.10301 387.77212 C 292.89273 385.21265 296.34039 380.00428 295.91418 379.21807 C 293.92046 375.54012 293.62333 371.07435 294.81317 369.22438 C 295.52168 368.12289 297.22677 364.50425 296.76112 360.33158 C 295.74588 351.2341 297.92039 347.08463 300.99575 345.59502 C 302.09467 345.0629 303.50562 340.02957 303.70593 342.29201 C 303.82133 343.59574 306.1082 347.6902 308.02526 348.38996 C 309.95721 349.09505 307.1243 352.17279 310.05789 351.01538 C 315.5488 348.8492 312.55804 348.03175 313.53031 344.7481 C 314.41614 341.75624 318.57068 336.0876 319.54349 335.4319 C 321.42677 334.1625 324.35381 336.23785 324.54037 334.3309 C 324.6961 332.73931 323.99981 332.67242 322.93122 331.70538 C 320.62732 334.34885 322.11193 327.21109 320.13634 324.16778 C 317.30259 324.2051 316.80503 320.95961 319.54349 318.83208 C 321.28099 317.48214 320.08561 313.30891 321.15266 309.60054 C 321.85023 307.17634 323.1291 305.21532 322.42305 303.50269 C 321.93425 302.31692 322.29996 301.07792 322.76183 300.79251 C 323.20762 300.5169 323.52406 299.48232 323.52406 298.50583 C 323.52406 297.52943 325.49343 294.49136 326.06484 294.01706 C 327.10612 292.10235 326.56588 290.53368 326.48832 288.68146 C 326.55181 288.58295 326.49871 288.06973 326.573 286.73354 C 326.81073 282.4574 326.90142 278.25059 330.04542 274.70716 C 332.58516 271.15576 334.03102 265.51546 333.85659 264.37461 C 333.7035 263.37296 332.7139 262.38879 333.51782 261.15627 C 333.91396 260.54893 334.75819 259.86572 336.31269 259.12359 C 341.70145 256.5512 342.99513 253.10375 340.88609 248.02887 C 339.34355 245.69075 336.59314 242.98609 338.26062 241.59218 C 338.74542 241.36307 339.97458 241.58104 342.57997 242.52386 C 343.73088 243.5559 345.73093 246.40146 346.30645 246.92787 C 347.59743 248.10877 351.85837 249.44028 352.57372 248.28296 C 352.87489 247.79565 355.32684 245.90311 356.63898 246.16561 C 358.47687 246.53317 358.08651 248.6987 359.942 246.84311 C 361.20208 245.58308 363.5465 242.18502 364.51541 242.18502 C 367.32361 242.18502 369.4986 242.54294 367.98781 240.23709 C 366.6671 238.22143 365.77009 237.06504 367.81843 232.53006 C 368.44139 231.15092 369.64232 229.91015 369.51229 228.97297 C 369.32317 227.60964 367.81876 223.9168 369.51229 223.72203 C 371.0862 223.541 373.46326 225.09123 374.59387 222.87511 C 375.43017 221.23571 376.51185 219.07178 376.11833 218.30167 C 375.54272 217.17522 374.92976 215.39747 376.96526 215.3374 C 379.71257 215.25629 378.00773 209.28258 375.52549 210.76396 C 373.73037 211.8354 371.326 210.12445 370.95207 208.56196 C 370.68313 207.43831 367.62378 206.085 365.78581 207.63038 C 359.62162 212.81321 361.98172 206.74295 361.46647 206.10587 C 358.55935 202.51135 360.10078 204.60147 362.3981 201.87127 C 363.81804 200.1838 365.46866 197.81798 364.93888 195.3499 C 364.525 193.42172 364.87381 190.91558 366.46335 189.42138 C 370.1714 185.93557 365.48785 184.77919 366.29396 183.66227 C 368.53081 180.56293 368.94764 174.50726 369.17352 174.34607 C 369.67473 173.98814 367.64902 172.54755 367.64905 171.55123 C 367.64905 170.55491 368.48044 166.86113 367.64905 167.06245 C 365.46736 167.59093 364.98387 166.64568 368.41128 161.72686 C 371.522 157.26241 369.19303 153.94189 367.22559 152.24123 C 361.71041 147.47357 361.95617 147.19218 362.48278 141.82402 C 362.84429 138.13857 363.52035 135.94068 362.65218 133.86281 C 362.00392 132.31136 360.92055 132.36768 360.53484 130.72923 C 360.15759 129.12659 362.01012 125.87653 359.43384 126.24054 C 353.58251 126.19367 348.06402 131.84238 341.81772 129.20472 C 339.45294 131.96886 337.32163 127.37336 334.28005 128.27313 C 331.35488 123.31014 328.48197 118.67524 325.13323 114.29883 C 321.76925 109.46269 316.30094 107.00454 310.56605 109.89481 C 311.49314 117.77491 298.55232 109.73614 300.57229 106.76112 C 302.36911 103.54679 305.01736 102.59529 300.99575 100.23976 C 297.37111 96.608852 303.4077 90.854228 297.26926 87.366462 C 300.97169 80.973731 291.41546 77.635921 291.67955 71.698311 C 293.34169 69.197497 293.36803 66.194598 291.76423 65.431035 C 290.71827 64.932973 288.9841 65.634511 286.93674 66.193297 C 284.00892 66.484427 284.59643 64.158369 283.46433 64.160617 z M 175.05745 93.718396 C 174.87216 94.679823 175.2228 95.244129 176.07377 95.666419 C 176.4517 94.722855 175.87777 94.076046 175.05745 93.718396 z M 174.04113 97.021508 C 173.55613 97.04882 172.79084 98.532362 172.00851 99.731594 C 172.00851 100.75962 172.99159 101.17134 173.36359 101.17143 C 174.18855 101.17143 174.74451 98.875685 174.3799 97.529586 C 174.27984 97.160238 174.20279 97.012334 174.04113 97.021508 z" stroke-linecap="round"/>
  </g>
</svg>