<?xml version="1.0" encoding="utf-8"?>
<svg viewBox="325.8356 145.469 25.2234 50.05" xmlns="http://www.w3.org/2000/svg">
  <path d="M 340.235 145.469 C 340.145 145.469 339.765 145.709 339.555 145.759 C 339.305 145.639 338.305 145.809 338.785 146.179 C 338.695 146.799 338.735 146.159 337.565 147.179 C 337.315 147.299 336.905 147.279 336.655 147.219 C 336.325 147.149 336.135 147.029 335.995 147.469 C 335.655 147.659 335.145 147.589 335.505 148.149 C 334.775 148.729 335.705 149.309 334.955 149.569 C 335.065 150.119 334.305 150.879 333.875 150.519 C 334.055 150.129 333.885 149.639 333.585 149.719 C 333.355 149.789 333.075 149.919 332.935 149.689 C 332.295 149.749 332.575 148.519 332.365 147.999 C 331.735 147.889 331.085 148.309 330.745 147.599 C 330.375 147.389 330.025 147.349 329.855 147.829 C 329.775 148.419 328.795 148.009 328.375 148.069 L 328.495 148.519 C 328.605 148.919 328.775 148.829 328.625 149.089 C 328.505 149.279 328.495 149.349 328.595 149.349 C 328.655 149.349 328.755 149.299 328.805 149.249 C 328.985 149.069 329.345 149.249 329.975 149.859 L 330.605 150.469 L 330.555 150.959 C 330.505 151.409 330.515 151.479 330.715 151.679 C 330.905 151.869 330.925 151.939 330.845 152.119 C 330.785 152.239 330.775 152.359 330.805 152.409 C 330.835 152.459 330.785 152.569 330.705 152.659 C 330.575 152.799 330.695 153.159 330.755 153.529 C 330.805 153.799 330.745 154.099 330.935 154.239 C 331.415 154.589 331.325 154.659 330.935 154.959 C 330.885 154.999 330.845 155.109 330.815 155.229 C 330.725 155.699 330.765 156.209 330.565 156.659 C 330.455 156.909 330.465 156.949 330.635 157.139 C 330.745 157.249 330.835 157.409 330.835 157.499 C 330.835 157.579 330.915 157.929 331.115 157.889 C 331.425 157.839 331.405 158.129 331.395 158.639 C 331.385 159.049 331.535 159.209 331.375 159.319 C 331.265 159.399 331.275 159.619 331.275 159.749 C 331.275 159.879 330.795 159.879 330.715 159.879 C 330.575 159.879 330.615 159.639 330.755 159.549 L 330.215 159.989 C 330.815 160.309 330.135 160.569 330.165 160.179 C 330.175 160.119 329.995 160.599 329.855 160.419 C 329.775 160.319 329.265 160.849 329.835 160.989 C 330.105 161.059 329.945 161.799 330.175 161.889 C 330.275 162.049 330.055 162.329 330.215 162.519 C 330.185 162.559 330.155 163.299 330.015 163.449 C 329.865 163.589 329.445 163.639 329.385 163.489 C 329.325 163.339 328.985 163.119 329.065 163.599 C 328.875 164.079 328.955 163.569 328.815 164.379 L 328.645 164.739 C 328.625 165.139 328.245 165.199 327.735 165.319 C 327.475 165.379 327.385 165.369 327.245 165.229 C 327.155 165.139 327.085 164.989 327.085 164.899 C 327.085 164.819 327.035 164.669 326.965 164.579 C 326.865 164.439 326.835 164.439 326.665 164.719 C 326.555 164.879 326.455 165.199 326.415 165.419 C 326.395 165.599 326.235 165.959 326.275 166.029 C 326.175 166.149 326.145 166.279 326.165 166.299 C 326.195 166.329 326.155 166.699 326.115 167.119 C 326.085 167.539 325.925 168.219 325.995 168.639 C 326.085 169.189 325.935 169.539 325.885 169.719 C 325.835 169.909 325.805 170.329 325.885 170.639 C 326.035 171.199 326.195 171.519 325.945 171.849 C 325.745 172.099 326.125 173.569 326.205 173.829 C 326.255 173.979 326.315 174.319 326.345 174.579 C 326.375 174.839 326.505 175.259 326.625 175.519 C 326.785 175.859 326.825 176.049 326.785 176.259 C 326.655 176.899 326.625 177.199 326.705 177.439 C 326.765 177.599 326.775 177.859 326.715 178.179 C 326.645 178.619 326.655 178.769 326.855 179.409 C 326.975 179.809 327.085 180.289 327.085 180.479 C 327.085 180.669 327.075 181.049 327.215 181.039 C 327.415 181.019 327.465 181.109 327.335 181.469 C 327.215 181.829 327.515 182.659 327.935 183.739 C 327.985 183.859 327.895 184.239 328.085 184.599 C 328.215 184.859 327.995 185.169 327.895 185.329 C 327.805 185.479 328.175 185.639 328.235 185.749 C 328.315 185.919 328.335 186.389 328.395 186.799 C 328.435 187.069 328.465 187.249 328.505 187.379 C 328.525 187.459 328.555 187.539 328.605 187.609 C 328.935 187.839 329.085 188.209 328.815 188.569 C 328.735 188.849 328.075 189.429 328.685 189.429 C 329.245 189.479 328.985 189.909 328.845 190.229 C 328.675 190.619 329.075 190.879 329.115 191.189 C 328.885 191.549 328.925 191.969 328.905 192.379 C 328.915 192.729 328.765 193.149 328.965 193.459 C 328.935 193.649 328.825 193.819 328.755 193.999 C 328.775 194.219 328.705 194.509 328.955 194.619 C 329.255 194.579 329.425 194.299 329.635 194.109 C 329.985 194.269 330.345 194.429 330.705 194.549 C 331.195 194.759 331.755 194.629 332.205 194.379 C 332.305 194.089 332.635 193.989 332.785 193.699 C 332.855 193.319 333.165 193.479 333.245 193.759 C 333.555 194.239 334.015 193.649 334.275 193.429 C 334.545 193.049 334.955 192.859 335.215 192.499 C 335.485 192.359 335.515 192.189 335.265 191.989 C 335.215 191.469 335.875 191.779 336.185 191.779 C 336.295 191.799 336.395 191.829 336.445 191.899 C 336.655 192.219 336.855 192.569 336.905 192.139 C 337.335 191.969 337.655 192.019 337.805 191.779 C 338.105 191.629 338.465 191.519 338.595 191.519 C 338.725 191.519 338.905 191.459 339.005 191.389 C 339.285 191.189 339.635 191.249 339.665 191.499 C 339.695 191.689 340.055 191.949 339.985 191.769 C 339.905 191.559 340.825 191.799 340.285 192.249 C 340.085 192.419 340.685 192.889 340.465 192.869 C 340.395 192.859 340.805 193.139 341.165 193.319 C 342.015 193.469 342.135 193.829 341.985 193.119 C 341.965 193.009 342.255 193.279 342.505 193.359 L 342.965 193.519 C 343.205 193.719 342.945 194.209 342.925 194.569 C 342.995 194.629 343.315 194.579 343.315 194.699 C 343.345 194.969 343.225 195.409 343.505 195.519 C 343.595 195.489 344.025 195.279 344.145 195.249 C 344.545 195.159 344.645 194.949 344.745 194.669 C 344.815 194.479 344.495 194.259 344.605 193.839 C 344.775 193.209 344.775 193.079 344.525 193.029 C 344.155 192.959 344.075 192.509 344.255 192.249 C 344.285 192.209 344.215 191.919 343.745 191.859 C 343.565 191.829 343.395 191.409 344.125 191.459 C 344.185 191.459 344.225 191.809 344.255 191.789 C 344.355 191.719 344.705 191.939 344.795 191.929 C 344.985 191.919 345.255 191.599 345.435 191.339 C 345.485 191.279 345.535 190.839 345.675 190.829 C 345.935 190.819 346.015 190.319 345.625 190.029 C 345.465 189.909 345.435 189.809 345.205 189.619 C 344.915 189.399 345.295 189.109 344.265 189.289 C 343.785 189.369 343.325 189.109 343.135 188.849 C 343.025 188.709 342.815 188.749 342.715 188.689 C 342.425 188.509 342.885 188.539 342.595 187.709 C 342.485 187.399 342.605 187.179 342.625 187.099 C 342.715 186.759 342.475 186.249 342.205 186.299 C 342.005 186.339 341.935 186.129 341.935 186.079 C 341.985 185.679 341.425 185.269 341.575 185.149 C 341.105 185.009 341.175 185.359 341.305 184.189 C 340.905 182.469 341.705 182.919 341.225 182.369 C 341.315 182.079 341.705 181.489 341.655 181.399 C 341.435 180.979 341.395 180.469 341.535 180.259 C 341.615 180.129 341.805 179.719 341.755 179.239 C 341.635 178.209 341.885 177.729 342.235 177.559 C 342.365 177.499 342.525 176.929 342.545 177.189 C 342.555 177.339 342.815 177.799 343.035 177.879 C 343.255 177.959 342.935 178.309 343.275 178.179 C 343.895 177.929 343.555 177.839 343.665 177.469 C 343.765 177.129 344.245 176.479 344.355 176.399 C 344.565 176.259 344.905 176.499 344.925 176.279 C 344.935 176.099 344.855 176.089 344.735 175.979 C 344.475 176.279 344.645 175.469 344.415 175.119 C 344.095 175.119 344.035 174.749 344.355 174.509 C 344.545 174.359 344.415 173.879 344.535 173.459 C 344.615 173.179 344.765 172.959 344.685 172.759 C 344.625 172.629 344.665 172.489 344.715 172.459 C 344.765 172.419 344.805 172.309 344.805 172.189 C 344.805 172.079 345.035 171.739 345.095 171.679 C 345.215 171.459 345.155 171.289 345.145 171.069 C 345.155 171.059 345.145 170.999 345.155 170.849 C 345.185 170.359 345.195 169.879 345.545 169.479 C 345.835 169.079 346.005 168.429 345.985 168.299 C 345.965 168.189 345.855 168.079 345.945 167.939 C 345.995 167.869 346.085 167.789 346.265 167.699 C 346.875 167.409 347.025 167.019 346.785 166.439 C 346.605 166.169 346.295 165.859 346.485 165.709 C 346.545 165.679 346.685 165.699 346.975 165.809 C 347.115 165.929 347.335 166.249 347.405 166.309 C 347.555 166.449 348.035 166.599 348.115 166.469 C 348.155 166.409 348.435 166.199 348.585 166.229 C 348.795 166.269 348.745 166.519 348.955 166.299 C 349.105 166.159 349.365 165.769 349.475 165.769 C 349.805 165.769 350.045 165.809 349.875 165.549 C 349.725 165.319 349.625 165.189 349.855 164.669 C 349.925 164.509 350.065 164.369 350.045 164.269 C 350.025 164.109 349.855 163.689 350.045 163.669 C 350.225 163.649 350.505 163.819 350.625 163.569 C 350.725 163.379 350.845 163.139 350.805 163.049 C 350.735 162.919 350.665 162.719 350.895 162.709 C 351.215 162.699 351.015 162.019 350.735 162.189 C 350.535 162.309 350.255 162.119 350.215 161.939 C 350.185 161.809 349.835 161.659 349.625 161.829 C 348.925 162.419 349.195 161.729 349.135 161.659 C 348.805 161.249 348.975 161.489 349.235 161.179 C 349.405 160.979 349.585 160.709 349.525 160.429 C 349.485 160.209 349.525 159.929 349.705 159.759 C 350.125 159.359 349.595 159.229 349.685 159.099 C 349.935 158.749 349.985 158.059 350.015 158.039 C 350.065 157.999 349.835 157.829 349.835 157.719 C 349.835 157.609 349.935 157.179 349.835 157.209 C 349.585 157.269 349.535 157.159 349.925 156.599 C 350.275 156.089 350.015 155.709 349.785 155.519 C 349.165 154.969 349.185 154.939 349.245 154.329 C 349.285 153.909 349.365 153.659 349.265 153.419 C 349.195 153.239 349.065 153.249 349.025 153.059 C 348.985 152.879 349.195 152.509 348.905 152.549 C 348.235 152.549 347.605 153.189 346.895 152.889 C 346.625 153.209 346.375 152.679 346.035 152.779 C 345.695 152.219 345.375 151.689 344.985 151.189 C 344.605 150.639 343.985 150.359 343.325 150.689 C 343.435 151.589 341.955 150.669 342.185 150.329 C 342.395 149.969 342.695 149.859 342.235 149.589 C 341.825 149.169 342.515 148.519 341.815 148.119 C 342.235 147.389 341.145 147.009 341.175 146.329 C 341.365 146.049 341.365 145.709 341.185 145.619 C 341.065 145.559 340.865 145.639 340.635 145.709 C 340.305 145.739 340.365 145.469 340.235 145.469 Z M 327.875 148.839 C 327.855 148.949 327.895 149.019 327.995 149.069 C 328.035 148.959 327.975 148.889 327.875 148.839 Z M 327.765 149.219 C 327.705 149.219 327.615 149.389 327.525 149.529 C 327.525 149.649 327.645 149.689 327.685 149.689 C 327.775 149.689 327.845 149.429 327.805 149.279 C 327.785 149.239 327.775 149.219 327.765 149.219 Z" fill="#fdf9d2" fill-rule="evenodd" id="Coquimbo" stroke="#d69466" stroke-miterlimit="4" stroke-width="0.31" transform="matrix(1, 0, 0, 1, 7.105427357601002e-15, 7.105427357601002e-15)"/>
</svg>