<?xml version="1.0" encoding="utf-8"?>
<svg viewBox="149.2606 91.8524 306.2993 279.7552" xmlns="http://www.w3.org/2000/svg">
  <g transform="matrix(1, 0, 0, 1, 302.4100081683696, 231.72999918058508)" id="path4284">
    <path style="stroke: rgb(215,151,106); stroke-width: 2; stroke-dasharray: none; stroke-linecap: butt; stroke-dashoffset: 0; stroke-linejoin: miter; stroke-miterlimit: 4; fill: rgb(253,249,210); fill-rule: evenodd; opacity: 1;" transform=" translate(-232.08, -276.14)" d="M 163.90638 136.2624 C 161.32653 140.62916 164.0188 143.91409 158.84282 147.95461 C 158.40816 152.98236 151.20669 155.55888 153.96338 161.58019 C 154.17795 163.6414 153.35782 164.90406 152.30623 165.99931 C 152.30401 166.00154 152.30846 166.0891 152.30623 166.09133 C 150.54833 167.91917 148.19957 169.23633 149.08395 172.81208 C 149.14311 175.36808 149.27652 177.69228 149.26809 180.08525 C 149.25934 182.55843 149.10727 185.08655 148.4395 187.72655 C 149.72912 190.75562 148.99029 197.05963 148.07125 201.5363 C 147.87064 201.86954 147.75828 201.85562 147.61092 202.08872 C 145.95331 204.71038 146.93368 201.993 136.28696 209.45391 C 134.32353 212.46921 130.97605 213.72129 130.02657 215.43807 C 129.08149 217.14686 132.56035 219.43608 130.67101 222.71115 C 130.44767 225.06291 127.13759 226.40162 125.2392 228.05091 C 124.49416 234.07364 120.61769 230.71896 119.9915 238.08598 C 118.55146 239.23177 115.9127 239.02998 116.03273 241.30823 C 115.24806 241.46078 114.97768 241.78684 114.65175 243.05748 C 112.42797 244.17553 113.64873 245.40398 114.0073 250.60675 C 115.81622 253.94619 114.43062 256.25789 111.98187 258.52437 C 111.27119 259.18219 110.13999 260.61466 109.86439 261.56246 C 110.13528 262.05854 109.17565 263.74013 108.11515 262.94349 C 106.6714 261.85899 103.67086 264.86754 102.22302 268.55944 C 100.70387 268.94179 98.832465 269.8122 97.803913 271.04515 C 97.099294 271.88991 96.820214 272.93267 97.25152 273.99121 C 98.981073 276.34351 95.784726 274.93981 94.949899 277.30553 C 95.378671 278.07656 102.30969 286.28714 103.69605 293.69315 C 104.5046 298.01227 105.81881 300.98652 106.64212 301.61063 C 106.84334 301.70613 106.90782 302.0122 106.91832 302.43924 C 106.92766 302.81753 106.83418 303.28164 106.73419 303.63606 C 106.00247 303.87157 105.94567 306.32619 105.72147 308.33138 C 105.62596 309.1855 103.80488 309.40255 102.95953 309.5282 C 101.33668 309.65666 100.78681 310.96932 99.553141 312.10606 C 99.734618 313.32509 96.001356 313.30667 96.146748 315.42038 C 95.318661 316.71341 95.74419 318.99541 93.568933 318.82672 C 92.345246 319.73821 92.244083 321.58152 91.543511 322.87759 C 91.926287 323.49955 92.361803 324.11206 91.175245 324.7189 C 90.106178 326.08861 88.481066 327.79392 87.584721 328.49358 C 86.844147 328.56008 86.139792 328.63787 85.835493 329.41421 C 85.00576 330.67366 83.570207 331.43496 82.337032 331.99203 C 81.898657 335.24939 78.891513 332.73005 81.692585 339.44928 C 80.609607 341.49242 79.59362 341.60853 78.930635 342.7636 C 79.395528 342.70187 80.000295 342.68902 80.403673 342.48737 C 80.813114 342.28268 81.363415 341.8828 81.600513 341.56674 C 82.126456 341.01445 82.822193 341.79556 83.625944 340.36991 C 83.395759 339.11756 85.919197 340.19712 87.216468 340.18574 C 87.080858 340.9644 88.032521 341.11686 88.873633 340.92229 C 89.203093 340.84615 89.45203 341.84293 89.51808 341.84293 C 90.681756 342.25592 90.696605 341.54907 91.083181 340.73812 C 91.939459 341.15602 92.551331 342.18696 92.924477 341.10637 C 93.692286 341.07658 94.543081 341.50755 94.489579 342.39535 C 94.551654 342.64696 94.965752 342.72341 95.870545 342.7636 C 96.606239 342.79612 96.01384 343.45929 96.146748 343.59217 C 96.511321 343.95677 96.624687 344.27181 96.883267 344.78904 C 97.269255 345.56109 97.734883 344.75839 97.619773 344.60487 C 97.19039 344.03233 97.504738 343.79922 97.895976 343.408 C 98.466888 342.84099 98.137936 342.14151 98.356296 341.38256 C 98.343218 340.74343 98.405401 340.63919 98.632486 340.73812 C 98.746035 340.78754 98.804574 340.76743 99.092816 341.01436 C 99.313794 341.20361 100.19759 341.48689 100.19759 341.84293 C 100.389 342.9748 101.70233 342.54526 101.57856 343.68423 C 101.23744 344.56285 101.17274 345.02606 101.67063 345.80169 C 103.86085 345.96329 103.88159 345.88853 104.06431 346.44613 C 104.19962 346.54761 104.45036 346.99855 104.70876 346.99855 C 104.99666 346.99864 105.85074 346.80319 105.90561 347.36676 C 106.01354 348.47603 104.89218 348.23463 105.16909 348.47157 C 105.41706 348.68393 106.06469 349.36503 106.27386 349.20816 C 106.44701 349.07827 107.20814 348.51122 107.4707 348.56372 C 108.93735 348.69338 109.82199 348.64914 110.78503 348.65574 C 111.49412 348.65565 111.60001 348.22183 112.07394 348.10336 C 112.44229 348.01129 112.60665 347.62333 113.08666 348.10336 C 113.80838 348.36287 114.81267 349.43359 115.20414 348.83982 C 115.92086 348.4386 116.90105 348.04974 117.68989 348.28748 C 117.88733 348.48499 118.13384 349.4087 117.87402 349.66839 C 117.75164 349.79087 117.00139 350.21684 116.95337 350.31283 C 117.08665 352.20579 116.28847 351.71167 116.67718 352.24625 C 117.20706 352.74912 117.59176 353.46029 117.68989 354.08751 C 117.22971 355.25262 118.17779 355.39696 117.87402 356.20501 C 117.68109 357.02912 117.63527 357.61054 116.76924 357.95426 C 116.50769 358.21568 116.83596 359.03372 117.1375 359.33525 C 117.63002 359.82764 117.7838 359.47477 118.33435 359.88763 C 118.52849 360.03326 119.51474 360.73261 119.80738 360.44005 C 120.58844 359.9755 121.14263 359.97724 122.01693 360.25588 C 123.36841 359.94062 123.1583 360.71575 123.3979 360.80831 C 124.10923 361.00519 125.02366 360.77178 125.69952 360.99234 C 126.33213 361.69718 126.4733 362.63052 127.17255 363.20195 C 128.0874 363.59326 129.12737 363.71584 130.11863 363.5702 C 130.66509 363.16087 131.17358 363.01524 131.7758 362.74159 C 132.57933 362.91836 132.99496 361.81221 133.61709 361.26853 C 134.5336 361.34891 134.55002 362.63971 136.10283 363.20195 C 136.5458 363.64496 136.55087 363.74206 136.93141 364.12258 C 137.23521 364.72189 136.7195 364.79307 136.83935 366.70044 C 136.66815 367.12837 136.74728 367.30398 136.74728 367.89726 C 136.74731 368.47021 136.04412 367.85587 135.9187 368.35753 C 135.81173 368.78547 135.39701 368.51102 134.99805 368.90996 C 134.28157 369.19569 134.05841 369.60748 133.70915 370.01476 C 133.32825 369.82439 133.10953 369.38152 132.69644 369.27817 C 132.67746 369.27353 131.45991 369.4064 130.94721 369.27817 C 130.34724 369.1283 129.94905 368.81794 129.29004 368.81794 C 128.95681 368.81781 127.99197 368.57833 127.90907 368.90996 C 127.63429 369.73612 128.43922 369.91864 128.00113 370.6592 C 127.76298 371.61209 128.60226 370.73111 128.82972 371.48777 C 128.98434 372.00197 129.83566 371.58795 130.11863 372.13222 C 130.17083 372.23262 130.84599 373.13648 130.76307 373.51325 C 130.65861 373.98793 130.64942 374.13602 131.03928 374.5259 C 131.39593 374.88256 131.51124 375.13016 132.14405 375.44654 C 132.58947 375.66934 133.20976 376.33934 133.24882 376.18313 C 133.37044 375.69659 133.25805 375.649 133.61709 375.17035 C 133.78424 374.94742 134.05454 374.91704 134.35361 374.61792 C 134.63421 374.33727 135.14462 374.49196 135.27425 373.97353 C 135.45007 373.27029 135.96496 373.65104 136.37902 373.23702 C 136.70828 372.87095 137.08596 372.59262 137.57586 372.50047 C 137.91655 372.50047 138.15586 372.22428 138.49651 372.22428 C 138.83785 372.22415 139.85457 372.17249 140.06162 372.22428 C 140.56383 372.34975 140.40011 372.99196 140.8902 373.23702 C 141.21267 373.39813 141.65452 374.39736 141.81084 374.71008 C 142.05616 375.20054 142.76711 374.82886 143.09975 375.07833 C 143.37527 375.28494 143.27513 375.89816 143.56008 376.18313 C 143.87427 376.49724 144.94599 377.07914 145.03311 376.6434 C 145.10296 376.29415 144.97613 375.77969 145.21724 375.53856 C 145.68092 375.07485 145.69657 375.0042 146.04582 374.43389 C 146.23054 374.13236 145.81918 373.59207 146.69027 373.14491 C 146.9944 372.98889 147.00379 371.79135 147.24266 371.67186 C 147.53373 371.52636 147.72986 370.69752 147.88712 370.38297 C 148.00817 370.14095 148.50128 369.95508 148.4395 369.64651 C 148.24927 368.69639 148.86568 368.78587 148.89983 368.81794 C 149.1955 369.09525 148.79306 367.89726 149.26809 367.89726 C 149.40793 367.89726 151.3484 367.8796 151.20144 368.1735 C 151.09088 368.39478 150.84635 369.11179 151.20144 369.27817 C 152.09163 369.69513 151.87553 368.75304 152.03002 368.44969 C 152.26026 367.99736 152.60284 369.03289 153.04274 369.00198 C 154.44413 368.90394 154.21071 369.8847 154.6999 369.83059 C 156.00734 369.68616 155.25748 370.7489 155.89675 370.75122 C 156.53911 370.75354 157.7523 370.88941 157.55391 371.30365 C 157.49419 371.42841 158.15588 371.78466 158.75075 371.85603 C 159.09032 371.89679 159.57934 372.28548 159.57934 372.77666 C 159.57934 373.24781 159.86078 373.85452 160.31586 373.51325 C 160.51256 373.36566 161.36666 373.41468 161.42063 373.14491 C 161.53683 372.56403 161.31581 372.13672 161.69682 371.85603 C 162.34134 371.3813 162.57222 371.47805 161.88095 371.02741 C 161.65735 370.88169 161.48238 370.11441 161.88095 370.01476 C 162.15255 369.94692 162.8016 370.01017 162.8016 369.64651 C 162.8016 369.19917 162.45756 368.95835 162.24921 368.54171 C 162.00619 367.59119 162.65126 367.64864 162.61747 366.79246 C 162.51798 366.39446 162.70141 365.65514 162.61747 365.31945 C 162.48146 364.77519 163.14426 365.18653 163.35399 364.76702 C 163.53605 364.40288 163.33667 363.69822 163.63018 363.47818 C 163.84763 363.31507 164.61782 363.32733 164.55083 363.10993 C 164.36511 362.5067 164.49784 361.76685 165.01116 361.91311 C 165.67425 362.10192 165.29283 361.16554 165.56354 360.62413 C 166.12026 359.74927 166.3439 359.05652 165.9318 358.04628 C 165.84872 357.71393 165.76022 357.32244 165.47147 357.03362 C 165.21998 356.7821 164.48844 356.59998 164.3667 356.11295 C 164.33323 355.97913 164.39652 355.58648 164.55083 355.3764 C 164.63352 355.26391 164.73853 355.23933 164.91909 355.28438 C 165.03263 355.31284 165.7262 355.25601 165.83974 355.28438 C 165.83974 355.77868 165.41111 355.86852 165.83974 356.29712 C 166.40429 356.86176 166.29594 356.25309 166.76038 356.02093 C 167.04371 355.8794 167.1285 354.96198 167.58897 355.19232 C 168.0913 355.44339 168.7096 355.16181 168.78581 355.19232 C 169.94282 355.87561 168.75428 355.88743 168.69374 356.84945 C 169.00596 357.48796 169.61171 357.96389 169.89058 358.5987 C 169.64762 358.78091 169.02623 359.14211 169.79852 359.33525 C 169.80759 359.33748 170.44607 359.40827 170.81123 359.33525 C 171.48061 359.2013 171.41838 359.29051 171.73187 359.79552 C 172.20367 360.55567 172.1608 360.49505 172.46839 361.0845 C 172.64873 361.43004 173.42207 360.93338 173.7573 361.26853 C 174.11328 361.62456 173.53086 362.65086 173.94144 362.55751 C 175.3209 362.2434 175.68416 362.60349 175.23033 363.47818 C 174.99023 363.94095 175.679 364.25479 176.15098 364.49083 C 176.47918 364.65498 176.8875 364.95722 176.8875 365.41147 C 176.8875 365.78855 176.80213 366.40614 177.07163 366.60829 C 177.71241 367.08903 177.82217 366.51627 178.4526 366.51627 C 179.21549 366.74826 179.91742 367.57085 179.46531 368.35753 C 179.12623 368.69662 178.33017 368.481 178.54467 368.90996 C 178.73699 369.29467 179.09706 369.41385 179.09706 370.01476 C 179.30911 370.69997 179.29186 371.96004 179.83357 372.40845 C 180.31956 372.40854 181.49074 371.46217 181.49074 371.94805 C 181.4907 372.01526 181.51408 372.75338 181.21455 373.05285 C 180.45602 373.81139 181.05728 373.56691 181.39867 374.24972 C 183.89058 376.357 182.0718 373.83101 183.51617 373.32908 C 184.34489 373.32917 184.41534 373.15111 184.52888 373.60527 C 185.78799 376.54108 184.78162 372.8635 186.46223 374.43389 C 187.21626 374.81775 188.12788 374.52996 188.85592 375.07833 C 189.87182 376.45995 189.93925 376.09758 190.97341 375.07833 C 191.95571 374.90968 192.70475 373.96701 193.82741 374.34173 C 194.38811 374.0618 195.35106 373.98927 195.11632 373.4211 C 194.74402 373.14197 194.11068 372.82091 194.656 372.68464 C 195.13971 372.56372 195.9847 372.68464 196.49729 372.68464 C 197.06565 372.86716 196.79148 373.2401 197.23381 373.69729 C 197.96284 373.50897 198.58037 372.89361 199.35129 373.4211 C 199.71999 373.6055 199.90905 373.97353 200.364 373.97353 C 201.11447 374.03227 201.84332 374.4061 202.29737 374.98627 C 202.42072 375.23297 202.8702 375.82527 202.84975 376.09098 C 202.80062 376.729 203.84291 377.03663 204.23073 377.10376 C 204.51756 377.15336 204.19623 378.07056 204.32279 378.57678 C 204.47263 379.17608 205.24788 379.31774 205.70376 379.77364 C 205.96042 380.0303 206.42808 380.08971 206.71648 380.23391 C 206.16948 381.07948 207.194 381.14906 207.54505 381.79908 C 208.26543 382.05127 208.11479 382.86655 208.28157 383.17998 C 208.50427 383.59846 208.86522 383.91653 209.47842 383.91653 C 210.07458 383.91644 210.07909 384.19277 210.67526 384.19277 C 211.01762 384.19277 212.03496 384.35557 212.24036 384.56097 C 212.74317 386.47793 214.946 386.40358 216.10707 387.78328 C 217.26406 388.49512 218.20819 389.28131 219.42141 389.90073 C 219.81515 390.13678 220.24462 389.86179 221.2627 390.361 C 222.50765 390.56583 224.03286 389.89939 225.03735 390.82136 C 225.19261 391.13194 225.46937 392.12448 226.05006 392.01823 C 226.7381 391.8924 226.92025 392.65085 227.43104 392.75469 C 228.01471 392.87334 228.25859 392.66191 228.62788 392.93886 C 229.39117 393.54646 230.26377 393.909 231.02156 394.50394 C 231.04666 395.05266 231.14724 395.64188 232.2184 395.24049 C 233.10449 395.07706 233.99193 395.11247 234.88828 395.14847 C 235.48309 395.29722 236.15592 395.97695 236.82163 395.97695 C 237.31699 395.97695 238.33265 395.8128 238.66293 396.25314 C 239.30013 396.59873 239.53122 397.04638 240.04391 397.45 C 241.67832 397.52891 242.28734 397.34465 242.34552 396.89758 C 242.40883 396.50595 242.81071 396.05813 243.81856 396.25314 C 244.27337 396.25327 244.51489 396.69066 244.73921 396.98973 C 245.52321 397.64301 246.32355 398.2002 246.8567 399.10719 C 247.08077 399.40599 247.36519 399.5576 247.86941 399.9358 C 248.40235 400.51534 247.57132 400.26284 248.1456 401.96124 C 247.97146 402.65773 248.89128 402.47695 248.69799 403.25012 C 248.60439 404.98532 249.9486 405.44358 250.63135 406.93265 C 250.65488 407.02672 250.42634 408.53345 250.53929 408.58988 C 250.95642 408.79854 251.11827 408.89261 251.552 409.32634 C 252.00463 409.99317 252.3172 410.72807 253.02502 411.16774 C 253.99001 411.12126 255.00359 411.04102 255.97111 411.07558 C 256.15546 411.37537 257.43397 411.4359 258.27272 411.44384 C 259.0164 411.87815 258.73016 412.97573 259.28543 413.65344 C 259.54439 413.84765 259.27212 414.42934 259.56163 414.57408 C 260.09256 414.83961 259.48889 415.64248 259.56163 415.67888 C 260.24856 415.95253 260.98025 416.27979 261.58705 415.67888 C 261.95272 415.31317 261.70266 415.0323 261.86324 414.3899 C 261.9995 413.84502 262.36463 413.57124 262.59976 413.10102 C 263.4196 411.85647 262.83156 410.90109 263.70453 409.51051 C 264.10349 408.72806 263.56265 407.6498 264.16486 406.93265 C 264.73763 406.61395 265.56657 406.46569 265.72997 405.82798 C 265.72997 405.00137 265.60388 404.13244 266.28235 403.52631 C 267.06265 402.83481 267.27931 402.39448 267.4792 401.40886 C 268.3134 401.12687 268.23262 400.0846 268.95223 400.39607 C 269.25794 400.70188 270.23079 401.55163 270.3332 401.96124 C 270.45311 402.44104 271.02072 402.56888 271.43798 402.88187 C 272.20034 403.51685 272.97326 403.92851 273.92372 403.34214 C 274.44456 402.65024 274.58306 401.65971 275.58089 401.59289 C 276.42323 401.27054 277.16181 400.48934 277.51425 399.65961 C 277.56749 399.44654 277.60631 398.27608 277.60631 398.00238 C 277.85346 397.12854 277.81386 396.82844 278.34283 396.0691 C 278.77467 395.36404 279.37946 394.61121 280.27619 394.59604 C 280.67029 394.59604 281.10878 394.13774 281.47303 394.31985 C 281.53599 394.35139 282.76194 394.87522 282.76194 394.50394 C 282.76197 393.95517 283.12044 393.59628 283.40638 393.21505 C 284.89545 391.66229 282.75121 390.93769 284.41911 390.45315 C 284.92094 390.0072 285.48756 389.50099 285.89214 388.9801 C 285.89207 388.27829 286.49037 388.66943 287.08898 388.51974 C 287.3353 388.45818 287.2541 387.72297 287.45724 387.8753 C 287.59302 387.98725 287.70032 388.1228 287.82549 388.24355 C 288.29863 388.69994 288.74764 389.1475 289.48266 389.07212 C 289.86775 389.07225 290.40021 388.9793 290.77157 389.07212 C 291.62705 389.48716 292.08007 390.2763 292.98112 390.63719 C 293.21168 390.72943 294.09456 391.17231 293.8097 391.742 C 293.74362 392.09754 293.85118 393.12098 293.8097 393.49124 C 293.54155 394.39305 293.85369 394.31843 293.99383 395.14847 C 293.89514 395.54344 293.99754 396.88286 293.90177 397.26592 C 293.8812 398.16175 293.68582 397.87437 293.8097 398.73898 C 293.68461 398.86405 293.64749 399.67058 293.99383 399.84369 C 294.588 400.1408 294.60836 400.08763 294.27003 400.76432 C 294.04256 401.21929 294.05656 401.75177 294.17797 402.23734 C 294.33211 402.85412 294.43038 403.8025 295.09861 403.8025 C 296.07538 403.92445 296.90655 404.1861 297.58435 404.90721 C 298.33967 405.31463 299.27292 405.9506 299.79391 406.65646 C 301.34923 406.52122 302.64792 407.12485 302.64792 408.22162 C 302.64789 408.88114 304.48169 407.86247 304.39715 408.49786 C 304.24572 409.63598 306.15262 409.48691 306.6067 409.51051 C 307.00981 409.53125 306.69573 410.15344 308.35593 410.98357 C 309.09884 411.35494 310.25458 409.26666 311.0258 408.95813 C 312.21099 408.48403 311.76951 408.7596 312.13059 408.03745 C 312.64512 407.00843 313.0788 406.01202 314.61633 406.01202 C 316.3217 406.01202 316.54221 406.13642 316.73382 405.45964 C 316.9437 404.71836 317.25513 403.65397 316.91795 402.97393 C 316.45557 402.0413 316.78302 403.31288 317.2862 400.11988 C 317.47426 398.92658 316.85311 398.89456 316.82589 397.35799 C 316.80641 396.25813 316.21761 395.92396 317.2862 395.42457 C 319.5834 394.35117 318.68515 394.6299 319.67989 395.88493 C 320.32582 396.6998 319.33108 397.40402 322.44183 397.08175 C 323.00689 397.02319 323.26549 395.98194 323.82281 395.42457 C 324.7286 394.51875 325.44403 394.69217 326.58475 395.14847 C 328.43455 396.1005 327.65299 397.79627 329.80701 398.73898 C 331.66311 399.10661 330.98629 397.50076 332.10861 396.80556 C 333.3586 396.03128 333.73859 395.22006 334.87056 396.0691 C 336.09302 396.98585 334.20038 398.73612 336.80393 398.64683 C 337.51751 398.62243 337.79918 398.13156 339.38174 397.08175 C 340.04577 396.64111 340.93772 395.92155 341.13099 395.14847 C 341.32542 394.3707 341.4835 394.16722 341.95956 393.21505 C 342.42549 392.28322 341.46253 391.90748 341.95956 390.91343 C 342.23138 390.36974 339.98328 388.177 339.38174 387.59911 C 338.41918 386.6745 338.27043 385.20899 338.36905 384.83716 C 338.63444 383.83651 339.33647 383.55145 339.19762 382.9959 C 338.93543 381.94712 340.66523 381.31896 340.76274 380.78629 C 340.94651 379.78238 341.06979 376.25726 340.4865 376.36717 C 338.72958 376.69831 338.71268 374.19012 340.02618 373.23702 C 340.8511 372.63847 340.68289 372.67233 341.22305 372.13222 C 342.15336 371.20195 342.64321 370.48346 344.07706 370.10678 C 346.1756 369.55561 346.76843 370.9779 347.20725 369.37032 C 347.50561 368.27729 347.74821 368.0974 347.48344 367.16071 C 347.32166 366.5884 347.56573 366.16889 349.96919 364.49083 C 351.47896 363.43679 349.08072 362.55479 352.73113 363.01778 C 353.26509 363.08553 352.86071 360.34679 354.11208 360.44005 C 354.4199 360.46302 354.67838 358.74625 354.57244 358.32247 C 354.23167 356.95918 353.46764 355.94475 353.46764 355.3764 C 353.46768 354.21901 353.51978 353.51073 353.65177 352.98271 C 353.86868 352.11507 354.32377 351.82545 354.75657 351.87804 C 355.05403 351.91404 355.27077 352.04357 355.49307 352.43042 C 356.47455 354.13778 359.81336 353.42438 360.09628 354.36375 C 360.42738 355.46275 362.2797 355.35008 362.30584 356.29712 C 362.33162 357.2306 363.47719 358.27144 363.50271 358.32247 C 364.56897 360.45491 365.29237 357.70599 365.8964 358.13843 C 366.8896 358.84938 369.02913 358.43456 369.94722 357.49399 C 371.08749 356.3258 371.2494 355.39611 372.43297 355.1003 C 372.87509 354.98963 372.7535 351.96332 372.70916 351.78589 C 373.65602 350.76222 372.42785 346.36223 372.6171 346.16994 C 373.22483 346.27436 373.88939 344.32671 373.62984 343.59217 C 374.1171 340.75877 374.29712 340.93197 376.57591 340.83019 C 376.42733 340.20688 379.49642 339.01261 378.69336 337.97623 C 378.30722 336.17287 378.40036 335.14475 377.5886 333.00472 C 377.23052 331.57234 378.21195 330.52664 378.14098 330.24278 C 377.8284 328.99257 376.04177 329.91128 375.01079 329.13798 C 374.09283 328.44942 373.30512 328.13518 373.53773 327.20469 C 373.85813 325.92335 374.41251 324.81092 375.65523 324.81092 C 376.84349 324.81101 377.72456 323.39714 378.04892 323.15382 C 377.97421 321.06666 381.93351 320.10806 378.23305 320.57596 C 376.15877 319.74623 375.56085 320.57293 374.7346 319.47116 C 373.94122 318.41346 373.09205 318.85602 372.43297 317.53783 C 372.174 317.01984 372.1806 315.50914 372.43297 314.49975 C 372.75011 313.2312 373.35361 313.38932 373.35361 312.19808 C 373.35365 311.11058 375.62249 311.00125 376.8521 311.00125 C 377.21901 311.00134 378.28858 308.92029 378.50924 308.69963 C 379.20029 308.00849 380.81697 308.14721 382.19186 308.14721 C 382.69419 308.14729 384.01737 306.59792 384.30931 306.30594 L 385.22999 305.01706 C 384.96981 301.07176 383.362 303.44244 381.63948 301.42655 C 381.52502 301.57566 379.23794 300.7503 378.41717 300.41381 C 377.01241 299.8381 377.46768 297.27001 379.06166 296.91531 C 380.50216 295.90842 379.83786 294.45267 379.7061 293.50897 C 379.47108 291.8257 379.83479 290.05553 377.95686 290.47084 C 379.25243 288.56022 376.64411 288.03478 377.77273 286.51199 C 379.02352 287.42339 372.54551 283.31239 375.28698 281.72466 C 374.8528 281.23325 374.26715 280.79341 374.27428 280.15958 C 374.29511 278.2953 373.43202 277.82825 372.6171 276.93728 C 372.81207 276.89977 372.97394 276.7445 373.16948 276.66109 C 374.44994 276.11491 375.67771 274.76207 375.83936 273.62296 C 375.95493 272.8084 377.12717 273.26269 376.66797 271.68959 C 375.77433 271.20278 375.95805 270.94282 374.91873 268.19119 C 375.49176 265.92716 373.51441 265.05229 373.16948 264.14032 C 373.02617 263.80186 373.36636 262.67011 373.35361 261.47044 C 373.34571 260.72073 373.17506 259.94359 372.6171 259.35294 C 377.30372 257.9207 373.66062 257.96655 376.29972 258.52437 C 380.31794 258.57968 377.85556 256.88008 375.47111 255.67032 C 375.66794 252.14052 370.36142 254.19512 372.06472 252.17192 C 368.63537 251.10262 369.55462 250.28458 368.10591 249.04168 C 368.34419 248.67771 367.82272 247.51528 368.47421 247.1084 C 369.11045 246.71097 369.78616 246.29522 369.7631 245.72736 C 368.11216 244.87997 367.57048 244.08267 369.30278 242.04474 C 368.22706 241.0886 367.99235 238.92882 369.02659 237.34952 C 371.06492 236.74464 369.7912 235.04816 370.95996 234.49547 C 371.36064 232.17926 369.78562 232.03233 370.22341 230.99698 C 369.15822 230.26163 369.9611 227.10463 368.93453 227.68265 C 363.98006 228.50993 367.46036 226.32615 363.22652 227.40646 C 362.07524 228.8487 361.42593 227.19178 360.46458 226.76202 C 358.34904 225.70633 358.16808 226.57187 356.04545 225.65722 C 353.86564 224.86491 353.67978 224.04843 351.99463 222.71115 C 351.99989 221.85395 352.03187 221.37873 352.08669 220.86989 C 352.30837 218.81109 352.78421 218.9131 353.00732 217.09521 C 353.54842 215.96261 352.76302 212.8165 355.30895 211.75545 C 355.15506 211.13826 356.5679 210.50011 358.43914 210.65074 C 360.46449 209.59607 362.76594 210.9375 362.95033 210.00629 C 364.92327 211.35169 366.4159 207.18775 368.29009 208.80934 C 370.02408 206.07643 369.95476 207.66765 370.68373 207.06022 C 372.15045 208.01369 373.53742 207.44971 374.09016 206.59986 C 376.14601 206.31123 377.25349 204.61854 377.22035 202.36491 C 378.69867 200.98187 377.42094 197.33654 377.68067 196.19654 C 379.72997 195.43577 378.3364 194.60787 377.03623 193.71083 C 377.71202 192.7133 376.70169 189.48422 376.48385 187.26627 C 379.56007 184.65242 378.53966 183.74838 378.78543 182.84715 C 377.80159 182.39634 377.70293 181.21852 378.50924 180.45346 L 379.15372 180.26934 C 378.69162 180.55699 375.83182 178.9065 375.19492 178.98045 C 374.66087 178.76711 374.70601 179.67369 374.09016 179.80906 C 373.3086 179.98061 373.12827 178.93629 372.15679 178.33601 C 370.84542 177.51779 370.59332 176.7559 369.7631 177.87565 C 367.9953 177.96289 366.26987 178.23917 366.35671 178.70426 C 365.24388 178.72206 365.41668 177.7413 365.25191 177.59946 C 364.93201 177.32394 365.21707 178.91658 363.31858 178.88839 C 362.42449 178.8751 361.94709 178.13649 361.38521 177.50739 C 360.59571 176.62356 360.91825 175.66613 360.28045 175.66613 C 359.15161 175.66613 356.59783 175.53749 356.59783 174.7455 C 355.93528 174.1569 356.70524 172.70298 356.78196 172.628 C 356.23466 172.26925 354.94069 172.69036 354.94069 172.35181 C 354.10218 172.03463 354.78864 169.70067 354.29621 169.77399 C 354.02287 169.8128 353.80561 170.87166 353.09939 170.78665 C 349.87552 170.39859 351.49916 171.38987 350.98189 172.9041 C 350.78781 174.03192 350.83014 173.26401 348.40407 173.64069 C 345.72719 173.73294 344.94679 173.60234 345.36594 176.21855 C 345.21558 176.9543 345.07798 177.61123 344.7215 177.96776 C 344.1226 178.56666 344.43362 177.37572 342.51194 176.31057 C 338.91862 174.31899 339.38602 175.45805 338.92143 173.73271 C 338.38658 171.74635 337.04747 168.94538 336.34361 168.94538 C 335.51263 168.94525 334.93804 169.39098 334.41024 168.11677 C 334.29578 167.84035 333.5496 168.0355 333.39754 167.28824 C 333.15971 166.11988 332.56724 164.59111 332.01655 164.61841 C 331.32617 164.65244 329.94943 164.07013 328.88636 162.86916 C 328.77379 162.74191 328.72138 162.55533 328.70223 162.40876 C 328.65351 162.03618 328.73358 161.69215 328.33398 161.58019 C 327.63336 161.38389 327.19332 160.57963 326.76888 160.19929 C 325.90356 159.42384 325.41854 158.93186 324.83552 158.81825 C 324.0901 158.67315 323.33653 159.09702 323.36248 159.27865 C 322.99787 159.00599 321.1681 157.80743 320.32435 157.89762 C 320.23098 158.0709 320.76499 160.44465 320.04815 160.38332 C 318.37027 160.23983 318.9789 160.84025 317.19414 159.83094 C 316.12704 159.45323 315.07445 159.03538 314.34014 158.17385 C 314.22851 157.87902 312.83543 158.60062 312.22265 158.35789 C 311.73775 158.16578 311.1488 157.3125 310.2893 158.26587 C 309.24559 159.42366 307.99263 158.56088 306.33051 159.37067 C 303.34976 160.82285 302.22224 162.57821 300.99075 159.55475 C 300.16364 157.52401 298.40855 154.93812 297.58435 155.68801 C 297.31886 155.92976 297.58061 154.07039 294.91448 154.49119 C 294.49785 154.17146 294.2129 152.55706 293.25732 151.36104 C 293.09767 151.99986 290.904 149.49818 290.77157 149.61179 C 290.46341 150.42841 289.92027 151.1307 289.3906 151.82131 C 288.37604 152.38957 288.65758 153.27104 287.45724 153.47849 C 286.65647 153.82672 285.84267 154.27499 284.78736 154.39917 C 283.58787 153.65035 280.73639 149.19711 280 149.05941 C 279.81368 149.01436 279.64031 149.02128 279.44761 149.05941 C 278.86942 149.17391 278.30588 149.6431 278.34283 150.44041 C 277.85728 150.89996 277.0777 150.9555 276.40948 150.90068 C 275.82079 150.87026 275.28133 150.87829 274.75231 151.17687 C 274.31251 151.3221 273.76909 151.21764 273.55546 151.63723 C 273.27956 152.5224 273.40831 153.36297 272.72688 154.03092 C 271.35354 154.91515 270.97751 155.93422 270.88558 155.87218 C 269.78155 156.20096 269.755 155.13675 268.86016 155.41182 C 268.63491 155.01573 268.99135 154.66265 267.66332 154.67536 C 266.96701 154.72313 267.04247 155.3029 266.37441 154.95155 C 265.60349 154.80217 264.74052 154.83031 264.0728 154.39917 C 263.87653 153.19338 264.59493 152.22248 264.0728 150.99278 C 264.01052 150.74367 263.77754 150.54322 263.52041 150.44041 C 262.98514 150.15463 262.53503 149.89449 262.13944 149.42762 C 262.12494 149.68075 261.7396 149.94829 261.21879 150.16422 C 260.62539 150.41021 259.82748 150.60098 259.19336 150.44041 C 258.80228 150.44049 258.32808 151.06999 257.99653 151.26902 C 257.65826 152.23733 257.88952 153.43875 256.89175 154.12293 C 256.30182 154.64199 255.40095 154.78326 254.77426 155.3198 C 254.04233 155.73511 253.53685 155.75991 252.8409 155.22774 C 252.6143 155.05771 252.21348 154.79137 252.10438 155.22774 C 252.04708 155.52288 252.03146 155.68038 251.92025 155.78016 C 251.67093 156.00376 251.22893 155.85715 250.63135 155.78016 C 250.49627 156.05037 250.48734 156.41452 250.07896 156.51662 C 249.72726 157.02029 250.13331 157.28096 249.89483 157.71344 C 249.48081 158.05779 249.28161 158.00592 249.61864 158.54206 C 249.81204 158.94831 249.89273 159.38401 249.80277 159.83094 C 249.64309 160.36115 249.50707 160.87767 249.06625 161.21194 C 248.67616 161.43331 248.36765 161.62185 249.25037 162.68499 C 249.20563 163.25691 248.90165 164.24935 249.34244 164.71043 C 249.53261 164.96396 249.62435 165.39319 249.80277 165.63106 C 250.31621 166.11859 250.72185 165.4476 251.18373 165.99931 C 251.23382 166.04945 251.5991 166.43933 251.64406 166.55169 L 251.36787 167.93269 C 250.61037 167.98202 249.88682 167.93719 249.25037 167.47232 C 248.72805 167.01562 248.69761 166.37809 247.86941 166.18344 C 247.35337 165.60555 246.57582 165.70711 245.93604 166.09133 C 245.33372 166.3007 245.24796 166.46311 245.01539 167.01205 C 244.70317 167.01196 244.71113 166.89889 244.37095 166.64371 C 244.48626 166.37484 244.45827 165.93504 244.18682 165.35487 C 243.83685 164.82881 243.47319 164.87212 243.35824 164.158 C 242.83551 163.60808 242.78331 163.97914 242.62172 163.32944 C 242.15524 163.75358 241.7303 163.767 241.14868 163.97383 C 240.75041 164.23865 240.4804 164.58513 240.41216 165.07864 C 240.35265 165.60198 240.29904 166.27693 239.76772 166.36752 C 239.10425 166.89095 238.2189 166.21551 237.55816 165.63106 C 236.83546 164.99179 235.7934 165.35893 235.25654 165.07864 C 233.47902 164.15069 233.37011 162.99076 232.49459 163.23737 C 232.11067 163.34549 231.85288 163.29259 231.57395 163.23737 C 230.59609 163.04388 230.14054 162.14314 230.00885 162.13257 C 230.00885 162.13257 229.44008 162.59998 229.73265 162.96118 C 230.04555 163.3475 229.06325 164.22139 228.812 163.42145 C 228.38763 162.07052 227.7993 162.68499 227.7993 162.68499 C 227.10349 163.24 226.47236 163.70679 225.49768 163.51356 C 226.6069 162.65805 225.27607 161.92908 224.48496 162.59293 C 223.37954 162.96096 222.99201 164.73777 221.63096 164.25007 C 220.22017 164.16563 221.65919 163.10673 221.07857 162.40876 C 220.10019 161.48897 218.69399 161.10609 217.39599 160.93575 C 216.30201 161.36836 215.24508 159.44614 214.63404 160.93575 C 214.07824 161.86606 214.07965 163.083 213.06894 163.7898 C 211.80027 163.71963 211.92153 165.53565 211.41178 166.36752 C 211.74518 167.10064 213.9373 166.89541 213.62133 168.39296 C 213.01085 169.33536 213.40733 171.2227 211.96416 171.33902 C 211.64593 172.80762 210.28163 172.43468 209.20222 172.9041 C 207.89999 173.34149 209.00843 171.34362 208.18951 171.06284 C 207.955 170.20527 207.35613 169.78118 206.80854 169.12955 C 206.68828 167.94348 205.16442 167.79745 205.24344 166.73586 C 204.4036 165.84266 203.24697 165.26874 202.02117 165.07864 C 202.17051 165.13854 203.19235 164.11675 202.11323 163.69764 C 201.50709 163.07608 199.9974 162.3204 200.54814 161.39611 C 201.09838 159.97047 200.33988 159.40818 199.25923 159.1865 C 200.80907 158.81655 198.20092 157.99628 197.97033 157.25317 C 197.73977 156.50989 196.22348 157.68682 197.14174 156.79281 C 196.22346 157.68673 195.22271 158.34598 194.656 158.45004 C 193.65701 158.05422 193.07605 157.8424 191.2496 158.26587 C 191.05622 158.18848 190.45422 157.57718 190.69721 157.25317 C 190.71351 156.56738 190.3215 156.24712 189.77657 155.87218 C 189.19633 155.6976 188.48533 155.67539 187.8432 155.68801 C 187.25982 155.69952 186.73628 155.79573 186.18604 155.78016 C 185.69337 155.63912 185.48956 155.49153 185.2654 155.13572 C 184.41315 155.14201 183.15138 155.48747 182.31932 155.22774 C 181.36998 154.60943 180.45325 153.8971 179.64944 153.11028 C 179.3549 152.41428 178.99224 151.99286 178.4526 151.45306 C 178.48926 150.37827 178.39604 149.80582 178.4526 148.69116 C 178.16121 148.49682 177.67151 148.39084 177.4399 148.04672 C 176.66446 147.22247 176.39353 145.6516 175.5986 146.02128 C 174.97762 145.93038 174.35603 145.82632 173.7573 145.65303 C 173.1256 145.3028 172.51161 144.95778 171.91601 144.54823 C 171.79047 143.63553 172.08025 143.74606 171.36362 141.87835 C 171.60099 140.82256 171.63301 140.609 172.37633 139.76089 C 169.8783 138.32089 170.9215 137.85576 169.43026 137.73546 C 168.95238 137.69679 167.13285 139.57396 166.76038 138.65609 C 166.47559 137.95429 166.75849 136.97081 166.11593 136.53859 C 165.39208 136.97344 164.69321 137.70513 163.90638 136.2624 z" stroke-linecap="round"/>
  </g>
</svg>