<?xml version="1.0" encoding="utf-8"?>
<svg viewBox="384.361 211.778 32.12 29.3446" xmlns="http://www.w3.org/2000/svg">
  <path d="M 393.271 211.778 C 393.001 212.238 393.281 212.578 392.741 213.008 C 392.701 213.528 391.941 213.798 392.231 214.438 C 392.251 214.648 392.171 214.778 392.061 214.898 C 392.051 214.898 392.061 214.908 392.061 214.908 C 391.871 215.098 391.621 215.238 391.721 215.608 C 391.721 215.878 391.741 216.128 391.741 216.378 C 391.741 216.638 391.721 216.898 391.651 217.178 C 391.781 217.498 391.711 218.158 391.611 218.628 C 391.591 218.658 391.581 218.658 391.561 218.678 C 391.391 218.958 391.491 218.668 390.371 219.458 C 390.171 219.768 389.821 219.898 389.721 220.088 C 389.621 220.258 389.981 220.498 389.791 220.848 C 389.761 221.088 389.421 221.228 389.221 221.408 C 389.141 222.038 388.731 221.688 388.671 222.458 C 388.511 222.578 388.241 222.558 388.251 222.798 C 388.171 222.808 388.141 222.848 388.111 222.978 C 387.871 223.098 388.001 223.228 388.041 223.768 C 388.231 224.118 388.081 224.368 387.831 224.598 C 387.751 224.668 387.631 224.818 387.601 224.918 C 387.631 224.978 387.531 225.148 387.421 225.068 C 387.271 224.948 386.951 225.268 386.801 225.658 C 386.641 225.698 386.451 225.788 386.341 225.918 C 386.261 226.008 386.241 226.118 386.281 226.228 C 386.461 226.468 386.131 226.328 386.041 226.568 C 386.081 226.658 386.811 227.518 386.961 228.288 C 387.041 228.748 387.181 229.058 387.271 229.118 C 387.291 229.128 387.291 229.168 387.291 229.208 C 387.301 229.248 387.291 229.298 387.281 229.338 C 387.201 229.358 387.191 229.618 387.171 229.828 C 387.161 229.918 386.971 229.938 386.881 229.948 C 386.711 229.968 386.651 230.108 386.521 230.218 C 386.541 230.348 386.151 230.348 386.161 230.568 C 386.081 230.708 386.121 230.948 385.891 230.928 C 385.771 231.028 385.761 231.218 385.681 231.348 C 385.721 231.418 385.771 231.478 385.641 231.548 C 385.531 231.688 385.361 231.868 385.271 231.938 C 385.191 231.948 385.121 231.958 385.081 232.038 C 385.001 232.168 384.851 232.248 384.721 232.308 C 384.671 232.648 384.351 232.388 384.651 233.088 C 384.541 233.308 384.431 233.318 384.361 233.438 C 384.411 233.428 384.471 233.428 384.511 233.408 C 384.561 233.388 384.611 233.348 384.641 233.308 C 384.691 233.258 384.771 233.338 384.851 233.188 C 384.831 233.058 385.091 233.168 385.231 233.168 C 385.211 233.248 385.311 233.268 385.401 233.248 C 385.441 233.238 385.461 233.338 385.471 233.338 C 385.591 233.388 385.591 233.308 385.631 233.228 C 385.721 233.268 385.791 233.378 385.831 233.268 C 385.911 233.258 386.001 233.308 385.991 233.398 C 386.001 233.428 386.041 233.438 386.141 233.438 C 386.211 233.438 386.151 233.508 386.161 233.528 C 386.201 233.568 386.211 233.598 386.241 233.648 C 386.281 233.728 386.331 233.648 386.321 233.628 C 386.271 233.568 386.311 233.548 386.351 233.508 C 386.411 233.448 386.371 233.368 386.401 233.298 C 386.401 233.228 386.401 233.218 386.431 233.228 C 386.441 233.228 386.441 233.228 386.471 233.258 C 386.501 233.278 386.591 233.308 386.591 233.338 C 386.611 233.458 386.751 233.418 386.731 233.538 C 386.701 233.628 386.691 233.678 386.741 233.758 C 386.971 233.778 386.981 233.768 387.001 233.828 C 387.011 233.838 387.041 233.878 387.061 233.878 C 387.091 233.878 387.181 233.858 387.191 233.918 C 387.201 234.038 387.081 234.008 387.111 234.038 C 387.141 234.058 387.211 234.128 387.231 234.118 C 387.251 234.098 387.331 234.038 387.351 234.048 C 387.511 234.058 387.601 234.058 387.701 234.058 C 387.771 234.058 387.791 234.008 387.841 233.998 C 387.871 233.988 387.891 233.948 387.941 233.998 C 388.021 234.028 388.121 234.138 388.161 234.078 C 388.241 234.038 388.341 233.988 388.421 234.018 C 388.451 234.038 388.471 234.138 388.441 234.158 C 388.431 234.178 388.351 234.218 388.351 234.228 C 388.361 234.428 388.281 234.378 388.321 234.428 C 388.371 234.488 388.411 234.558 388.421 234.628 C 388.381 234.748 388.481 234.768 388.441 234.848 C 388.421 234.938 388.421 234.998 388.331 235.028 C 388.301 235.058 388.341 235.148 388.371 235.178 C 388.421 235.228 388.431 235.188 388.491 235.238 C 388.511 235.248 388.621 235.318 388.651 235.288 C 388.731 235.248 388.791 235.248 388.881 235.268 C 389.021 235.238 389.001 235.318 389.021 235.328 C 389.101 235.348 389.191 235.328 389.261 235.348 C 389.331 235.428 389.351 235.518 389.421 235.578 C 389.521 235.618 389.621 235.638 389.731 235.618 C 389.791 235.578 389.841 235.558 389.901 235.538 C 389.991 235.548 390.031 235.438 390.101 235.378 C 390.191 235.388 390.191 235.518 390.361 235.578 C 390.401 235.628 390.401 235.638 390.441 235.678 C 390.471 235.738 390.421 235.748 390.431 235.948 C 390.421 235.998 390.421 236.008 390.421 236.078 C 390.421 236.138 390.351 236.068 390.341 236.118 C 390.321 236.168 390.281 236.138 390.241 236.178 C 390.161 236.208 390.141 236.258 390.101 236.298 C 390.061 236.278 390.041 236.228 390.001 236.218 C 390.001 236.218 389.871 236.228 389.811 236.218 C 389.751 236.208 389.711 236.168 389.641 236.168 C 389.611 236.168 389.501 236.148 389.501 236.178 C 389.471 236.268 389.551 236.288 389.511 236.368 C 389.481 236.468 389.571 236.368 389.591 236.448 C 389.611 236.508 389.701 236.458 389.731 236.518 C 389.731 236.528 389.801 236.628 389.801 236.668 C 389.781 236.718 389.781 236.728 389.821 236.768 C 389.861 236.808 389.871 236.838 389.941 236.868 C 389.991 236.888 390.051 236.958 390.061 236.948 C 390.071 236.888 390.061 236.888 390.091 236.838 C 390.111 236.818 390.141 236.808 390.171 236.778 C 390.201 236.748 390.261 236.768 390.271 236.708 C 390.291 236.638 390.341 236.678 390.381 236.638 C 390.421 236.598 390.461 236.568 390.511 236.558 C 390.551 236.558 390.571 236.528 390.611 236.528 C 390.641 236.528 390.751 236.528 390.771 236.528 C 390.821 236.538 390.811 236.608 390.861 236.638 C 390.891 236.648 390.941 236.758 390.951 236.788 C 390.981 236.838 391.051 236.798 391.091 236.828 C 391.121 236.848 391.111 236.918 391.141 236.948 C 391.171 236.978 391.281 237.038 391.291 236.988 C 391.301 236.958 391.291 236.898 391.311 236.878 C 391.361 236.828 391.361 236.818 391.401 236.758 C 391.421 236.728 391.371 236.668 391.471 236.628 C 391.501 236.608 391.501 236.488 391.521 236.468 C 391.551 236.458 391.581 236.368 391.591 236.338 C 391.601 236.308 391.661 236.288 391.651 236.258 C 391.631 236.158 391.691 236.168 391.701 236.168 C 391.731 236.198 391.691 236.078 391.741 236.078 C 391.751 236.078 391.951 236.068 391.941 236.108 C 391.931 236.128 391.901 236.198 391.941 236.218 C 392.031 236.268 392.011 236.168 392.031 236.128 C 392.051 236.088 392.091 236.198 392.131 236.188 C 392.281 236.178 392.261 236.288 392.311 236.278 C 392.441 236.258 392.361 236.378 392.431 236.378 C 392.501 236.378 392.631 236.388 392.611 236.428 C 392.601 236.448 392.671 236.478 392.731 236.488 C 392.771 236.498 392.821 236.538 392.821 236.588 C 392.821 236.638 392.851 236.698 392.901 236.668 C 392.921 236.648 393.011 236.648 393.011 236.628 C 393.021 236.568 393.001 236.518 393.041 236.488 C 393.111 236.438 393.131 236.448 393.061 236.398 C 393.041 236.388 393.021 236.308 393.061 236.298 C 393.091 236.288 393.161 236.298 393.161 236.258 C 393.161 236.208 393.121 236.188 393.101 236.138 C 393.071 236.038 393.141 236.048 393.141 235.958 C 393.131 235.918 393.151 235.838 393.141 235.808 C 393.121 235.748 393.191 235.788 393.211 235.748 C 393.231 235.708 393.211 235.638 393.241 235.608 C 393.271 235.598 393.351 235.598 393.341 235.568 C 393.321 235.508 393.331 235.428 393.391 235.448 C 393.461 235.468 393.421 235.368 393.451 235.308 C 393.501 235.218 393.531 235.148 393.481 235.038 C 393.481 235.008 393.471 234.968 393.441 234.938 C 393.411 234.908 393.331 234.888 393.321 234.838 C 393.321 234.828 393.321 234.788 393.341 234.758 C 393.351 234.748 393.361 234.748 393.381 234.748 C 393.391 234.758 393.461 234.748 393.471 234.748 C 393.471 234.808 393.431 234.808 393.471 234.858 C 393.531 234.918 393.521 234.858 393.571 234.828 C 393.601 234.818 393.611 234.718 393.661 234.738 C 393.711 234.768 393.781 234.738 393.781 234.738 C 393.911 234.818 393.781 234.818 393.771 234.918 C 393.811 234.978 393.871 235.028 393.901 235.098 C 393.871 235.118 393.811 235.158 393.891 235.178 C 393.891 235.178 393.961 235.188 394.001 235.178 C 394.071 235.158 394.061 235.168 394.091 235.228 C 394.141 235.308 394.141 235.298 394.171 235.358 C 394.191 235.398 394.271 235.348 394.301 235.378 C 394.341 235.418 394.281 235.528 394.321 235.518 C 394.471 235.478 394.511 235.518 394.461 235.608 C 394.431 235.658 394.511 235.688 394.561 235.718 C 394.591 235.738 394.631 235.768 394.631 235.818 C 394.631 235.858 394.621 235.918 394.651 235.938 C 394.721 235.988 394.731 235.928 394.801 235.928 C 394.881 235.958 394.951 236.038 394.901 236.118 C 394.871 236.158 394.781 236.138 394.811 236.178 C 394.831 236.218 394.861 236.228 394.861 236.298 C 394.891 236.368 394.881 236.498 394.941 236.548 C 394.991 236.548 395.121 236.448 395.121 236.498 C 395.121 236.508 395.121 236.588 395.091 236.618 C 395.011 236.698 395.071 236.668 395.111 236.738 C 395.371 236.958 395.181 236.698 395.331 236.648 C 395.411 236.648 395.421 236.628 395.431 236.668 C 395.571 236.978 395.461 236.598 395.641 236.758 C 395.721 236.798 395.811 236.768 395.891 236.828 C 395.991 236.968 396.001 236.938 396.111 236.828 C 396.211 236.808 396.291 236.708 396.411 236.748 C 396.471 236.718 396.571 236.708 396.541 236.658 C 396.511 236.628 396.441 236.588 396.501 236.578 C 396.551 236.568 396.641 236.578 396.691 236.578 C 396.751 236.598 396.721 236.638 396.771 236.678 C 396.841 236.658 396.911 236.598 396.991 236.658 C 397.031 236.668 397.051 236.708 397.101 236.708 C 397.171 236.718 397.251 236.758 397.301 236.818 C 397.311 236.848 397.361 236.908 397.361 236.938 C 397.351 236.998 397.461 237.028 397.501 237.038 C 397.531 237.048 397.501 237.138 397.511 237.198 C 397.531 237.258 397.611 237.268 397.661 237.318 C 397.681 237.348 397.731 237.348 397.761 237.368 C 397.701 237.458 397.811 237.468 397.851 237.528 C 397.921 237.558 397.911 237.648 397.931 237.678 C 397.951 237.718 397.991 237.758 398.051 237.758 C 398.111 237.758 398.111 237.788 398.181 237.788 C 398.211 237.788 398.321 237.798 398.341 237.818 C 398.391 238.018 398.621 238.018 398.751 238.158 C 398.871 238.238 398.971 238.318 399.091 238.378 C 399.141 238.408 399.181 238.378 399.291 238.428 C 399.421 238.448 399.581 238.378 399.681 238.478 C 399.701 238.508 399.731 238.618 399.791 238.608 C 399.861 238.588 399.881 238.668 399.931 238.678 C 400.001 238.698 400.021 238.668 400.061 238.698 C 400.141 238.768 400.231 238.798 400.311 238.868 C 400.311 238.918 400.321 238.988 400.441 238.938 C 400.531 238.928 400.621 238.928 400.721 238.928 C 400.781 238.948 400.851 239.018 400.921 239.018 C 400.971 239.018 401.081 238.998 401.111 239.048 C 401.181 239.088 401.201 239.128 401.261 239.178 C 401.431 239.178 401.491 239.158 401.501 239.118 C 401.511 239.078 401.551 239.028 401.651 239.048 C 401.701 239.048 401.731 239.098 401.751 239.128 C 401.831 239.198 401.921 239.248 401.971 239.348 C 402.001 239.378 402.031 239.398 402.081 239.438 C 402.131 239.498 402.051 239.468 402.111 239.648 C 402.091 239.718 402.191 239.698 402.171 239.778 C 402.161 239.968 402.301 240.008 402.371 240.168 C 402.371 240.178 402.351 240.338 402.361 240.338 C 402.401 240.368 402.421 240.378 402.461 240.418 C 402.511 240.488 402.541 240.568 402.621 240.608 C 402.721 240.608 402.831 240.598 402.931 240.598 C 402.951 240.638 403.081 240.638 403.171 240.638 C 403.251 240.688 403.221 240.798 403.281 240.868 C 403.301 240.888 403.271 240.958 403.301 240.968 C 403.361 240.998 403.301 241.078 403.301 241.088 C 403.381 241.118 403.451 241.148 403.521 241.088 C 403.561 241.048 403.531 241.018 403.551 240.948 C 403.561 240.888 403.601 240.868 403.621 240.818 C 403.711 240.688 403.651 240.588 403.741 240.438 C 403.781 240.358 403.721 240.238 403.791 240.168 C 403.851 240.138 403.931 240.118 403.951 240.048 C 403.951 239.968 403.941 239.878 404.011 239.808 C 404.091 239.738 404.111 239.688 404.131 239.588 C 404.221 239.558 404.211 239.448 404.291 239.478 C 404.321 239.518 404.421 239.608 404.431 239.648 C 404.451 239.698 404.511 239.708 404.551 239.738 C 404.631 239.808 404.711 239.848 404.811 239.788 C 404.871 239.718 404.881 239.618 404.981 239.608 C 405.071 239.578 405.151 239.488 405.191 239.408 C 405.191 239.378 405.201 239.258 405.201 239.228 C 405.221 239.138 405.221 239.108 405.271 239.028 C 405.321 238.958 405.381 238.878 405.481 238.878 C 405.521 238.878 405.561 238.828 405.601 238.848 C 405.611 238.848 405.741 238.898 405.741 238.868 C 405.741 238.808 405.781 238.768 405.811 238.728 C 405.961 238.568 405.741 238.488 405.911 238.438 C 405.961 238.388 406.021 238.338 406.071 238.288 C 406.071 238.208 406.131 238.248 406.191 238.238 C 406.221 238.228 406.211 238.148 406.231 238.168 C 406.241 238.178 406.261 238.198 406.271 238.208 C 406.321 238.258 406.371 238.298 406.441 238.298 C 406.481 238.298 406.541 238.288 406.581 238.298 C 406.671 238.338 406.721 238.418 406.811 238.458 C 406.831 238.468 406.931 238.518 406.901 238.578 C 406.891 238.608 406.901 238.718 406.901 238.758 C 406.871 238.848 406.901 238.848 406.921 238.928 C 406.911 238.968 406.921 239.118 406.911 239.158 C 406.901 239.248 406.881 239.218 406.901 239.308 C 406.881 239.318 406.881 239.408 406.921 239.428 C 406.981 239.458 406.981 239.448 406.941 239.518 C 406.921 239.568 406.921 239.628 406.931 239.678 C 406.951 239.738 406.961 239.838 407.031 239.838 C 407.131 239.848 407.221 239.878 407.291 239.958 C 407.371 239.998 407.471 240.068 407.521 240.138 C 407.691 240.128 407.821 240.188 407.821 240.298 C 407.821 240.368 408.021 240.268 408.011 240.328 C 407.991 240.448 408.191 240.438 408.241 240.438 C 408.281 240.438 408.251 240.508 408.421 240.588 C 408.501 240.628 408.621 240.408 408.701 240.378 C 408.831 240.328 408.781 240.358 408.821 240.288 C 408.871 240.178 408.921 240.068 409.081 240.068 C 409.261 240.068 409.281 240.088 409.301 240.008 C 409.321 239.938 409.361 239.828 409.321 239.748 C 409.271 239.658 409.311 239.788 409.361 239.448 C 409.381 239.328 409.311 239.328 409.311 239.168 C 409.311 239.048 409.251 239.008 409.361 238.958 C 409.601 238.848 409.511 238.878 409.611 239.008 C 409.681 239.098 409.571 239.168 409.901 239.138 C 409.961 239.128 409.991 239.018 410.041 238.958 C 410.141 238.868 410.211 238.888 410.331 238.928 C 410.531 239.028 410.451 239.208 410.671 239.308 C 410.871 239.348 410.801 239.178 410.911 239.108 C 411.041 239.028 411.081 238.938 411.201 239.028 C 411.331 239.128 411.131 239.308 411.411 239.298 C 411.481 239.298 411.511 239.248 411.681 239.138 C 411.751 239.088 411.841 239.008 411.861 238.928 C 411.881 238.848 411.901 238.828 411.951 238.728 C 412.001 238.628 411.891 238.588 411.951 238.488 C 411.971 238.428 411.741 238.198 411.681 238.138 C 411.571 238.038 411.561 237.888 411.571 237.848 C 411.601 237.748 411.671 237.718 411.661 237.658 C 411.631 237.548 411.811 237.478 411.821 237.428 C 411.841 237.318 411.851 236.948 411.791 236.958 C 411.611 236.998 411.611 236.738 411.741 236.638 C 411.831 236.568 411.811 236.578 411.871 236.518 C 411.971 236.418 412.021 236.348 412.171 236.308 C 412.391 236.248 412.451 236.398 412.501 236.228 C 412.531 236.118 412.551 236.098 412.531 235.998 C 412.511 235.938 412.531 235.888 412.791 235.718 C 412.941 235.608 412.691 235.508 413.081 235.558 C 413.131 235.568 413.091 235.278 413.221 235.288 C 413.251 235.288 413.281 235.118 413.271 235.068 C 413.231 234.928 413.151 234.818 413.151 234.758 C 413.151 234.638 413.161 234.568 413.171 234.508 C 413.201 234.418 413.241 234.388 413.291 234.388 C 413.321 234.398 413.341 234.408 413.371 234.448 C 413.471 234.628 413.821 234.558 413.851 234.658 C 413.881 234.768 414.081 234.758 414.081 234.858 C 414.081 234.958 414.201 235.068 414.211 235.068 C 414.321 235.288 414.391 235.008 414.461 235.048 C 414.561 235.128 414.791 235.078 414.881 234.978 C 415.001 234.858 415.021 234.758 415.141 234.728 C 415.191 234.718 415.181 234.398 415.171 234.388 C 415.271 234.278 415.141 233.818 415.161 233.798 C 415.231 233.808 415.301 233.598 415.271 233.528 C 415.321 233.228 415.341 233.248 415.581 233.238 C 415.561 233.168 415.881 233.048 415.801 232.938 C 415.761 232.748 415.771 232.638 415.681 232.418 C 415.651 232.258 415.751 232.158 415.741 232.128 C 415.711 231.988 415.521 232.088 415.411 232.008 C 415.321 231.938 415.231 231.898 415.261 231.808 C 415.291 231.668 415.351 231.558 415.481 231.558 C 415.601 231.558 415.701 231.408 415.731 231.378 C 415.721 231.158 416.141 231.058 415.751 231.108 C 415.531 231.018 415.471 231.108 415.381 230.998 C 415.301 230.878 415.211 230.928 415.141 230.788 C 415.111 230.738 415.121 230.578 415.141 230.468 C 415.181 230.338 415.241 230.358 415.241 230.228 C 415.241 230.118 415.481 230.108 415.611 230.108 C 415.641 230.108 415.761 229.888 415.781 229.868 C 415.851 229.788 416.021 229.808 416.171 229.808 C 416.221 229.808 416.361 229.648 416.391 229.608 L 416.481 229.478 C 416.461 229.068 416.291 229.308 416.111 229.098 C 416.101 229.118 415.861 229.028 415.771 228.998 C 415.621 228.938 415.671 228.668 415.841 228.628 C 415.991 228.518 415.921 228.368 415.911 228.268 C 415.881 228.098 415.921 227.908 415.721 227.948 C 415.861 227.748 415.581 227.698 415.701 227.538 C 415.831 227.628 415.151 227.198 415.441 227.038 C 415.401 226.988 415.331 226.938 415.341 226.868 C 415.341 226.678 415.251 226.628 415.161 226.528 C 415.181 226.528 415.201 226.508 415.221 226.508 C 415.351 226.448 415.481 226.308 415.501 226.188 C 415.511 226.098 415.631 226.148 415.591 225.978 C 415.491 225.928 415.511 225.908 415.401 225.618 C 415.461 225.378 415.261 225.288 415.221 225.188 C 415.201 225.158 415.241 225.038 415.241 224.908 C 415.241 224.828 415.221 224.748 415.161 224.688 C 415.651 224.538 415.271 224.538 415.551 224.598 C 415.971 224.608 415.711 224.428 415.461 224.298 C 415.481 223.928 414.921 224.148 415.101 223.938 C 414.741 223.818 414.841 223.738 414.691 223.608 C 414.711 223.568 414.661 223.448 414.731 223.408 C 414.791 223.358 414.861 223.318 414.861 223.258 C 414.691 223.168 414.631 223.088 414.811 222.868 C 414.701 222.768 414.681 222.548 414.781 222.378 C 415.001 222.318 414.871 222.138 414.991 222.078 C 415.031 221.838 414.861 221.818 414.911 221.718 C 414.801 221.638 414.881 221.308 414.781 221.368 C 414.261 221.448 414.621 221.228 414.181 221.338 C 414.061 221.488 413.991 221.318 413.891 221.268 C 413.661 221.158 413.651 221.248 413.421 221.158 C 413.191 221.068 413.181 220.988 413.001 220.848 C 413.001 220.758 413.001 220.708 413.011 220.648 C 413.031 220.438 413.081 220.448 413.101 220.258 C 413.161 220.138 413.081 219.808 413.351 219.698 C 413.331 219.628 413.481 219.568 413.671 219.578 C 413.891 219.468 414.131 219.608 414.151 219.508 C 414.351 219.658 414.511 219.218 414.711 219.388 C 414.891 219.098 414.881 219.268 414.961 219.198 C 415.111 219.298 415.261 219.248 415.321 219.158 C 415.531 219.128 415.651 218.948 415.641 218.708 C 415.801 218.568 415.671 218.188 415.691 218.068 C 415.911 217.988 415.761 217.898 415.631 217.798 C 415.701 217.698 415.591 217.358 415.571 217.128 C 415.891 216.848 415.781 216.758 415.811 216.668 C 415.711 216.618 415.701 216.488 415.781 216.408 L 415.851 216.388 C 415.801 216.428 415.501 216.248 415.431 216.258 C 415.381 216.238 415.381 216.328 415.321 216.348 C 415.231 216.358 415.221 216.258 415.111 216.188 C 414.981 216.108 414.951 216.028 414.861 216.138 C 414.681 216.148 414.501 216.178 414.511 216.228 C 414.391 216.228 414.411 216.128 414.391 216.108 C 414.361 216.088 414.391 216.248 414.191 216.248 C 414.091 216.248 414.041 216.168 413.981 216.108 C 413.901 216.008 413.931 215.908 413.871 215.908 C 413.751 215.908 413.481 215.898 413.481 215.818 C 413.411 215.748 413.491 215.598 413.501 215.588 C 413.441 215.558 413.311 215.598 413.311 215.558 C 413.221 215.528 413.291 215.288 413.241 215.288 C 413.211 215.298 413.191 215.408 413.111 215.398 C 412.781 215.358 412.951 215.458 412.891 215.618 C 412.871 215.738 412.881 215.658 412.621 215.698 C 412.341 215.708 412.261 215.698 412.301 215.968 C 412.291 216.048 412.271 216.118 412.241 216.148 C 412.171 216.218 412.211 216.088 412.001 215.978 C 411.631 215.768 411.681 215.888 411.631 215.708 C 411.571 215.498 411.431 215.208 411.361 215.208 C 411.271 215.208 411.211 215.248 411.151 215.118 C 411.141 215.088 411.061 215.108 411.051 215.028 C 411.021 214.908 410.961 214.748 410.901 214.748 C 410.831 214.758 410.691 214.698 410.571 214.568 C 410.561 214.558 410.561 214.538 410.561 214.518 C 410.551 214.478 410.561 214.448 410.521 214.428 C 410.441 214.408 410.401 214.328 410.351 214.288 C 410.261 214.208 410.211 214.158 410.151 214.138 C 410.071 214.128 409.991 214.168 410.001 214.188 C 409.961 214.158 409.771 214.038 409.681 214.048 C 409.671 214.068 409.721 214.318 409.651 214.308 C 409.471 214.288 409.541 214.358 409.351 214.248 C 409.241 214.208 409.131 214.168 409.051 214.078 C 409.041 214.048 408.891 214.118 408.831 214.098 C 408.781 214.078 408.711 213.988 408.621 214.088 C 408.511 214.208 408.381 214.118 408.211 214.198 C 407.901 214.348 407.781 214.538 407.651 214.218 C 407.561 214.008 407.381 213.738 407.291 213.818 C 407.261 213.838 407.291 213.648 407.011 213.688 C 406.971 213.658 406.941 213.488 406.841 213.358 C 406.821 213.428 406.591 213.168 406.581 213.178 C 406.541 213.258 406.491 213.338 406.431 213.408 C 406.331 213.468 406.361 213.558 406.231 213.578 C 406.151 213.618 406.061 213.668 405.951 213.678 C 405.821 213.598 405.521 213.138 405.451 213.118 C 405.431 213.118 405.411 213.118 405.391 213.118 C 405.331 213.128 405.271 213.178 405.271 213.268 C 405.221 213.308 405.141 213.318 405.071 213.308 C 405.011 213.308 404.951 213.308 404.901 213.338 C 404.851 213.358 404.791 213.348 404.771 213.388 C 404.741 213.478 404.761 213.568 404.681 213.638 C 404.541 213.738 404.501 213.838 404.491 213.838 C 404.381 213.868 404.371 213.758 404.281 213.788 C 404.261 213.748 404.291 213.708 404.151 213.708 C 404.081 213.718 404.091 213.778 404.021 213.738 C 403.941 213.718 403.851 213.728 403.781 213.678 C 403.761 213.548 403.831 213.448 403.781 213.318 C 403.771 213.298 403.751 213.278 403.721 213.268 C 403.661 213.238 403.621 213.208 403.571 213.158 C 403.571 213.188 403.531 213.208 403.481 213.238 C 403.421 213.258 403.331 213.278 403.261 213.268 C 403.221 213.268 403.171 213.328 403.141 213.348 C 403.101 213.448 403.131 213.578 403.021 213.648 C 402.961 213.708 402.871 213.718 402.801 213.778 C 402.721 213.818 402.671 213.818 402.601 213.768 C 402.571 213.748 402.531 213.718 402.521 213.768 C 402.521 213.798 402.511 213.818 402.501 213.828 C 402.481 213.848 402.431 213.828 402.371 213.828 C 402.351 213.848 402.351 213.888 402.311 213.898 C 402.271 213.958 402.311 213.978 402.291 214.028 C 402.251 214.058 402.231 214.058 402.261 214.118 C 402.281 214.158 402.291 214.198 402.281 214.248 C 402.261 214.308 402.251 214.358 402.201 214.398 C 402.161 214.418 402.131 214.438 402.221 214.548 C 402.221 214.608 402.191 214.708 402.231 214.758 C 402.251 214.788 402.261 214.828 402.281 214.858 C 402.331 214.908 402.381 214.838 402.431 214.898 C 402.431 214.898 402.471 214.938 402.471 214.958 L 402.441 215.098 C 402.361 215.108 402.291 215.098 402.221 215.048 C 402.171 214.998 402.161 214.938 402.081 214.918 C 402.021 214.858 401.941 214.868 401.871 214.908 C 401.811 214.928 401.801 214.948 401.781 214.998 C 401.751 214.998 401.751 214.988 401.711 214.958 C 401.721 214.938 401.721 214.888 401.691 214.828 C 401.651 214.768 401.621 214.778 401.601 214.698 C 401.551 214.648 401.541 214.678 401.531 214.618 C 401.481 214.658 401.431 214.658 401.371 214.678 C 401.331 214.708 401.301 214.748 401.301 214.798 C 401.291 214.858 401.281 214.928 401.231 214.938 C 401.161 214.988 401.071 214.918 401.001 214.858 C 400.921 214.788 400.811 214.828 400.751 214.798 C 400.571 214.698 400.561 214.578 400.461 214.608 C 400.421 214.618 400.401 214.608 400.371 214.608 C 400.271 214.588 400.221 214.488 400.201 214.488 C 400.201 214.488 400.141 214.538 400.171 214.578 C 400.211 214.618 400.101 214.708 400.081 214.628 C 400.031 214.478 399.971 214.548 399.971 214.548 C 399.901 214.608 399.831 214.658 399.731 214.638 C 399.851 214.548 399.711 214.468 399.621 214.538 C 399.511 214.578 399.471 214.758 399.331 214.708 C 399.181 214.698 399.331 214.588 399.271 214.518 C 399.161 214.418 399.021 214.378 398.881 214.368 C 398.771 214.408 398.661 214.208 398.591 214.368 C 398.531 214.458 398.531 214.588 398.431 214.668 C 398.291 214.658 398.311 214.848 398.251 214.938 C 398.291 215.008 398.521 214.988 398.481 215.148 C 398.421 215.248 398.461 215.438 398.311 215.458 C 398.281 215.608 398.131 215.568 398.021 215.618 C 397.881 215.668 398.001 215.458 397.921 215.428 C 397.891 215.338 397.831 215.288 397.771 215.228 C 397.761 215.098 397.601 215.088 397.611 214.968 C 397.521 214.878 397.401 214.818 397.271 214.798 C 397.281 214.808 397.391 214.698 397.281 214.658 C 397.211 214.588 397.061 214.508 397.111 214.408 C 397.171 214.258 397.091 214.208 396.981 214.178 C 397.141 214.138 396.871 214.058 396.841 213.978 C 396.821 213.898 396.661 214.028 396.761 213.928 C 396.661 214.028 396.561 214.088 396.501 214.108 C 396.391 214.058 396.331 214.038 396.141 214.088 C 396.121 214.078 396.061 214.008 396.081 213.978 C 396.081 213.908 396.041 213.868 395.981 213.828 C 395.921 213.818 395.851 213.808 395.781 213.818 C 395.721 213.818 395.671 213.828 395.611 213.828 C 395.561 213.808 395.531 213.798 395.511 213.758 C 395.421 213.758 395.291 213.788 395.201 213.768 C 395.101 213.698 395.011 213.628 394.921 213.548 C 394.891 213.468 394.851 213.428 394.801 213.368 C 394.801 213.258 394.791 213.198 394.801 213.078 C 394.771 213.058 394.711 213.048 394.691 213.008 C 394.611 212.928 394.581 212.758 394.501 212.798 C 394.431 212.788 394.371 212.778 394.301 212.758 C 394.241 212.728 394.171 212.688 394.111 212.648 C 394.101 212.548 394.131 212.558 394.051 212.368 C 394.081 212.258 394.081 212.228 394.161 212.148 C 393.901 211.988 394.011 211.948 393.851 211.928 C 393.801 211.928 393.611 212.128 393.571 212.028 C 393.541 211.958 393.571 211.848 393.501 211.808 C 393.431 211.848 393.351 211.928 393.271 211.778 Z" fill="#fdf9d2" fill-rule="evenodd" id="Maule" stroke="#d7976a" stroke-miterlimit="4" stroke-width="0.31" transform="matrix(1, 0, 0, 1, 7.105427357601002e-15, 7.105427357601002e-15)"/>
</svg>