<?xml version="1.0" encoding="utf-8"?>
<svg viewBox="382.7896 177.7333 25.6354 21.6234" xmlns="http://www.w3.org/2000/svg">
  <path d="M 395.255 177.74 C 394.935 177.83 394.965 178.02 394.895 177.84 C 394.755 177.81 394.625 177.72 394.445 177.79 C 394.375 177.8 394.365 177.84 394.275 177.84 C 394.165 177.83 394.065 177.78 393.955 177.8 C 393.925 177.82 393.855 177.86 393.835 177.86 C 393.425 177.85 393.615 177.93 393.515 177.93 C 393.485 178.01 393.395 177.98 393.315 177.98 C 393.205 177.95 393.145 177.9 393.055 178.1 C 393.025 178.2 392.955 178.23 392.925 178.33 C 392.885 178.42 392.885 178.58 392.745 178.54 C 392.645 178.52 392.565 178.43 392.485 178.49 C 392.395 178.54 392.315 178.61 392.215 178.62 C 392.105 178.62 391.995 178.62 391.895 178.61 C 391.795 178.61 391.685 178.59 391.605 178.63 C 391.595 178.72 391.545 178.79 391.505 178.87 C 391.565 178.93 391.575 179.01 391.515 179.07 C 391.615 179.13 391.635 179.28 391.735 179.49 C 391.745 179.73 391.895 179.68 391.845 179.79 C 391.815 179.91 391.765 179.93 391.715 180.14 C 391.565 180.23 391.555 180.26 391.555 180.38 C 391.625 180.44 391.735 180.46 391.715 180.57 C 391.615 180.88 391.705 180.85 391.725 181.15 C 391.835 181.26 391.735 181.32 391.775 181.43 C 391.855 181.47 391.875 181.53 391.915 181.59 C 391.965 181.68 391.995 181.76 392.045 181.85 C 392.165 181.95 391.985 181.92 392.005 182.05 C 392.015 182.12 392.015 182.16 391.905 182.22 C 391.705 182.18 391.715 182.32 391.595 182.29 C 391.645 182.57 391.545 182.49 391.415 182.34 C 391.355 182.4 391.285 182.35 391.215 182.32 C 391.165 182.37 391.195 182.5 391.185 182.6 C 391.025 182.79 390.905 182.74 390.815 182.59 C 390.655 182.59 390.415 182.5 390.425 182.66 C 390.355 182.79 390.235 182.82 390.025 182.74 L 389.865 182.67 C 389.685 182.81 389.655 182.73 389.605 182.69 L 389.435 182.67 C 389.365 182.74 389.275 182.79 389.145 182.76 C 389.145 182.85 389.075 182.9 388.965 182.92 C 388.875 182.98 388.945 183.07 388.985 183.15 C 389.005 183.23 388.985 183.47 389.025 183.48 C 389.035 183.49 389.035 183.59 389.145 183.72 C 389.105 183.94 389.285 184.09 389.335 184.1 C 389.365 184.11 389.295 184.13 389.275 184.31 C 389.195 184.33 389.135 184.38 389.205 184.56 L 389.145 184.72 C 388.965 184.85 389.185 184.94 389.005 185.12 C 388.935 185.03 388.755 185.21 388.715 185.27 C 388.645 185.26 388.585 185.19 388.495 185.28 L 388.275 185.59 C 388.265 185.58 388.265 185.59 388.245 185.61 C 388.165 185.7 387.985 185.7 387.745 185.65 C 387.615 185.55 387.565 185.6 387.535 185.71 C 387.325 185.8 387.525 186.01 387.525 186.16 C 387.525 186.37 387.425 186.61 387.505 186.69 C 387.305 186.88 387.275 187.07 387.425 187.26 C 387.455 187.38 387.235 187.61 387.545 187.61 C 387.605 187.7 387.655 187.85 387.685 188.15 C 387.635 188.25 387.645 188.35 387.705 188.45 L 387.625 188.55 C 387.595 188.73 387.555 188.89 387.465 188.86 L 387.285 189.02 C 387.095 189.01 386.835 188.94 386.965 189.26 C 386.705 189.35 386.815 189.55 386.765 189.7 L 386.575 189.53 L 386.375 189.68 L 386.385 189.75 C 386.105 190.13 386.365 190.09 386.505 190.14 C 386.495 190.25 386.355 190.29 386.595 190.52 L 386.825 190.68 C 386.895 191 387.005 190.83 387.245 191.06 L 387.235 191.3 C 387.245 191.4 387.195 191.5 387.095 191.61 C 386.905 191.64 386.675 191.56 386.545 191.75 C 386.395 191.63 386.155 191.64 386.155 191.64 L 385.845 191.64 L 385.585 191.45 L 385.315 191.45 L 385.215 191.53 C 385.035 191.32 384.875 191.22 384.735 191.49 L 384.705 193.07 L 384.525 193.08 C 384.485 193.13 384.465 193.03 384.385 192.96 C 384.075 193.19 383.765 193.42 383.455 193.65 C 383.335 193.75 383.195 193.84 383.085 193.94 C 382.955 193.98 382.695 194.09 382.825 194.25 C 383.015 194.32 382.735 194.5 382.915 194.52 C 383.045 194.66 383.305 194.52 383.415 194.66 C 383.355 194.73 383.335 194.86 383.385 194.94 C 383.465 194.94 383.695 194.89 383.785 195.01 C 383.855 195.13 384.085 194.99 384.195 195.17 C 384.335 195.22 384.425 195.66 384.555 195.47 C 384.755 195.45 384.675 195.27 384.555 195.2 C 384.675 195.09 384.705 194.93 384.725 194.76 C 384.915 194.84 385.005 195.1 385.165 195.17 C 385.375 195.06 385.615 195.06 385.845 195.11 C 385.955 195.17 386.225 195.31 386.295 195.19 C 386.405 195.34 386.555 195.5 386.765 195.49 C 386.685 195.56 386.735 195.78 386.835 195.87 C 386.895 195.93 387.135 196.18 387.135 196.02 C 387.245 195.84 387.455 195.92 387.605 195.96 C 387.805 196.01 387.625 195.82 387.705 195.75 C 387.855 195.8 387.905 195.66 388.035 195.65 C 388.155 195.63 388.235 195.59 388.245 195.41 C 388.435 195.81 388.645 195.48 388.705 195.92 C 388.675 196.33 388.835 196.33 389.005 196.37 C 389.295 196.54 389.095 196.95 389.505 197.03 C 389.645 197.42 390.305 197.47 390.645 197.48 C 390.965 197.38 391.225 198.03 391.425 197.68 C 391.655 197.61 391.775 197.44 391.785 197.44 C 391.865 197.46 391.925 197.59 392.215 197.55 C 392.375 197.57 392.545 197.63 392.575 197.63 C 392.645 197.64 392.915 197.32 392.985 197.35 C 393.155 197.17 393.435 197.16 393.325 197.1 C 393.285 197.08 393.155 196.9 393.125 196.85 C 392.895 196.55 393.015 195.96 393.485 196.07 C 393.865 196.11 393.435 195.48 393.785 195.47 C 394.025 195.31 394.275 195.24 394.535 195.37 C 394.855 195.26 394.685 194.98 394.725 194.96 C 394.835 194.89 394.905 194.78 394.785 194.67 C 394.755 194.5 394.895 194.4 394.615 194.36 C 394.575 194.33 394.515 194.26 394.485 194.23 C 394.445 194.21 394.465 194.17 394.445 194.11 C 394.565 194.06 394.715 194.04 394.705 193.87 C 394.775 193.62 394.975 193.87 395.115 193.89 C 395.255 194.01 395.305 193.95 395.505 193.72 C 395.505 193.54 395.705 193.68 395.755 193.58 C 395.835 193.57 395.815 193.54 395.895 193.48 C 395.975 193.27 396.165 193.35 396.235 193.47 C 396.245 193.61 396.385 193.69 396.475 193.8 C 396.595 194.01 396.755 193.8 396.875 193.71 C 396.865 193.61 396.885 193.51 397.035 193.51 C 397.165 193.49 397.065 193.37 397.135 193.31 C 397.165 193.3 397.225 193.33 397.255 193.3 C 397.335 193.17 397.345 193.15 397.565 193.14 C 397.665 193.26 397.765 193.15 397.875 193.08 C 397.915 192.95 397.955 192.99 398.055 192.96 C 398.195 192.87 398.285 193.16 398.385 193.02 C 398.525 193.12 398.625 192.92 398.695 192.81 C 398.625 192.61 398.875 192.62 399.015 192.62 C 399.095 192.62 399.135 192.64 399.155 192.66 C 399.155 192.65 399.155 192.65 399.155 192.64 L 399.205 192.6 C 399.315 192.53 399.285 192.69 399.425 192.59 C 399.535 192.35 399.555 192.53 399.565 192.46 C 399.585 192.5 399.635 192.53 399.735 192.52 C 399.745 192.57 399.765 192.61 399.855 192.66 C 399.865 192.76 399.945 192.86 400.135 192.96 C 400.205 192.83 400.205 192.9 400.375 192.95 C 400.365 193.1 400.395 193.09 400.415 193.12 C 400.395 193.17 400.375 193.22 400.455 193.32 C 400.415 193.36 400.345 193.37 400.385 193.49 C 400.245 193.47 400.325 193.54 400.345 193.69 C 400.425 193.74 400.485 193.81 400.485 193.91 L 400.605 194.04 C 400.845 194.03 400.705 194.22 400.705 194.34 L 400.825 194.45 L 400.995 194.46 L 401.015 194.69 C 401.115 194.77 401.095 194.84 401.015 194.89 C 401.095 194.97 401.145 195.05 400.955 195.12 L 400.865 195.21 C 400.965 195.39 400.685 195.39 400.865 195.46 C 400.825 195.56 400.855 195.66 401.055 195.71 C 401.125 195.63 401.185 195.59 401.235 195.72 L 401.305 195.78 L 401.335 195.71 C 401.385 195.77 401.435 195.69 401.555 195.65 C 401.635 195.74 401.715 195.77 401.825 195.84 C 401.915 195.87 401.945 195.72 402.065 195.67 C 402.035 195.49 402.185 195.45 402.155 195.27 L 402.565 195.23 L 402.695 195.25 L 402.925 195.26 L 403.075 195.44 L 403.045 195.63 L 403.075 195.91 L 403.225 196.17 C 403.105 196.25 403.105 196.36 403.225 196.42 C 403.235 196.5 403.255 196.57 403.335 196.56 C 403.645 196.54 403.255 196.76 403.165 196.89 C 403.185 197 403.275 197.14 403.125 197.19 C 403.125 197.22 403.105 197.26 403.195 197.27 C 403.335 197.22 403.415 197.44 403.415 197.57 L 403.595 197.74 C 403.845 197.63 403.835 197.78 403.845 197.9 C 403.945 197.96 404.095 197.93 404.225 197.92 L 404.295 197.83 L 404.445 197.92 L 404.455 198.03 C 404.635 198.04 404.395 198.08 404.675 198.31 C 404.635 198.4 404.655 198.49 404.675 198.58 C 404.625 198.64 404.665 198.82 404.745 199.05 C 404.835 199.14 404.915 199.23 405.005 199.32 L 405.005 199.19 L 405.335 198.83 L 405.545 198.77 C 405.785 198.51 405.945 198.72 405.875 198.74 C 405.965 198.8 406.075 198.9 406.195 199.03 C 406.215 199.07 406.325 199.13 406.375 199.23 C 406.435 199.36 406.505 199.39 406.595 199.32 L 406.685 199.22 C 406.715 198.88 406.735 199.08 406.985 199.02 C 407.115 198.95 407.245 198.89 407.345 198.87 C 407.445 198.85 407.495 198.91 407.655 198.88 C 407.695 198.82 407.755 198.7 407.875 198.72 C 407.985 198.5 408.035 198.67 408.065 198.3 C 408.155 197.91 408.015 197.94 407.995 197.76 C 407.855 197.56 407.145 196.99 407.255 196.89 C 407.195 196.8 407.255 196.85 407.435 196.4 C 407.505 196.42 407.565 196.39 407.625 196.36 C 407.675 196.12 407.885 196.05 407.715 195.9 C 407.295 195.83 407.595 195.56 407.665 195.35 C 407.975 195.11 407.935 194.98 407.695 194.92 C 407.745 194.83 407.705 194.54 407.395 194.44 C 407.365 194.32 407.295 194.27 407.075 194.45 C 406.975 194.43 406.865 194.44 406.835 194.24 L 407.005 193.82 L 406.995 193.61 L 407.145 193.49 L 407.435 193.12 L 407.415 192.99 L 407.255 192.86 L 407.165 192.64 L 406.905 192.46 L 406.895 192.25 L 406.945 192.2 L 406.995 191.67 C 406.805 191.39 406.755 191.14 407.095 190.95 L 407.085 190.84 C 407.545 190.24 407.065 190.12 407.085 189.77 C 407.235 189.31 407.185 189.26 407.145 188.86 C 407.075 188.63 407.195 188.52 407.225 188.34 L 407.215 187.9 C 407.085 187.55 407.215 187.61 407.245 187.49 C 407.285 187.39 407.255 187.24 407.455 187.21 C 407.625 187.08 407.625 187.02 407.655 186.94 C 407.715 186.75 407.605 186.37 407.845 186.37 L 407.845 186.2 C 407.865 185.95 407.805 185.62 408.065 185.61 L 408.015 185.26 L 407.905 185.14 C 408.015 185.11 408.035 185.25 408.305 184.99 L 408.425 184.64 L 408.405 184.3 L 408.145 183.95 C 408.035 183.79 408.205 183.49 407.805 183.48 C 407.615 183.46 407.595 183.07 407.235 183.41 L 406.765 183.4 L 406.575 183.29 L 406.435 183 C 406.305 183.5 406.095 183.26 406.095 183.5 C 405.995 183.48 405.885 183.42 405.895 183.62 L 405.805 183.7 L 405.665 183.89 L 405.485 183.98 L 405.275 184 L 405.165 183.79 L 405.225 183.71 L 405.205 183.5 L 404.985 183.43 L 404.885 183.34 L 404.865 183.1 L 404.925 182.97 L 404.935 182.74 L 404.525 182.52 L 404.445 182.31 L 404.505 181.79 C 404.195 181.36 404.685 181.54 404.535 181.18 C 404.175 181.07 404.245 180.9 404.375 180.72 C 404.305 180.49 404.375 180.17 404.085 180.05 C 404.125 180 404.055 179.95 404.005 179.9 L 404.135 179.61 L 403.915 179.61 C 403.685 179.69 403.615 179.85 403.475 179.97 C 403.405 179.97 403.325 179.98 403.315 180.24 C 403.085 180.38 403.135 180.48 402.845 180.49 L 402.585 180.65 L 402.515 180.83 C 402.385 180.85 402.275 180.96 402.165 181.09 C 402.135 181.11 402.145 181.17 402.265 181.28 C 402.205 181.4 402.115 181.47 402.045 181.54 L 402.035 181.8 C 401.595 181.84 401.925 181.59 401.725 181.44 L 401.685 181.3 L 401.685 180.94 L 401.485 180.94 L 401.285 180.72 L 401.275 180.66 L 401.155 180.59 L 401.005 180.6 C 400.965 180.5 400.935 180.48 400.895 180.47 L 400.735 180.4 C 400.675 180.55 400.505 180.58 400.315 180.57 L 400.185 180.37 C 399.995 180.31 400.045 180.07 399.875 179.98 C 399.735 179.83 400.035 179.71 399.915 179.55 C 399.975 179.31 399.745 179.26 399.565 179.23 C 399.425 179.15 399.285 179.26 399.275 179.4 C 399.135 179.5 399.095 179.67 399.005 179.82 C 398.985 179.92 399.115 180.01 398.855 180 C 398.785 180 398.955 180.19 398.725 180.25 C 398.645 180.26 398.525 180.35 398.485 180.28 C 398.445 180.2 398.385 180.06 398.295 179.99 C 398.315 179.81 398.205 179.63 398.025 179.56 C 397.785 179.47 397.945 179.25 397.985 179.09 C 397.855 178.95 397.735 178.78 397.605 178.64 C 397.555 178.47 397.435 178.49 397.375 178.47 C 397.305 178.45 397.375 178.29 397.345 178.21 C 397.295 178.14 397.245 178.03 397.105 178 C 397.055 178.05 397.015 178.15 396.955 178.04 C 396.785 178.01 396.635 178.07 396.515 178.18 C 396.155 178.2 396.275 178.36 396.005 178.24 C 395.885 178.25 395.715 178.45 395.665 178.21 L 395.585 178.18 C 395.575 178.17 395.595 177.97 395.585 177.91 C 395.545 177.85 395.455 177.7 395.255 177.74 Z" fill="#fdf9d2" fill-rule="evenodd" id="Metropolitana" stroke="#d7976a" stroke-miterlimit="4" stroke-width="0.31" transform="matrix(1, 0, 0, 1, 7.105427357601002e-15, 7.105427357601002e-15)"/>
</svg>