<?xml version="1.0" encoding="UTF-8" standalone="no" ?>
<!DOCTYPE svg PUBLIC "-//W3C//DTD SVG 1.1//EN" "http://www.w3.org/Graphics/SVG/1.1/DTD/svg11.dtd">
<svg xmlns="http://www.w3.org/2000/svg" xmlns:xlink="http://www.w3.org/1999/xlink" version="1.1" width="640" height="480" viewBox="0 0 640 480" xml:space="preserve">
<desc>Created with Fabric.js 3.6.6</desc>
<defs>
</defs>
<g transform="matrix(1 0 0 1 293.77 265.11)" id="path2202"  >
<path style="stroke: rgb(215,151,106); stroke-width: 2; stroke-dasharray: none; stroke-linecap: butt; stroke-dashoffset: 0; stroke-linejoin: miter; stroke-miterlimit: 4; fill: rgb(253,249,210); fill-rule: evenodd; opacity: 1;"  transform=" translate(-236.77, -256.74)" d="M 232.55018 127.7054 C 228.73066 128.8041 229.15254 131.01513 228.2837 128.85849 C 226.5838 128.56375 225.01074 127.41869 222.86412 128.28188 C 222.06208 128.48249 221.89835 128.85849 220.90385 128.85849 C 219.60186 128.82716 218.32703 128.24813 217.09861 128.39728 C 216.70187 128.63546 215.87474 129.20443 215.59958 129.20443 C 210.70161 128.97452 212.98187 129.97579 211.79434 130.01158 C 211.44339 130.88891 210.39169 130.58819 209.37282 130.58819 C 208.04073 130.20493 207.38657 129.65137 206.25946 131.97182 C 205.91643 133.19025 205.08838 133.52116 204.76042 134.73933 C 204.22943 135.89191 204.28335 137.73688 202.56952 137.27618 C 201.4397 137.03048 200.45841 135.98821 199.45614 136.69957 C 198.40401 137.2935 197.49211 138.15096 196.22747 138.1986 C 194.97085 138.1986 193.6747 138.19478 192.42222 138.08333 C 191.28513 138.08333 189.93983 137.85343 188.96292 138.31387 C 188.91366 139.46887 188.24681 140.27857 187.80981 141.19666 C 188.57052 141.97757 188.57404 142.84649 187.92512 143.61823 C 189.13524 144.34374 189.34125 146.11267 190.57725 148.57653 C 190.66504 151.46186 192.46476 150.84412 191.84568 152.1512 C 191.46531 153.65838 190.89334 153.8879 190.34664 156.41761 C 188.46459 157.49504 188.42024 157.80748 188.38637 159.3004 C 189.22882 160.00451 190.55416 160.23403 190.34664 161.49131 C 189.12956 165.23194 190.22026 164.81849 190.46194 168.40984 C 191.70047 169.70724 190.5225 170.47019 191.0385 171.75384 C 191.90822 172.23224 192.25371 173.01073 192.65284 173.7142 C 193.26076 174.78539 193.67046 175.77048 194.26719 176.82753 C 195.62726 178.02342 193.515 177.57533 193.80594 179.13371 C 193.89429 180.0774 193.86291 180.47187 192.53753 181.20935 C 190.133 180.76597 190.26782 182.44918 188.84761 182.0165 C 189.50024 185.42227 188.27172 184.41438 186.77202 182.70838 C 185.95481 183.37453 185.16768 182.73232 184.35051 182.36244 C 183.7671 183.03878 184.1048 184.54685 184.00458 185.70643 C 182.03545 187.99287 180.66376 187.36875 179.50748 185.59116 C 177.67417 185.59638 174.74857 184.52838 174.89506 186.51358 C 174.10539 188.01898 172.59057 188.38097 170.16735 187.43613 L 168.20707 186.62898 C 166.01187 188.21666 165.72796 187.35308 165.0937 186.85952 L 163.01812 186.62898 C 162.17688 187.39142 161.2089 187.98281 159.55881 187.66667 C 159.61995 188.75888 158.78156 189.35052 157.48323 189.62704 C 156.43975 190.32707 157.1821 191.31649 157.71384 192.27916 C 157.89646 193.29927 157.73022 196.14728 158.17509 196.31503 C 158.31408 196.36751 158.27796 197.54238 159.55881 199.08242 C 159.08418 201.81631 161.30116 203.58919 161.86502 203.69478 C 162.2743 203.77133 161.3869 203.98174 161.17315 206.23162 C 160.15101 206.43516 159.49877 207.02145 160.36597 209.11441 L 159.55881 211.07465 C 157.46895 212.63316 160.08643 213.74613 157.94446 215.8024 C 157.05918 214.78089 154.97743 216.96313 154.48516 217.64737 C 153.65755 217.56318 152.90329 216.63337 151.83303 217.76264 L 149.18088 221.45258 C 149.15299 221.34661 149.04598 221.43487 148.83496 221.68325 C 147.96248 222.74297 145.76246 222.72578 142.83883 222.14446 C 141.28787 220.94424 140.74435 221.58874 140.41732 222.83634 C 137.86138 223.91963 140.27731 226.43533 140.30201 228.25597 C 140.32171 230.8337 139.02495 233.60962 140.07138 234.59802 C 137.68108 236.85937 137.31238 239.13994 139.03358 241.40129 C 139.41014 242.85 136.86328 245.56708 140.53263 245.55243 C 141.22142 246.66183 141.86745 248.44439 142.14696 252.00976 C 141.56285 253.19189 141.73181 254.40229 142.37758 255.58442 L 141.45511 256.85278 C 141.08497 258.98026 140.67491 260.84523 139.49483 260.54272 L 137.41925 262.38769 C 135.09112 262.32095 132.02092 261.41597 133.61401 265.27047 C 130.47893 266.3572 131.76296 268.75534 131.19249 270.57471 L 128.88628 268.4992 L 126.58008 270.34417 L 126.69539 271.15132 C 123.34003 275.62993 126.38082 275.17242 128.07912 275.76367 C 127.94133 277.05687 126.24917 277.58024 129.11692 280.37616 L 131.88435 282.22113 C 132.71853 286.0597 134.10872 284.03998 136.95801 286.83348 L 136.84269 289.601 C 136.8727 290.83459 136.31625 292.05735 135.11304 293.29093 C 132.85041 293.72463 130.07389 292.76413 128.54036 295.0205 C 126.82458 293.55612 123.92906 293.74883 123.92795 293.75214 L 120.23803 293.75214 L 117.12465 291.44597 L 113.89596 291.44597 L 112.62755 292.36839 C 110.50772 289.9058 108.63811 288.70291 106.97735 291.90718 L 106.63141 310.81807 L 104.44052 310.93334 C 103.91433 311.46817 103.78552 310.28782 102.82618 309.43431 C 99.095916 312.23201 95.371271 314.9389 91.641086 317.7366 C 90.225702 318.88893 88.525389 319.92203 87.259296 321.196 C 85.704135 321.6381 82.557666 322.99231 84.145918 324.88593 C 86.452083 325.67551 83.039981 327.8817 85.183711 328.11453 C 86.826324 329.73571 89.897747 328.11721 91.17985 329.72896 C 90.495665 330.6445 90.238172 332.10315 90.833911 333.07296 C 91.766215 333.05181 94.565064 332.4752 95.56164 333.99538 C 96.495294 335.41964 99.183522 333.68535 100.51997 335.84034 C 102.16421 336.42498 103.20395 341.74093 104.78645 339.41501 C 107.20343 339.21313 106.21184 337.06807 104.78645 336.18628 C 106.26062 334.85717 106.65094 332.93361 106.86204 330.99732 C 109.1571 331.89987 110.14378 334.99549 112.05099 335.84034 C 114.54059 334.53364 117.50932 334.48575 120.23803 335.14846 C 121.505 335.90441 124.79412 337.57144 125.54229 336.07101 C 126.87952 337.86465 128.72404 339.77012 131.19249 339.64555 C 130.29499 340.4713 130.79272 343.10686 131.99966 344.25803 C 132.69116 344.95488 135.58871 347.95994 135.57428 345.9876 C 136.91372 343.84917 139.38357 344.82955 141.22448 345.29585 C 143.62175 345.89602 141.48765 343.62729 142.37758 342.75901 C 144.17827 343.41904 144.84467 341.74832 146.29813 341.60592 C 147.78569 341.36111 148.78422 340.80832 148.83496 338.72313 C 151.14256 343.51801 153.63758 339.52786 154.36985 344.83451 C 154.00864 349.74619 155.87383 349.68544 157.94446 350.13888 C 161.35533 352.23158 158.96103 357.04722 163.9406 358.09523 C 165.5634 362.73153 173.46526 363.37336 177.54721 363.39947 C 181.28488 362.25453 184.43438 370.04721 186.88733 365.82104 C 189.63522 364.94562 191.00917 362.90297 191.15381 362.93826 C 192.12821 363.17568 192.84232 364.72361 196.22747 364.32201 C 198.19345 364.52504 200.23011 365.18215 200.60924 365.24443 C 201.40325 365.37512 204.58109 361.49578 205.45228 361.90044 C 207.52281 359.7415 210.82596 359.61095 209.48813 358.90238 C 208.99815 358.64293 207.5227 356.54806 207.18193 355.90432 C 204.38113 352.32138 205.8674 345.27968 211.44841 346.56421 C 215.98742 347.06809 210.81968 339.56671 215.02302 339.41501 C 217.87188 337.53374 220.862 336.67819 224.01722 338.26192 C 227.74302 336.98273 225.7402 333.56461 226.20811 333.3035 C 227.5956 332.52946 228.41008 331.25142 227.01529 329.84423 C 226.56973 327.90284 228.22186 326.62658 224.9397 326.15429 C 224.49802 325.83434 223.79284 324.94019 223.32537 324.65526 C 222.85789 324.37021 223.09253 323.87512 222.86412 323.15624 C 224.34939 322.61835 226.12439 322.32883 225.9775 320.27345 C 226.81235 317.34022 229.18958 320.34083 230.93584 320.61939 C 232.51454 322.04824 233.12518 321.29229 235.54825 318.54388 C 235.535 316.35717 238.00153 318.00332 238.54631 316.81418 C 239.5285 316.71012 239.21003 316.35017 240.16066 315.66109 C 241.11546 313.12183 243.4569 314.11545 244.31183 315.54569 C 244.37087 317.23871 246.10222 318.15603 247.19458 319.4663 C 248.57646 322.05652 250.44054 319.55495 251.9223 318.42848 C 251.84813 317.23667 252.051 316.08715 253.76726 316.00703 C 255.33991 315.78426 254.18047 314.35236 255.03567 313.70073 C 255.42182 313.4712 256.14476 313.90439 256.41939 313.47019 C 257.37841 311.95371 257.58091 311.68457 260.10933 311.62522 C 261.32143 313.10043 262.53598 311.75373 263.79925 310.93334 C 264.34463 309.357 264.82742 309.78776 265.99015 309.43431 C 267.71397 308.34134 268.75552 311.83869 269.91069 310.12619 C 271.57437 311.40474 272.75972 309.0159 273.60063 307.70461 C 272.86178 305.24381 275.81671 305.44658 277.52117 305.39843 C 278.37343 305.37436 278.89921 305.68349 279.13552 305.85964 C 279.10813 305.80284 279.19718 305.77112 279.13552 305.6291 L 279.71206 305.16789 C 281.09675 304.36036 280.71642 306.29704 282.3642 305.05249 C 283.63859 302.20015 283.94069 304.27655 284.09385 303.4382 C 284.24384 304.0213 284.86335 304.28674 286.05413 304.24534 C 286.16076 304.76578 286.41921 305.33933 287.55316 305.85964 C 287.59349 307.05655 288.57025 308.2374 290.89715 309.43431 C 291.67894 307.93159 291.73772 308.77198 293.66461 309.31904 C 293.56859 311.08606 293.94792 310.99002 294.24115 311.39455 C 293.97595 311.99052 293.74475 312.60878 294.7024 313.81612 C 294.18717 314.26371 293.32576 314.35949 293.77991 315.77636 C 292.19199 315.51564 293.1289 316.34393 293.31867 318.19794 C 294.34089 318.8232 295.0653 319.60131 295.04832 320.85006 L 296.43204 322.34909 C 299.29263 322.23025 297.66821 324.53413 297.70046 325.92362 L 299.08419 327.30738 L 301.15976 327.42265 L 301.39039 330.0749 C 302.53921 331.11119 302.31811 331.87529 301.39039 332.49635 C 302.33025 333.48373 302.92772 334.4818 300.58322 335.26386 L 299.54542 336.30155 C 300.80162 338.45985 297.35449 338.44024 299.54542 339.29961 C 299.11444 340.54797 299.38513 341.67024 301.85163 342.29767 C 302.60677 341.40582 303.37775 340.83672 303.92721 342.41307 L 304.8497 343.10494 L 305.19562 342.29767 C 305.80527 343.0517 306.3637 342.03363 307.84775 341.60592 C 308.7936 342.62195 309.75246 343.02508 311.07644 343.91209 C 312.1252 344.15945 312.41575 342.46669 313.84389 341.83646 C 313.47679 339.62148 315.3231 339.16969 314.997 336.99343 L 319.84002 336.53222 L 321.45437 336.76289 L 324.1065 336.87816 L 325.95147 339.06907 L 325.60553 341.37525 L 325.95147 344.71924 L 327.68112 347.83257 C 326.3633 348.71704 326.3506 350.05227 327.68112 350.83063 C 327.82657 351.7221 328.10033 352.57739 329.06484 352.44506 C 332.73396 352.26763 328.14365 354.87313 326.98925 356.36553 C 327.27762 357.69783 328.37147 359.38295 326.52801 359.9402 C 326.55019 360.33123 326.32045 360.78543 327.33519 360.97802 C 328.99488 360.3111 330.04023 362.92743 329.98732 364.55256 L 332.17821 366.51292 C 335.14738 365.18291 335.0164 366.99375 335.17628 368.47316 C 336.34444 369.18096 338.12306 368.76013 339.67338 368.7037 L 340.48056 367.66601 L 342.32551 368.7037 L 342.44082 369.97219 C 344.61047 370.09179 341.69406 370.60701 345.09297 373.31619 C 344.56737 374.40903 344.80053 375.45207 345.09297 376.54491 C 344.44656 377.28494 344.88418 379.377 345.90013 382.19509 C 346.96117 383.28207 347.95251 384.3367 349.01351 385.42369 L 349.01351 383.80939 L 352.93406 379.54297 L 355.47088 378.85109 C 358.31235 375.68236 360.18233 378.20061 359.39142 378.50515 C 360.48368 379.21193 361.73442 380.33267 363.19667 381.96442 C 363.40153 382.37965 364.75559 383.09483 365.38756 384.38599 C 366.12108 385.88464 366.90633 386.24128 367.92439 385.42369 L 369.07749 384.15533 C 369.37815 380.10467 369.65976 382.55223 372.6521 381.84915 C 374.20454 380.98774 375.70662 380.26987 376.91858 380.00418 C 378.15604 379.80879 378.72768 380.55913 380.60851 380.11945 C 381.08407 379.38095 381.78261 378.04063 383.26065 378.27448 C 384.58212 375.59969 385.21025 377.64272 385.56685 373.20091 C 386.64225 368.60142 384.97528 368.88189 384.64437 366.74346 C 382.98734 364.33118 374.58054 357.59797 375.88079 356.36553 C 375.11055 355.27396 375.9043 355.96419 377.95638 350.48469 C 378.83834 350.7979 379.56176 350.43489 380.26258 350.02348 C 380.89473 347.18833 383.35242 346.39978 381.30037 344.60397 C 376.35185 343.68486 379.88613 340.48212 380.72383 338.03125 C 384.5077 335.09713 383.93159 333.56117 381.06975 332.84229 C 381.7063 331.72996 381.28738 328.30266 377.49514 327.07671 C 377.22189 325.69372 376.37425 325.0682 373.68989 327.19211 C 372.47439 327.01252 371.1713 327.0785 370.80715 324.77054 L 372.88273 319.69697 L 372.76741 317.16012 L 374.49707 315.77636 L 377.95638 311.39455 L 377.72576 309.78025 L 375.88079 308.28122 L 374.843 305.6291 L 371.72962 303.4382 L 371.61431 301.01662 L 372.19087 300.32474 L 372.76741 294.09808 C 370.45733 290.76007 369.85399 287.6884 373.92051 285.44972 L 373.8052 284.18136 C 379.28707 276.94453 373.64267 275.59529 373.8052 271.38199 C 375.61302 265.83256 375.07451 265.26283 374.49707 260.54272 C 373.67916 257.78106 375.18248 256.37565 375.53486 254.31606 L 375.41955 249.0117 C 373.88602 244.89469 375.44689 245.5076 375.76548 244.16868 C 376.27118 242.89675 375.88976 241.14323 378.3023 240.82468 C 380.33723 239.20185 380.29675 238.48054 380.60851 237.59608 C 381.33502 235.2671 380.08376 230.78339 382.91471 230.79269 L 382.91471 228.71718 C 383.18312 225.74129 382.38454 221.74528 385.56685 221.68325 L 384.9903 217.5321 L 383.60658 216.03307 C 384.90772 215.68611 385.13785 217.34474 388.4496 214.30337 L 389.83333 210.15223 L 389.6027 206.00108 L 386.48934 201.84981 C 385.14937 199.92447 387.21474 196.41451 382.45347 196.19963 C 380.17295 195.95776 379.92068 191.40768 375.65017 195.39248 L 369.99997 195.27721 L 367.80908 194.00873 L 366.07942 190.54946 C 364.58331 196.44024 361.99031 193.58496 362.04357 196.54557 C 360.87249 196.20791 359.54501 195.52126 359.62205 197.92933 L 358.58426 198.85175 L 356.8546 201.15806 L 354.77902 202.19575 L 352.24219 202.42642 L 350.97378 200.00497 L 351.66565 198.96715 L 351.43502 196.54557 L 348.78289 195.62315 L 347.51448 194.58533 L 347.28386 191.70255 L 348.09102 190.20352 L 348.20633 187.43613 L 343.248 184.78401 L 342.32551 182.24717 L 343.01738 176.02038 C 339.339 170.89128 345.19296 173.09454 343.36331 168.75578 C 339.11003 167.4459 339.8716 165.41586 341.51834 163.33628 C 340.60287 160.50571 341.51923 156.707 338.05903 155.26452 C 338.43589 154.68053 337.64728 154.11882 337.02124 153.53483 L 338.63559 150.07556 L 335.98346 150.07556 C 333.29066 151.04893 332.43865 152.90218 330.67919 154.3421 C 329.84943 154.39713 328.90607 154.48399 328.83422 157.5707 C 326.10759 159.28703 326.67727 160.4005 323.18402 160.56876 L 320.07064 162.41373 L 319.26348 164.60463 C 317.71293 164.86549 316.40573 166.17168 315.1123 167.71809 C 314.69752 168.0048 314.86825 168.70216 316.26541 170.02427 C 315.57476 171.43312 314.54936 172.21963 313.61328 173.1376 L 313.49795 176.13565 C 308.26863 176.65189 312.23065 173.73433 309.80803 171.86924 L 309.3468 170.25481 L 309.3468 165.87312 L 306.92528 165.87312 L 304.61907 163.33628 L 304.50376 162.52913 L 303.00473 161.72185 L 301.27507 161.83725 C 300.79343 160.69053 300.37297 160.39579 299.89135 160.33822 L 298.04639 159.41567 C 297.3342 161.32063 295.3237 161.63473 292.97274 161.49131 L 291.47371 159.06973 C 289.16407 158.34512 289.74708 155.5748 287.78377 154.45737 C 286.12833 152.62043 289.65617 151.20929 288.24502 149.26841 C 288.9992 146.47975 286.19183 145.89512 284.09385 145.4632 C 282.42402 144.48665 280.64935 145.89142 280.63455 147.53871 C 278.9554 148.75014 278.40332 150.74438 277.40586 152.49714 C 277.12546 153.71264 278.71504 154.75912 275.56089 154.68804 C 274.7659 154.66996 276.71068 157.0039 274.06186 157.6861 C 273.04986 157.84137 271.65017 158.85524 271.17911 158.03204 C 270.63938 157.08873 269.89888 155.35165 268.8729 154.57264 C 269.17356 152.42211 267.77449 150.2172 265.64422 149.38368 C 262.79828 148.42037 264.73996 145.7345 265.18297 143.84878 C 263.59188 142.20212 262.24712 140.16814 260.68587 138.42927 C 260.06973 136.44903 258.62176 136.66951 257.91843 136.46903 C 257.10395 136.23658 257.85069 134.29799 257.5725 133.35558 C 256.99595 132.50627 256.35878 131.17613 254.68975 130.81873 C 254.06622 131.38655 253.63169 132.58065 252.84478 131.28007 C 250.88687 130.87948 249.09084 131.69402 247.65583 133.00964 C 243.32769 133.23406 244.70594 135.17036 241.54438 133.70152 C 240.09232 133.80214 238.10141 136.17187 237.50852 133.35558 L 236.47074 133.00964 C 236.43154 132.81374 236.6281 130.41038 236.47074 129.78104 C 236.09204 129.0014 234.9276 127.23324 232.55018 127.7054 z" stroke-linecap="round" />
</g>
</svg>