<?xml version="1.0" encoding="UTF-8" standalone="no" ?>
<!DOCTYPE svg PUBLIC "-//W3C//DTD SVG 1.1//EN" "http://www.w3.org/Graphics/SVG/1.1/DTD/svg11.dtd">
<svg xmlns="http://www.w3.org/2000/svg" xmlns:xlink="http://www.w3.org/1999/xlink" version="1.1" width="640" height="480" viewBox="0 0 640 480" xml:space="preserve">
<desc>Created with Fabric.js 3.6.6</desc>
<defs>
</defs>
<g transform="matrix(1 0 0 1 320.38 290.83)" id="path5458"  >
<path style="stroke: rgb(215,151,106); stroke-width: 2.00000167; stroke-dasharray: none; stroke-linecap: butt; stroke-dashoffset: 0; stroke-linejoin: miter; stroke-miterlimit: 4; fill: rgb(253,249,210); fill-rule: evenodd; opacity: 1;"  transform=" translate(-250.04, -268.5)" d="m 164.0804 273.1 c 0.0685 0 0.13705 0 0.19712 0 c 0.0772 0.1 0.14928 0.2 0.19711 0.4 c 0.043 0.2 0.0897 0.5 0.10323 0.8 c 0.0135 0.2 -0.006 0.5 -0.10323 0.6 c -0.1205 0.2 -0.28662 0.5 -0.38485 0.7 c -0.0491 0.1 -0.08 0.3 -0.0844 0.4 c -0.005 0.1 0.0183 0.2 0.0844 0.2 c 0.28843 0.3 0.46367 0.7 0.76028 0.9 c 0.16839 0.2 0.29823 0.4 0.45053 0.5 c 0.0762 0.1 0.1561 0.2 0.25342 0.2 c 0.0972 0 0.21199 0 0.34729 0 c 0.34946 -0.1 0.6856 -0.2 1.00431 -0.3 c 0.31868 -0.1 0.61959 -0.2 0.90104 -0.2 c 0.23815 0 0.53743 0 0.81659 0 c 0.13959 0 0.27258 0 0.39421 0 c 0.12165 0.1 0.23426 0.1 0.31914 0.2 c 0.14127 0.2 0.3584 0.3 0.56315 0.5 c 0.20476 0.2 0.39081 0.4 0.4787 0.5 c 0.0918 0.2 0.18429 0.4 0.28158 0.5 c 0.0972 0.1 0.20177 0.1 0.3191 0.2 c 0.23471 0.1 0.52696 0.1 0.92923 0.1 c 0.0843 0 0.39678 -0.1 0.6758 -0.1 c 0.13952 0 0.268 0 0.35668 0.1 c 0.0886 0 0.13174 0.1 0.10324 0.2 c -0.0286 0.1 -0.019 0.2 0.01 0.3 c 0.0283 0.1 0.0828 0.2 0.15017 0.3 c 0.13484 0.2 0.33144 0.4 0.51626 0.6 c 0.0711 0 0.25827 0.3 0.4693 0.5 c 0.211 0.2 0.43965 0.4 0.57252 0.4 c 0.31626 0 0.54651 0 0.76029 0 c 0.21377 0.1 0.40847 0.2 0.6664 0.3 c 0.22969 0.1 0.44374 0.1 0.60071 0.2 c 0.0785 0.1 0.14321 0.1 0.18773 0.2 c 0.0445 0.1 0.0751 0.2 0.0751 0.4 c 0 0.4 0.0312 0.6 0.13139 0.8 c 0.10025 0.2 0.26895 0.3 0.535 0.6 c 0.13538 0.1 0.19719 0.4 0.24404 0.7 c 0.0468 0.2 0.0731 0.5 0.13141 0.5 c 0.0954 0.1 0.18316 0.2 0.29097 0.3 c 0.21769 0.2 0.38514 0.3 0.49746 0.4 c 0.11232 0.2 0.16896 0.4 0.16896 0.7 c 0 0.2 0.0431 0.7 0.11262 1 c 0.0168 0.1 0.0367 0.1 0.0563 0.2 m 0.00008 0 c 0.0212 0 0.0423 0.1 0.0659 0.1 c 0.0455 0.1 0.0984 0.1 0.15017 0 c 0.0446 -0.1 0.37624 -0.2 0.67579 -0.3 c 0.14977 0 0.29392 0 0.38482 0 c 0.0909 0 0.1248 0.1 0.0751 0.2 c -0.0443 0.1 -0.29824 0.3 -0.535 0.5 c -0.11838 0.2 -0.23095 0.3 -0.30974 0.4 c -0.0789 0.1 -0.12248 0.2 -0.10324 0.2 c 0.0258 0.1 0.1214 0.2 0.25342 0.2 c 0.13201 0.1 0.29807 0.1 0.45052 0.1 c 0.15245 0.1 0.29769 0.1 0.38484 0.1 c 0.0871 0.1 0.12024 0.1 0.0562 0.2 c -0.0921 0.1 -0.21081 0.3 -0.31912 0.4 c -0.1083 0.2 -0.20699 0.3 -0.25343 0.5 c -0.10375 0.4 -0.3664 0.8 -0.57254 1.2 c -0.0926 0.2 -0.33603 0.4 -0.51623 0.6 c -0.0901 0.1 -0.16276 0.1 -0.1971 0.2 c -0.0344 0.1 -0.0264 0.2 0.0469 0.3 c 0.0679 0.1 0.0624 0.1 0.18773 0.2 c 0.16426 0.2 0.33422 0.4 0.45991 0.6 c 0.1257 0.2 0.2065 0.4 0.2065 0.6 c 0 0.2 0.0256 0.5 0.0751 0.8 c 0.0495 0.4 0.12808 0.6 0.21589 0.7 c 0.17901 0.2 0.33818 0.3 0.43176 0.5 c 0.0935 0.1 0.11437 0.3 0.0375 0.6 c -0.12155 0.5 -0.14852 0.7 -0.28159 1.2 c -0.0679 0.3 -0.1776 0.5 -0.17833 0.6 c -0.00029 0.1 0.0324 0.2 0.10324 0.2 c 0.0709 0.1 0.17832 0.1 0.35668 0.2 c 0.18519 0 0.3223 0.1 0.42238 0.1 c 0.10006 0.1 0.16686 0.2 0.22524 0.2 c 0.1168 0.2 0.19296 0.4 0.40361 0.7 c 0.10803 0.1 0.22239 0.2 0.33791 0.3 c 0.11551 0.1 0.23137 0.1 0.34728 0.1 c 0.23178 0.1 0.45687 0.1 0.64764 0.3 c 0.33827 0.4 0.75501 0.6 1.14509 0.8 c 0.18094 0.1 0.36437 0.3 0.55377 0.5 c 0.0947 0.1 0.19282 0.1 0.29098 0.2 c 0.0981 0.1 0.19789 0.1 0.30035 0.1 c 0.20007 0 0.58134 0.1 0.81659 0.2 c 0.11761 0.1 0.1924 0.1 0.19709 0.2 c 0.005 0.1 -0.0641 0.2 -0.25341 0.3 c -0.1632 0 -0.35163 0.1 -0.57255 0.1 c -0.22093 0 -0.47314 0.1 -0.76027 0.1 c -0.41061 0 -0.63016 0 -0.76966 0 c -0.13949 0.1 -0.20204 0.3 -0.28158 0.6 c -0.0274 0.1 -0.10304 0.2 -0.19711 0.3 c -0.0941 0.1 -0.20254 0.1 -0.30974 0.2 c -0.1072 0.1 -0.20547 0.2 -0.27219 0.2 c -0.0667 0.1 -0.10246 0.2 -0.0751 0.3 c 0.0552 0.2 0.12947 0.5 0.23464 0.7 c 0.10518 0.2 0.2408 0.4 0.43177 0.6 c 0.22976 0.2 0.37442 0.4 0.4599 0.6 c 0.0854 0.2 0.11265 0.4 0.11264 0.6 c 0 0.3 -0.0917 0.5 -0.19711 0.6 c -0.10536 0.1 -0.22661 0.2 -0.2816 0.4 c -0.0364 0.2 -0.0768 0.3 -0.1314 0.4 c -0.0545 0.1 -0.1249 0.1 -0.20648 0.1 c -0.16313 0.1 -0.39056 0.1 -0.71334 0.1 h -1.52054 c -0.21542 0 -0.47119 0 -0.72272 0 c -0.25154 0.1 -0.4962 0.1 -0.70396 0 c -0.26902 -0.1 -0.50051 -0.2 -0.75088 -0.4 c -0.12518 0 -0.25162 -0.1 -0.39421 -0.2 c -0.14258 0 -0.30401 0 -0.47869 0 c -0.21542 0 -0.47118 0 -0.72273 0 c -0.25153 0 -0.49619 0 -0.70395 0 c -0.2107 -0.1 -0.66869 -0.7 -0.76027 -0.7 c -0.13492 0.1 -0.37293 0.2 -0.60069 0.3 c -0.2278 0.2 -0.44701 0.3 -0.5444 0.5 c -0.0512 0.1 -0.1561 0.2 -0.28159 0.3 c -0.12548 0 -0.27592 0.1 -0.41297 0.1 c -0.13707 0 -0.26131 0.1 -0.3473 0.1 c -0.0859 0.1 -0.13101 0.2 -0.10324 0.3 c 0.0391 0.1 0.23366 0.4 0.40359 0.6 c 0.0848 0.2 0.16432 0.3 0.21589 0.4 c 0.0515 0.2 0.0728 0.3 0.0469 0.4 c -0.0244 0.1 -0.10856 0.1 -0.21587 0.2 c -0.10733 0.1 -0.23775 0.2 -0.35669 0.2 c -0.11892 0.1 -0.22224 0.2 -0.28157 0.2 c -0.0593 0.1 -0.0714 0.1 0 0.2 c 0.12679 0.1 0.28684 0.3 0.43175 0.4 c 0.10844 0.2 0.17776 0.3 0.24404 0.5 h -0.00001 c 0.29657 0 0.50127 0 0.88229 0 c 0.70145 0.1 1.48267 0.2 2.06493 0.3 c 0.6341 0.2 1.29377 0.2 1.95228 0.2 c 0.65854 0.1 1.31385 0.1 1.93354 0.2 c 0.73838 0.2 1.16151 0.5 1.52054 0.5 c 0.17952 0.1 0.33668 0.1 0.51623 0 c 0.17954 -0.1 0.37665 -0.2 0.61949 -0.5 c 0.11087 -0.1 0.22301 -0.1 0.33789 -0.2 c 0.11487 0 0.23222 -0.1 0.34728 -0.1 c 0.23012 0 0.45846 0.1 0.66641 0.2 c 0.41588 0.2 0.7572 0.6 0.90106 0.7 c 0.14469 0.2 0.32548 0.2 0.52563 0.2 c 0.20012 0 0.42261 0 0.64763 -0.1 c 0.225 0 0.45648 -0.1 0.67579 -0.1 c 0.2193 -0.1 0.42706 0 0.6101 0 c 0.12834 0.1 0.21883 0.2 0.29095 0.3 c 0.0721 0.1 0.12659 0.1 0.15957 0.2 c 0.0661 0.2 0.0637 0.4 0.0751 0.5 c 0.006 0.1 0.0199 0.1 0.0375 0.2 c 0.0178 0 0.0378 0 0.0844 -0.1 c 0.0933 0 0.26128 -0.3 0.57255 -0.7 c 0.23436 -0.3 0.3892 -0.6 0.50685 -1 c 0.11765 -0.3 0.20554 -0.7 0.31913 -1.2 c 0.0653 -0.2 0.0443 -0.4 -0.01 -0.6 c -0.0537 -0.1 -0.14686 -0.3 -0.21589 -0.4 c -0.0689 -0.2 -0.11309 -0.3 -0.0938 -0.5 c 0.0192 -0.2 0.10813 -0.4 0.31912 -0.6 c 0.37588 -0.5 0.48046 -0.7 0.81659 -1 h 2.04614 l 1.22958 2.3 l 1.2202 -1.3 l 1.43607 1.2 l -1.83968 1.3 l 0.40361 1 l 0.82596 -1 l 3.27575 0.6 l 0.19711 1 l 1.02308 -0.4 l 0.20648 -1.6 c 0.27283 -0.1 0.54374 -0.2 0.81658 -0.4 c 0.56536 -0.2 0.83243 -0.3 1.08408 -0.8 c 0.33063 -0.1 0.60368 0 0.92451 0.2 c 0.4068 0.2 0.82841 0.5 1.14508 0.8 c 0.15834 0.1 0.29153 0.3 0.38484 0.5 c 0.0933 0.2 0.15018 0.3 0.15018 0.5 c 0 0.5 0.0486 0.7 0.1314 0.8 c 0.0827 0.2 0.20085 0.3 0.32851 0.4 c 0.12767 0 0.26915 0.1 0.40361 0.2 c 0.13444 0.2 0.26284 0.4 0.36606 0.8 c 0.11681 0.5 0.3229 0.9 0.55377 1.3 c 0.23086 0.4 0.47894 0.8 0.66641 1.1 c 0.12402 0.3 0.27562 0.4 0.44112 0.6 c 0.16553 0.1 0.35077 0.2 0.52564 0.3 c 0.17488 0.1 0.34533 0.3 0.49744 0.5 c 0.15213 0.2 0.28758 0.4 0.38485 0.8 c 0.084 0.3 0.19521 0.6 0.34728 0.7 c 0.15208 0.1 0.34214 0.1 0.56316 0.1 c 0.44205 0 1.02209 -0.2 1.74581 -0.2 c 0.17469 0 0.36114 0.1 0.56315 0.2 c 0.20204 0 0.42205 0.2 0.65702 0.3 c 0.23498 0.1 0.48673 0.3 0.76028 0.4 c 0.27355 0.1 0.56452 0.2 0.88228 0.3 c 1.05588 0.3 2.02108 0.4 3.06924 0.6 c 0.44905 0.1 0.97989 0.3 1.4924 0.6 c 0.51248 0.2 1.0046 0.5 1.37033 0.8 c 0.42389 0.3 0.8155 0.7 1.21081 1 c 0.39533 0.3 0.798 0.6 1.24835 0.8 c 0.23013 0.1 0.45697 0.2 0.6758 0.2 c 0.21882 0.1 0.43246 0.1 0.72268 0.2 h 0.0845 c -0.02 0.1 -0.0469 0.2 -0.0469 0.4 c 0 0.2 0.0726 0.3 0.18774 0.5 c 0.11509 0.2 0.2689 0.5 0.42236 0.7 c 0.15348 0.2 0.30728 0.4 0.42237 0.6 c 0.11512 0.2 0.18773 0.4 0.18773 0.6 c 0 0.4 -0.0446 0.6 -0.13141 0.8 c -0.0867 0.1 -0.21477 0.2 -0.36605 0.3 c -0.15127 0.1 -0.32274 0.2 -0.51623 0.3 c -0.19349 0.1 -0.40606 0.2 -0.61949 0.4 c -0.37264 0.4 -0.72028 0.5 -1.03246 0.7 c -0.15608 0.1 -0.30607 0.2 -0.44115 0.4 c -0.13506 0.1 -0.25593 0.3 -0.36604 0.5 c -0.20749 0.4 -0.33813 0.7 -0.44115 0.8 c -0.10303 0.2 -0.17984 0.3 -0.28158 0.3 c -0.20348 0 -0.50606 -0.1 -1.32343 -0.1 c -0.21911 0 -0.38873 0 -0.53501 0.1 c -0.14627 0 -0.27191 0.1 -0.4036 0.2 c -0.26336 0.2 -0.55301 0.4 -1.10756 0.7 c -0.27282 0.1 -0.54374 0.2 -0.81657 0.4 l 0.61008 1.8 l -1.83966 2.4 l 1.02308 0.4 l 0.40359 3.2 h -1.02307 l 0.41299 1 l -1.43607 0.3 l 1.08878 5.5 c 0.35843 -0.3 0.7057 -0.6 0.95737 -0.7 c 0.48164 -0.1 0.98663 -0.2 1.39852 -0.3 c 0.20596 -0.1 0.38784 -0.2 0.53501 -0.3 c 0.14716 -0.2 0.25831 -0.3 0.31914 -0.6 c 0.0224 0 0.0733 -0.1 0.14077 -0.2 c 0.0676 0 0.15146 -0.1 0.25343 -0.1 c 0.20396 -0.1 0.47262 -0.1 0.75089 -0.1 c 0.55653 0 1.17609 0 1.52053 0 c 0.1949 0 0.40047 0.1 0.6101 0.2 c 0.20961 0 0.41719 0.1 0.61948 0.2 c 0.40456 0.3 0.77084 0.5 1.0137 0.6 c 0.30364 0.2 0.58278 0.3 0.83534 0.5 c 0.25257 0.1 0.48098 0.2 0.69458 0.3 c 0.21361 0 0.41395 0 0.6007 -0.1 c 0.18675 -0.1 0.363 -0.3 0.535 -0.7 c 0.0509 -0.1 0.12228 -0.1 0.2065 -0.2 c 0.0841 0 0.18187 -0.1 0.29097 -0.1 c 0.21819 0 0.47464 0 0.74149 0 c 0.26687 0 0.54067 0 0.78843 0 c 0.24776 0 0.46799 -0.1 0.62887 -0.3 c 0.38221 -0.3 0.54328 -0.6 0.80719 -0.8 c 0.13197 -0.1 0.28872 -0.2 0.51625 -0.3 c 0.22749 0 0.52269 -0.1 0.9292 -0.1 c 0.21196 0 0.43505 0 0.65703 -0.1 c 0.22198 0 0.44313 -0.1 0.63827 -0.2 c 0.39022 -0.2 0.68951 -0.4 0.75086 -0.5 c 0.17039 0 0.25917 -0.1 0.30037 0 c 0.0411 0 0.0332 0.1 0.0281 0.3 c -0.005 0.1 -0.013 0.3 0.0188 0.4 c 0.032 0.2 0.10159 0.4 0.25343 0.5 c 0.0932 0.1 0.26668 0.3 0.47869 0.4 c 0.21201 0 0.46714 0.1 0.72272 0.2 c 0.51118 0.1 1.03333 0.2 1.26711 0.2 c 0.5065 0 1.1475 0.1 1.77398 0.2 c 0.1269 0 0.22241 0.1 0.34728 0.1 c 0.039 -0.3 0.0709 -0.5 0.15956 -0.8 c 0.12845 -0.4 0.28476 -0.9 0.38482 -1.3 c 0.0474 -0.1 -0.014 -0.3 -0.10324 -0.5 c -0.0892 -0.1 -0.21172 -0.3 -0.28158 -0.4 c -0.035 -0.1 -0.0554 -0.2 -0.0564 -0.2 c -0.00081 -0.1 0.0225 -0.1 0.0751 -0.1 c 0.10544 -0.1 0.3329 -0.2 0.76965 -0.2 c 0.48873 0 1.03816 0.1 1.54869 0.1 c 0.51053 0 0.98013 0.1 1.31404 0.1 c 0.23341 0.1 0.7376 0.5 1.23897 0.9 c 0.50134 0.5 1.00347 0.9 1.22018 1.1 c 0.51289 0.5 0.85024 0.8 1.14509 1 c 0.14743 0 0.2775 0.1 0.42237 0.1 c 0.14489 0 0.30172 0 0.47869 -0.1 c 0.22635 0 0.38711 -0.1 0.52563 -0.2 c 0.13853 -0.1 0.25198 -0.2 0.38483 -0.2 c 0.13283 -0.1 0.2882 -0.2 0.49745 -0.3 c 0.20923 0 0.47698 -0.1 0.84476 -0.1 c 0.60038 0 0.99199 0.2 1.37035 0.2 c 0.18919 0.1 0.37513 0.1 0.58194 0 c 0.20679 0 0.43081 -0.2 0.70396 -0.4 c 0.40232 -0.3 0.69827 -0.4 0.97614 -0.5 c 0.27785 -0.2 0.53566 -0.3 0.86351 -0.7 c 0.0566 0 0.22535 0 0.44115 0 c 0.21579 0 0.47812 0 0.75089 0 c 0.54552 0.1 1.10698 0.1 1.26711 0 c 0.28758 -0.1 0.55003 -0.2 0.79781 -0.2 c 0.24778 -0.1 0.47837 -0.2 0.69457 -0.2 c 0.21619 0 0.41725 -0.1 0.61008 -0.2 c 0.19285 -0.1 0.37608 -0.2 0.55378 -0.4 c 0.22547 -0.2 0.55033 -0.4 0.88228 -0.6 c 0.33196 -0.2 0.67845 -0.4 0.96677 -0.6 c 0.57393 -0.2 0.85705 -0.4 1.06064 -0.6 c 0.20357 -0.2 0.32381 -0.5 0.57253 -0.9 c 0.0979 -0.2 0.15244 -0.5 0.18772 -0.7 c 0.0354 -0.2 0.0561 -0.5 0.0658 -0.7 c 0.01 -0.3 0.008 -0.5 0.0282 -0.7 c 0.0208 -0.2 0.0629 -0.4 0.13141 -0.5 c 0.26665 -0.6 0.3146 -0.9 0.45053 -1.1 c 0.068 -0.1 0.14941 -0.2 0.30036 -0.3 c 0.15094 -0.1 0.36477 -0.2 0.67579 -0.2 c 0.17434 -0.1 0.34658 -0.2 0.50684 -0.3 c 0.16026 -0.1 0.30936 -0.2 0.45992 -0.4 c 0.30111 -0.3 0.58438 -0.6 0.87291 -0.7 c 0.2549 -0.2 0.55356 -0.2 0.8729 -0.3 c 0.31934 0 0.66578 0 1.01368 0 c 0.69581 0 1.41375 0.1 2.00862 0.1 c 0.3241 0 0.65593 0.1 0.98553 0.2 c 0.32959 0.1 0.65795 0.3 0.97616 0.4 c 0.63638 0.4 1.22813 0.8 1.71762 1 c 0.17703 0 0.36289 0.1 0.55379 0.1 c 0.19092 0 0.38746 -0.1 0.58194 -0.1 c 0.38895 -0.1 0.7759 -0.3 1.11693 -0.4 c 0.10048 -0.1 0.20893 -0.1 0.32851 0 c 0.11962 0 0.25376 0.1 0.38484 0.2 c 0.26219 0.2 0.53543 0.5 0.79782 0.9 c 0.52472 0.7 0.98582 1.5 1.14507 1.7 c 0.1958 0.2 0.42194 0.4 0.64766 0.4 c 0.2257 0.1 0.45161 0 0.66641 -0.1 c 0.2148 0 0.41888 -0.2 0.58192 -0.3 c 0.16306 -0.1 0.28619 -0.3 0.35667 -0.4 c 0.12511 -0.3 0.24274 -0.4 0.36607 -0.6 c 0.12332 -0.1 0.2535 -0.2 0.39421 -0.2 c 0.28143 -0.2 0.6136 -0.2 1.07939 -0.4 c 0.17295 -0.1 0.41322 -0.2 0.68518 -0.2 c 0.27197 0 0.58043 0 0.88229 0.1 c 0.60372 0.1 1.19314 0.2 1.50178 0.3 c 0.31893 0 0.60677 0.1 0.8635 0 c 0.25676 0 0.48461 0 0.68519 -0.1 c 0.20058 -0.1 0.37512 -0.2 0.52562 -0.3 c 0.15048 -0.2 0.27835 -0.3 0.38482 -0.4 c 0.10574 -0.2 0.26754 -0.3 0.45993 -0.3 c 0.19236 -0.1 0.41239 -0.1 0.65702 -0.1 c 0.48923 -0.1 1.04759 0 1.5393 0 c 0.35175 0 0.60493 0.1 0.80721 0.2 c 0.20226 0.1 0.35273 0.3 0.50685 0.4 c 0.15411 0.2 0.31829 0.3 0.52561 0.3 c 0.10366 0.1 0.21132 0.1 0.34728 0 c 0.13597 0 0.29775 0 0.4787 -0.1 c 0.0947 -0.1 0.10549 -0.3 0.0659 -0.5 c -0.0397 -0.2 -0.13425 -0.5 -0.23465 -0.9 c -0.2008 -0.6 -0.45053 -1.2 -0.45053 -1.4 c 0.00001 -0.3 0.15628 -0.7 0.30974 -1.1 c 0.15347 -0.5 0.30975 -0.9 0.30975 -1.3 c -0.00001 -0.1 0.27393 -0.5 0.56314 -0.9 c 0.28923 -0.4 0.59554 -0.8 0.66643 -0.9 c 0.14328 -0.3 0.21464 -0.5 0.24402 -0.7 c 0.0294 -0.2 0.0167 -0.3 -0.0375 -0.4 c -0.10853 -0.3 -0.35776 -0.6 -0.61948 -1.1 c -0.0608 -0.1 -0.0372 -0.3 0.0281 -0.4 c 0.0655 -0.2 0.17345 -0.4 0.29097 -0.6 c 0.11753 -0.2 0.24216 -0.4 0.33792 -0.6 c 0.0958 -0.2 0.15955 -0.4 0.15955 -0.6 c -0.00001 -0.1 -1.41281 -1.8 -1.63317 -2.2 c -0.26383 -0.5 -0.52352 -0.8 -0.71335 -1.1 c -0.0949 -0.2 -0.17057 -0.4 -0.22526 -0.6 c -0.0281 -0.1 -0.0324 -0.2 -0.0208 -0.3 c 0.32892 0.1 0.23666 0 0.54666 0.1 c 0.31001 0.1 0.5956 0.1 0.81659 0.1 c 0.13929 0 0.30282 0 0.47869 -0.1 c 0.17587 -0.1 0.36648 -0.2 0.55376 -0.3 c 0.3746 -0.2 0.74438 -0.5 1.01371 -0.6 c 0.16122 -0.1 0.38747 -0.1 0.64763 -0.1 c 0.26017 0 0.55701 0 0.85413 0 c 0.59424 0 1.19744 0.1 1.56747 0.1 c 0.0148 -0.1 0.23979 -0.1 0.55379 -0.1 c 0.31398 0 0.71988 0.1 1.09816 0.3 c 0.18914 0.1 0.37384 0.2 0.53501 0.3 c 0.16115 0.1 0.29975 0.2 0.40359 0.4 c 0.10384 0.1 0.17058 0.3 0.18774 0.5 c 0.0172 0.2 -0.0137 0.4 -0.11265 0.6 c -0.0805 0 -0.11686 0.1 -0.12203 0.1 c -0.005 0.1 0.0236 0.1 0.0751 0.2 c 0.10318 0.2 0.29764 0.4 0.51621 0.6 c 0.43716 0.5 0.95157 0.9 0.95738 0.9 c 0.14911 0.1 0.28045 0.3 0.38485 0.5 c 0.10437 0.1 0.18775 0.3 0.26278 0.5 c 0.15008 0.4 0.25076 0.9 0.37544 1.4 c 0.0659 0.2 0.19568 0.5 0.35669 0.7 c 0.161 0.1 0.35667 0.3 0.58194 0.5 c 0.4505 0.3 0.99868 0.5 1.52052 0.8 c 0.58111 0.3 1.06548 0.4 1.49239 0.6 c 0.21346 0.1 0.4073 0.2 0.60071 0.3 c 0.1934 0.2 0.37746 0.3 0.56316 0.5 c 0.11131 0.1 0.22463 0.1 0.32851 0.2 c 0.10389 0 0.20543 0 0.30037 -0.1 c 0.18984 -0.1 0.36213 -0.3 0.50683 -0.5 c 0.28939 -0.5 0.4726 -1.1 0.50685 -1.2 c 0.0313 -0.1 0.0913 -0.2 0.16895 -0.3 c 0.0776 -0.1 0.1679 -0.1 0.28158 -0.1 c 0.22737 -0.1 0.52502 -0.1 0.83535 0 c 0.31033 0 0.63652 0.1 0.948 0.1 c 0.31146 0 0.60454 0 0.83535 -0.1 c 0.18373 -0.1 0.38746 -0.1 0.61009 0 c 0.22265 0.1 0.46548 0.2 0.71335 0.3 c 0.24784 0.2 0.50088 0.3 0.76026 0.5 c 0.25939 0.1 0.52182 0.2 0.77904 0.2 c 0.36277 0 0.6624 0 0.91984 0 c 0.25743 0.1 0.47341 0.2 0.65702 0.3 c 0.18361 0.1 0.33737 0.2 0.47869 0.4 c 0.14132 0.2 0.2731 0.4 0.4036 0.7 c 0.12973 0.2 0.28344 0.4 0.45053 0.5 c 0.16708 0.1 0.34237 0.2 0.51624 0.3 c 0.17387 0.1 0.34741 0.2 0.49745 0.4 c 0.15004 0.1 0.2798 0.4 0.37544 0.8 c 0.0291 0.1 0.0777 0.2 0.15017 0.2 c 0.0725 0.1 0.16592 0.1 0.2722 0.1 c 0.21258 0 0.48898 0 0.77904 -0.1 c 0.29007 0 0.59173 -0.1 0.8823 -0.1 c 0.29055 0 0.56496 0 0.77907 0.1 c 0.40064 0.2 0.67656 0.3 0.88227 0.4 c 0.20553 0.1 0.34312 0.1 0.45991 0.1 c 0.11676 0 0.21321 -0.1 0.34729 -0.2 c 0.13392 -0.1 0.3056 -0.3 0.56317 -0.5 c 0.0761 -0.1 0.16537 -0.1 0.2628 -0.1 c 0.0971 0 0.20092 0 0.30972 0.1 c 0.21766 0.1 0.45239 0.3 0.65703 0.4 c 0.26041 0 0.53661 0.1 0.81659 0.1 c 0.27983 0 0.56291 -0.1 0.82598 -0.1 c 0.52596 -0.1 0.98064 -0.3 1.22018 -0.4 c 0.30715 -0.2 0.76348 -0.3 1.22019 -0.4 c 0.45655 -0.1 0.9169 -0.2 1.23897 -0.2 c 0.32578 -0.1 0.51938 -0.2 0.657 -0.3 c 0.13752 -0.1 0.21749 -0.2 0.30973 -0.3 c 0.0924 0 0.19473 -0.1 0.38485 0 c 0.18995 0 0.461 0.2 0.89166 0.4 c 0.16751 0.1 0.32856 0.2 0.4787 0.3 c 0.15011 0.2 0.29597 0.4 0.44113 0.6 c 0.29032 0.4 0.58378 0.8 0.92924 1.1 c 0.16669 0.1 0.38663 0.1 0.63825 0.2 c 0.25141 0 0.52862 0 0.81655 0 c 0.57588 0 1.18196 0 1.61441 0 h 3.06925 h 1.48302 c -0.29892 -0.7 -0.84455 -1.3 -1.07783 -1.3 c -0.37012 0 -1.54145 -2.2 -1.89411 -3.5 c -0.16336 -0.6 0.66916 -1.2 0.24706 -1.5 c -0.58235 -0.5 -1.86686 -0.2 -1.72941 -0.7 c 0.0996 -0.4 -0.0713 -2.1 -0.32941 -2.9 c -0.25805 -0.8 0.0874 -1.3 0 -1.8 c -0.26672 -1.2 -2.73146 -4.3 -4.03526 -5 c -0.59482 -0.3 -3.18412 -1.4 -3.70587 -1.7 c -0.053 0 -0.32923 -0.1 -0.32942 -0.1 c -0.005 -0.3 0.80711 -0.8 1.97647 -1.1 c 0.91987 -0.2 2.18694 -0.4 2.47058 -0.1 c 1.01075 0.9 2.57187 1.7 4.11762 1 c 0.71565 -0.3 1.19262 -0.9 1.81176 -1 c 1.20559 -0.2 1.65134 0.7 3.12939 -2.3 c 0.46495 -1 0.56838 -1.6 0.49412 -2.3 c -0.0363 -0.2 -0.1374 -0.5 -0.24706 -0.8 c -0.51093 -1.2 0.4398 -0.1 -1.97646 -0.1 c -1.85217 0 -3.35606 -0.6 -3.62352 -1.2 c -0.23519 -0.5 -0.24731 -1.4 0.41177 -2.8 c 0.46012 -1 0.98053 -2.8 1.15294 -3 c 0.4476 -0.4 0.91987 -0.5 0.41176 -1.4 c -0.53308 -1.1 -1.29925 -1.5 -2.88235 -1.4 c -1.10494 0 -1.97136 -0.4 -2.0588 -1.1 c -0.0466 -0.4 -0.081 -2.4 0.41176 -3.1 c 2.06372 0.3 1.02362 0.6 2.88233 -1.2 c 1.86958 -1.9 -0.21727 -5 1.89412 -8.3 c 0.59222 -1.3 0.27364 -0.9 0.24705 -4.5 l -0.24705 -4.8 c 1.65851 0.4 2.84072 -1.3 3.37645 0.4 c 0.77704 2.7 0.7184 4.5 3.12939 3.2 c 0.62801 -0.3 1.29553 -0.9 2.05883 -1.2 c 0.76325 -0.4 2.14587 -1 2.30587 -1.2 c 1.16788 -1.5 0.58524 -2.5 -1.48234 -4.3 c -1.17641 -1 -1.73376 -3.4 -1.89413 -4.4 c -0.1099 -0.7 -1.23784 -1.1 -1.48233 -1.4 c -0.3543 -0.4 0.6977 -0.7 0.90587 -2.1 c 0.16436 -1 -0.29834 -2.3 -0.49412 -3.3 c -0.22805 -1.1 -0.26435 -1.9 0 -2.8 c 0.20978 -0.8 0.52021 -1.6 0.41177 -2.5 c -0.11453 -1 -0.785 -1.9 -0.57647 -2.3 c 0.1553 -0.7 0.76362 -1.1 1.31764 -1.5 c -0.53261 -1.4 -0.50273 -3.8 0.57646 -3.9 l 0.41178 -0.5 c -0.47373 -0.6 -1.29854 -1.2 -1.97647 -1.5 c -0.60847 -0.7 -1.34663 -0.9 -2.22351 -1 c -0.59993 0 -0.68512 -0.8 -0.82353 -1.3 c -0.10905 -0.5 -0.20421 -1 0 -1.4 c 0.30374 -0.6 0.36867 -0.5 -0.16471 -0.8 c -0.31093 -0.1 -0.27707 -0.9 -0.1647 -1 c -0.11126 -0.7 0.0639 -0.6 0.0824 -1.4 c 0.086 -0.3 -0.006 -1.4 0.0823 -1.8 c -0.12582 -0.7 -0.48778 -0.7 -0.24706 -1.5 c 0.0372 -0.4 0.023 -1.3 0.0824 -1.6 c 0.25569 -0.5 -0.61658 -0.9 -0.82353 -1 c -0.8089 -0.3 -1.20846 -1 -1.97646 -1.4 c -0.33339 -0.1 -0.80724 0 -1.15293 0 c -0.83446 0.1 -1.22926 -0.6 -1.81176 -1.1 c -0.18234 -0.1 -0.10826 0.6 -0.32942 0.6 c -0.53736 0.1 -1.07065 -0.2 -1.07058 0.4 c -0.36319 0.5 -0.86708 0.9 -1.31765 1.3 c -1.49736 0.5 0.3485 1.1 -0.98822 2.5 c -0.25673 0.3 -0.49411 0.7 -0.49411 1.2 c 0 0.3 -1.09654 -0.2 -1.15294 -0.2 c -0.32703 -0.2 -0.79918 0.2 -1.15293 0.2 c -0.80505 0.1 -1.25936 0.7 -1.64705 1.4 c -0.47488 0.6 -0.43699 0.9 -0.65882 1.7 c 0.00002 0.2 -0.0345 1.4 -0.0824 1.6 c -0.31639 0.7 -1.05556 1.3 -1.81176 1.6 c -0.8958 0.1 -0.93245 1 -1.39997 1.6 c -0.85374 0.6 -1.53912 0.1 -2.22353 -0.4 c -0.37461 -0.3 -0.96293 -0.4 -1.07058 -0.9 c -0.0919 -0.3 -0.87853 -1 -1.15294 -1.3 c -0.64604 -0.3 -0.65107 0.6 -1.4 0.8 c -0.17943 0.9 -0.37004 1.4 -1.07059 2 c -0.60908 0.6 -0.41175 1.3 -0.41175 2.1 c -0.14665 0.5 -0.96812 0.6 -1.48234 0.9 c -0.5406 0.6 -0.0536 1.7 -0.41177 2.4 c -0.78375 1.2 -0.25223 2.1 -0.98823 3.2 c -0.21108 0.4 -0.53651 0.6 -0.65882 1.1 c -0.14412 0.6 0.0812 0.9 -0.24705 1.2 c -0.5448 0.5 -1.19509 0.2 -1.81176 0 c -0.0653 -0.1 0.47664 -0.8 0 -1 c -0.25989 -0.1 -0.0146 -0.7 -0.24707 -0.8 c -0.49846 -0.6 -0.23823 -1.6 -0.90587 -2 c -0.75293 0 -1.89332 -0.1 -2.0588 -0.3 c -0.86863 -0.1 -1.769 0 -2.6353 0 c -0.63541 -0.3 -0.99366 -1 -1.39999 -1.6 c -0.38936 -0.4 -0.44905 -0.6 -0.82353 -0.7 c -0.10143 -0.1 0.10346 -1.4 0.0824 -1.5 c -0.61294 -1.4 -1.81342 -1.7 -1.72942 -3.2 c 0.17354 -0.7 -0.73278 -0.6 -0.57646 -1.2 c -0.51557 -1.5 0.31371 -1.3 -0.16471 -1.8 c -0.45265 -0.3 -0.78705 -0.6 -0.98823 -0.8 c -0.47862 -0.8 -1.19027 -1.3 -1.8941 -1.9 c -0.20136 -0.3 -0.41521 -0.6 -0.82352 -0.6 c -0.90481 -0.2 -1.26081 0.1 -1.31765 0.5 c -0.0522 0.4 -0.59154 0.6 -2.05881 0.6 c -0.46023 -0.4 -0.66325 -0.9 -1.23529 -1.2 c -0.29649 -0.4 -1.20237 -0.2 -1.64706 -0.2 c -0.59762 0 -1.19536 -0.5 -1.72939 -0.7 c -0.80466 0 -1.59274 -0.1 -2.38822 0 c -0.96164 0.4 -1.04807 -0.1 -1.0706 -0.6 c -0.68032 -0.6 -1.45591 -0.8 -2.14116 -1.4 c -0.33154 -0.2 -0.54659 -0.1 -1.07059 -0.2 c -0.4585 -0.1 -0.61759 -0.8 -1.23528 -0.7 c -0.52131 0.1 -0.76651 -0.8 -0.90588 -1 c -0.0592 -0.1 -0.18428 -0.1 -0.24706 -0.1 c -0.89426 -0.6 -2.08508 -0.2 -3.12939 -0.3 c -0.91401 -0.5 -1.29355 -0.2 -1.64707 -0.5 c -1.08915 -0.5 -2.00836 -1.2 -3.04702 -1.9 c -1.04235 -1.2 -2.92507 -1.2 -3.37647 -2.9 c -0.18442 -0.2 -1.17503 -0.3 -1.48234 -0.3 c -0.53523 0 -0.5354 -0.2 -1.0706 -0.2 c -0.55048 0 -0.87063 -0.3 -1.07057 -0.7 c -0.14973 -0.3 -0.0121 -1 -0.65882 -1.2 c -0.31518 -0.6 -1.23225 -0.7 -0.74117 -1.5 c -0.25892 -0.1 -0.67543 -0.1 -0.90588 -0.3 c -0.40924 -0.4 -1.18311 -0.5 -1.31765 -1.1 c -0.11361 -0.4 0.2575 -1.3 0 -1.3 c -0.34811 -0.1 -1.36172 -0.3 -1.31763 -0.9 c 0.0184 -0.2 -0.30104 -0.9 -0.41177 -1.1 c -0.40767 -0.5 -1.13804 -0.8 -1.81175 -0.9 c -0.40842 0 -0.57484 -0.3 -0.90588 -0.5 c -0.69208 -0.5 -1.23964 0.2 -1.89411 0.3 c -0.39708 -0.4 -0.0662 -0.8 -0.57646 -0.9 c -0.46018 0 -1.29521 -0.1 -1.7294 0 c -0.48957 0.2 0.15988 0.4 0.4941 0.6 c 0.21075 0.5 -0.73193 0.6 -1.23528 0.8 c -1.0079 -0.3 -1.67107 0.6 -2.55294 0.8 c -0.92844 0.9 -0.98214 1.2 -1.8941 0 c -0.65361 -0.5 -1.46425 -0.3 -2.14117 -0.7 c -1.50878 -1.4 -0.59905 2 -1.72941 -0.6 c -0.1019 -0.4 -0.16193 -0.4 -0.90587 -0.4 c -1.29667 0.5 0.343 2.8 -1.89412 0.9 c -0.30647 -0.7 -0.84565 -0.4 -0.1647 -1.1 c 0.26891 -0.3 0.24706 -0.9 0.24706 -1 c -0.00002 -0.4 -1.0461 0.4 -1.48234 0.4 c -0.48634 -0.4 -0.5508 -1.4 -0.74117 -2 c 0.00002 -0.6 -0.2391 -0.7 -0.41177 -1 c -0.19258 -0.4 0.51912 -0.3 0.82353 -0.6 c 0.40586 -0.7 -0.22104 -1.5 -0.90588 -1.7 c -0.56597 0 -0.66003 0.6 -1.23528 0.2 c -0.24195 -0.2 -0.16472 -0.8 -0.16472 -1.1 c 0 -0.5 -0.36416 -0.7 -0.65882 -0.9 c -0.42376 -0.2 -1.03912 -0.5 -0.82352 -0.9 c 0.40738 -0.8 0.003 -1.2 -1.2353 -0.9 c -0.36854 0.1 0.23723 -0.7 -0.0823 -1.1 c -0.30095 -0.3 -1.07333 0.2 -1.23528 -0.1 c -0.27613 -0.5 -0.23531 -0.6 -0.65882 -1.3 c -0.28142 -0.4 -0.2226 -0.4 -0.82353 -0.3 c -0.32783 0.1 -0.8977 0 -0.90587 0 c -0.69327 -0.2 -0.13575 -0.6 0.0824 -0.7 c -0.25036 -0.6 -0.7903 -0.9 -1.07059 -1.5 c 0.0544 -0.9 1.12107 -1 0.0823 -1.6 c -0.0684 0 -0.53722 0.3 -0.98822 0 c -0.4134 -0.2 -0.48685 0.7 -0.74117 0.9 c -0.41696 0.2 -0.39903 0.6 -0.90588 0.1 c -0.38475 -0.4 0 -0.4 0 -0.8 c -0.10193 0 -0.72159 -0.1 -0.82352 -0.1 c -0.46464 -0.1 -0.45789 0.6 -0.41176 0.8 c 0.1093 0.4 0.68011 0.6 0.90588 0.9 c 0.25922 0.2 0.33718 0.6 0.41176 0.9 c 0.36995 0.9 0.17037 1.5 -0.32941 2.3 c -0.243 0.5 0.10114 1.3 -0.49412 1.1 c -0.46089 -0.1 -0.49616 0.6 -0.3294 1.1 c 0.0601 0.2 -0.71069 0.2 -0.90589 0.3 c -0.26349 0.2 -0.0836 0.9 -0.24706 1.2 c -0.1883 0.4 -0.78094 0 -0.65882 0.5 c 0.0753 0.3 -0.0893 0.9 0 1.3 c 0.0303 0.8 -0.54758 0.7 -0.32941 1.6 c 0.18702 0.3 0.49412 0.5 0.49412 0.9 c 0 0.4 -0.5797 0.4 -0.82353 0.5 c -0.3578 0 -0.20073 0.6 0 0.8 c 0.62058 0.4 0.41393 0.4 -0.1647 0.8 c -0.1971 0.1 -0.16922 0.3 -0.16471 0.6 c 0.003 0.1 -0.0383 0.3 -0.0824 0.6 c -0.0484 0.2 -0.81161 0.2 -0.98822 0.3 c -0.40853 0.3 -0.65884 -0.3 -0.65884 -0.8 c 0 -0.4 -0.43634 -0.7 -0.74117 -0.8 c -0.53403 0 -1.20659 -0.4 -1.15293 -0.5 c 0.17814 -0.3 -0.82334 -0.5 -1.39999 -0.5 c -0.57392 0 0.10312 -0.9 -1.07058 -0.8 c -0.43918 0.1 -0.22428 -0.7 -1.48236 -0.7 c -0.39495 0.1 -0.69918 -0.9 -0.90587 -0.5 c -0.13873 0.2 0.058 1.1 -0.74117 0.7 c -0.31876 -0.1 -0.0993 -0.8 0 -1 c 0.13195 -0.2 -1.6039 -0.2 -1.7294 -0.2 c -0.42648 0 -0.064 1 -0.32943 0.8 c -0.0307 0 -0.58252 -0.1 -0.41175 0.7 c 0.0554 0.3 -0.38546 0.6 -0.49412 0.8 c -0.14117 0.3 -0.31515 0.9 -0.57647 1.1 c -0.21443 0.1 -0.22112 1.1 -0.49411 1.3 c -0.78202 0.4 -0.49301 0.9 -0.65882 1.1 c -0.31355 0.5 -0.32493 0.6 -0.74118 1 c -0.21643 0.2 -0.10198 0.7 -0.1647 1 c -0.03 0.2 -0.20721 0.2 -0.41177 0.2 c -0.32843 -0.1 -0.73205 -0.4 -0.90587 -0.5 c -0.25578 -0.3 -0.0821 -0.8 -0.32941 -1 c -0.2986 -0.2 -1.01511 0 -1.23529 -0.4 c -0.14032 -0.3 -0.53406 -1.2 -0.82352 -1.3 c -0.43996 -0.3 -0.2903 -0.8 -0.74118 -0.9 c -0.18586 0 -1.09353 0 -1.39999 0 c -0.30579 0 -0.51771 0.3 -0.82354 0.3 c -0.43982 0.1 -0.77499 0.2 -1.07058 0.6 c -0.3717 0.3 -0.8304 0 -0.98822 0.6 c -0.11635 0.5 -0.57165 0.3 -0.82352 0.6 c -0.26851 0.3 -0.50878 0.4 -0.65882 0.6 c -0.32233 0.4 -0.22024 0.4 -0.32941 0.9 c -0.035 0.1 -0.58837 -0.5 -0.98824 -0.7 c -0.56811 -0.3 -0.66807 -0.6 -0.98823 -0.9 c -0.35002 -0.3 -0.34082 -0.5 -0.24706 -0.9 c 0.0745 -0.3 -0.52961 -1.1 -0.57647 -1.2 c -0.11434 -0.3 -0.346 -0.3 -0.57647 -0.3 c -0.28146 0 -0.50015 0 -0.57646 -0.2 c -0.20421 -0.7 -0.955 0 -0.74117 -0.9 c 0.39328 -0.6 -0.41139 -0.7 -0.16471 -1.4 c 0.0744 -0.3 1.01847 -0.2 1.31764 -0.2 c 0.59162 0 0.94372 0.3 1.48235 0.4 c 0.46026 0.1 1.54769 0 1.56469 0 c 0.37089 0.1 0.56398 0.6 0.90589 0.8 c 0.31353 -0.4 0.50971 -0.8 1.15293 -1 c 0.35819 -0.4 0.72752 -0.2 0.82353 -0.6 c 0.11258 -0.5 0.74116 0.1 0.74116 -0.4 c 0.00003 -0.6 -0.0713 -0.7 0.0824 -1.1 c -0.10755 -1.7 0.43743 -1.8 0.1647 -2.3 c -0.34164 -0.3 -0.42587 -0.4 -0.82353 -0.8 c -1.39403 -0.5 -1.40073 -1.7 -2.22352 -1.8 c -0.55847 0.5 -0.92569 1.5 -1.64704 1.4 c -0.54064 0.2 -0.99175 0.3 -1.48236 0.7 c -0.88988 0.1 -1.81397 0 -2.63527 -0.3 c -0.62773 -0.5 -0.74972 -1.4 -1.31766 -2 c -0.6067 -0.2 -1.4202 0 -2.0588 -0.2 c -0.2151 0 -0.10439 -0.7 -1.31764 -0.5 c -0.78487 -0.2 -1.27522 -0.2 -1.97647 0.2 c -0.26274 0.3 -1.14335 -0.4 -1.31764 -0.5 c -0.49422 -0.4 -0.62841 0 -1.07059 -0.5 c -0.27071 -0.3 -0.48182 -1 -0.24705 -1.2 c 0.77746 -0.3 0.81501 -0.9 0.98823 -1.7 c 0.2727 -0.7 -0.57778 -0.8 -0.16471 -1.9 c -0.0881 -0.5 -0.43017 -1.1 -0.90587 -1.5 c -0.34897 -0.5 0.36677 -0.1 0.24705 -1.8 c 0.0431 -0.1 0.71364 -0.5 0.82353 -0.6 c 0.23323 -0.2 -0.0698 -1.1 -0.24706 -1.2 c -0.70818 -0.3 -1.58009 0.2 -2.22352 0.5 c -0.35143 0.6 -1.24614 -0.5 -1.8941 -0.7 c -0.43093 -0.4 -0.49285 0 -0.82353 0.1 c -0.4255 0.1 -0.59868 0.5 -1.23529 0.5 c -0.86455 0 -1.64802 0 -2.96469 -0.1 c -0.23569 -0.1 -0.91518 0.4 -1.07059 0.5 c -0.0401 0 -0.17859 -0.1 -0.24705 -0.1 c -0.25262 -0.1 -0.56604 -0.3 -0.74118 -0.5 c -0.24857 -0.2 0.75572 -0.1 0.65883 -1.1 c -0.0493 -0.5 -0.81212 -0.2 -1.07058 -0.2 c -0.23197 0 -0.53737 -0.4 -0.65882 -0.5 c -0.16405 -0.5 -0.17492 -0.5 -2.14117 -0.7 c -0.447 -0.7 -0.38857 -1.1 -0.0824 -1.9 c 0.11111 -1 -0.98108 -0.6 -1.15294 -1.6 c -0.00001 -0.3 -0.78986 -0.6 -0.98823 -0.8 c -0.77629 -0.6 -0.75874 -0.5 -0.74117 0.4 c -0.19606 0.7 0.18313 1.3 -0.3294 1.8 c -0.3512 0.3 -0.71489 0.5 -0.32942 1.1 c 0.10334 0.1 -0.22993 0.8 -0.57646 0.1 c -0.23212 -0.4 -0.33152 -0.7 -0.65882 -1 c -0.11934 -0.2 0.33104 -0.8 -0.32942 -0.8 c -0.8123 0 -1.17957 -0.1 -1.23528 -0.3 c 0.048 -0.8 -0.62837 -1.2 -1.31765 -1.2 c -0.33501 1 -0.96068 0.1 -1.7294 -0.3 c -0.34704 0.7 -0.27299 1.4 -1.31764 1 c -0.0593 0 -0.36304 -0.9 -0.65881 -0.8 c -0.7551 0.1 -1.52175 0 -1.4 -0.7 c -0.6551 0 -1.7361 -0.3 -2.47058 -0.4 c -0.24485 0 -0.42082 0 -0.57647 0.1 c -0.20755 0 -0.29873 0.2 -0.24705 0.5 c -0.72157 1.3 -1.33962 0.6 -1.81177 1.1 c -0.21286 0.3 -0.70298 0.6 -1.07057 0.8 c -0.36211 0.1 -0.90628 0.1 -1.31765 0.1 c -0.19491 1.4 2.3665 2.7 0.49412 3.4 c 1.25711 0.9 1.61111 4 0.16471 3.9 c -0.4974 0.8 -1.39462 1.6 -1.39999 2.4 c -0.0103 1.6 1.28228 3.1 1.5647 4.9 c 0.52606 1.6 -0.44082 2.9 -0.32942 4.8 c -3.4099 5.9 2.80576 10.3 0.0823 16.9 c -1.88925 2.9 -2.37833 5.9 -4.28232 9 c -0.33898 0.6 -0.70363 1.2 -1.15294 1.8 c -0.10794 1.1 -0.2259 2.2 -0.32941 3.5 c -0.13739 1.7 -0.20656 3.3 -0.32941 4.8 c 0.13157 0.3 -0.56706 1.2 -1.31764 1.5 c -1.18451 0.6 -1.5506 1.7 -1.69616 2.1 c -0.1706 0.3 0.63905 -0.2 0.63905 -0.2 c 0.15811 0 0.29268 0.1 0.45992 0.1 c 0.13986 0.1 0.27076 0.1 0.35667 0.2 c 0.0858 0 0.12624 0.1 0.10324 0.2 c -0.0233 0.1 0.019 0.7 0.11264 1.2 c 0.0468 0.3 0.1005 0.5 0.17834 0.7 c 0.0388 0 0.0844 0.1 0.1314 0.1 c 0.0469 0 0.0952 0 0.15017 0 c 0.14393 -0.2 0.32563 -0.4 0.48808 -0.5 c 0.0813 -0.1 0.16136 -0.1 0.22525 -0.2 c 0.064 0 0.11828 0 0.15019 0.1 c 0.11066 0.2 0.19898 0.4 0.34728 0.5 c 0.14832 0 0.35033 0.1 0.69457 0.1 c 0.2018 0 0.44411 -0.1 0.66641 -0.2 c 0.22229 0 0.42481 -0.1 0.57254 0 c 0.33843 0.1 0.53699 0.2 0.7415 0.3 c 0.10226 0.1 0.21335 0.1 0.33791 0.2 c 0.12456 0 0.26645 0 0.45054 0 c 0.15024 0 0.26895 0 0.36604 0 c 0.0971 -0.1 0.16926 -0.2 0.24404 -0.2 c 0.14953 -0.2 0.29012 -0.4 0.535 -0.4 c 0.37409 -0.1 0.5225 -0.3 0.68518 -0.4 c 0.0813 0 0.1681 0 0.28159 0 c 0.11346 0.1 0.25765 0.2 0.45991 0.4 l -0.18772 3.3 l 0.94799 1.5 c 0.14021 0.1 0.11139 0 0.0844 0 c -0.0269 0 -0.0546 0 0.10325 0.1 c 0.16575 0.2 0.22612 0.3 0.22527 0.4 c -0.00083 0.1 -0.0597 0.2 -0.1314 0.3 c -0.0717 0.1 -0.15018 0.2 -0.19712 0.3 c -0.0469 0 -0.0643 0.1 0.01 0.1 c 0.27209 0.2 0.42857 0.3 0.49747 0.4 c 0.0688 0.1 0.0489 0.1 0 0.1 c -0.049 0 -0.1344 0 -0.21588 0.1 c -0.0816 0 -0.15905 0.1 -0.18773 0.2 c -0.0424 0.1 -0.0915 0.4 -0.21587 0.5 c -0.0623 0.1 -0.14046 0.2 -0.24404 0.2 c -0.10354 0 -0.23528 0 -0.39421 -0.1 c -0.12772 0 -0.23175 -0.1 -0.31912 -0.1 c -0.0874 0 -0.15882 0.1 -0.22527 0.1 c -0.1329 0.2 -0.23782 0.4 -0.4036 0.6 c -0.0762 0.1 -0.21106 0.3 -0.31912 0.5 c -0.10808 0.2 -0.19154 0.4 -0.15956 0.6 c 0.0543 0.3 0.17759 0.5 0.2722 0.6 c 0.0946 0.2 0.15487 0.4 0.10324 0.6 c -0.0353 0.1 -0.16664 0.3 -0.22528 0.6 c -0.0294 0.1 -0.0402 0.2 -0.01 0.2 c 0.0308 0.1 0.0998 0.2 0.23466 0.2 c 0.10075 0 0.41008 0.2 0.69456 0.3 c 0.14225 0.1 0.28444 0.2 0.38483 0.3 c 0.10038 0.1 0.15955 0.2 0.15955 0.3 c 0 0.1 0.0339 0.2 0.0844 0.3 c 0.0507 0.1 0.12315 0.2 0.20649 0.2 c 0.1667 0.2 0.38175 0.2 0.57255 0.4 c 0.24814 0.2 0.38841 0.3 0.4693 0.4 c 0.081 0.1 0.10325 0.2 0.10325 0.5 c 0 0.3 0.14105 0.6 0.2722 0.8 c 0.13111 0.2 0.24518 0.3 0.1971 0.3 c -0.12705 0 -0.24839 0 -0.37544 -0.1 v 4.1 c 0.11116 0.1 0.21156 0.2 0.31913 0.3 c 0.10756 0.1 0.22171 0.1 0.34727 0.1 c 0.19088 0.1 0.42534 0.2 0.68517 0.3 c 0.25987 0 0.54106 0 0.83538 0 c 0.29884 -0.1 0.44774 -0.2 0.6007 -0.3 c 0.15296 0 0.31024 -0.1 0.63826 -0.1 c 0.30759 0 0.47516 0 0.51623 0.1 c 0.041 0.1 -0.0392 0.3 -0.22527 0.5 c -0.28328 0.2 -0.38068 0.6 -0.66641 0.9 c -0.27308 0.2 -0.35372 0.3 -0.30036 0.4 c 0.0534 0 0.23787 0 0.48809 0.1 c 0.30165 0.2 0.50032 0.3 0.70395 0.4 c 0.20361 0 0.40956 0 0.72272 -0.2 c 0.19964 -0.1 0.3652 -0.2 0.55378 -0.3 c 0.0943 0 0.1981 -0.1 0.30973 -0.1 c 0.11162 0 0.23305 0.1 0.37544 0.1 c 0.17283 0.1 0.4082 0.3 0.63825 0.4 c 0.11503 0 0.23511 0.1 0.33791 0.1 c 0.10279 0 0.18994 -0.1 0.26282 -0.2 c 0.13498 -0.1 0.32626 -0.4 0.50684 -0.5 c 0.0202 0 0.0369 0 0.0563 0" stroke-linecap="round" />
</g>
</svg>