<?xml version="1.0" encoding="utf-8"?>
<svg viewBox="311.4424 3.6762 24.3044 19.03" xmlns="http://www.w3.org/2000/svg">
  <path d="M 21.735 27.472 C 21.925 27.392 21.975 27.522 21.975 27.392 C 21.975 27.362 21.945 27.322 21.925 27.272 C 21.885 27.202 21.815 27.132 21.785 27.132 C 21.745 27.132 21.605 26.862 21.565 26.712 C 21.545 26.642 21.645 26.582 21.595 26.542 C 21.525 26.492 21.375 26.522 21.395 26.452 C 21.405 26.412 21.385 26.212 21.355 26.112 C 21.325 26.022 21.365 25.962 21.355 25.912 C 21.325 25.762 21.035 25.402 20.885 25.322 C 20.815 25.292 20.505 25.162 20.445 25.122 C 20.445 25.122 20.405 25.112 20.405 25.112 C 20.405 25.072 20.505 25.022 20.645 24.982 C 20.745 24.962 20.895 24.932 20.935 24.972 C 21.045 25.072 21.235 25.172 21.415 25.092 C 21.495 25.052 21.555 24.982 21.625 24.972 C 21.765 24.942 21.815 25.052 21.995 24.692 C 22.045 24.582 22.055 24.502 22.055 24.432 C 22.045 24.402 22.035 24.372 22.025 24.342 C 21.965 24.192 22.075 24.332 21.785 24.332 C 21.575 24.332 21.395 24.252 21.365 24.182 C 21.335 24.122 21.335 24.022 21.415 23.852 C 21.465 23.742 21.525 23.532 21.545 23.512 C 21.605 23.452 21.655 23.452 21.595 23.332 C 21.535 23.212 21.445 23.162 21.255 23.172 C 21.125 23.182 21.025 23.132 21.015 23.042 C 21.015 23.002 21.005 22.762 21.065 22.692 C 21.305 22.712 21.185 22.752 21.405 22.542 C 21.625 22.322 21.375 21.952 21.625 21.572 C 21.695 21.412 21.655 21.462 21.655 21.032 L 21.625 20.472 C 21.815 20.532 21.955 20.322 22.025 20.522 C 22.115 20.842 22.105 21.052 22.385 20.902 C 22.465 20.862 22.545 20.802 22.625 20.752 C 22.715 20.712 22.885 20.642 22.905 20.622 C 23.035 20.452 22.965 20.332 22.725 20.122 C 22.585 20.002 22.525 19.712 22.505 19.602 C 22.495 19.522 22.355 19.462 22.335 19.432 C 22.285 19.392 22.415 19.352 22.435 19.192 C 22.455 19.072 22.405 18.922 22.375 18.802 C 22.355 18.672 22.345 18.582 22.375 18.472 C 22.405 18.372 22.435 18.282 22.425 18.182 C 22.415 18.062 22.335 17.952 22.355 17.912 C 22.375 17.822 22.445 17.782 22.515 17.732 C 22.455 17.572 22.455 17.292 22.585 17.282 L 22.625 17.222 C 22.575 17.152 22.475 17.082 22.395 17.042 C 22.325 16.962 22.245 16.932 22.135 16.922 C 22.065 16.922 22.055 16.832 22.045 16.772 C 22.025 16.722 22.015 16.662 22.045 16.612 C 22.075 16.542 22.085 16.552 22.025 16.522 C 21.985 16.502 21.985 16.412 22.005 16.402 C 21.985 16.312 22.015 16.332 22.015 16.242 C 22.025 16.202 22.015 16.062 22.025 16.022 C 22.005 15.942 21.965 15.932 21.995 15.842 C 21.995 15.802 21.995 15.692 22.005 15.662 C 22.035 15.602 21.935 15.552 21.905 15.542 C 21.815 15.502 21.765 15.422 21.675 15.382 C 21.635 15.372 21.575 15.382 21.535 15.382 C 21.445 15.392 21.395 15.312 21.325 15.252 C 21.305 15.232 21.315 15.312 21.285 15.322 C 21.225 15.332 21.165 15.292 21.165 15.372 C 21.125 15.422 21.065 15.472 21.005 15.522 C 20.835 15.572 21.045 15.652 20.895 15.812 C 20.865 15.852 20.835 15.892 20.835 15.952 C 20.835 15.982 20.705 15.932 20.695 15.932 C 20.665 15.912 20.605 15.962 20.565 15.962 C 20.465 15.962 20.415 16.042 20.375 16.112 C 20.315 16.192 20.315 16.222 20.295 16.312 C 20.295 16.342 20.285 16.472 20.285 16.502 C 20.245 16.582 20.165 16.662 20.075 16.692 C 19.965 16.702 19.965 16.812 19.905 16.882 C 19.805 16.942 19.725 16.892 19.645 16.822 C 19.605 16.792 19.535 16.782 19.525 16.732 C 19.515 16.692 19.415 16.612 19.385 16.572 C 19.315 16.542 19.305 16.642 19.225 16.672 C 19.205 16.772 19.175 16.832 19.095 16.902 C 19.025 16.972 19.045 17.062 19.045 17.142 C 19.035 17.212 18.935 17.222 18.875 17.252 C 18.815 17.332 18.865 17.452 18.825 17.532 C 18.735 17.682 18.795 17.782 18.705 17.912 C 18.685 17.962 18.645 17.982 18.635 18.042 C 18.615 18.112 18.645 18.142 18.605 18.182 C 18.535 18.242 18.465 18.212 18.395 18.182 C 18.385 18.172 18.445 18.092 18.395 18.062 C 18.365 18.052 18.385 17.982 18.365 17.962 C 18.305 17.892 18.335 17.782 18.255 17.732 C 18.165 17.732 18.035 17.732 18.015 17.692 C 17.915 17.692 17.805 17.702 17.705 17.702 C 17.635 17.662 17.585 17.582 17.545 17.512 C 17.495 17.472 17.485 17.452 17.445 17.422 C 17.435 17.422 17.455 17.262 17.455 17.252 C 17.385 17.092 17.245 17.062 17.255 16.872 C 17.275 16.792 17.165 16.812 17.185 16.742 C 17.125 16.562 17.225 16.592 17.165 16.532 C 17.115 16.492 17.075 16.462 17.045 16.432 C 16.995 16.332 16.905 16.282 16.825 16.212 C 16.805 16.182 16.775 16.142 16.735 16.142 C 16.625 16.122 16.585 16.162 16.575 16.202 C 16.565 16.242 16.505 16.272 16.335 16.272 C 16.285 16.222 16.255 16.172 16.185 16.132 C 16.155 16.082 16.045 16.102 15.995 16.102 C 15.925 16.102 15.855 16.042 15.795 16.022 C 15.695 16.022 15.605 16.012 15.515 16.022 C 15.405 16.072 15.395 16.002 15.385 15.952 C 15.305 15.882 15.215 15.862 15.135 15.792 C 15.095 15.762 15.075 15.782 15.015 15.762 C 14.955 15.752 14.935 15.672 14.865 15.692 C 14.805 15.702 14.775 15.592 14.765 15.562 C 14.755 15.552 14.735 15.562 14.735 15.552 C 14.625 15.482 14.485 15.532 14.365 15.512 C 14.255 15.462 14.215 15.492 14.175 15.462 C 14.045 15.402 13.935 15.322 13.815 15.242 C 13.695 15.102 13.475 15.102 13.415 14.892 C 13.395 14.872 13.285 14.862 13.245 14.862 C 13.185 14.862 13.185 14.842 13.115 14.842 C 13.055 14.842 13.015 14.802 12.995 14.762 C 12.975 14.732 12.995 14.642 12.915 14.612 C 12.875 14.552 12.775 14.532 12.825 14.442 C 12.795 14.422 12.745 14.432 12.725 14.402 C 12.675 14.352 12.585 14.342 12.565 14.282 C 12.555 14.222 12.595 14.132 12.565 14.122 C 12.525 14.112 12.405 14.082 12.415 14.012 C 12.415 13.992 12.375 13.922 12.365 13.892 C 12.315 13.832 12.235 13.792 12.155 13.782 C 12.105 13.782 12.085 13.742 12.045 13.732 C 11.965 13.672 11.905 13.742 11.825 13.762 C 11.775 13.722 11.815 13.672 11.755 13.652 C 11.705 13.652 11.605 13.652 11.555 13.662 C 11.495 13.672 11.575 13.702 11.615 13.732 C 11.635 13.792 11.525 13.792 11.465 13.822 C 11.345 13.782 11.275 13.892 11.165 13.912 C 11.055 14.022 11.055 14.052 10.945 13.912 C 10.865 13.852 10.775 13.872 10.695 13.832 C 10.515 13.672 10.625 14.062 10.495 13.752 C 10.485 13.712 10.475 13.722 10.385 13.722 C 10.235 13.772 10.425 14.032 10.165 13.812 C 10.125 13.742 10.065 13.772 10.145 13.692 C 10.175 13.662 10.175 13.582 10.175 13.572 C 10.175 13.522 10.055 13.622 9.995 13.622 C 9.945 13.572 9.935 13.452 9.915 13.382 C 9.915 13.312 9.885 13.302 9.865 13.262 C 9.845 13.222 9.925 13.232 9.965 13.192 C 10.005 13.112 9.935 13.032 9.855 13.002 C 9.785 13.002 9.775 13.072 9.705 13.022 C 9.685 13.002 9.695 12.932 9.695 12.892 C 9.695 12.842 9.645 12.812 9.615 12.792 C 9.565 12.762 9.495 12.732 9.515 12.682 C 9.565 12.592 9.515 12.542 9.375 12.582 C 9.325 12.592 9.395 12.492 9.365 12.452 C 9.325 12.422 9.235 12.472 9.215 12.432 C 9.185 12.372 9.185 12.372 9.135 12.292 C 9.105 12.232 9.115 12.232 9.045 12.252 C 9.005 12.262 8.935 12.252 8.935 12.252 C 8.855 12.232 8.925 12.182 8.945 12.162 C 8.915 12.092 8.855 12.052 8.825 11.992 C 8.825 11.892 8.955 11.882 8.835 11.802 C 8.825 11.802 8.765 11.832 8.715 11.802 C 8.665 11.782 8.655 11.892 8.625 11.902 C 8.575 11.922 8.585 11.982 8.525 11.922 C 8.475 11.872 8.525 11.882 8.525 11.822 C 8.515 11.822 8.435 11.822 8.425 11.812 C 8.375 11.802 8.375 11.882 8.375 11.902 C 8.395 11.952 8.455 11.982 8.485 12.012 C 8.515 12.042 8.525 12.082 8.535 12.112 C 8.575 12.222 8.555 12.292 8.495 12.382 C 8.465 12.442 8.505 12.542 8.435 12.522 C 8.385 12.502 8.375 12.582 8.395 12.642 C 8.405 12.672 8.315 12.672 8.295 12.682 C 8.255 12.712 8.285 12.782 8.265 12.822 C 8.235 12.862 8.175 12.822 8.185 12.882 C 8.195 12.912 8.175 12.992 8.185 13.032 C 8.185 13.122 8.125 13.112 8.145 13.212 C 8.165 13.262 8.205 13.282 8.205 13.332 C 8.205 13.372 8.135 13.372 8.105 13.382 C 8.065 13.392 8.085 13.462 8.105 13.472 C 8.175 13.522 8.155 13.522 8.085 13.572 C 8.065 13.592 8.065 13.612 8.065 13.642 C 8.065 13.662 8.065 13.682 8.055 13.712 C 8.055 13.732 7.965 13.732 7.945 13.742 C 7.895 13.782 7.865 13.712 7.865 13.662 C 7.865 13.612 7.815 13.572 7.775 13.562 C 7.715 13.552 7.635 13.522 7.645 13.502 C 7.665 13.462 7.545 13.452 7.475 13.452 C 7.415 13.452 7.495 13.332 7.355 13.352 C 7.305 13.352 7.325 13.262 7.175 13.272 C 7.135 13.272 7.095 13.162 7.075 13.202 C 7.055 13.242 7.085 13.332 6.985 13.292 C 6.945 13.272 6.975 13.202 6.985 13.172 C 7.005 13.142 6.795 13.152 6.785 13.152 C 6.735 13.152 6.775 13.272 6.745 13.242 C 6.745 13.242 6.675 13.232 6.695 13.332 C 6.705 13.362 6.655 13.392 6.635 13.422 C 6.625 13.452 6.605 13.532 6.575 13.542 C 6.545 13.552 6.545 13.682 6.515 13.702 C 6.425 13.742 6.455 13.802 6.435 13.832 C 6.395 13.892 6.395 13.902 6.345 13.952 C 6.325 13.972 6.335 14.032 6.335 14.062 C 6.325 14.082 6.305 14.092 6.285 14.082 C 6.245 14.072 6.195 14.042 6.175 14.022 C 6.145 13.992 6.165 13.932 6.135 13.912 C 6.105 13.882 6.015 13.912 5.995 13.862 C 5.975 13.832 5.925 13.722 5.895 13.712 C 5.845 13.682 5.865 13.622 5.805 13.612 C 5.785 13.602 5.685 13.612 5.645 13.612 C 5.605 13.612 5.585 13.642 5.545 13.642 C 5.495 13.652 5.455 13.672 5.425 13.712 C 5.375 13.752 5.325 13.712 5.305 13.782 C 5.295 13.842 5.235 13.822 5.205 13.852 C 5.175 13.882 5.155 13.902 5.135 13.922 C 5.095 13.972 5.105 13.972 5.095 14.022 C 5.085 14.042 5.025 13.972 4.975 13.952 C 4.915 13.912 4.895 13.882 4.865 13.842 C 4.825 13.802 4.825 13.792 4.835 13.742 C 4.845 13.702 4.775 13.602 4.765 13.592 C 4.755 13.562 4.725 13.562 4.695 13.562 C 4.665 13.562 4.635 13.562 4.635 13.532 C 4.605 13.452 4.515 13.542 4.545 13.442 C 4.585 13.362 4.495 13.352 4.525 13.262 C 4.535 13.232 4.645 13.242 4.675 13.242 C 4.745 13.242 4.785 13.282 4.855 13.292 C 4.905 13.302 5.035 13.292 5.035 13.292 C 5.075 13.302 5.105 13.362 5.145 13.382 C 5.175 13.332 5.205 13.292 5.275 13.262 C 5.315 13.222 5.365 13.242 5.375 13.192 C 5.385 13.142 5.465 13.212 5.465 13.152 C 5.465 13.082 5.455 13.072 5.475 13.022 C 5.455 12.822 5.525 12.812 5.495 12.752 C 5.455 12.712 5.445 12.702 5.395 12.652 C 5.235 12.592 5.225 12.462 5.135 12.452 C 5.065 12.512 5.025 12.622 4.935 12.612 C 4.875 12.632 4.825 12.652 4.765 12.692 C 4.665 12.712 4.555 12.692 4.455 12.652 C 4.385 12.592 4.365 12.502 4.305 12.422 C 4.235 12.402 4.135 12.422 4.065 12.402 C 4.035 12.392 4.045 12.312 3.905 12.342 C 3.815 12.322 3.755 12.312 3.675 12.362 C 3.645 12.392 3.545 12.322 3.525 12.312 C 3.465 12.262 3.445 12.302 3.395 12.252 C 3.365 12.222 3.335 12.132 3.365 12.102 C 3.455 12.072 3.465 12.002 3.485 11.912 C 3.515 11.832 3.415 11.812 3.465 11.692 C 3.455 11.622 3.415 11.562 3.355 11.502 C 3.315 11.452 3.395 11.492 3.385 11.292 C 3.395 11.282 3.465 11.242 3.485 11.222 C 3.505 11.202 3.475 11.102 3.455 11.082 C 3.365 11.052 3.265 11.112 3.195 11.152 C 3.155 11.212 3.045 11.092 2.965 11.062 C 2.915 11.012 2.915 11.062 2.875 11.072 C 2.825 11.082 2.805 11.132 2.725 11.132 C 2.625 11.132 2.535 11.132 2.385 11.122 C 2.355 11.112 2.275 11.162 2.255 11.182 C 2.255 11.182 2.235 11.172 2.225 11.172 C 2.195 11.162 2.155 11.132 2.135 11.112 C 2.115 11.082 2.225 11.102 2.215 10.982 C 2.215 10.922 2.125 10.952 2.095 10.952 C 2.065 10.952 2.025 10.912 2.015 10.902 C 1.995 10.842 1.995 10.842 1.765 10.822 C 1.715 10.742 1.715 10.692 1.755 10.602 C 1.765 10.482 1.635 10.522 1.615 10.402 C 1.615 10.372 1.525 10.342 1.505 10.322 C 1.415 10.242 1.415 10.252 1.415 10.362 C 1.395 10.432 1.435 10.512 1.375 10.572 C 1.335 10.612 1.295 10.632 1.335 10.692 C 1.345 10.712 1.315 10.792 1.265 10.712 C 1.245 10.662 1.235 10.632 1.195 10.592 C 1.175 10.572 1.235 10.502 1.155 10.502 C 1.055 10.502 1.015 10.492 1.005 10.462 C 1.015 10.372 0.935 10.322 0.855 10.332 C 0.815 10.442 0.745 10.332 0.655 10.292 C 0.615 10.372 0.615 10.452 0.495 10.402 C 0.495 10.402 0.455 10.302 0.425 10.312 C 0.335 10.332 0.245 10.312 0.255 10.232 C 0.175 10.232 0.055 10.192 -0.035 10.182 C -0.065 10.182 -0.085 10.182 -0.105 10.192 C -0.125 10.202 -0.135 10.222 -0.135 10.252 C -0.215 10.402 -0.285 10.332 -0.345 10.382 C -0.365 10.422 -0.425 10.452 -0.465 10.472 C -0.515 10.492 -0.575 10.492 -0.625 10.492 C -0.645 10.652 -0.345 10.802 -0.565 10.892 C -0.415 10.992 -0.375 11.352 -0.545 11.342 C -0.605 11.442 -0.705 11.542 -0.715 11.632 C -0.715 11.812 -0.555 11.992 -0.525 12.202 C -0.465 12.392 -0.575 12.542 -0.565 12.762 C -0.965 13.452 -0.235 13.972 -0.555 14.742 C -0.775 15.092 -0.835 15.432 -1.055 15.802 C -1.095 15.872 -1.145 15.942 -1.195 16.002 C -1.205 16.132 -1.215 16.272 -1.235 16.422 C -1.245 16.612 -1.255 16.812 -1.265 16.982 C -1.255 17.012 -1.335 17.132 -1.335 17.132 L -1.325 17.152 C -1.325 17.152 -1.145 17.102 -1.125 17.112 C -1.105 17.112 -1.095 17.122 -1.085 17.132 C -1.075 17.132 -1.075 17.142 -1.075 17.162 C -1.075 17.172 -1.075 17.242 -1.065 17.312 C -1.055 17.342 -1.045 17.372 -1.035 17.382 C -1.035 17.392 -1.025 17.402 -1.025 17.402 C -1.015 17.402 -1.015 17.402 -1.005 17.402 C -0.995 17.382 -0.975 17.352 -0.955 17.342 C -0.945 17.332 -0.935 17.322 -0.925 17.322 C -0.915 17.322 -0.915 17.322 -0.905 17.332 C -0.895 17.352 -0.885 17.372 -0.865 17.382 C -0.855 17.392 -0.825 17.392 -0.785 17.392 C -0.765 17.392 -0.735 17.392 -0.715 17.382 C -0.685 17.372 -0.665 17.372 -0.645 17.372 C -0.605 17.382 -0.585 17.402 -0.565 17.412 C -0.545 17.422 -0.535 17.432 -0.525 17.432 C -0.505 17.442 -0.495 17.442 -0.475 17.442 C -0.455 17.442 -0.445 17.442 -0.425 17.432 C -0.415 17.432 -0.405 17.412 -0.405 17.412 C -0.385 17.392 -0.365 17.372 -0.335 17.362 C -0.295 17.352 -0.275 17.332 -0.265 17.322 C -0.255 17.312 -0.245 17.312 -0.225 17.322 C -0.215 17.322 -0.195 17.342 -0.175 17.362 L -0.195 17.772 L -0.085 17.952 L -0.075 17.952 L -0.065 17.962 C -0.065 17.962 -0.045 18.002 -0.045 18.022 C -0.045 18.032 -0.045 18.042 -0.055 18.052 C -0.065 18.062 -0.075 18.072 -0.075 18.082 C -0.085 18.092 -0.085 18.092 -0.075 18.102 C -0.045 18.132 -0.025 18.142 -0.025 18.152 C -0.015 18.162 -0.015 18.162 -0.025 18.162 C -0.025 18.172 -0.035 18.172 -0.045 18.172 C -0.055 18.172 -0.065 18.182 -0.065 18.192 C -0.075 18.212 -0.075 18.242 -0.095 18.262 C -0.095 18.272 -0.105 18.282 -0.115 18.282 C -0.135 18.282 -0.145 18.282 -0.165 18.272 C -0.175 18.262 -0.195 18.262 -0.205 18.262 C -0.215 18.262 -0.215 18.272 -0.225 18.272 C -0.245 18.292 -0.255 18.312 -0.275 18.342 C -0.285 18.352 -0.295 18.382 -0.315 18.402 C -0.325 18.432 -0.335 18.462 -0.325 18.482 C -0.325 18.512 -0.305 18.532 -0.295 18.562 C -0.285 18.582 -0.275 18.602 -0.285 18.622 C -0.285 18.642 -0.305 18.672 -0.315 18.692 C -0.315 18.712 -0.315 18.722 -0.315 18.732 C -0.305 18.742 -0.305 18.752 -0.285 18.752 C -0.275 18.752 -0.235 18.772 -0.205 18.792 C -0.185 18.802 -0.175 18.812 -0.165 18.822 C -0.145 18.832 -0.145 18.842 -0.145 18.852 C -0.145 18.872 -0.135 18.882 -0.135 18.902 C -0.125 18.912 -0.115 18.922 -0.105 18.922 C -0.095 18.942 -0.065 18.952 -0.045 18.972 C -0.015 18.992 0.005 19.002 0.015 19.022 C 0.015 19.032 0.025 19.052 0.025 19.082 C 0.025 19.112 0.035 19.152 0.055 19.172 C 0.065 19.202 0.085 19.222 0.075 19.222 C 0.065 19.212 0.045 19.212 0.035 19.212 L 0.035 19.712 C 0.045 19.712 0.055 19.732 0.065 19.742 C 0.085 19.752 0.095 19.762 0.105 19.752 C 0.135 19.772 0.155 19.782 0.185 19.792 C 0.215 19.792 0.245 19.792 0.285 19.792 C 0.315 19.782 0.335 19.772 0.355 19.762 C 0.365 19.752 0.385 19.742 0.425 19.742 C 0.465 19.742 0.485 19.752 0.485 19.762 C 0.485 19.772 0.475 19.792 0.455 19.812 C 0.425 19.842 0.415 19.892 0.385 19.922 C 0.355 19.962 0.345 19.962 0.345 19.972 C 0.355 19.982 0.375 19.982 0.405 19.992 C 0.435 20.012 0.465 20.022 0.485 20.032 C 0.505 20.042 0.535 20.032 0.565 20.012 C 0.595 20.002 0.605 19.992 0.635 19.982 C 0.645 19.972 0.655 19.972 0.665 19.972 C 0.675 19.972 0.695 19.972 0.705 19.982 C 0.725 19.992 0.755 20.012 0.785 20.022 C 0.795 20.032 0.815 20.032 0.825 20.032 C 0.835 20.032 0.845 20.032 0.855 20.012 C 0.865 19.992 0.885 19.962 0.915 19.952 C 0.915 19.952 0.915 19.952 0.915 19.952 C 0.925 19.952 0.935 19.952 0.935 19.952 C 0.945 19.962 0.955 19.972 0.965 20.002 C 0.965 20.032 0.975 20.062 0.975 20.092 C 0.975 20.132 0.975 20.152 0.965 20.172 C 0.945 20.202 0.925 20.232 0.915 20.262 C 0.915 20.282 0.905 20.292 0.905 20.302 C 0.905 20.312 0.905 20.332 0.915 20.332 C 0.955 20.372 0.975 20.412 1.005 20.452 C 1.025 20.472 1.035 20.492 1.055 20.512 C 1.065 20.522 1.075 20.522 1.085 20.532 C 1.095 20.532 1.105 20.532 1.125 20.532 C 1.165 20.522 1.205 20.502 1.245 20.492 C 1.275 20.482 1.315 20.472 1.345 20.472 C 1.375 20.472 1.405 20.472 1.435 20.472 C 1.455 20.472 1.465 20.472 1.485 20.472 C 1.495 20.482 1.505 20.482 1.515 20.492 C 1.535 20.512 1.565 20.532 1.585 20.552 C 1.605 20.572 1.625 20.602 1.635 20.622 C 1.645 20.642 1.655 20.662 1.675 20.672 C 1.685 20.682 1.695 20.692 1.705 20.702 C 1.735 20.712 1.765 20.712 1.815 20.712 C 1.825 20.712 1.855 20.702 1.895 20.702 C 1.905 20.702 1.925 20.702 1.935 20.712 C 1.945 20.712 1.945 20.722 1.945 20.732 C 1.945 20.752 1.945 20.762 1.945 20.772 C 1.945 20.782 1.955 20.802 1.965 20.812 C 1.975 20.832 2.005 20.862 2.025 20.882 C 2.025 20.892 2.055 20.922 2.075 20.942 C 2.095 20.972 2.125 20.992 2.145 20.992 C 2.175 20.992 2.205 20.992 2.225 21.002 C 2.255 21.002 2.275 21.012 2.305 21.032 C 2.335 21.042 2.355 21.052 2.375 21.062 C 2.385 21.062 2.395 21.072 2.395 21.082 C 2.405 21.092 2.405 21.112 2.405 21.132 C 2.405 21.172 2.405 21.202 2.415 21.232 C 2.435 21.252 2.445 21.272 2.485 21.302 C 2.495 21.322 2.505 21.352 2.505 21.382 C 2.515 21.412 2.515 21.442 2.525 21.452 C 2.535 21.462 2.545 21.472 2.555 21.482 C 2.585 21.502 2.605 21.522 2.615 21.542 C 2.625 21.562 2.635 21.582 2.635 21.622 C 2.635 21.652 2.635 21.702 2.645 21.742 C 2.645 21.752 2.655 21.752 2.655 21.762 C 2.655 21.772 2.655 21.782 2.655 21.782 C 2.665 21.792 2.675 21.792 2.675 21.782 C 2.685 21.772 2.715 21.752 2.755 21.742 C 2.775 21.742 2.785 21.742 2.795 21.742 C 2.805 21.742 2.815 21.752 2.805 21.772 C 2.805 21.782 2.775 21.812 2.745 21.832 C 2.735 21.842 2.715 21.862 2.705 21.872 C 2.695 21.882 2.695 21.902 2.695 21.902 C 2.705 21.922 2.715 21.932 2.725 21.932 C 2.745 21.942 2.765 21.942 2.775 21.942 C 2.795 21.942 2.815 21.952 2.825 21.952 C 2.835 21.962 2.835 21.962 2.825 21.972 C 2.815 21.992 2.805 22.002 2.795 22.022 C 2.775 22.042 2.765 22.062 2.765 22.092 C 2.755 22.142 2.725 22.192 2.695 22.232 C 2.685 22.262 2.655 22.282 2.635 22.302 C 2.625 22.312 2.615 22.322 2.615 22.332 C 2.615 22.342 2.615 22.352 2.615 22.362 C 2.625 22.372 2.625 22.382 2.645 22.392 C 2.665 22.412 2.675 22.432 2.695 22.462 C 2.705 22.482 2.715 22.512 2.715 22.542 C 2.715 22.562 2.725 22.602 2.725 22.642 C 2.735 22.682 2.745 22.712 2.755 22.722 C 2.775 22.752 2.785 22.762 2.805 22.782 C 2.815 22.802 2.815 22.822 2.805 22.862 C 2.795 22.922 2.785 22.952 2.775 23.012 C 2.765 23.042 2.755 23.072 2.755 23.082 C 2.755 23.092 2.755 23.102 2.765 23.112 C 2.775 23.112 2.785 23.122 2.805 23.122 C 2.825 23.132 2.845 23.132 2.855 23.142 C 2.865 23.152 2.875 23.162 2.875 23.172 C 2.895 23.192 2.905 23.212 2.925 23.252 C 2.935 23.262 2.955 23.282 2.965 23.282 C 2.975 23.292 2.995 23.302 3.005 23.302 C 3.035 23.312 3.055 23.322 3.075 23.342 C 3.115 23.382 3.165 23.412 3.215 23.432 C 3.235 23.442 3.255 23.472 3.275 23.492 C 3.285 23.502 3.295 23.512 3.305 23.522 C 3.315 23.532 3.325 23.532 3.345 23.532 C 3.365 23.532 3.405 23.542 3.435 23.562 C 3.445 23.562 3.455 23.572 3.455 23.582 C 3.455 23.592 3.455 23.602 3.425 23.612 C 3.415 23.622 3.385 23.632 3.365 23.632 C 3.335 23.642 3.305 23.642 3.275 23.642 C 3.225 23.642 3.205 23.642 3.185 23.652 C 3.175 23.662 3.165 23.682 3.155 23.722 C 3.155 23.732 3.145 23.742 3.135 23.752 C 3.125 23.762 3.105 23.772 3.095 23.782 C 3.085 23.792 3.075 23.802 3.065 23.812 C 3.055 23.822 3.055 23.832 3.055 23.842 C 3.065 23.872 3.075 23.902 3.085 23.922 C 3.095 23.952 3.115 23.982 3.135 24.002 C 3.165 24.032 3.175 24.052 3.185 24.072 C 3.195 24.092 3.205 24.122 3.205 24.152 C 3.205 24.192 3.185 24.202 3.175 24.222 C 3.165 24.242 3.155 24.252 3.145 24.272 C 3.145 24.292 3.135 24.302 3.135 24.312 C 3.125 24.322 3.115 24.332 3.105 24.332 C 3.085 24.342 3.065 24.342 3.025 24.342 L 2.855 24.342 C 2.825 24.342 2.795 24.342 2.765 24.352 C 2.735 24.352 2.715 24.352 2.685 24.342 C 2.655 24.332 2.625 24.312 2.605 24.302 C 2.585 24.292 2.575 24.282 2.555 24.272 C 2.535 24.272 2.525 24.262 2.505 24.262 C 2.475 24.262 2.445 24.262 2.415 24.272 C 2.385 24.272 2.365 24.272 2.335 24.262 C 2.315 24.262 2.255 24.182 2.245 24.182 C 2.235 24.192 2.205 24.202 2.185 24.222 C 2.155 24.242 2.125 24.262 2.115 24.282 C 2.115 24.302 2.095 24.312 2.085 24.312 C 2.075 24.322 2.055 24.322 2.035 24.332 C 2.025 24.332 2.005 24.342 1.995 24.352 C 1.985 24.352 1.985 24.362 1.985 24.382 C 1.995 24.402 2.015 24.432 2.035 24.462 C 2.045 24.472 2.055 24.492 2.055 24.502 C 2.065 24.522 2.065 24.532 2.065 24.552 C 2.055 24.562 2.045 24.572 2.035 24.582 C 2.025 24.592 2.015 24.602 1.995 24.602 C 1.985 24.612 1.975 24.622 1.965 24.632 C 1.955 24.632 1.955 24.642 1.965 24.652 C 1.975 24.662 1.995 24.682 2.015 24.702 C 2.025 24.722 2.035 24.742 2.045 24.762 C 2.075 24.762 2.095 24.762 2.145 24.762 C 2.225 24.772 2.315 24.782 2.385 24.802 C 2.455 24.822 2.525 24.822 2.605 24.822 C 2.675 24.832 2.755 24.832 2.825 24.852 C 2.915 24.872 2.955 24.902 3.005 24.912 C 3.025 24.912 3.035 24.912 3.055 24.902 C 3.085 24.892 3.105 24.882 3.135 24.852 C 3.145 24.832 3.155 24.832 3.165 24.822 C 3.185 24.812 3.195 24.812 3.205 24.812 C 3.235 24.812 3.265 24.822 3.285 24.832 C 3.335 24.862 3.375 24.902 3.385 24.922 C 3.405 24.942 3.425 24.942 3.445 24.942 C 3.475 24.942 3.495 24.942 3.525 24.932 C 3.545 24.922 3.575 24.922 3.605 24.912 C 3.625 24.912 3.655 24.912 3.675 24.922 C 3.685 24.932 3.695 24.942 3.705 24.952 C 3.715 24.962 3.715 24.972 3.725 24.982 C 3.735 25.012 3.735 25.032 3.735 25.042 C 3.735 25.052 3.735 25.062 3.735 25.062 C 3.735 25.062 3.745 25.062 3.745 25.052 C 3.755 25.042 3.775 25.022 3.815 24.972 C 3.835 24.932 3.855 24.892 3.875 24.852 C 3.885 24.802 3.895 24.762 3.905 24.702 C 3.915 24.672 3.915 24.652 3.905 24.632 C 3.895 24.602 3.885 24.592 3.885 24.572 C 3.875 24.552 3.865 24.542 3.875 24.512 C 3.875 24.492 3.885 24.472 3.905 24.432 C 3.945 24.372 3.965 24.352 4.005 24.312 L 4.235 24.312 L 4.375 24.602 L 4.515 24.432 L 4.685 24.582 L 4.475 24.752 L 4.515 24.872 L 4.615 24.752 L 4.985 24.822 L 5.005 24.952 L 5.125 24.902 L 5.155 24.702 C 5.185 24.692 5.215 24.672 5.245 24.652 C 5.305 24.622 5.335 24.612 5.365 24.552 C 5.405 24.542 5.435 24.552 5.475 24.572 C 5.525 24.602 5.565 24.632 5.605 24.672 C 5.625 24.692 5.635 24.712 5.655 24.732 C 5.665 24.752 5.665 24.782 5.665 24.802 C 5.665 24.852 5.675 24.882 5.685 24.902 C 5.695 24.922 5.705 24.932 5.725 24.932 C 5.735 24.942 5.755 24.952 5.765 24.972 C 5.785 24.992 5.795 25.022 5.805 25.072 C 5.825 25.122 5.845 25.182 5.875 25.222 C 5.895 25.272 5.925 25.322 5.945 25.362 C 5.965 25.392 5.985 25.412 5.995 25.432 C 6.015 25.442 6.035 25.462 6.055 25.472 C 6.075 25.492 6.095 25.502 6.115 25.532 C 6.135 25.552 6.145 25.582 6.165 25.632 C 6.175 25.672 6.185 25.702 6.205 25.712 C 6.215 25.722 6.245 25.732 6.265 25.732 C 6.315 25.732 6.385 25.702 6.465 25.702 C 6.485 25.702 6.505 25.712 6.535 25.722 C 6.555 25.732 6.575 25.752 6.605 25.762 C 6.635 25.782 6.665 25.802 6.695 25.812 C 6.725 25.832 6.755 25.842 6.795 25.852 C 6.915 25.882 7.025 25.892 7.145 25.922 C 7.195 25.942 7.255 25.962 7.315 26.002 C 7.375 26.032 7.435 26.062 7.475 26.092 C 7.525 26.132 7.565 26.182 7.615 26.212 C 7.655 26.252 7.705 26.292 7.755 26.322 C 7.785 26.332 7.805 26.342 7.835 26.342 C 7.855 26.352 7.885 26.352 7.905 26.362 L 7.925 26.362 C 7.925 26.382 7.925 26.392 7.925 26.412 C 7.925 26.432 7.935 26.452 7.945 26.482 C 7.955 26.502 7.975 26.532 7.995 26.562 C 8.005 26.582 8.025 26.612 8.045 26.642 C 8.055 26.662 8.065 26.692 8.065 26.712 C 8.065 26.752 8.055 26.782 8.045 26.802 C 8.035 26.822 8.025 26.832 8.005 26.842 C 7.985 26.852 7.965 26.862 7.945 26.882 C 7.925 26.892 7.895 26.902 7.875 26.932 C 7.835 26.972 7.795 26.992 7.755 27.022 C 7.735 27.032 7.725 27.042 7.705 27.062 C 7.695 27.082 7.675 27.102 7.665 27.122 C 7.635 27.172 7.625 27.212 7.615 27.232 C 7.605 27.252 7.595 27.262 7.585 27.262 C 7.555 27.262 7.525 27.252 7.425 27.252 C 7.405 27.252 7.385 27.252 7.365 27.262 C 7.355 27.262 7.335 27.272 7.325 27.282 C 7.295 27.302 7.255 27.332 7.195 27.372 C 7.165 27.382 7.135 27.402 7.105 27.422 L 7.175 27.642 L 6.955 27.932 L 7.075 27.982 L 7.125 28.372 L 7.005 28.372 L 7.055 28.492 L 6.885 28.542 L 7.015 29.212 C 7.055 29.182 7.095 29.142 7.125 29.132 C 7.175 29.112 7.235 29.102 7.285 29.082 C 7.305 29.072 7.325 29.062 7.345 29.052 C 7.365 29.032 7.375 29.012 7.385 28.982 C 7.385 28.972 7.385 28.962 7.395 28.952 C 7.405 28.952 7.415 28.942 7.425 28.942 C 7.455 28.932 7.485 28.922 7.515 28.922 C 7.575 28.922 7.645 28.932 7.685 28.932 C 7.705 28.932 7.735 28.942 7.755 28.952 C 7.785 28.962 7.805 28.972 7.825 28.982 C 7.875 29.012 7.915 29.042 7.945 29.052 C 7.975 29.072 8.015 29.092 8.045 29.112 C 8.065 29.122 8.095 29.142 8.125 29.142 C 8.145 29.152 8.165 29.152 8.185 29.132 C 8.215 29.122 8.235 29.092 8.255 29.052 C 8.255 29.042 8.265 29.032 8.275 29.022 C 8.285 29.022 8.295 29.012 8.305 29.012 C 8.335 29.012 8.365 29.012 8.395 29.012 C 8.425 29.012 8.455 29.012 8.485 29.012 C 8.515 29.012 8.535 29.002 8.555 28.982 C 8.595 28.932 8.615 28.902 8.645 28.872 C 8.665 28.862 8.685 28.852 8.705 28.842 C 8.735 28.842 8.765 28.832 8.815 28.832 C 8.835 28.832 8.865 28.832 8.885 28.822 C 8.915 28.812 8.945 28.802 8.965 28.792 C 9.005 28.762 9.045 28.742 9.045 28.742 C 9.065 28.732 9.075 28.722 9.085 28.732 C 9.085 28.732 9.085 28.752 9.085 28.762 C 9.085 28.782 9.085 28.802 9.085 28.822 C 9.095 28.842 9.095 28.862 9.115 28.882 C 9.125 28.902 9.145 28.912 9.175 28.922 C 9.195 28.932 9.225 28.942 9.255 28.952 C 9.315 28.972 9.375 28.982 9.405 28.982 C 9.455 28.982 9.535 28.992 9.605 29.002 C 9.615 29.002 9.625 29.012 9.645 29.012 C 9.645 28.982 9.655 28.952 9.665 28.922 C 9.675 28.862 9.695 28.812 9.705 28.762 C 9.715 28.742 9.705 28.722 9.695 28.702 C 9.685 28.682 9.675 28.662 9.665 28.642 C 9.655 28.632 9.655 28.632 9.655 28.622 C 9.655 28.612 9.655 28.612 9.665 28.602 C 9.675 28.602 9.705 28.592 9.755 28.592 C 9.805 28.592 9.875 28.592 9.925 28.592 C 9.985 28.602 10.045 28.612 10.075 28.612 C 10.105 28.622 10.165 28.672 10.225 28.722 C 10.275 28.782 10.335 28.832 10.365 28.862 C 10.425 28.922 10.455 28.962 10.495 28.972 C 10.515 28.982 10.525 28.992 10.545 28.992 C 10.555 28.992 10.575 28.992 10.595 28.982 C 10.625 28.982 10.645 28.972 10.655 28.962 C 10.675 28.942 10.685 28.932 10.705 28.922 C 10.715 28.912 10.735 28.902 10.755 28.902 C 10.785 28.892 10.815 28.882 10.855 28.882 C 10.925 28.882 10.965 28.902 11.015 28.912 C 11.035 28.912 11.055 28.912 11.075 28.902 C 11.105 28.902 11.125 28.882 11.165 28.862 C 11.205 28.822 11.245 28.812 11.275 28.792 C 11.305 28.772 11.335 28.752 11.375 28.712 C 11.375 28.712 11.395 28.702 11.425 28.702 C 11.445 28.702 11.475 28.712 11.505 28.712 C 11.575 28.712 11.635 28.722 11.655 28.712 C 11.685 28.702 11.715 28.682 11.745 28.682 C 11.775 28.672 11.795 28.662 11.825 28.662 C 11.845 28.652 11.875 28.652 11.895 28.642 C 11.915 28.632 11.935 28.612 11.955 28.592 C 11.985 28.562 12.025 28.542 12.055 28.512 C 12.095 28.482 12.135 28.462 12.175 28.442 C 12.235 28.412 12.265 28.392 12.295 28.362 C 12.315 28.342 12.325 28.312 12.355 28.252 C 12.365 28.222 12.375 28.202 12.375 28.172 C 12.385 28.142 12.385 28.112 12.385 28.082 C 12.385 28.052 12.385 28.022 12.385 27.992 C 12.395 27.972 12.395 27.952 12.405 27.932 C 12.435 27.872 12.445 27.832 12.455 27.802 C 12.465 27.782 12.475 27.772 12.495 27.762 C 12.505 27.752 12.535 27.742 12.565 27.732 C 12.585 27.732 12.605 27.722 12.625 27.702 C 12.645 27.692 12.665 27.672 12.675 27.652 C 12.715 27.622 12.745 27.582 12.775 27.562 C 12.805 27.552 12.845 27.542 12.875 27.532 C 12.915 27.532 12.955 27.532 12.995 27.532 C 13.075 27.532 13.155 27.542 13.225 27.542 C 13.265 27.542 13.305 27.552 13.335 27.562 C 13.375 27.582 13.415 27.602 13.455 27.622 C 13.525 27.662 13.595 27.712 13.645 27.732 C 13.665 27.742 13.685 27.752 13.715 27.752 C 13.735 27.752 13.755 27.742 13.775 27.742 C 13.825 27.732 13.865 27.712 13.905 27.692 C 13.915 27.682 13.935 27.682 13.945 27.682 C 13.955 27.692 13.975 27.702 13.985 27.712 C 14.015 27.742 14.055 27.782 14.085 27.822 C 14.145 27.912 14.195 28.002 14.215 28.032 C 14.235 28.062 14.265 28.082 14.285 28.082 C 14.315 28.092 14.335 28.092 14.365 28.082 C 14.385 28.072 14.415 28.052 14.425 28.032 C 14.445 28.022 14.465 28.002 14.475 27.982 C 14.485 27.952 14.495 27.932 14.515 27.922 C 14.525 27.902 14.545 27.892 14.555 27.882 C 14.585 27.872 14.625 27.862 14.685 27.832 C 14.705 27.822 14.725 27.822 14.755 27.822 C 14.795 27.822 14.825 27.822 14.865 27.822 C 14.935 27.832 14.995 27.852 15.035 27.862 C 15.065 27.872 15.105 27.872 15.135 27.872 C 15.165 27.872 15.185 27.862 15.215 27.852 C 15.235 27.842 15.255 27.822 15.275 27.812 C 15.285 27.792 15.305 27.782 15.315 27.762 C 15.325 27.742 15.345 27.732 15.365 27.722 C 15.395 27.722 15.415 27.712 15.445 27.712 C 15.495 27.712 15.565 27.712 15.625 27.712 C 15.665 27.712 15.685 27.722 15.715 27.742 C 15.735 27.752 15.755 27.772 15.775 27.792 C 15.785 27.812 15.805 27.822 15.835 27.832 C 15.845 27.832 15.855 27.832 15.875 27.832 C 15.885 27.832 15.905 27.822 15.925 27.812 C 15.935 27.802 15.935 27.782 15.935 27.752 C 15.925 27.722 15.915 27.682 15.905 27.652 C 15.885 27.572 15.855 27.492 15.855 27.472 C 15.855 27.432 15.875 27.382 15.895 27.332 C 15.905 27.282 15.925 27.232 15.925 27.172 C 15.925 27.162 15.955 27.112 15.995 27.062 C 16.025 27.022 16.055 26.972 16.065 26.952 C 16.085 26.922 16.095 26.892 16.095 26.872 C 16.095 26.852 16.095 26.832 16.085 26.812 C 16.075 26.782 16.045 26.752 16.015 26.682 C 16.015 26.672 16.015 26.652 16.025 26.632 C 16.025 26.612 16.045 26.582 16.055 26.562 C 16.065 26.532 16.085 26.512 16.095 26.482 C 16.105 26.462 16.115 26.442 16.115 26.412 C 16.115 26.402 15.945 26.202 15.925 26.152 C 15.895 26.082 15.865 26.052 15.845 26.012 C 15.835 25.992 15.825 25.972 15.815 25.942 C 15.815 25.932 15.815 25.912 15.815 25.902 L 15.875 25.912 C 15.915 25.922 15.945 25.922 15.975 25.922 C 15.985 25.922 16.005 25.922 16.025 25.912 C 16.045 25.902 16.065 25.892 16.085 25.872 C 16.135 25.852 16.175 25.822 16.205 25.802 C 16.225 25.792 16.255 25.792 16.285 25.782 C 16.315 25.782 16.345 25.782 16.375 25.792 C 16.445 25.792 16.515 25.802 16.555 25.802 C 16.565 25.792 16.585 25.782 16.625 25.792 C 16.655 25.792 16.705 25.812 16.745 25.832 C 16.765 25.842 16.795 25.852 16.805 25.862 C 16.825 25.882 16.845 25.892 16.855 25.912 C 16.865 25.932 16.875 25.952 16.875 25.972 C 16.875 26.002 16.875 26.022 16.865 26.052 C 16.855 26.052 16.855 26.052 16.855 26.062 C 16.845 26.072 16.855 26.082 16.855 26.092 C 16.875 26.112 16.895 26.142 16.915 26.162 C 16.965 26.222 17.025 26.272 17.025 26.272 C 17.045 26.282 17.055 26.302 17.075 26.332 C 17.085 26.352 17.095 26.372 17.105 26.392 C 17.115 26.442 17.135 26.502 17.145 26.562 C 17.155 26.592 17.165 26.622 17.185 26.642 C 17.205 26.672 17.225 26.692 17.255 26.712 C 17.305 26.742 17.365 26.772 17.425 26.802 C 17.495 26.842 17.545 26.862 17.595 26.882 C 17.625 26.892 17.645 26.912 17.665 26.922 C 17.685 26.942 17.715 26.952 17.735 26.972 C 17.745 26.992 17.755 27.002 17.765 27.002 C 17.785 27.002 17.795 27.002 17.805 26.992 C 17.825 26.982 17.845 26.962 17.865 26.932 C 17.895 26.872 17.915 26.802 17.915 26.782 C 17.925 26.762 17.935 26.752 17.935 26.742 C 17.945 26.742 17.955 26.732 17.975 26.732 C 17.995 26.722 18.035 26.722 18.065 26.732 C 18.105 26.732 18.145 26.742 18.175 26.742 C 18.215 26.752 18.245 26.742 18.275 26.732 C 18.295 26.722 18.315 26.722 18.345 26.732 C 18.365 26.742 18.395 26.762 18.425 26.772 C 18.455 26.792 18.485 26.812 18.515 26.832 C 18.545 26.842 18.575 26.852 18.605 26.852 C 18.645 26.852 18.675 26.852 18.705 26.862 C 18.735 26.872 18.765 26.882 18.785 26.892 C 18.805 26.902 18.825 26.922 18.835 26.942 C 18.855 26.972 18.865 26.992 18.885 27.022 C 18.895 27.052 18.915 27.072 18.935 27.092 C 18.955 27.102 18.975 27.112 18.995 27.122 C 19.015 27.132 19.035 27.152 19.055 27.172 C 19.065 27.192 19.085 27.222 19.095 27.272 C 19.095 27.282 19.105 27.292 19.115 27.302 C 19.115 27.302 19.125 27.312 19.145 27.312 C 19.165 27.312 19.195 27.312 19.235 27.302 C 19.265 27.302 19.295 27.292 19.335 27.282 C 19.365 27.282 19.395 27.282 19.425 27.292 C 19.465 27.322 19.495 27.332 19.525 27.352 C 19.545 27.362 19.565 27.362 19.575 27.362 C 19.585 27.362 19.605 27.352 19.615 27.342 C 19.635 27.322 19.655 27.302 19.685 27.272 C 19.685 27.262 19.695 27.262 19.715 27.262 C 19.725 27.262 19.735 27.262 19.745 27.272 C 19.775 27.292 19.795 27.312 19.825 27.322 C 19.855 27.332 19.885 27.332 19.915 27.332 C 19.945 27.332 19.985 27.332 20.015 27.322 C 20.075 27.302 20.125 27.282 20.155 27.272 C 20.185 27.252 20.235 27.242 20.295 27.222 C 20.345 27.212 20.395 27.202 20.435 27.192 C 20.465 27.182 20.495 27.172 20.505 27.162 C 20.525 27.152 20.535 27.142 20.545 27.132 C 20.555 27.122 20.565 27.122 20.585 27.122 C 20.605 27.132 20.645 27.142 20.685 27.172 C 20.705 27.182 20.725 27.202 20.745 27.222 C 20.765 27.242 20.775 27.262 20.795 27.282 C 20.825 27.332 20.865 27.382 20.905 27.412 C 20.925 27.432 20.945 27.442 20.975 27.442 C 21.005 27.452 21.035 27.452 21.065 27.452 C 21.135 27.452 21.205 27.442 21.255 27.442 L 21.605 27.442 L 21.765 27.442" fill="#fdf9d2" fill-rule="evenodd" id="Nuble" stroke="#d7976a" stroke-miterlimit="4" stroke-width="0.31" transform="matrix(1.0000000000000002, 0, 0, 1.0000000000000002, 312.77740944590283, -6.505781270649749)"/>
</svg>