<?xml version="1.0" encoding="utf-8"?>
<svg viewBox="314.7992 212.505 26.8394 18.2635" xmlns="http://www.w3.org/2000/svg">
  <path d="M 336.046 212.505 C 336.026 212.575 336.006 212.395 335.896 212.635 C 335.756 212.745 335.786 212.575 335.676 212.645 L 335.626 212.685 C 335.656 212.765 335.636 212.675 335.496 212.675 C 335.346 212.675 335.096 212.655 335.166 212.855 C 335.096 212.965 334.996 213.165 334.856 213.065 C 334.756 213.205 334.666 212.915 334.526 213.005 C 334.426 213.035 334.386 213.005 334.346 213.135 C 334.236 213.205 334.126 213.305 334.026 213.185 C 333.816 213.195 333.796 213.215 333.716 213.345 C 333.696 213.375 333.636 213.345 333.606 213.355 C 333.536 213.415 333.626 213.535 333.496 213.555 C 333.346 213.555 333.346 213.655 333.346 213.755 C 333.226 213.855 333.056 214.065 332.946 213.845 C 332.846 213.735 332.716 213.665 332.706 213.525 C 332.636 213.405 332.436 213.315 332.356 213.525 C 332.276 213.585 332.296 213.615 332.216 213.625 C 332.176 213.725 331.966 213.585 331.966 213.765 C 331.766 213.995 331.716 214.065 331.576 213.945 C 331.436 213.925 331.236 213.665 331.166 213.915 C 331.176 214.085 331.026 214.115 330.906 214.165 C 330.926 214.225 330.906 214.255 330.946 214.275 C 330.986 214.305 331.036 214.375 331.076 214.405 C 331.356 214.445 331.226 214.555 331.266 214.725 C 331.296 214.755 331.306 214.785 331.306 214.805 C 331.336 214.895 331.276 214.965 331.186 215.015 C 331.146 215.035 331.286 215.285 331.036 215.405 C 331.026 215.415 331.016 215.425 330.996 215.425 C 330.736 215.295 330.486 215.365 330.246 215.525 C 329.896 215.535 330.326 216.165 329.946 216.125 C 329.476 216.015 329.356 216.605 329.586 216.905 C 329.616 216.955 329.746 217.135 329.786 217.155 C 329.816 217.175 329.816 217.185 329.796 217.195 C 329.746 217.225 329.566 217.275 329.436 217.405 C 329.366 217.375 329.106 217.695 329.036 217.685 C 329.096 217.685 329.146 217.675 329.176 217.715 C 329.146 217.675 329.096 217.685 329.036 217.685 C 329.006 217.685 328.836 217.625 328.676 217.605 C 328.386 217.645 328.316 217.515 328.236 217.495 C 328.226 217.485 328.126 217.665 327.896 217.735 C 327.686 218.085 327.426 217.435 327.106 217.535 C 326.766 217.525 326.106 217.475 325.966 217.085 C 325.556 216.995 325.756 216.585 325.466 216.415 C 325.296 216.375 325.126 216.385 325.156 215.975 C 325.096 215.535 324.886 215.865 324.696 215.465 C 324.696 215.635 324.606 215.685 324.486 215.705 C 324.356 215.715 324.306 215.855 324.156 215.805 C 324.076 215.875 324.256 216.065 324.056 216.015 C 323.906 215.975 323.696 215.885 323.586 216.065 C 323.586 216.225 323.346 215.975 323.286 215.915 C 323.186 215.825 323.146 215.605 323.216 215.535 C 323.006 215.545 322.856 215.395 322.746 215.245 C 322.716 215.305 322.646 215.305 322.566 215.285 C 322.466 215.255 322.356 215.195 322.296 215.165 C 322.076 215.105 321.816 215.115 321.606 215.225 C 321.446 215.155 321.376 214.885 321.176 214.805 C 321.166 214.975 321.126 215.145 321.006 215.255 C 321.126 215.325 321.196 215.495 320.996 215.515 C 320.866 215.705 320.786 215.265 320.646 215.215 C 320.536 215.035 320.306 215.175 320.226 215.055 C 320.136 214.935 319.916 214.995 319.836 214.995 C 319.786 214.915 319.796 214.775 319.856 214.705 C 319.756 214.575 319.536 214.685 319.396 214.585 C 319.386 214.575 319.376 214.575 319.366 214.565 C 319.186 214.545 319.456 214.375 319.256 214.305 C 319.016 214.285 319.056 214.385 318.956 214.425 C 318.876 214.455 318.976 214.265 318.896 214.165 C 318.806 214.055 318.816 214.215 318.586 214.195 C 318.516 214.185 318.666 213.885 318.616 213.885 C 318.476 213.855 318.366 214.335 318.246 214.025 C 318.186 213.885 317.996 213.915 317.906 213.785 C 317.856 213.715 317.856 213.615 317.636 213.885 C 317.566 213.965 317.526 213.845 317.456 213.805 C 317.526 213.695 317.676 213.625 317.566 213.425 C 317.496 213.345 317.596 213.665 317.456 213.645 C 317.366 213.825 317.226 213.865 317.286 214.095 C 317.286 214.305 317.146 214.375 317.026 214.475 C 316.966 214.535 317.046 214.695 316.836 214.625 C 316.876 214.635 316.766 214.765 316.836 214.795 C 316.896 214.975 316.796 215.015 316.826 215.145 C 316.666 215.455 316.476 215.535 316.486 215.585 C 316.396 215.815 316.276 215.815 316.126 215.865 C 316.126 216.145 316.136 216.325 316.076 216.405 C 316.046 216.355 316.036 216.545 315.996 216.605 C 315.956 216.655 315.776 216.765 315.796 216.685 C 315.826 216.575 315.726 216.735 315.626 216.815 C 315.716 216.945 315.586 217.115 315.586 217.275 C 315.516 217.375 315.376 217.355 315.256 217.365 C 315.136 217.375 315.286 217.545 315.356 217.595 C 315.356 217.625 315.356 218.005 315.396 218.045 C 315.356 218.005 315.276 218.055 315.346 218.145 C 315.426 218.235 315.386 218.315 315.406 218.445 C 315.436 218.475 315.476 218.565 315.466 218.595 C 315.486 218.665 315.516 218.725 315.576 218.755 C 315.566 218.845 315.676 218.835 315.606 218.935 C 315.606 219.075 315.696 219.245 315.666 219.355 C 315.696 219.505 315.726 219.495 315.646 219.615 C 315.656 219.775 315.866 219.985 315.736 220.135 C 315.746 220.365 315.806 220.545 315.776 220.775 C 315.776 220.885 315.826 221.085 315.726 221.065 C 315.686 221.065 315.586 221.205 315.526 221.315 C 315.456 221.365 315.256 221.285 315.246 221.385 C 315.236 221.515 315.166 221.495 315.116 221.525 C 315.066 221.615 315.146 221.765 315.076 221.845 C 315.026 221.905 315.026 221.985 314.976 222.055 C 314.866 222.035 314.806 221.995 314.826 222.045 C 314.856 222.105 314.856 222.195 314.866 222.205 C 315.156 222.665 314.926 222.555 315.116 222.765 C 315.156 222.965 315.196 223.265 315.066 223.395 C 314.946 223.595 314.886 223.695 314.856 223.845 C 314.866 223.935 314.836 223.985 314.826 224.015 C 314.826 224.015 314.826 224.025 314.826 224.025 C 314.756 224.205 314.836 224.325 314.916 224.455 C 315.006 224.805 314.996 224.725 314.926 224.935 C 314.846 225.045 314.966 225.165 314.956 225.345 C 315.046 225.555 314.906 225.465 314.876 225.555 C 314.886 225.665 314.906 225.805 314.836 225.805 C 314.806 225.805 314.936 225.855 314.886 225.925 C 314.846 225.975 314.986 226.075 315.006 226.135 C 315.116 226.315 315.186 226.235 315.266 226.185 C 315.336 226.225 315.306 226.345 315.336 226.415 C 315.376 226.515 315.566 226.315 315.616 226.315 C 315.776 226.335 315.656 226.375 315.916 226.525 C 315.836 226.615 315.846 226.645 315.816 226.755 C 315.896 226.945 315.866 226.925 315.876 227.025 C 315.936 227.065 316.006 227.115 316.076 227.145 C 316.136 227.165 316.196 227.165 316.266 227.175 C 316.346 227.135 316.376 227.305 316.456 227.395 C 316.486 227.425 316.526 227.445 316.556 227.465 C 316.546 227.585 316.556 227.635 316.556 227.745 C 316.606 227.805 316.656 227.855 316.686 227.935 C 316.776 228.015 316.866 228.075 316.966 228.145 C 317.056 228.175 317.186 228.135 317.276 228.135 C 317.306 228.175 317.316 228.185 317.366 228.205 C 317.486 228.205 317.626 228.175 317.746 228.215 C 317.796 228.255 317.836 228.285 317.836 228.355 C 317.816 228.395 317.886 228.465 317.906 228.475 C 318.096 228.425 318.146 228.445 318.256 228.495 C 318.316 228.485 318.416 228.405 318.516 228.305 C 318.416 228.405 318.586 228.275 318.606 228.355 C 318.636 228.435 318.896 228.525 318.736 228.555 C 318.846 228.585 318.926 228.645 318.876 228.795 C 318.816 228.885 318.976 228.965 319.036 229.035 C 319.146 229.075 319.046 229.185 319.026 229.175 C 319.156 229.195 319.276 229.255 319.366 229.355 C 319.356 229.465 319.516 229.475 319.526 229.605 C 319.586 229.675 319.656 229.715 319.686 229.805 C 319.766 229.835 319.646 230.045 319.776 229.995 C 319.896 229.945 320.036 229.985 320.066 229.835 C 320.216 229.825 320.186 229.625 320.256 229.525 C 320.286 229.365 320.046 229.385 320.006 229.315 C 320.066 229.225 320.056 229.045 320.186 229.055 C 320.286 228.975 320.286 228.845 320.346 228.755 C 320.416 228.595 320.526 228.785 320.636 228.745 C 320.776 228.755 320.926 228.805 321.026 228.895 C 321.086 228.965 320.936 229.085 321.086 229.085 C 321.226 229.145 321.266 228.955 321.386 228.915 C 321.466 228.845 321.606 228.925 321.486 229.015 C 321.586 229.035 321.656 228.985 321.726 228.925 C 321.726 228.925 321.796 228.865 321.836 229.005 C 321.866 229.085 321.966 228.995 321.936 228.955 C 321.906 228.915 321.966 228.865 321.966 228.865 C 321.976 228.865 322.046 229.035 322.226 228.985 C 322.316 228.955 322.326 229.075 322.516 229.175 C 322.566 229.205 322.676 229.165 322.756 229.235 C 322.826 229.295 322.916 229.365 322.986 229.315 C 323.036 229.305 323.046 229.235 323.056 229.175 C 323.056 229.125 323.076 229.095 323.116 229.075 C 323.186 229.045 323.226 229.035 323.276 228.995 C 323.296 229.065 323.306 229.025 323.366 229.075 C 323.376 229.155 323.406 229.155 323.436 229.205 C 323.466 229.265 323.476 229.315 323.466 229.345 C 323.506 229.365 323.506 229.375 323.536 229.375 C 323.556 229.325 323.556 229.305 323.626 229.285 C 323.686 229.245 323.776 229.235 323.836 229.295 C 323.926 229.315 323.926 229.385 323.976 229.425 C 324.046 229.475 324.116 229.485 324.196 229.475 L 324.226 229.335 C 324.226 229.315 324.186 229.275 324.186 229.275 C 324.136 229.215 324.096 229.285 324.036 229.235 C 324.016 229.205 324.006 229.165 323.986 229.135 C 323.946 229.085 323.966 228.985 323.966 228.925 C 323.876 228.815 323.906 228.795 323.946 228.775 C 323.996 228.735 324.026 228.685 324.036 228.625 C 324.046 228.575 324.026 228.535 324.006 228.495 C 323.976 228.435 323.996 228.455 324.036 228.415 C 324.066 228.365 324.026 228.335 324.066 228.275 C 324.106 228.265 324.106 228.235 324.126 228.215 C 324.216 228.225 324.256 228.255 324.276 228.155 C 324.286 228.105 324.326 228.125 324.346 228.145 C 324.416 228.195 324.476 228.205 324.546 228.165 C 324.616 228.105 324.706 228.095 324.776 228.035 C 324.876 227.965 324.866 227.835 324.896 227.735 C 324.936 227.715 324.976 227.645 325.016 227.645 C 325.076 227.655 325.166 227.645 325.226 227.625 C 325.276 227.595 325.316 227.565 325.326 227.535 C 325.366 227.585 325.406 227.625 325.466 227.655 C 325.496 227.665 325.516 227.685 325.526 227.705 C 325.576 227.835 325.506 227.935 325.526 228.065 C 325.596 228.115 325.686 228.095 325.766 228.115 C 325.836 228.155 325.826 228.095 325.906 228.085 C 326.036 228.085 326.006 228.125 326.026 228.165 C 326.116 228.135 326.126 228.255 326.236 228.225 C 326.246 228.225 326.286 228.115 326.436 228.015 C 326.506 227.945 326.486 227.855 326.516 227.765 C 326.546 227.725 326.596 227.745 326.646 227.725 C 326.696 227.695 326.756 227.695 326.816 227.695 C 326.886 227.705 326.966 227.695 327.026 227.655 C 327.016 227.545 327.116 227.485 327.196 227.505 C 327.276 227.525 327.576 227.975 327.696 228.055 C 327.806 228.045 327.896 228.005 327.976 227.965 C 328.106 227.945 328.076 227.845 328.176 227.785 C 328.236 227.715 328.296 227.645 328.326 227.565 C 328.336 227.555 328.566 227.805 328.586 227.735 C 328.686 227.865 328.706 228.035 328.746 228.065 C 329.026 228.025 329.016 228.215 329.036 228.195 C 329.126 228.115 329.306 228.385 329.396 228.595 C 329.526 228.915 329.646 228.735 329.956 228.585 C 330.136 228.505 330.256 228.585 330.366 228.465 C 330.456 228.365 330.526 228.455 330.576 228.475 C 330.636 228.495 330.786 228.425 330.796 228.455 C 330.876 228.545 330.976 228.585 331.086 228.625 C 331.276 228.735 331.216 228.665 331.396 228.685 C 331.446 228.685 331.436 228.605 331.426 228.525 C 331.416 228.485 331.416 228.435 331.416 228.435 C 331.516 228.425 331.756 228.585 331.746 228.575 C 331.716 228.565 331.796 228.505 331.886 228.515 C 331.946 228.535 331.996 228.595 332.096 228.675 C 332.136 228.715 332.186 228.785 332.256 228.805 C 332.316 228.825 332.276 228.895 332.316 228.945 C 332.426 229.075 332.566 229.135 332.646 229.125 C 332.696 229.125 332.766 229.295 332.786 229.415 C 332.806 229.495 332.876 229.465 332.896 229.495 C 332.946 229.625 333.006 229.585 333.096 229.585 C 333.166 229.585 333.306 229.875 333.366 230.085 C 333.416 230.265 333.366 230.145 333.746 230.355 C 333.946 230.465 333.916 230.585 333.976 230.515 C 334.016 230.485 334.026 230.425 334.046 230.345 C 333.996 230.075 334.076 230.085 334.356 230.075 C 334.616 230.035 334.606 230.115 334.626 229.995 C 334.686 229.835 334.516 229.735 334.856 229.775 C 334.926 229.785 334.946 229.675 334.976 229.665 C 335.026 229.665 334.956 229.905 335.046 229.935 C 335.046 229.975 335.186 229.935 335.236 229.965 C 335.236 229.975 335.136 230.125 335.206 230.195 C 335.206 230.275 335.486 230.285 335.606 230.285 C 335.676 230.285 335.636 230.375 335.726 230.475 C 335.776 230.535 335.826 230.615 335.916 230.615 C 336.116 230.615 336.096 230.465 336.126 230.485 C 336.146 230.505 336.126 230.605 336.246 230.605 C 336.236 230.555 336.406 230.515 336.586 230.505 C 336.676 230.395 336.706 230.485 336.846 230.565 C 336.946 230.635 336.966 230.735 337.046 230.725 C 337.106 230.705 337.106 230.615 337.156 230.635 C 337.226 230.625 337.526 230.795 337.576 230.765 C 337.596 230.745 337.576 230.695 337.636 230.685 C 337.736 230.755 337.846 230.575 337.856 230.525 C 337.926 230.415 337.866 230.225 337.866 229.865 C 337.846 229.695 337.976 229.735 338.036 229.665 C 338.136 229.475 338.016 229.385 338.346 229.045 C 338.386 228.955 338.346 228.745 338.416 228.695 C 338.526 228.615 338.486 228.445 338.486 228.365 C 338.486 228.305 338.546 228.245 338.616 228.105 C 338.786 227.775 338.826 227.575 338.756 227.485 C 338.626 227.455 338.296 227.315 338.236 227.225 C 338.186 227.195 338.076 227.205 338.046 227.165 C 337.996 227.095 338.036 226.945 338.036 226.835 C 338.036 226.715 338.306 226.555 338.496 226.495 C 338.616 226.455 338.476 226.515 338.556 226.305 C 338.786 225.965 338.626 226.065 338.706 225.925 L 338.726 225.905 L 339.106 225.665 L 339.116 225.375 C 338.976 224.905 339.086 225.005 339.066 224.865 C 339.046 224.785 339.196 224.155 339.226 224.345 C 339.226 224.365 339.366 223.965 339.426 223.945 C 339.476 223.925 339.596 223.995 339.606 223.905 C 339.636 223.695 339.796 223.435 339.866 223.375 C 339.936 223.265 339.966 223.155 339.966 223.125 C 339.966 223.095 340.066 222.895 340.126 222.765 C 340.186 222.635 340.226 222.425 340.246 222.355 C 340.256 222.275 340.336 222.495 340.536 222.335 C 340.666 222.305 340.686 222.145 340.916 221.905 C 341.036 221.985 341.086 221.815 341.096 221.765 C 341.206 221.705 341.056 221.605 341.136 221.525 C 341.206 221.485 341.276 221.485 341.346 221.455 C 341.576 221.325 341.676 221.275 341.626 220.995 C 341.596 220.855 341.366 220.765 341.476 220.385 C 341.566 220.085 341.456 219.735 341.466 219.665 C 341.486 219.545 341.156 219.455 341.466 219.385 L 341.486 219.375 C 341.396 219.285 341.306 219.195 341.216 219.105 C 341.136 218.865 341.106 218.695 341.156 218.635 C 341.136 218.535 341.116 218.445 341.156 218.355 C 340.876 218.125 341.116 218.095 340.936 218.085 L 340.926 217.975 L 340.776 217.885 L 340.696 217.975 C 340.566 217.975 340.426 218.005 340.326 217.945 C 340.316 217.825 340.326 217.675 340.076 217.795 L 339.886 217.625 C 339.886 217.495 339.806 217.265 339.676 217.315 C 339.586 217.305 339.596 217.275 339.596 217.245 C 339.746 217.195 339.656 217.055 339.636 216.945 C 339.726 216.815 340.116 216.595 339.806 216.615 C 339.726 216.625 339.706 216.555 339.686 216.475 C 339.576 216.415 339.576 216.305 339.686 216.225 L 339.546 215.955 L 339.516 215.685 L 339.546 215.495 L 339.396 215.305 L 339.166 215.295 L 339.046 215.275 L 338.626 215.305 C 338.656 215.495 338.496 215.535 338.536 215.725 C 338.526 215.725 338.516 215.725 338.516 215.735 C 338.426 215.785 338.406 215.865 338.346 215.885 C 338.346 215.895 338.336 215.895 338.326 215.895 C 338.316 215.905 338.306 215.905 338.296 215.895 C 338.186 215.825 338.106 215.795 338.026 215.705 C 337.966 215.725 337.926 215.755 337.896 215.775 C 337.886 215.775 337.876 215.785 337.866 215.785 C 337.846 215.785 337.826 215.775 337.806 215.755 L 337.776 215.825 L 337.706 215.775 C 337.656 215.645 337.586 215.675 337.526 215.755 C 337.316 215.705 337.296 215.615 337.336 215.515 C 337.146 215.445 337.436 215.445 337.336 215.265 L 337.426 215.165 C 337.606 215.105 337.576 215.035 337.506 214.965 C 337.506 214.965 337.496 214.965 337.496 214.965 C 337.496 214.955 337.496 214.945 337.486 214.945 C 337.566 214.895 337.586 214.825 337.486 214.745 L 337.466 214.505 L 337.296 214.495 L 337.176 214.385 C 337.176 214.265 337.316 214.085 337.076 214.095 L 336.946 213.965 C 336.946 213.895 336.926 213.835 336.876 213.795 C 336.856 213.775 336.836 213.755 336.816 213.735 C 336.796 213.585 336.716 213.525 336.846 213.545 C 336.816 213.425 336.886 213.415 336.926 213.375 C 336.846 213.275 336.866 213.225 336.886 213.175 C 336.866 213.145 336.836 213.145 336.836 212.995 C 336.676 212.945 336.676 212.875 336.606 213.005 C 336.416 212.905 336.336 212.805 336.326 212.705 C 336.296 212.685 336.266 212.675 336.256 212.655 C 336.236 212.645 336.226 212.625 336.226 212.615 C 336.216 212.595 336.206 212.585 336.206 212.565 C 336.106 212.575 336.056 212.545 336.036 212.505 L 336.046 212.505 Z" fill="#fdf9d2" fill-rule="evenodd" id="OHiggins" stroke="#d7976a" stroke-miterlimit="4" stroke-width="0.31" transform="matrix(1, 0, 0, 1, 7.105427357601002e-15, 7.105427357601002e-15)"/>
</svg>