<?xml version="1.0" encoding="utf-8"?>
<svg viewBox="303.7179 67.1458 25.6633 22.0133" xmlns="http://www.w3.org/2000/svg">
  <path d="M 0.23 73.656 C 0.2 73.706 0.11 73.786 0.05 73.846 C -0.05 73.906 -0.1 74.036 -0.19 74.076 C -0.27 74.156 -0.36 74.096 -0.41 74.046 C -0.5 73.936 -0.58 73.936 -0.65 73.866 C -0.77 73.846 -0.9 73.826 -0.96 73.766 C -1.07 73.746 -1.14 73.876 -1.2 73.876 C -1.29 73.886 -1.27 74.056 -1.33 74.096 C -1.26 74.216 -1.26 74.216 -1.29 74.346 C -1.22 74.526 -1.45 74.436 -1.49 74.526 C -1.57 74.626 -1.59 74.706 -1.67 74.806 C -1.79 74.896 -1.79 74.986 -1.85 75.086 C -1.9 75.176 -1.89 75.276 -2 75.366 C -2.05 75.486 -2.13 75.396 -2.24 75.446 C -2.27 75.446 -2.48 75.386 -2.5 75.506 C -2.56 75.566 -2.61 75.636 -2.65 75.706 C -2.7 75.766 -2.8 75.786 -2.83 75.796 C -2.94 75.906 -3.01 75.646 -3.12 75.796 C -3.18 75.726 -3.29 75.796 -3.31 75.766 C -3.42 75.766 -3.42 75.606 -3.52 75.586 C -3.57 75.496 -3.64 75.466 -3.77 75.466 C -3.84 75.556 -3.83 75.676 -3.69 75.606 C -3.6 75.636 -3.6 75.756 -3.57 75.836 C -3.65 75.966 -3.52 76.056 -3.54 76.176 C -3.56 76.286 -3.49 76.476 -3.6 76.486 C -3.73 76.336 -3.77 76.546 -3.82 76.606 C -3.9 76.686 -4.06 76.566 -4.09 76.656 C -4.16 76.766 -4.03 76.776 -3.97 76.836 C -3.95 76.936 -3.87 76.976 -3.87 77.096 C -3.82 77.166 -3.81 77.346 -3.88 77.416 C -3.99 77.356 -4.14 77.436 -3.97 77.486 C -3.89 77.536 -3.86 77.676 -3.87 77.786 C -3.89 77.906 -3.97 77.976 -4.09 77.956 C -4.16 77.976 -4.38 78.006 -4.19 78.106 C -4.27 78.176 -4.38 78.176 -4.35 78.306 C -4.22 78.306 -4.26 78.496 -4.22 78.566 C -4.22 78.666 -4.35 78.756 -4.32 78.796 C -4.32 78.896 -4.59 78.896 -4.49 78.996 C -4.45 79.136 -4.65 79.086 -4.64 79.196 C -4.64 79.296 -4.76 79.416 -4.65 79.506 C -4.65 79.506 -4.66 79.516 -4.65 79.516 C -4.66 79.516 -4.67 79.506 -4.68 79.506 C -4.75 79.596 -4.79 79.606 -4.84 79.696 C -4.91 79.776 -4.98 79.776 -5.06 79.806 C -5.14 79.836 -5.22 79.946 -5.09 79.946 C -4.98 79.926 -4.96 80.126 -5.05 80.146 C -5.08 80.186 -5.25 80.236 -5.2 80.286 C -5.25 80.346 -5.33 80.406 -5.38 80.456 C -5.45 80.396 -5.51 80.386 -5.59 80.436 C -5.66 80.496 -5.58 80.666 -5.65 80.706 C -5.64 80.746 -5.77 80.906 -5.62 80.876 C -5.56 80.906 -5.52 81.016 -5.52 81.106 C -5.48 81.166 -5.46 81.246 -5.43 81.336 C -5.44 81.426 -5.41 81.556 -5.42 81.626 C -5.42 81.716 -5.46 81.846 -5.4 81.926 C -5.43 81.956 -5.35 82.096 -5.46 82.156 C -5.52 82.056 -5.49 82.316 -5.49 82.376 C -5.47 82.476 -5.61 82.516 -5.56 82.566 C -5.49 82.656 -5.63 82.676 -5.5 82.736 C -5.49 82.786 -5.55 82.946 -5.41 82.926 C -5.32 82.926 -5.36 83.136 -5.4 83.156 C -5.44 83.266 -5.47 83.276 -5.43 83.376 C -5.32 83.396 -5.21 83.376 -5.2 83.286 C -5.12 83.276 -5.08 83.176 -4.96 83.186 C -4.87 83.176 -4.79 83.146 -4.71 83.086 C -4.67 83.026 -4.52 83.056 -4.49 82.966 C -4.48 82.866 -4.36 82.896 -4.26 82.896 C -4.17 82.926 -4.08 83.016 -4.03 82.976 C -4 82.876 -3.9 82.866 -3.9 82.766 C -3.87 82.716 -3.8 82.596 -3.87 82.546 C -3.91 82.506 -3.98 82.456 -4.03 82.396 C -4.03 82.276 -4.03 82.166 -4.03 82.046 C -3.94 82.016 -4.04 81.846 -3.97 81.776 C -3.93 81.716 -3.82 81.636 -3.83 81.556 C -3.81 81.426 -3.9 81.406 -3.87 81.276 C -3.81 81.276 -3.8 81.416 -3.76 81.466 C -3.71 81.516 -3.74 81.646 -3.74 81.746 C -3.81 81.806 -3.79 81.896 -3.74 81.956 C -3.76 82.076 -3.68 82.116 -3.6 82.186 C -3.52 82.216 -3.46 82.236 -3.4 82.286 C -3.32 82.346 -3.31 82.526 -3.38 82.386 C -3.46 82.366 -3.48 82.226 -3.57 82.266 C -3.63 82.356 -3.63 82.416 -3.67 82.506 C -3.71 82.556 -3.76 82.646 -3.8 82.706 C -3.73 82.776 -3.89 82.776 -3.87 82.886 C -3.88 82.966 -3.69 82.976 -3.8 83.066 C -3.83 83.166 -3.75 83.266 -3.67 83.206 C -3.59 83.156 -3.51 83.266 -3.46 83.286 C -3.39 83.316 -3.29 83.316 -3.21 83.386 C -3.13 83.426 -3.05 83.506 -2.98 83.446 C -2.9 83.426 -2.82 83.406 -2.74 83.376 C -2.66 83.386 -2.63 83.236 -2.66 83.186 C -2.76 83.166 -2.83 83.166 -2.83 83.086 C -2.91 83.066 -2.87 82.866 -2.83 83.016 C -2.8 83.116 -2.7 83.056 -2.65 83.126 C -2.62 83.176 -2.43 83.126 -2.49 83.246 C -2.45 83.286 -2.42 83.356 -2.34 83.346 C -2.27 83.246 -2.08 83.366 -2.21 83.416 C -2.25 83.486 -2.34 83.516 -2.27 83.626 C -2.2 83.716 -2.15 83.746 -2.1 83.806 C -2.04 83.906 -2.11 83.946 -2.14 84.056 C -2.15 84.126 -2.24 84.036 -2.21 84.196 C -2.28 84.166 -2.25 84.026 -2.33 83.976 C -2.33 83.866 -2.34 83.776 -2.47 83.806 C -2.61 83.806 -2.5 83.706 -2.53 83.606 C -2.55 83.526 -2.63 83.456 -2.7 83.446 C -2.81 83.456 -2.87 83.536 -2.93 83.496 C -3.01 83.596 -3.04 83.496 -3.16 83.476 C -3.27 83.466 -3.29 83.366 -3.4 83.376 C -3.5 83.386 -3.54 83.246 -3.66 83.286 C -3.77 83.356 -3.8 83.256 -3.87 83.226 C -3.86 83.136 -3.8 83.016 -3.87 82.966 C -3.92 83.016 -4 83.026 -4.02 83.106 C -4.06 83.136 -4.1 83.146 -4.14 83.156 C -4.2 83.146 -4.25 83.046 -4.34 83.066 C -4.42 83.036 -4.41 83.116 -4.45 83.066 C -4.47 83.116 -4.58 83.126 -4.59 83.186 C -4.63 83.226 -4.74 83.246 -4.83 83.256 C -4.92 83.276 -4.99 83.336 -5.09 83.356 C -5.11 83.396 -5.25 83.426 -5.16 83.446 C -5.19 83.566 -4.98 83.496 -4.97 83.586 C -4.91 83.536 -4.84 83.616 -4.81 83.646 C -4.72 83.666 -4.66 83.716 -4.58 83.686 C -4.56 83.766 -4.64 83.726 -4.71 83.706 C -4.74 83.816 -4.6 83.776 -4.59 83.876 C -4.56 83.886 -4.58 83.956 -4.52 84.016 C -4.43 84.066 -4.56 84.166 -4.5 84.226 C -4.45 84.266 -4.44 84.326 -4.35 84.326 C -4.38 84.456 -4.19 84.346 -4.19 84.376 C -4.14 84.336 -4.03 84.376 -3.97 84.396 C -3.95 84.326 -3.82 84.286 -3.86 84.266 C -3.85 84.186 -3.89 84.046 -3.83 84.016 C -3.82 83.956 -3.77 83.886 -3.74 83.806 C -3.71 83.756 -3.67 83.716 -3.69 83.676 C -3.65 83.696 -3.64 83.746 -3.61 83.776 C -3.71 83.756 -3.7 83.906 -3.74 83.936 C -3.8 83.996 -3.83 84.086 -3.76 84.176 C -3.8 84.206 -3.81 84.336 -3.87 84.366 C -3.93 84.366 -3.95 84.516 -4.04 84.426 C -4.09 84.386 -4.19 84.416 -4.24 84.466 C -4.39 84.436 -4.34 84.496 -4.42 84.516 C -4.45 84.456 -4.52 84.446 -4.49 84.326 C -4.52 84.276 -4.57 84.246 -4.59 84.186 C -4.56 84.066 -4.61 84.026 -4.64 83.936 C -4.75 83.826 -4.76 83.986 -4.85 83.966 C -4.91 83.946 -4.89 83.836 -4.94 83.806 C -4.97 83.706 -5.05 83.686 -5.1 83.686 C -5.19 83.656 -5.15 83.796 -5.18 83.846 C -5.22 83.906 -5.18 84.006 -5.16 84.036 C -5.17 84.136 -5.13 84.236 -5.11 84.296 C -5 84.326 -5.12 84.486 -5.22 84.426 C -5.3 84.406 -5.31 84.366 -5.37 84.296 C -5.36 84.186 -5.44 84.196 -5.42 84.106 C -5.52 84.096 -5.33 84.016 -5.43 83.946 C -5.42 83.856 -5.47 83.836 -5.52 83.806 C -5.58 83.736 -5.59 83.696 -5.69 83.676 C -5.68 83.616 -5.8 83.596 -5.76 83.556 C -5.7 83.486 -5.66 83.436 -5.75 83.416 C -5.64 83.316 -5.81 83.286 -5.81 83.226 C -5.84 83.106 -5.96 83.296 -5.99 83.166 C -6.01 83.066 -6.1 83.086 -6.18 83.066 C -6.21 83.066 -6.24 83.066 -6.28 83.066 C -6.29 83.136 -6.23 83.296 -6.3 83.326 C -6.32 83.386 -6.36 83.456 -6.37 83.546 C -6.45 83.556 -6.41 83.696 -6.47 83.726 C -6.51 83.796 -6.55 83.856 -6.6 83.876 C -6.71 83.856 -6.72 83.936 -6.76 83.996 C -6.76 84.076 -6.87 84.066 -6.92 84.106 C -7.03 84.086 -7.01 84.236 -7.12 84.226 C -7.11 84.296 -7.27 84.336 -7.28 84.266 C -7.37 84.306 -7.43 84.306 -7.51 84.326 C -7.57 84.396 -7.71 84.326 -7.7 84.426 C -7.81 84.456 -7.65 84.546 -7.58 84.516 C -7.15 84.906 -7.03 85.126 -7.55 84.706 C -7.59 84.576 -7.6 84.586 -7.65 84.676 C -7.63 84.756 -7.76 84.806 -7.8 84.796 C -7.9 84.736 -7.91 84.866 -8 84.846 C -8.04 84.786 -8.13 84.796 -8.23 84.786 C -8.26 84.846 -8.33 84.766 -8.42 84.816 C -8.37 84.936 -8.56 84.876 -8.55 84.946 C -8.61 84.936 -8.72 85.016 -8.65 85.056 C -8.66 85.186 -8.6 85.166 -8.65 85.256 C -8.69 85.446 -8.84 85.436 -8.96 85.536 C -9.14 85.716 -8.93 85.596 -8.86 85.706 C -8.79 85.816 -8.68 85.906 -8.62 86.016 C -8.56 86.146 -8.5 86.266 -8.46 86.386 C -8.42 86.526 -8.36 86.636 -8.32 86.736 C -8.25 86.966 -8.37 86.896 -8.42 87.026 C -8.4 87.176 -8.33 87.236 -8.32 87.386 C -8.3 87.486 -8.25 87.756 -8.29 87.816 C -8.27 87.996 -8.41 88.056 -8.53 88.076 C -8.63 88.016 -8.57 88.326 -8.65 88.396 C -8.68 88.496 -8.75 88.616 -8.84 88.666 C -8.93 88.696 -9.16 88.646 -9.01 88.816 C -9 88.976 -8.91 89.066 -8.97 89.216 C -9.04 89.256 -8.95 89.536 -8.82 89.386 C -8.72 89.146 -8.39 89.346 -8.55 89.536 C -8.53 89.696 -8.45 89.896 -8.26 89.946 C -8.13 90.026 -8 90.056 -7.84 90.096 C -7.67 90.086 -7.57 90.216 -7.41 90.216 C -7.28 90.126 -7.26 89.876 -7.06 89.996 C -6.92 90.116 -6.77 90.006 -6.59 90.026 C -6.4 90.056 -6.28 89.876 -6.14 89.796 C -5.94 89.906 -5.74 89.516 -5.72 89.816 C -5.61 89.956 -5.68 90.086 -5.59 90.216 C -5.41 90.196 -5.26 90.366 -5.23 90.516 C -5.19 90.746 -5.02 90.636 -4.85 90.646 C -4.71 90.776 -4.53 90.746 -4.39 90.626 C -4.18 90.616 -3.92 90.586 -3.72 90.636 C -3.67 90.836 -3.45 90.866 -3.28 90.806 C -3.15 90.926 -2.88 90.756 -2.79 90.836 C -2.62 90.866 -2.49 90.656 -2.34 90.736 C -2.2 90.846 -2.02 91.006 -1.89 90.786 C -1.76 90.756 -1.76 90.716 -1.78 90.666 C -1.68 90.736 -1.5 90.726 -1.37 90.676 C -1.14 90.536 -1.15 90.726 -1.01 90.886 C -0.88 91.066 -0.66 91.046 -0.52 91.196 C -0.37 91.166 -0.2 91.226 -0.02 91.236 C 0.18 91.276 0.25 91.536 0.43 91.616 C 0.63 91.676 0.5 91.946 0.73 91.976 C 0.81 92.106 1.1 91.996 1.02 92.246 C 1.1 92.406 0.96 92.666 1.18 92.726 C 1.27 92.886 1.17 93.046 1.31 93.176 C 1.46 93.166 1.48 93.326 1.67 93.416 C 1.48 93.506 1.7 93.516 1.84 93.636 C 1.95 93.816 2.27 93.606 2.16 93.836 C 2.21 93.946 2.53 94.006 2.42 94.196 C 2.47 94.396 2.68 94.396 2.77 94.556 C 2.93 94.606 3.16 94.486 3.24 94.676 C 3.34 94.666 3.52 94.686 3.64 94.796 C 3.77 94.976 3.97 94.696 4.13 94.836 C 4.24 94.986 4.27 95.136 4.31 95.306 C 4.46 95.326 4.52 95.506 4.66 95.556 C 4.79 95.796 4.95 95.566 5.08 95.556 C 5.21 95.456 5.44 95.506 5.57 95.436 C 5.8 95.446 5.98 95.416 6.17 95.396 C 6.31 95.346 6.48 95.296 6.62 95.236 C 6.76 95.156 6.97 95.106 7.11 95.176 C 7.33 95.146 7.5 95.216 7.72 95.196 C 7.92 95.216 8 95.346 8.18 95.396 C 8.51 95.526 8.18 95.206 8.41 95.196 C 8.45 95.036 8.61 94.926 8.7 95.006 C 8.64 95.136 9.04 94.946 9.02 95.186 C 9.16 95.346 9.32 95.166 9.52 95.196 C 9.62 95.306 9.86 95.336 9.94 95.196 C 10.09 95.116 10.21 95.096 10.36 95.136 C 10.55 95.116 10.7 95.006 10.85 95.066 C 10.93 95.176 11.16 95.036 11.27 95.006 C 11.42 94.866 11.31 94.606 11.54 94.616 C 11.63 94.686 11.85 94.426 11.92 94.646 C 12.03 94.736 12.26 94.656 12.38 94.616 C 12.63 94.636 12.54 94.366 12.74 94.356 C 12.88 94.216 12.9 94.116 12.93 93.896 C 13.12 93.886 13.26 93.726 13.39 93.796 C 13.37 94.006 13.75 93.966 13.84 93.926 C 13.82 93.736 13.85 93.546 14 93.416 C 13.86 93.346 13.71 93.606 13.56 93.486 C 13.53 93.376 13.44 93.346 13.37 93.316 C 13.38 93.326 13.4 93.326 13.41 93.326 C 13.57 93.266 13.28 93.126 13.31 92.996 C 13.24 92.796 13.65 93.126 13.58 92.876 C 13.56 92.716 13.84 92.636 13.71 92.466 C 13.61 92.296 13.78 92.146 13.74 91.976 C 13.71 91.806 13.86 91.696 13.78 91.536 C 13.83 91.396 13.91 91.246 13.98 91.116 C 14.03 90.986 14.04 90.836 14.17 90.706 C 14.25 90.586 14.45 90.716 14.54 90.796 C 14.71 90.746 14.81 90.836 14.86 90.996 C 14.92 91.206 15.12 91.036 15.19 90.946 C 15.43 90.916 15.62 90.696 15.57 90.446 C 15.62 90.356 15.58 90.206 15.51 90.146 C 15.59 90.176 15.68 90.156 15.78 90.076 C 15.92 90.046 16.11 89.906 15.91 89.806 C 15.79 89.696 15.84 89.526 15.74 89.396 C 15.72 89.236 15.75 89.066 15.65 88.936 C 15.54 88.856 15.42 88.786 15.28 88.726 C 15.1 88.706 15.21 88.976 15.05 89.046 C 14.89 89.136 14.74 88.966 14.78 88.796 C 14.74 88.626 14.53 88.556 14.46 88.406 C 14.28 88.376 14.18 88.266 14.14 88.096 C 13.99 88.076 13.9 87.906 13.91 87.746 C 13.81 87.566 14.14 87.556 14.17 87.376 C 14.34 87.236 14.24 87.126 14.06 87.076 C 13.89 86.956 14.08 86.826 14.03 86.666 C 14.09 86.526 14.14 86.436 14.07 86.256 C 14.09 86.006 13.78 86.196 13.79 86.036 C 13.78 85.826 14.02 85.786 14.09 85.616 C 14.11 85.576 14.13 85.546 14.15 85.516 C 14.15 85.546 14.15 85.566 14.15 85.596 C 14.18 85.726 14.33 85.736 14.44 85.786 C 14.59 85.776 14.73 85.846 14.86 85.906 C 14.98 85.946 15.08 86.016 15.18 86.086 C 15.28 86.126 15.41 86.166 15.51 86.116 C 15.65 86.056 15.7 85.936 15.7 85.796 C 15.76 85.576 15.68 85.346 15.6 85.136 C 15.54 85.046 15.49 84.926 15.54 84.816 C 15.69 84.776 15.62 84.586 15.64 84.466 C 15.54 84.326 15.72 84.246 15.76 84.136 C 15.83 84.056 15.91 83.896 15.99 83.896 C 16.1 83.966 16.24 83.966 16.31 83.846 C 16.27 83.726 16.48 83.616 16.33 83.526 C 16.22 83.476 16.22 83.276 16.34 83.256 C 16.5 83.296 16.55 83.136 16.52 83.026 C 16.69 82.806 16.58 82.506 16.38 82.346 C 16.27 82.366 16.1 82.316 16.09 82.206 C 16.12 82.056 15.98 81.986 15.85 82.016 C 15.76 82.106 15.62 82.106 15.52 82.026 C 15.41 81.916 15.45 81.736 15.4 81.596 C 15.51 81.506 15.59 81.386 15.68 81.286 C 15.6 81.236 15.53 81.146 15.45 81.086 C 15.49 80.956 15.54 80.776 15.49 80.646 C 15.49 80.486 15.31 80.436 15.23 80.306 C 15.15 80.136 15.14 79.996 15.24 79.876 C 15.36 79.796 15.17 79.566 15.41 79.556 C 15.58 79.666 15.69 79.346 15.49 79.326 C 15.29 79.296 15.42 79.006 15.27 78.956 C 15.1 78.936 15.06 78.696 15.12 78.606 C 15.32 78.566 15.31 78.406 15.35 78.246 C 15.31 78.006 15.4 77.786 15.4 77.556 C 15.5 77.436 15.47 77.266 15.47 77.106 C 15.63 77.116 15.55 76.936 15.5 76.856 C 15.51 76.636 15.37 76.766 15.24 76.746 C 15.17 76.626 15.08 76.596 15.02 76.496 C 14.92 76.446 14.79 76.526 14.69 76.546 C 14.56 76.546 14.5 76.596 14.46 76.706 C 14.36 76.726 14.34 76.566 14.27 76.556 C 14.1 76.576 14.04 76.356 13.87 76.416 C 13.74 76.366 13.73 76.206 13.61 76.196 C 13.56 76.146 13.4 76.106 13.39 76.036 C 13.3 75.986 13.32 75.886 13.23 75.786 C 13.2 75.686 13.17 75.586 13.07 75.566 C 12.92 75.596 12.86 75.476 12.71 75.476 C 12.55 75.456 12.46 75.416 12.32 75.376 C 12.3 75.356 12.28 75.336 12.25 75.336 C 12.24 75.336 12.23 75.346 12.22 75.346 C 12.08 75.376 12.12 75.516 12.02 75.536 C 11.94 75.626 11.82 75.796 11.66 75.746 C 11.51 75.746 11.38 75.796 11.28 75.836 C 11.2 75.906 11.16 75.996 11.08 76.036 C 11.01 76.086 10.81 76.076 10.78 76.216 C 10.68 76.216 10.61 76.356 10.54 76.406 C 10.47 76.516 10.41 76.546 10.35 76.676 C 10.26 76.706 10.13 76.776 10.06 76.836 C 9.93 76.846 9.8 76.906 9.66 76.916 C 9.5 76.946 9.4 76.986 9.22 76.966 C 9.13 77.016 8.95 77.006 8.82 77.036 C 8.65 77.056 8.51 76.986 8.34 77.006 C 8.21 76.956 8.13 76.916 8.11 76.746 C 8.1 76.576 7.96 76.616 7.89 76.716 C 7.75 76.676 7.63 76.766 7.56 76.846 C 7.52 76.906 7.47 76.966 7.43 77.016 C 7.42 76.976 7.4 76.936 7.35 76.946 C 7.25 76.966 7.19 76.886 7.08 76.916 C 6.99 76.916 6.89 76.926 6.85 76.876 C 6.82 76.836 6.77 76.766 6.68 76.776 C 6.66 76.736 6.61 76.666 6.55 76.616 C 6.46 76.596 6.41 76.566 6.36 76.486 C 6.3 76.516 6.22 76.516 6.19 76.456 C 6.1 76.436 6.06 76.436 5.98 76.486 C 5.88 76.506 5.82 76.426 5.74 76.486 C 5.65 76.486 5.58 76.436 5.48 76.456 C 5.41 76.386 5.28 76.426 5.22 76.456 C 5.14 76.526 5.12 76.436 5.08 76.376 C 5.05 76.306 5.1 76.246 5.05 76.156 C 5.06 76.066 5.04 75.996 4.99 75.936 C 4.99 75.856 4.93 75.786 4.83 75.806 C 4.77 75.856 4.71 75.906 4.62 75.896 C 4.6 75.966 4.45 75.906 4.42 75.966 C 4.34 75.956 4.3 76.066 4.21 76.066 C 4.14 75.986 3.99 76.076 3.91 75.996 C 3.82 75.976 3.77 76.086 3.72 76.096 C 3.71 76.156 3.65 76.176 3.62 76.226 C 3.54 76.206 3.43 76.266 3.39 76.246 C 3.35 76.206 3.33 76.176 3.26 76.116 C 3.21 76.056 3.16 76.016 3.13 75.936 C 3.08 75.916 3.05 75.816 2.96 75.826 C 2.89 75.786 2.81 75.816 2.74 75.776 C 2.7 75.716 2.54 75.736 2.54 75.806 C 2.46 75.876 2.4 75.876 2.45 75.996 C 2.36 76.036 2.29 75.966 2.22 75.936 C 2.17 76.026 2.11 75.896 2.06 75.866 C 1.98 75.946 2.03 75.806 1.92 75.866 C 1.86 75.836 1.74 75.966 1.8 75.866 C 1.8 75.776 1.9 75.776 1.81 75.686 C 1.72 75.666 1.71 75.576 1.7 75.506 C 1.71 75.456 1.63 75.486 1.61 75.476 C 1.6 75.536 1.48 75.606 1.44 75.536 C 1.35 75.536 1.27 75.546 1.2 75.586 C 1.15 75.596 1.12 75.616 1.11 75.646 C 1.11 75.636 1.12 75.626 1.11 75.616 C 1.04 75.596 0.99 75.496 0.94 75.426 C 0.76 75.356 0.76 75.456 0.76 75.566 C 0.8 75.716 0.58 75.586 0.63 75.706 C 0.55 75.766 0.48 75.806 0.49 75.936 C 0.39 75.896 0.45 75.766 0.42 75.726 C 0.35 75.606 0.41 75.526 0.43 75.406 C 0.44 75.286 0.3 75.186 0.42 75.116 C 0.45 75.036 0.53 75.046 0.63 74.986 C 0.73 74.966 0.74 74.826 0.82 74.756 C 0.98 74.726 0.77 74.616 0.82 74.486 C 0.81 74.366 1.02 74.416 1.06 74.286 C 1.07 74.196 1.21 74.076 1.1 73.996 C 0.98 73.956 1.02 73.826 0.97 73.736 C 0.87 73.646 0.74 73.646 0.6 73.656 C 0.48 73.656 0.36 73.656 0.23 73.656 Z M -4.61 79.556 C -4.56 79.606 -4.59 79.616 -4.61 79.556 Z M -3.8 81.636 C -3.8 81.686 -3.95 81.796 -3.85 81.776 C -3.77 81.756 -3.73 81.726 -3.8 81.636 Z M -3.92 81.866 C -3.95 81.876 -3.98 81.916 -3.97 81.976 C -4.02 82.076 -3.95 82.146 -3.97 82.246 C -3.92 82.296 -3.91 82.416 -3.83 82.466 C -3.78 82.556 -3.74 82.516 -3.67 82.446 C -3.68 82.336 -3.61 82.276 -3.62 82.206 C -3.66 82.166 -3.7 82.166 -3.7 82.116 C -3.79 82.096 -3.77 81.986 -3.81 81.916 C -3.85 81.866 -3.89 81.856 -3.92 81.866 Z M -4.32 82.926 C -4.31 83.006 -4.15 83.066 -4.12 82.996 C -4.18 82.946 -4.28 82.976 -4.32 82.926 Z M -5.33 83.546 C -5.33 83.556 -5.31 83.566 -5.3 83.586 C -5.32 83.576 -5.34 83.576 -5.33 83.546 Z M 15.28 90.076 C 15.32 90.076 15.36 90.086 15.4 90.096 C 15.36 90.086 15.32 90.076 15.28 90.076 Z" fill="#fdf9d2" fill-rule="evenodd" id="Los_Rios" stroke="#d7976a" stroke-miterlimit="4" stroke-width="0.31" transform="matrix(0.9999999999999999, 0, 0, 0.9999999999999999, 312.7774094459027, -6.505781270649745)"/>
</svg>