<?xml version="1.0" encoding="UTF-8" standalone="no" ?>
<!DOCTYPE svg PUBLIC "-//W3C//DTD SVG 1.1//EN" "http://www.w3.org/Graphics/SVG/1.1/DTD/svg11.dtd">
<svg xmlns="http://www.w3.org/2000/svg" xmlns:xlink="http://www.w3.org/1999/xlink" version="1.1" width="640" height="480" viewBox="0 0 640 480" xml:space="preserve">
<desc>Created with Fabric.js 3.6.6</desc>
<defs>
</defs>
<g transform="matrix(1 0 0 1 324.2 250.66)" id="path2466"  >
<path style="stroke: rgb(215,151,106); stroke-width: 2; stroke-dasharray: none; stroke-linecap: butt; stroke-dashoffset: 0; stroke-linejoin: miter; stroke-miterlimit: 4; fill: rgb(253,249,210); fill-rule: evenodd; opacity: 1;"  transform=" translate(-239.53, -259.18)" d="M 199.32406 134.19948 C 198.97255 134.81481 197.88709 135.66293 197.23971 136.3935 C 196.10453 137.08784 195.48802 138.47483 194.49716 139.0263 C 193.6512 139.85478 192.52789 139.1545 191.974 138.58752 C 190.95087 137.36836 190.04225 137.39223 189.23145 136.61295 C 187.90122 136.32007 186.43124 136.08704 185.72097 135.40603 C 184.48332 135.18137 183.75304 136.69717 183.08812 136.72237 C 182.05267 136.80804 182.21162 138.75002 181.55228 139.24575 C 182.36774 140.53204 182.385 140.59553 181.9911 142.098 C 182.75729 144.05646 180.17916 143.08135 179.79705 144.07269 C 178.79358 145.25598 178.62988 146.16771 177.71271 147.25382 C 176.35748 148.27049 176.35254 149.34011 175.62836 150.43543 C 175.12513 151.42714 175.23445 152.61612 173.98282 153.61655 C 173.33065 154.98112 172.5158 153.95391 171.24027 154.49423 C 170.83667 154.49314 168.54668 153.80644 168.27831 155.26225 C 167.61995 155.92678 167.07688 156.68716 166.52306 157.45627 C 166.0177 158.15073 164.83333 158.38279 164.54842 158.5534 C 163.24597 159.81788 162.44825 156.79392 161.25735 158.5534 C 160.5586 157.72492 159.32277 158.47755 159.06331 158.22405 C 157.85275 158.20054 157.77521 156.34666 156.64986 156.13993 C 156.06509 155.08679 155.31364 154.75016 153.7976 154.82347 C 153.04734 155.77689 153.21637 157.13406 154.78492 156.35926 C 155.72172 156.72473 155.72233 158.06821 156.10134 158.99218 C 155.19182 160.39323 156.73485 161.4162 156.43046 162.83154 C 156.23587 164.04791 157.03907 166.19806 155.77224 166.34202 C 154.25424 164.6956 153.85391 167.03927 153.24909 167.76839 C 152.31856 168.59045 150.58878 167.31483 150.17743 168.31671 C 149.41141 169.52145 150.9425 169.70539 151.60355 170.29128 C 151.7544 171.50874 152.71802 171.86755 152.70057 173.25344 C 153.24206 174.03418 153.43535 176.14992 152.59087 176.87347 C 151.39762 176.24444 149.59721 177.15751 151.60355 177.75103 C 152.46979 178.24325 152.87758 179.86725 152.70057 181.15209 C 152.44958 182.53023 151.59998 183.26116 150.17743 183.01675 C 149.42492 183.25801 146.96934 183.67644 149.0804 184.77199 C 148.16473 185.60641 146.88242 185.55067 147.21546 187.07592 C 148.72608 187.05423 148.25375 189.24159 148.7513 190.03772 C 148.74251 191.11546 147.24867 192.10293 147.54456 192.56109 C 147.56577 193.72233 144.51472 193.6964 145.67963 194.86466 C 146.12946 196.48467 143.8498 195.90835 143.92439 197.16859 C 143.92421 198.32946 142.6391 199.675 143.81469 200.67907 C 143.83438 200.70331 143.79563 200.76438 143.81469 200.78861 C 143.74367 200.74608 143.61726 200.67483 143.48559 200.67907 C 142.73677 201.64303 142.27465 201.77608 141.73035 202.87309 C 140.89327 203.74435 140.12532 203.71951 139.2072 204.07965 C 138.28071 204.39131 137.43454 205.62816 138.87808 205.61544 C 140.08099 205.44203 140.34795 207.65362 139.3169 207.91936 C 138.91993 208.426 137.04039 208.94161 137.56166 209.5647 C 137.04382 210.20087 136.09625 210.88395 135.58701 211.42985 C 134.78561 210.799 134.11838 210.62002 133.17357 211.21052 C 132.41857 211.95818 133.25708 213.85035 132.51535 214.2821 C 132.56885 214.72415 131.08656 216.53477 132.84446 216.25679 C 133.56291 216.5218 133.96564 217.76762 133.94149 218.88959 C 134.45517 219.53801 134.60914 220.37776 135.03851 221.41261 C 134.87748 222.50647 135.27333 223.94229 135.14821 224.70364 C 135.1568 225.75824 134.69002 227.20836 135.36761 228.10458 C 134.95061 228.45781 135.92459 230.11502 134.59969 230.7375 C 133.97171 229.64218 134.33928 232.532 134.27059 233.26039 C 134.52071 234.38237 132.90139 234.87883 133.50267 235.45454 C 134.29134 236.39317 132.66655 236.72568 134.16089 237.31956 C 134.27248 237.97464 133.59525 239.69971 135.25791 239.5137 C 136.28543 239.53685 135.7301 241.85193 135.36761 242.14651 C 134.86014 243.35766 134.48252 243.53664 135.03851 244.66952 C 136.20304 244.84959 137.52343 244.63826 137.56166 243.57251 C 138.50018 243.43837 138.9557 242.40764 140.30422 242.4755 C 141.38207 242.33251 142.30775 242.04896 143.15647 241.37837 C 143.65872 240.64889 145.32879 240.97364 145.67963 239.95248 C 145.80207 238.85051 147.17347 239.21597 148.31248 239.18435 C 149.26983 239.47117 150.31847 240.52928 150.94534 240.06203 C 151.22952 238.92988 152.33837 238.77792 152.37147 237.64856 C 152.7414 237.1567 153.53639 235.73082 152.70057 235.23508 C 152.2148 234.70045 151.41557 234.16619 150.94534 233.47984 C 150.94534 232.18204 150.94534 230.82802 150.94534 229.53058 C 151.89962 229.20486 150.77192 227.22629 151.60355 226.45888 C 152.01389 225.8158 153.24596 224.89716 153.13939 223.93598 C 153.36574 222.50962 152.39851 222.25648 152.70057 220.75438 C 153.43121 220.81472 153.47327 222.32773 153.9073 222.9484 C 154.5548 223.5006 154.15307 225.01324 154.23641 226.13001 C 153.42872 226.78921 153.58062 227.84162 154.23641 228.54348 C 154.011 229.8946 154.8975 230.32041 155.77224 231.06637 C 156.6323 231.43499 157.33602 231.64741 158.07599 232.27329 C 159.00914 232.91153 159.02259 234.98582 158.29539 233.3703 C 157.39735 233.1105 157.19019 231.55435 156.10134 232.05396 C 155.46525 233.06421 155.40065 233.67324 155.00432 234.7963 C 154.55025 235.32354 153.94451 236.36833 153.46849 236.99033 C 154.26214 237.86025 152.52203 237.84026 152.70057 239.0748 C 152.557 239.95103 154.76362 240.13716 153.46849 241.0495 C 153.11088 242.27919 154.05952 243.43134 155.00432 242.69483 C 155.88194 242.17001 156.79663 243.38893 157.41778 243.57251 C 158.19001 243.95119 159.28439 243.93689 160.16033 244.77931 C 161.0787 245.21251 162.02896 246.08426 162.79319 245.43754 C 163.74737 245.19676 164.65195 244.98046 165.53574 244.66952 C 166.48502 244.79554 166.76143 243.03752 166.41336 242.4755 C 165.27759 242.19074 164.54394 242.28622 164.54842 241.37837 C 163.64097 241.11481 164.02758 238.78386 164.54842 240.50081 C 164.87406 241.64314 165.97908 241.01193 166.52306 241.81727 C 166.86225 242.40485 169.10724 241.83448 168.38801 243.13361 C 168.88267 243.65842 169.14168 244.39457 170.14325 244.34053 C 170.88676 243.16039 173.0061 244.49709 171.56937 245.1083 C 171.12769 245.84687 170.13644 246.20955 170.91116 247.52177 C 171.67486 248.43762 172.27558 248.87047 172.7761 249.49634 C 173.44868 250.60038 172.71031 251.11962 172.33729 252.3486 C 172.20856 253.15151 171.20408 252.16925 171.56937 253.99441 C 170.77684 253.56254 171.12941 251.96774 170.25295 251.47104 C 170.21096 250.23079 170.14318 249.16747 168.60741 249.49634 C 167.05785 249.46132 168.23232 248.38176 167.9492 247.19278 C 167.67623 246.34151 166.81328 245.5741 165.97456 245.43754 C 164.78864 245.52357 164.07697 246.43458 163.3417 245.98586 C 162.49154 247.0693 162.11107 245.97823 160.81855 245.76653 C 159.54551 245.62439 159.30195 244.47225 158.07599 244.66952 C 156.8686 244.78888 156.40823 243.20426 155.11402 243.57251 C 153.85257 244.4199 153.45884 243.22146 152.70057 242.91428 C 152.82765 241.92184 153.52013 240.53304 152.70057 239.95248 C 152.09716 240.52819 151.22252 240.69639 150.94534 241.59782 C 150.54894 241.86041 150.06772 241.96365 149.62891 242.14651 C 148.90428 242.05453 148.43353 240.89015 147.32516 241.0495 C 146.40882 240.74195 146.58638 241.66774 146.11844 241.0495 C 145.87285 241.70591 144.63302 241.75438 144.58261 242.4755 C 144.02065 242.87429 142.86538 243.16451 141.84005 243.24352 C 140.79351 243.50647 139.93404 244.14713 138.87808 244.34053 C 138.653 244.8485 136.99552 245.23154 138.00046 245.43754 C 137.67571 246.74455 140.04757 246.0147 140.19451 246.97345 C 140.86646 246.49141 141.72374 247.38375 142.05945 247.7411 C 143.05621 247.88409 143.68884 248.44744 144.69231 248.18 C 144.91129 249.05647 143.94475 248.58473 143.15647 248.39933 C 142.87304 249.63194 144.4292 249.16008 144.58261 250.26448 C 144.84954 250.44176 144.63713 251.22287 145.35052 251.90982 C 146.3448 252.50176 144.8673 253.60932 145.56993 254.32329 C 146.09871 254.71154 146.24931 255.46913 147.21546 255.4203 C 146.87211 256.947 149.05355 255.64847 149.0804 255.96898 C 149.65047 255.5685 150.93298 255.9599 151.60355 256.18844 C 151.83426 255.46562 153.27504 254.93692 152.81027 254.76207 C 152.89425 253.84622 152.44962 252.26438 153.13939 251.90982 C 153.27236 251.17718 153.87164 250.41365 154.23641 249.49634 C 154.54849 248.99092 154.93272 248.4541 154.78492 248.07046 C 155.20464 248.27828 155.37001 248.80164 155.66254 249.16747 C 154.50093 248.95117 154.68452 250.60293 154.23641 251.03226 C 153.55225 251.62905 153.15311 252.74714 153.9073 253.66506 C 153.44403 254.08917 153.41692 255.51118 152.70057 255.85908 C 151.97486 255.86296 151.82299 257.5856 150.72593 256.51731 C 150.17922 256.12385 149.06566 256.48362 148.53189 256.95609 C 146.82716 256.70307 147.37561 257.31768 146.44754 257.61432 C 146.12497 256.94349 145.33536 256.75784 145.67963 255.4203 C 145.30422 254.86955 144.72064 254.5631 144.58261 253.77496 C 144.84417 252.42276 144.28527 252.05026 143.92439 251.03226 C 142.71138 249.71785 142.5888 251.52266 141.62065 251.36149 C 140.83774 251.14907 141.17 249.84497 140.52362 249.49634 C 140.21607 248.37898 139.29418 248.16134 138.76838 248.18 C 137.7553 247.76534 138.14166 249.4177 137.78106 249.93524 C 137.37455 250.64498 137.87353 251.78028 138.00046 252.12927 C 137.97266 253.24554 138.37791 254.39175 138.65868 255.09142 C 139.83835 255.45011 138.49544 257.18148 137.34226 256.51731 C 136.43248 256.35202 136.3714 255.84793 135.69672 255.09142 C 135.76657 253.77739 134.84529 253.92656 135.14821 252.89728 C 133.9577 252.8636 136.10252 251.89612 135.03851 251.14204 C 135.12939 250.12937 134.48792 249.87126 133.94149 249.49634 C 133.30187 248.76589 133.18077 248.29476 132.07654 248.07046 C 132.09933 247.41041 130.74611 247.1128 131.19892 246.64409 C 131.90832 245.93291 132.3386 245.32424 131.30863 245.1083 C 132.58036 244.00038 130.62328 243.61456 130.65041 242.91428 C 130.38126 241.53602 128.91427 243.69248 128.67578 242.25605 C 128.37651 241.06173 127.36089 241.32469 126.48173 241.0495 C 126.11973 241.04913 125.74673 241.0495 125.38471 241.0495 C 125.16007 241.93202 125.91078 243.75888 125.05559 244.01129 C 124.82868 244.7049 124.36504 245.52636 124.28768 246.53455 C 123.40522 246.69293 123.86576 248.25295 123.19065 248.61878 C 122.669 249.35493 122.3077 250.10647 121.65482 250.26448 C 120.41717 250.1227 120.31943 251.01468 119.89958 251.69049 C 119.85104 252.633 118.57936 252.45147 118.03465 252.89728 C 116.86359 252.69831 117.05046 254.44301 115.73089 254.32329 C 115.92303 255.07422 114.13942 255.51154 113.97566 254.76207 C 112.96655 255.22545 112.22584 255.16861 111.3428 255.4203 C 110.68188 256.2449 109.11568 255.35716 109.14876 256.51731 C 107.93628 256.8589 109.74946 257.97664 110.57489 257.61432 C 115.44315 262.06671 116.80208 264.48466 110.904 259.69892 C 110.46782 258.29921 110.31992 258.36525 109.80698 259.36956 C 109.98542 260.28166 108.56798 260.90365 108.05173 260.79593 C 106.97258 260.05275 106.76915 261.52287 105.74799 261.34425 C 105.31448 260.67196 104.3021 260.7145 103.22484 260.68602 C 102.78451 261.33686 102.06503 260.44028 101.03079 261.01526 C 101.54016 262.31488 99.477966 261.62296 99.494955 262.44126 C 98.848733 262.32651 97.561039 263.30973 98.397932 263.75772 C 98.270721 265.19633 98.945383 264.96428 98.397932 265.95174 C 97.952099 268.09451 96.285002 268.02641 94.887462 269.13323 C 92.852073 271.16827 95.265532 269.814 95.984484 271.10792 C 96.827776 272.31375 98.094518 273.33006 98.727035 274.61841 C 99.468223 276.09349 100.11152 277.44012 100.59198 278.78712 C 101.01477 280.42712 101.72652 281.61477 102.12782 282.84593 C 102.92429 285.35804 101.62543 284.6254 101.03079 286.13696 C 101.19857 287.82579 101.99641 288.48196 102.12782 290.19613 C 102.43657 291.35142 102.94362 294.3732 102.45692 295.02307 C 102.66694 297.11034 101.11782 297.83315 99.82407 297.98487 C 98.604211 297.32312 99.308379 300.89431 98.397932 301.60513 C 98.073361 302.76358 97.266665 304.18498 96.203887 304.67684 C 95.219534 305.06896 92.661729 304.45181 94.338944 306.43208 C 94.480369 308.19568 95.406727 309.21829 94.777761 310.92966 C 94.024516 311.37511 95.049547 314.56799 96.423289 312.90436 C 97.666765 310.20091 101.38095 312.43528 99.494955 314.6596 C 99.814424 316.46258 100.66718 318.67769 102.78602 319.26709 C 104.34286 320.17276 105.78291 320.5621 107.61293 320.91279 C 109.5066 320.8608 110.64584 322.3314 112.43982 322.33867 C 114.01806 321.30976 114.14038 318.41898 116.49881 319.81578 C 118.01706 321.17962 119.8161 319.89721 121.76452 320.14465 C 123.96349 320.53229 125.33454 318.52706 126.92053 317.51185 C 129.19265 318.79523 131.45754 314.37168 131.63773 317.84108 C 132.9914 319.43031 132.09729 320.82639 133.17357 322.33867 C 135.17773 322.08953 136.90268 324.00097 137.23255 325.73973 C 137.69678 328.33921 139.67195 327.07122 141.62065 327.16561 C 143.21243 328.65754 145.24093 328.37011 146.77666 326.94616 C 149.22963 326.89042 152.12276 326.48278 154.45581 327.05607 C 154.95652 329.41974 157.44305 329.67566 159.39242 329.03076 C 160.90488 330.35171 163.97738 328.42452 164.98724 329.35963 C 166.95152 329.75843 168.40451 327.36604 170.14325 328.26262 C 171.67985 329.48117 173.75703 331.34099 175.18955 328.81131 C 176.71256 328.51334 176.6729 327.99616 176.39628 327.49485 C 177.54448 328.25135 179.59845 328.08922 181.11348 327.60439 C 183.66612 325.91023 183.59408 328.15659 185.17246 329.90832 C 186.68386 331.96372 189.13957 331.71094 190.76728 333.4188 C 192.44707 333.13622 194.42979 333.83165 196.47179 333.85758 C 198.75845 334.31151 199.51907 337.31123 201.5181 338.24575 C 203.84302 338.86011 202.31642 341.98477 204.91887 342.30455 C 205.8521 343.75261 209.20849 342.51904 208.20994 345.37626 C 209.16641 347.24068 207.52818 350.17848 210.07488 350.86131 C 211.08358 352.63691 209.9667 354.5252 211.50102 355.90758 C 213.23147 355.83318 213.48973 357.70427 215.6697 358.65041 C 213.5393 359.64975 216.004 359.80183 217.53464 361.17331 C 218.87873 363.17041 222.49831 360.87606 221.15482 363.47723 C 221.80808 364.69748 225.4436 365.35886 224.11677 367.53604 C 224.6972 369.77574 227.0706 369.77114 228.17576 371.59521 C 229.90527 372.23029 232.54068 370.85591 233.44147 373.02121 C 234.66048 372.82394 236.66627 373.1539 238.04897 374.33767 C 239.4626 376.44384 241.78773 373.25424 243.64379 374.77645 C 244.7967 376.52818 245.14174 378.24404 245.61844 380.15196 C 247.34428 380.34645 247.97526 382.37349 249.56771 383.00422 C 251.08055 385.70136 252.94529 383.09304 254.39462 383.00422 C 255.88085 381.89642 258.51542 382.37907 259.98943 381.57797 C 262.54492 381.76119 264.62761 381.34798 266.79097 381.13919 C 268.3054 380.55185 270.24503 380.05478 271.83728 379.38395 C 273.47222 378.41187 275.88925 377.83652 277.43209 378.61617 C 279.89582 378.35116 281.91093 379.12621 284.34335 378.94517 C 286.64544 379.07955 287.57337 380.59959 289.60906 381.13919 C 293.34135 382.62518 289.62236 378.98443 292.24191 378.94517 C 292.69396 377.13479 294.49346 375.77871 295.53298 376.75103 C 294.78132 378.25676 299.31723 376.09037 299.15316 378.83562 C 300.72803 380.64624 302.57138 378.55825 304.85767 378.94517 C 306.00536 380.14082 308.64456 380.46545 309.57488 378.94517 C 311.27261 377.98642 312.67505 377.76418 314.40178 378.17739 C 316.51214 377.96218 318.27201 376.77599 319.88689 377.40926 C 320.85779 378.7176 323.50426 377.06172 324.7138 376.75103 C 326.34999 375.14398 325.14499 372.17625 327.78546 372.25344 C 328.80802 373.08229 331.29319 370.20156 332.06385 372.69222 C 333.35964 373.64673 335.94741 372.71645 337.32956 372.25344 C 340.12737 372.51918 339.17323 369.43669 341.38855 369.40119 C 343.01622 367.76712 343.1653 366.59171 343.5826 364.13546 C 345.76551 363.97963 347.29948 362.18501 348.73861 363.03845 C 348.53966 365.34517 352.85922 364.93159 353.8946 364.46446 C 353.62803 362.35781 353.95956 360.09883 355.75955 358.65041 C 354.07712 357.85489 352.41344 360.86297 350.71324 359.41806 C 350.34085 358.23611 349.39267 357.85416 348.51919 357.55328 C 348.70251 357.60248 348.85451 357.61762 349.06771 357.66282 C 350.83004 356.9085 347.58492 355.33575 347.86099 353.93301 C 347.08063 351.63114 351.69116 355.42881 350.93265 352.50701 C 350.77338 350.74655 353.89138 349.78708 352.46848 347.89951 C 351.33983 345.96772 353.19919 344.29148 352.79758 342.30455 C 352.39549 340.41941 354.15466 339.08538 353.2364 337.25828 C 353.79299 335.67644 354.6521 334.04504 355.54015 332.54124 C 356.10993 331.02084 356.17111 329.35091 357.62449 327.93375 C 358.56007 326.4663 360.77897 328.04499 361.90288 328.92085 C 363.73997 328.35145 364.89868 329.39684 365.52305 331.22478 C 366.12005 333.57536 368.41621 331.62988 369.25293 330.56655 C 371.94431 330.22714 374.09511 327.72836 373.53132 324.97159 C 374.10174 323.85665 373.70572 322.21095 372.87311 321.57102 C 373.82403 321.86729 374.76581 321.59525 375.94477 320.69334 C 377.54218 320.42093 379.66285 318.81595 377.3709 317.62176 C 376.01415 316.3734 376.6502 314.4233 375.50597 313.01426 C 375.31061 311.15154 375.61325 309.30299 374.40895 307.74854 C 373.17648 306.82178 371.84331 306.05825 370.24026 305.33507 C 368.25768 305.15209 369.50389 308.17326 367.60739 309.06488 C 365.84173 310.01236 364.13926 308.0739 364.53573 306.21263 C 364.07157 304.2795 361.76653 303.49973 360.91556 301.71468 C 358.93867 301.38896 357.70579 300.12096 357.29539 298.2042 C 355.55471 297.97432 354.60099 296.02629 354.66252 294.25493 C 353.54433 292.24595 357.35766 292.11956 357.62449 290.08622 C 359.60952 288.4255 358.48107 287.23118 356.41777 286.68564 C 354.5155 285.3338 356.61193 283.78529 356.08865 281.96824 C 356.79113 280.34363 357.32413 279.42911 356.52747 277.36075 C 356.77502 274.46427 353.26479 276.6612 353.3461 274.83786 C 353.2476 272.46195 355.99984 271.98839 356.74687 270.01091 C 357.01083 269.63672 357.22331 269.30106 357.40509 268.9139 C 357.37202 269.21818 357.37268 269.52088 357.40509 269.79146 C 357.75936 271.34458 359.4644 271.39233 360.69616 271.98548 C 362.40358 271.91423 363.96061 272.63984 365.52305 273.30195 C 366.81775 273.78714 367.97031 274.64858 369.14323 275.38618 C 370.21964 275.84702 371.7136 276.27259 372.87311 275.71542 C 374.42196 275.07791 375.00112 273.66778 375.06715 272.09503 C 375.76567 269.55941 374.76027 266.97508 373.86043 264.63528 C 373.21847 263.56639 372.66079 262.16498 373.20222 261.01526 C 374.96683 260.46948 374.1029 258.31678 374.29924 256.95609 C 373.19906 255.44841 375.28627 254.49499 375.72537 253.22628 C 376.55823 252.37853 377.44455 250.52671 378.35822 250.48393 C 379.54968 251.36149 381.20245 251.30539 381.9784 249.93524 C 381.48577 248.59697 383.8682 247.33359 382.19781 246.31522 C 380.97321 245.72545 380.8945 243.50792 382.30751 243.24352 C 384.09458 243.66618 384.72696 241.91482 384.39185 240.61072 C 386.23542 238.09679 384.96981 234.71524 382.74631 232.93152 C 381.55461 233.10807 379.62031 232.5812 379.45524 231.28582 C 379.79903 229.565 378.19878 228.78983 376.71269 229.20159 C 375.76068 230.17645 374.15128 230.19972 372.98281 229.31113 C 371.74965 228.02702 372.18256 225.99792 371.66638 224.37476 C 372.89442 223.34307 373.80345 222.04587 374.84775 220.86428 C 373.87538 220.27524 373.05531 219.32595 372.2149 218.56035 C 372.61288 217.06528 373.21166 215.06987 372.6537 213.62387 C 372.67606 211.76611 370.58485 211.24384 369.69174 209.6746 C 368.78449 207.82291 368.63526 206.16024 369.80144 204.84778 C 371.11551 203.94138 369.0005 201.32009 371.77608 201.22739 C 373.67465 202.46024 374.8962 198.87851 372.6537 198.59447 C 370.31415 198.30244 371.87547 194.98959 370.13056 194.42588 C 368.22155 194.11131 367.72609 191.45003 368.48502 190.36707 C 370.67134 189.94502 370.63774 188.1161 371.00816 186.3079 C 370.63315 183.65705 371.59059 181.12216 371.66638 178.51917 C 372.709 177.11534 372.36335 175.15615 372.4343 173.36299 C 374.24869 173.45459 373.36524 171.46766 372.76341 170.51073 C 372.80371 168.01232 371.3147 169.4983 369.80144 169.30418 C 369.01218 167.95161 368.00731 167.57802 367.27829 166.45193 C 366.10745 165.90603 364.66791 166.80504 363.54841 167.00025 C 362.03101 166.95917 361.41201 167.57111 360.91556 168.8654 C 359.82991 169.01457 359.60822 167.27411 358.72151 167.11016 C 356.89421 167.37372 356.21763 164.87785 354.22372 165.57425 C 352.78004 165.00775 352.60879 163.09595 351.26176 163.05099 C 350.66072 162.50194 348.93923 162.07334 348.73861 161.1862 C 347.74398 160.61049 347.97672 159.49555 346.98337 158.33395 C 346.60273 157.20047 346.33527 156.10939 345.11842 155.92048 C 343.39984 156.2336 342.75148 154.89084 341.05944 154.82347 C 339.27815 154.64449 338.26085 154.12137 336.67134 153.72646 C 336.35993 153.53549 336.13818 153.31567 335.79372 153.28768 C 335.6789 153.27811 335.62161 153.36099 335.46462 153.39722 C 333.88157 153.66963 334.35437 155.26964 333.16087 155.59124 C 332.34132 156.50637 330.95264 158.52384 329.10189 157.89517 C 327.4606 157.92038 325.90995 158.47052 324.8235 158.99218 C 323.93377 159.70894 323.47558 160.77614 322.51975 161.1862 C 321.74285 161.7956 319.47842 161.63662 319.11898 163.27032 C 318.02424 163.2462 317.23933 164.85991 316.37642 165.46446 C 315.59874 166.61939 314.89174 167.04872 314.29207 168.53604 C 313.17434 168.85062 311.71789 169.62081 311.00101 170.29128 C 309.5125 170.423 307.99703 171.13843 306.39351 171.16896 C 304.59664 171.54813 303.48557 172.00266 301.45691 171.82719 C 300.37578 172.38957 298.34547 172.23398 296.84941 172.59521 C 294.87571 172.8452 293.34915 171.98897 291.3643 172.26597 C 289.89144 171.71547 289.02523 171.18544 288.84114 169.30418 C 288.70125 167.36851 287.05462 167.80171 286.31799 168.97494 C 284.66891 168.51883 283.35859 169.56119 282.58811 170.40119 C 282.12016 171.15212 281.56488 171.74007 281.05228 172.37588 C 280.99991 171.90366 280.72088 171.4421 280.17466 171.4982 C 278.99005 171.75303 278.29164 170.90528 277.10299 171.16896 C 276.0918 171.15951 274.95019 171.27112 274.47014 170.73018 C 274.17189 170.27589 273.6094 169.5309 272.6052 169.63305 C 272.30488 169.19039 271.78158 168.37536 271.06937 167.76839 C 270.02616 167.54336 269.50837 167.29229 268.87532 166.34202 C 268.24193 166.61515 267.28739 166.64327 267.01039 166.01315 C 265.97079 165.77189 265.52921 165.72354 264.59693 166.34202 C 263.50802 166.58668 262.74312 165.67361 261.85437 166.34202 C 260.82745 166.27743 260.02208 165.80388 258.89241 166.01315 C 258.17852 165.22041 256.68558 165.66695 255.93045 166.01315 C 255.08835 166.80092 254.78881 165.71929 254.39462 165.02556 C 254.07797 164.27511 254.6415 163.63482 254.06551 162.61221 C 254.17932 161.59663 253.97554 160.75263 253.2976 160.08919 C 253.40175 159.14596 252.66764 158.3308 251.54235 158.5534 C 250.8133 159.11639 250.1448 159.77922 249.12891 159.65041 C 248.90838 160.42025 247.19769 159.6904 246.93486 160.41807 C 245.9409 160.32403 245.49985 161.55373 244.52141 161.5152 C 243.64866 160.61922 241.93928 161.72362 241.12063 160.74742 C 240.0611 160.51537 239.53362 161.73029 238.92659 161.84443 C 238.81678 162.6013 238.16727 162.85093 237.82956 163.38023 C 236.92639 163.12018 235.66427 163.78786 235.19671 163.59968 C 234.68783 163.11703 234.49669 162.75641 233.66088 162.17331 C 233.11922 161.49726 232.57716 161.0437 232.23475 160.08919 C 231.68181 159.87229 231.26199 158.72778 230.26011 158.88228 C 229.54359 158.40169 228.5591 158.71481 227.84666 158.22405 C 227.31822 157.52898 225.57482 157.8421 225.54291 158.5534 C 224.61703 159.36844 223.90268 159.43484 224.44589 160.74742 C 223.43276 161.16657 222.73625 160.3799 221.92273 160.08919 C 221.3733 161.14379 220.68392 159.58268 220.0578 159.32106 C 219.1079 160.19522 219.70026 158.56176 218.52196 159.32106 C 217.79249 158.91778 216.43965 160.38087 217.09583 159.32106 C 217.07365 158.30935 218.25846 158.28657 217.20554 157.23694 C 216.16461 156.97859 216.13281 155.9847 215.99881 155.15246 C 216.12473 154.63286 215.19529 154.94489 214.90179 154.82347 C 214.88195 155.51466 213.51694 156.38277 213.03685 155.59124 C 212.02193 155.49079 211.05325 155.6425 210.29428 156.13993 C 209.69052 156.16768 209.40976 156.419 209.30696 156.79816 C 209.29036 156.69068 209.3374 156.58186 209.30696 156.4688 C 208.43398 156.19991 207.9468 155.12823 207.33233 154.27478 C 205.26098 153.44351 205.33543 154.64231 205.24799 155.92048 C 205.71164 157.62374 203.19699 156.16162 203.82185 157.45627 C 202.93033 158.11414 202.11387 158.60599 202.28602 160.08919 C 201.12708 159.6715 201.81593 158.1202 201.4084 157.67572 C 200.65825 156.32388 201.3271 155.41178 201.5181 154.05533 C 201.61942 152.65017 200.11472 151.56431 201.4084 150.7643 C 201.79365 149.827 202.71076 149.91437 203.82185 149.33842 C 204.99615 149.09619 205.04037 147.41813 206.01589 146.70549 C 207.79673 146.31482 205.39718 145.05665 206.01589 143.63379 C 205.88657 142.18888 208.27983 142.80252 208.64876 141.32986 C 208.83288 140.27357 210.39103 138.94414 209.19726 138.03883 C 207.73929 137.62465 208.25603 136.08838 207.66143 135.07704 C 206.5564 134.07406 205.06077 134.08424 203.49275 134.19948 C 202.10621 134.19948 200.71059 134.19948 199.32406 134.19948 z M 144.2535 201.22739 C 144.84308 201.78735 144.4768 201.8912 144.2535 201.22739 z M 153.46849 224.81354 C 153.50854 225.42961 151.83742 226.64634 152.91998 226.45888 C 153.85752 226.2427 154.3056 225.82767 153.46849 224.81354 z M 152.15207 227.44635 C 151.78442 227.56752 151.49185 228.02569 151.60355 228.76281 C 151.03159 229.80444 151.79333 230.60021 151.60355 231.83451 C 152.14494 232.36248 152.26977 233.70802 153.13939 234.24798 C 153.76456 235.26986 154.22535 234.85629 155.00432 234.02853 C 154.83881 232.80029 155.70144 232.16484 155.55284 231.28582 C 155.1366 230.87891 154.65745 230.90557 154.67522 230.29872 C 153.66311 230.08096 153.88466 228.83551 153.35879 227.99479 C 152.98124 227.52753 152.51972 227.32493 152.15207 227.44635 z M 147.54456 239.5137 C 147.6986 240.36703 149.54737 241.13056 149.84832 240.28136 C 149.24168 239.77763 148.06538 240.10832 147.54456 239.5137 z M 136.13553 246.53455 C 136.08792 246.71122 136.35493 246.82707 136.46464 246.97345 C 136.17819 246.95127 136.06353 246.93019 136.13553 246.53455 z M 370.24026 320.69334 C 370.74544 320.76641 371.19559 320.84008 371.66638 321.02233 C 371.19247 320.87304 370.70989 320.78143 370.24026 320.69334 z" stroke-linecap="round" />
</g>
</svg>