<?xml version="1.0" encoding="utf-8"?>
<svg viewBox="208.0445 67.2716 228.1139 345.5729" xmlns="http://www.w3.org/2000/svg">
  <g transform="matrix(1, 0, 0, 1, 322.10001090317974, 240.06000113576647)" id="path4187">
    <path style="stroke: rgb(211,141,95); stroke-width: 2.59155774; stroke-dasharray: none; stroke-linecap: butt; stroke-dashoffset: 0; stroke-linejoin: miter; stroke-miterlimit: 4; fill: rgb(253,249,210); fill-rule: evenodd; opacity: 1;" transform=" translate(-252.1, -280.1)" d="M 299.69289 107.31651 C 299.31274 107.29236 298.92019 107.34794 298.64008 107.72144 C 298.2885 108.60015 298.20117 111.05855 297.58725 110.47497 C 297.24672 110.15127 296.18221 109.40326 294.75274 112.01371 C 290.54617 111.02188 290.87776 115.83133 287.70694 117.3588 C 287.35052 117.28751 287.01054 117.26811 286.65411 117.19682 C 287.06267 119.68392 283.52367 120.53618 282.60481 122.54191 C 281.45688 124.79011 278.095 123.64698 275.96394 123.99966 C 272.79576 124.40754 267.27688 126.92058 263.97798 127.64404 C 262.16024 128.51975 260.70946 130.21815 258.87586 130.64053 C 256.56808 128.6861 256.96388 125.56421 253.9357 124.4046 C 251.05583 123.93733 246.81021 124.9411 245.83708 121.40811 C 245.82785 119.52493 245.01603 117.38762 242.59763 117.76372 C 241.36084 118.19801 240.03803 117.95799 238.79128 118.41162 C 238.65217 115.34423 231.67507 116.86748 226.80533 116.95386 C 224.08351 116.42902 224.03933 115.38541 216.11515 115.90105 C 209.29544 117.16748 206.13179 115.74993 195.54466 119.7074 C 190.41195 117.25082 184.61194 121.87187 179.75235 119.95035 C 175.52233 123.49809 170.91613 126.75054 163.31216 128.04897 C 156.77851 132.16224 150.91117 137.0361 138.04447 143.6793 C 138.64916 145.29611 139.00907 146.47185 138.53039 148.53847 C 138.0517 150.6051 139.01627 153.72158 139.0163 153.72159 L 142.82265 156.07019 C 142.15574 158.29902 142.38608 159.22193 142.66068 160.03851 C 144.79789 161.57748 145.42295 162.6492 145.4952 165.3836 C 145.68817 167.59362 147.21516 169.54076 147.8438 171.70053 C 148.47243 173.86028 147.98742 176.26276 149.46352 178.01745 C 147.1512 188.63934 150.33123 187.66445 149.13957 188.95058 C 148.19239 190.92716 146.50544 191.22141 144.60435 190.81326 C 147.30371 193.08904 149.54331 195.61094 153.1079 197.45413 C 152.29612 198.88416 153.25704 200.73787 154.32269 202.63725 L 152.70297 203.36612 L 155.94242 206.92952 C 155.73364 211.58823 155.97678 216.08516 154.88959 221.18308 C 155.41267 224.10983 160.8297 223.72079 157.56214 229.60565 C 159.0668 232.78168 157.96189 235.98599 158.12905 239.16202 L 159.34383 240.53878 L 159.5058 245.07401 C 159.5156 245.16723 160.88827 245.56034 157.96707 253.65854 C 155.87586 261.39002 155.61728 251.77047 154.32269 264.67266 C 154.95762 277.11862 159.4023 263.40923 157.48116 285.0002 C 157.45946 286.08507 151.92845 289.24833 152.62199 290.42627 C 153.31554 291.60424 152.7724 293.08661 155.37551 294.15164 C 156.14316 298.3632 155.61681 304.19887 154.56565 306.54252 C 153.51449 308.8862 151.45029 308.45926 151.08325 310.83479 C 151.07467 314.29477 151.82448 317.23663 150.43536 321.52497 C 150.1302 325.9422 153.11329 326.91714 150.92127 330.19049 C 152.15745 332.86503 150.86089 333.6214 150.43536 335.04966 C 151.80815 336.63683 153.20609 338.2812 150.27339 340.31376 C 150.93594 342.78292 152.91247 345.27589 149.86845 347.60252 C 150.82367 348.27055 151.63577 349.17279 152.13607 350.59901 C 154.18801 350.83419 155.25666 352.34861 156.42833 353.75747 C 156.21707 359.47906 159.78399 367.74382 156.18537 368.09202 C 154.89615 368.21675 155.50162 373.05234 154.72762 374.48993 C 155.48304 377.05832 156.12398 380.8427 157.15721 381.04981 C 158.32126 381.4969 163.55693 384.12695 159.10088 388.41956 C 159.91294 389.74503 161.41213 389.61719 161.53046 392.46886 C 162.18099 392.95522 162.02752 393.79105 161.93539 394.57451 C 163.58769 395.77598 164.2679 397.30888 163.63611 399.27171 C 166.08722 402.40943 165.17821 404.41703 164.85089 404.94074 C 165.15541 405.09864 168.64211 409.54684 167.44245 410.36681 C 167.5478 411.61384 167.57563 413.03222 165.98471 414.01119 C 165.54999 414.44592 165.09899 414.20983 164.60794 414.57809 C 164.09323 414.96416 164.0714 414.9223 163.79808 415.46894 C 165.49013 418.80394 164.78987 417.62991 164.85089 419.11332 C 165.0732 420.16616 164.38079 420.14738 167.19949 422.91967 C 167.27975 423.50984 167.18861 424.02963 167.11851 424.62038 C 167.28577 425.40594 167.58707 426.09331 168.09034 426.72602 C 168.86463 426.33886 169.53558 425.18729 170.6819 425.18729 C 173.89481 426.13864 173.78452 427.53717 177.24178 425.43024 C 179.1955 424.99618 181.28194 424.71725 183.23476 424.45841 L 183.23476 424.37742 L 184.7735 424.53939 C 188.26347 425.54194 189.8522 426.85137 196.19255 426.72602 C 198.86204 427.40631 200.761 427.59953 202.75243 425.59221 C 204.32398 425.59221 205.78479 425.79005 206.96371 426.96898 C 208.92951 428.81588 212.44027 429.33209 214.81937 429.80349 C 216.5842 430.45273 217.37851 432.70062 218.38276 434.17675 C 219.18498 436.04239 220.20232 437.67867 221.21728 439.44085 C 222.5807 441.37003 223.79915 443.45885 225.42856 445.19087 C 226.39985 446.61534 226.42655 448.46004 227.61519 449.80708 C 228.23081 451.12755 228.83457 452.27334 230.20674 452.88456 L 259.1998 420.81403 L 311.11194 403.88791 L 351.2811 379.02516 L 355.24942 362.82792 C 352.7665 361.87073 351.93883 358.92467 349.66136 357.72579 C 348.21391 356.32334 348.74535 354.2192 347.87967 352.54267 C 347.37406 350.36615 348.95631 348.27368 348.04164 346.14477 C 348.0744 344.36206 349.38816 342.6812 348.04164 340.88066 C 346.78516 338.90779 349.55587 336.43982 347.96066 334.64472 C 349.37406 334.60222 350.0732 335.8538 351.2001 331.16232 C 353.08223 328.48153 354.19292 327.49809 355.65435 326.70808 C 356.10253 326.85499 360.22741 325.75558 360.99944 323.46863 C 360.15321 322.64814 357.73171 322.16713 357.27407 321.03905 C 356.62336 319.43513 356.09393 319.12992 354.43956 319.25736 C 351.38882 318.96549 352.46277 315.24946 349.41841 315.20805 C 344.00428 316.09884 345.45781 313.88523 342.4536 311.88761 C 341.21321 311.11735 339.51708 308.76242 337.91838 308.64816 L 335.08386 308.72915 L 325.36552 300.30659 L 325.36552 288.07767 L 326.41833 288.32063 C 326.73744 288.27323 329.54577 287.90435 330.62961 287.75373 C 331.81212 287.589 333.23613 287.77565 334.19301 286.94387 C 335.36853 287.68082 334.97861 283.1026 334.35498 281.27483 C 333.91055 280.08096 333.19761 280.68279 332.16835 279.25018 C 331.05922 278.43194 330.67958 277.709 331.03455 276.41566 C 331.5405 274.80441 330.21126 273.62548 329.41483 272.44734 C 328.5211 271.03489 330.79418 270.16796 330.1437 268.80296 C 329.60953 266.80989 329.91359 265.59772 331.35849 264.34872 C 330.18221 262.78658 331.13518 260.40841 329.90074 259.40856 C 328.60584 259.27896 325.97375 259.39898 325.28452 257.95081 C 324.95763 258.14087 323.38979 259.41427 322.36903 258.51771 L 324.23171 251.63389 L 331.84441 250.986 L 337.91838 248.47543 L 346.5839 248.47543 L 351.92898 234.30285 L 348.52756 230.57748 L 350.95715 222.64084 L 342.61557 220.77815 C 342.44347 219.3862 338.5744 213.00674 336.13667 212.51756 C 334.98502 209.99222 331.8449 211.65408 330.79158 209.926 C 332.47312 208.63546 331.99795 208.56085 331.9254 208.54924 C 332.45389 207.31161 332.26538 206.04714 336.21766 204.82387 C 337.3771 204.26268 338.79256 204.59436 340.02401 203.93303 L 340.26698 201.7464 L 341.96768 200.77457 L 341.64373 199.07386 L 345.85502 192.10904 L 347.63671 191.29918 L 362.21422 171.70053 C 364.81845 171.04185 366.8435 170.17656 365.93959 168.05614 L 350.79518 153.96455 L 341.23881 151.04904 C 340.09494 150.23526 340.47212 149.20321 340.105 148.3765 C 334.92582 143.08816 329.89639 137.44227 324.47466 132.42223 C 321.65313 126.25477 314.97914 124.43523 308.92532 122.54191 C 306.06862 117.20407 305.18565 111.44218 300.8267 107.55947 C 300.44735 107.44896 300.07305 107.34066 299.69289 107.31651 z" stroke-linecap="round"/>
  </g>
</svg>