<?xml version="1.0" encoding="utf-8"?>
<svg viewBox="247.227 186.597 27.2064 41.2" xmlns="http://www.w3.org/2000/svg">
  <path d="M 266.507 186.597 C 266.457 186.597 266.417 186.597 266.377 186.647 C 266.337 186.747 266.327 187.047 266.257 186.977 C 266.217 186.937 266.087 186.847 265.917 187.157 C 265.417 187.037 265.457 187.607 265.077 187.797 C 265.037 187.787 264.997 187.787 264.947 187.777 C 264.997 188.067 264.577 188.177 264.467 188.407 C 264.327 188.677 263.927 188.547 263.677 188.587 C 263.297 188.637 262.637 188.937 262.247 189.017 C 262.027 189.127 261.857 189.327 261.637 189.377 C 261.367 189.147 261.407 188.767 261.047 188.637 C 260.707 188.577 260.197 188.697 260.087 188.277 C 260.087 188.047 259.987 187.797 259.697 187.837 C 259.547 187.897 259.397 187.867 259.247 187.917 C 259.227 187.557 258.397 187.737 257.817 187.747 C 257.487 187.687 257.487 187.557 256.537 187.617 C 255.727 187.767 255.347 187.597 254.087 188.077 C 253.477 187.777 252.787 188.327 252.207 188.107 C 251.697 188.527 251.147 188.917 250.247 189.067 C 249.467 189.557 248.767 190.137 247.227 190.927 C 247.307 191.127 247.347 191.267 247.287 191.507 C 247.237 191.757 247.347 192.127 247.347 192.127 L 247.797 192.407 C 247.717 192.677 247.747 192.787 247.787 192.887 C 248.037 193.067 248.107 193.197 248.117 193.517 C 248.147 193.787 248.327 194.017 248.397 194.277 C 248.477 194.527 248.417 194.817 248.597 195.027 C 248.317 196.297 248.697 196.177 248.557 196.327 C 248.437 196.567 248.237 196.597 248.017 196.557 C 248.337 196.827 248.607 197.127 249.027 197.347 C 248.927 197.517 249.047 197.737 249.177 197.957 L 248.977 198.047 L 249.367 198.477 C 249.337 199.027 249.367 199.567 249.237 200.177 C 249.307 200.527 249.947 200.477 249.557 201.177 C 249.737 201.557 249.607 201.937 249.627 202.317 L 249.767 202.477 L 249.787 203.017 C 249.787 203.037 249.957 203.077 249.607 204.047 C 249.357 204.967 249.327 203.817 249.177 205.357 C 249.247 206.847 249.777 205.207 249.547 207.787 C 249.547 207.917 248.887 208.287 248.967 208.427 C 249.057 208.567 248.987 208.747 249.297 208.877 C 249.387 209.377 249.327 210.067 249.197 210.347 C 249.077 210.627 248.827 210.577 248.787 210.867 C 248.787 211.277 248.877 211.627 248.707 212.137 C 248.677 212.667 249.027 212.777 248.767 213.167 C 248.917 213.487 248.757 213.577 248.707 213.747 C 248.877 213.937 249.037 214.137 248.687 214.377 C 248.767 214.677 249.007 214.967 248.637 215.247 C 248.757 215.327 248.857 215.437 248.907 215.607 C 249.157 215.637 249.287 215.817 249.427 215.977 C 249.397 216.667 249.827 217.647 249.397 217.687 C 249.237 217.707 249.317 218.277 249.217 218.457 C 249.307 218.757 249.387 219.207 249.507 219.237 C 249.647 219.287 250.277 219.607 249.747 220.117 C 249.837 220.277 250.017 220.257 250.027 220.597 C 250.107 220.657 250.087 220.757 250.077 220.847 C 250.277 220.987 250.357 221.177 250.287 221.407 C 250.577 221.787 250.467 222.017 250.427 222.087 C 250.467 222.107 250.877 222.637 250.737 222.727 C 250.747 222.877 250.757 223.047 250.567 223.167 C 250.507 223.217 250.457 223.187 250.397 223.237 C 250.337 223.277 250.337 223.277 250.307 223.337 C 250.507 223.737 250.417 223.597 250.427 223.777 C 250.457 223.897 250.367 223.897 250.707 224.227 C 250.717 224.297 250.707 224.357 250.697 224.427 C 250.717 224.527 250.757 224.607 250.817 224.677 C 250.907 224.637 250.987 224.497 251.127 224.497 C 251.507 224.607 251.497 224.777 251.907 224.527 C 252.137 224.477 252.387 224.447 252.617 224.407 L 252.617 224.397 L 252.807 224.417 C 253.217 224.537 253.407 224.697 254.167 224.677 C 254.487 224.767 254.707 224.787 254.947 224.547 C 255.137 224.547 255.307 224.567 255.447 224.707 C 255.687 224.927 256.097 224.997 256.387 225.047 C 256.597 225.127 256.687 225.397 256.807 225.567 C 256.907 225.797 257.027 225.987 257.147 226.197 C 257.307 226.427 257.457 226.677 257.647 226.887 C 257.767 227.057 257.767 227.277 257.907 227.437 C 257.987 227.587 258.057 227.727 258.217 227.797 L 261.677 223.977 L 267.867 221.957 L 272.657 218.997 L 273.127 217.067 C 272.837 216.947 272.737 216.597 272.467 216.457 C 272.287 216.287 272.357 216.037 272.247 215.837 C 272.187 215.577 272.377 215.327 272.267 215.077 C 272.277 214.857 272.427 214.657 272.267 214.447 C 272.117 214.207 272.447 213.917 272.257 213.707 C 272.427 213.697 272.517 213.847 272.647 213.287 C 272.867 212.967 273.007 212.847 273.177 212.757 C 273.227 212.777 273.727 212.647 273.817 212.367 C 273.717 212.267 273.427 212.217 273.367 212.077 C 273.297 211.887 273.227 211.857 273.037 211.867 C 272.667 211.837 272.797 211.387 272.437 211.387 C 271.787 211.487 271.967 211.227 271.607 210.987 C 271.457 210.897 271.257 210.617 271.067 210.607 L 270.727 210.617 L 269.567 209.607 L 269.567 208.147 L 269.697 208.177 C 269.727 208.177 270.067 208.127 270.197 208.107 C 270.337 208.087 270.507 208.117 270.617 208.017 C 270.757 208.107 270.717 207.557 270.637 207.337 C 270.587 207.197 270.497 207.267 270.377 207.097 C 270.247 206.997 270.197 206.917 270.247 206.757 C 270.307 206.567 270.147 206.427 270.047 206.287 C 269.947 206.117 270.217 206.017 270.137 205.847 C 270.077 205.617 270.107 205.467 270.277 205.317 C 270.137 205.137 270.257 204.847 270.107 204.727 C 269.957 204.717 269.637 204.727 269.557 204.557 C 269.517 204.577 269.327 204.727 269.207 204.627 L 269.427 203.807 L 270.337 203.727 L 271.067 203.427 L 272.097 203.427 L 272.737 201.737 L 272.327 201.297 L 272.617 200.347 L 271.627 200.127 C 271.607 199.957 271.137 199.197 270.847 199.137 C 270.717 198.837 270.337 199.037 270.217 198.827 C 270.417 198.677 270.357 198.667 270.347 198.667 C 270.407 198.517 270.387 198.367 270.857 198.227 C 270.997 198.157 271.167 198.197 271.317 198.117 L 271.347 197.857 L 271.547 197.737 L 271.507 197.537 L 272.007 196.707 L 272.227 196.607 L 273.957 194.277 C 274.267 194.197 274.517 194.087 274.407 193.837 L 272.597 192.157 L 271.457 191.807 C 271.327 191.717 271.367 191.587 271.327 191.487 C 270.707 190.857 270.107 190.187 269.457 189.587 C 269.127 188.857 268.327 188.637 267.607 188.407 C 267.267 187.777 267.157 187.087 266.637 186.627 C 266.597 186.607 266.547 186.597 266.507 186.597 L 266.507 186.597 Z" fill="#fdf9d2" fill-rule="evenodd" id="Tarapaca" stroke="#d38d5f" stroke-miterlimit="4" stroke-width="0.31" transform="matrix(1, 0, 0, 1, 7.105427357601002e-15, 7.105427357601002e-15)"/>
</svg>