<?xml version="1.0" encoding="utf-8"?>
<svg viewBox="280.024 186.2032 24.1886 31.1578" xmlns="http://www.w3.org/2000/svg">
  <path d="M 294.124 186.206 C 294.024 186.206 293.904 186.246 293.804 186.326 C 293.704 186.396 293.514 186.466 293.384 186.466 C 293.254 186.466 292.894 186.576 292.594 186.726 C 292.434 186.966 292.104 186.906 291.674 187.066 C 291.624 187.506 291.424 187.166 291.214 186.836 C 291.164 186.766 291.054 186.736 290.944 186.716 C 290.754 186.726 289.924 186.466 290.074 186.776 C 289.884 187.016 290.304 187.096 290.234 187.256 C 289.934 187.426 289.864 187.606 289.724 187.776 C 289.574 187.786 289.384 187.956 289.174 188.256 C 288.814 188.576 288.474 188.926 288.274 188.926 C 288.184 188.926 288.044 188.816 287.954 188.666 C 287.864 188.496 287.794 188.416 287.734 188.406 C 287.674 188.396 287.614 188.466 287.544 188.616 C 287.324 189.096 286.974 189.016 287.034 189.226 C 287.064 189.366 286.404 189.606 286.014 189.626 C 285.754 189.646 285.334 189.506 284.764 189.256 L 284.354 189.076 L 284.164 189.266 C 283.634 189.796 283.604 189.536 283.474 189.346 L 283.554 189.966 C 283.554 190.156 283.574 190.236 283.764 190.186 C 284.134 190.106 284.274 190.436 284.264 190.796 C 284.264 191.046 284.224 191.496 284.264 191.716 C 284.284 191.796 284.374 191.896 284.414 191.836 C 284.564 191.586 284.684 192.086 284.814 192.126 C 284.954 192.176 285.144 192.446 285.204 192.666 C 285.234 192.776 285.224 192.816 285.004 192.766 C 284.904 192.836 285.004 193.326 284.824 193.426 C 284.834 193.716 285.004 194.566 284.534 194.256 C 284.374 194.076 284.384 194.256 284.344 194.336 C 284.304 194.346 284.364 194.416 284.334 194.596 C 284.464 194.746 284.564 194.986 284.464 195.286 L 284.674 195.636 C 284.934 195.736 284.854 196.046 284.904 196.276 C 284.934 196.356 285.074 196.476 284.834 196.496 L 284.764 196.976 C 284.664 197.396 284.534 197.696 283.984 197.506 C 283.994 197.506 283.894 197.576 284.024 197.766 C 284.044 197.886 284.034 198.056 284.094 198.106 C 284.304 198.016 284.274 198.306 284.234 198.426 C 284.164 198.686 284.014 198.876 283.904 198.586 L 283.574 198.436 C 283.544 198.686 283.504 199.326 283.674 199.466 C 283.714 199.476 283.674 199.536 283.804 199.486 C 283.954 199.846 284.144 200.476 284.024 200.836 C 284.004 200.886 283.934 200.826 283.904 200.876 C 283.824 201.016 283.744 201.156 283.644 200.966 L 283.414 201.116 C 283.434 201.196 283.504 201.276 283.524 201.356 C 283.604 201.706 283.594 201.976 283.504 202.156 C 283.424 202.266 283.374 202.496 283.254 202.576 C 283.134 202.656 283.174 202.486 282.954 202.666 C 282.644 203.006 282.514 202.836 282.484 202.666 C 282.444 202.526 282.384 202.466 282.334 202.476 C 282.284 202.476 282.244 202.546 282.244 202.646 C 282.204 202.706 282.074 202.836 282.054 202.976 C 282.134 203.346 282.074 203.806 281.874 203.716 C 281.874 203.876 281.534 203.786 281.304 203.646 C 281.204 203.576 281.094 203.546 281.104 203.646 C 281.104 203.746 281.104 203.936 281.174 204.176 C 281.214 204.246 281.304 204.286 281.454 204.366 C 281.384 204.376 281.484 204.546 281.574 204.626 L 281.724 204.876 C 281.844 204.986 281.774 205.126 281.584 205.146 L 281.484 205.346 C 281.634 205.376 281.634 205.466 281.654 205.556 C 281.744 205.586 281.864 205.576 281.844 205.766 L 281.744 205.936 C 281.644 206.106 281.644 206.106 281.754 206.196 C 282.014 206.316 281.954 206.476 282.074 206.596 C 282.134 206.646 282.204 206.686 282.234 206.716 C 282.394 206.966 282.284 207.306 282.344 207.596 C 282.284 207.936 281.724 207.946 281.754 208.026 C 281.804 208.216 281.714 208.526 281.534 208.816 C 281.564 208.866 281.634 208.936 281.744 209.036 C 281.844 209.126 281.914 209.176 281.954 209.206 C 281.954 209.206 281.964 209.216 281.984 209.226 C 282.104 209.306 282.274 209.376 282.354 209.696 C 282.434 209.786 282.434 209.896 282.434 209.966 C 282.644 210.036 282.834 210.186 282.924 210.366 C 283.094 210.656 283.004 210.786 282.884 210.916 C 282.774 210.836 282.714 210.736 282.854 210.946 C 283.064 211.236 282.824 211.646 282.584 211.936 C 282.634 213.416 282.134 213.796 280.774 214.286 C 280.654 214.316 280.604 214.376 280.554 214.556 C 280.514 214.676 280.444 214.836 280.394 214.906 C 280.344 214.986 280.304 215.106 280.304 215.186 C 280.304 215.256 280.264 215.416 280.224 215.516 C 280.174 215.626 280.144 215.826 280.144 215.966 C 280.144 216.096 280.174 216.326 280.144 216.336 C 280.264 216.536 280.094 216.606 280.024 216.716 C 280.094 216.756 280.144 216.876 280.214 216.796 C 280.434 216.526 280.444 216.626 280.494 216.696 C 280.584 216.826 280.774 216.806 280.834 216.946 C 280.954 217.266 281.064 216.776 281.214 216.806 C 281.264 216.806 281.114 217.106 281.174 217.116 C 281.414 217.136 281.404 216.976 281.494 217.086 C 281.584 217.186 281.474 217.396 281.564 217.356 C 281.664 217.316 281.634 217.216 281.874 217.236 C 281.744 217.076 282.004 216.966 282.134 216.926 C 282.244 216.826 282.384 216.736 282.504 216.636 C 282.814 216.406 283.124 216.166 283.434 215.936 C 283.514 216.006 283.524 216.116 283.574 216.066 L 283.754 216.046 L 283.784 214.476 C 283.844 214.376 283.894 214.326 283.964 214.326 C 284.054 214.306 284.154 214.396 284.254 214.526 L 284.364 214.436 L 284.634 214.436 L 284.894 214.626 L 285.204 214.626 C 285.204 214.626 285.444 214.616 285.594 214.736 C 285.724 214.546 285.954 214.636 286.144 214.606 C 286.244 214.496 286.284 214.386 286.284 214.286 L 286.294 214.056 C 286.054 213.816 285.944 213.986 285.874 213.666 L 285.644 213.506 C 285.404 213.276 285.544 213.236 285.554 213.126 C 285.414 213.076 285.154 213.116 285.434 212.736 L 285.424 212.666 L 285.624 212.516 L 285.814 212.686 C 285.864 212.536 285.754 212.336 286.014 212.246 C 285.884 211.926 286.144 211.996 286.334 212.006 L 286.504 211.846 C 286.604 211.876 286.644 211.716 286.674 211.536 L 286.754 211.436 C 286.694 211.336 286.684 211.246 286.734 211.146 C 286.734 211.126 286.734 211.126 286.734 211.126 C 286.704 210.836 286.654 210.686 286.594 210.596 C 286.284 210.596 286.504 210.366 286.474 210.246 C 286.324 210.056 286.354 209.876 286.554 209.686 C 286.474 209.606 286.574 209.376 286.574 209.156 C 286.574 209.006 286.374 208.796 286.584 208.706 C 286.614 208.596 286.664 208.536 286.784 208.636 C 287.034 208.686 287.214 208.686 287.294 208.596 C 287.304 208.586 287.304 208.586 287.314 208.586 L 287.544 208.266 C 287.634 208.176 287.684 208.256 287.754 208.266 C 287.794 208.206 287.974 208.026 288.044 208.116 C 288.224 207.936 288.014 207.846 288.184 207.716 L 288.254 207.556 C 288.184 207.376 288.234 207.326 288.324 207.306 C 288.344 207.126 288.414 207.106 288.384 207.096 C 288.334 207.086 288.154 206.936 288.184 206.716 C 288.084 206.586 288.074 206.476 288.064 206.466 C 288.024 206.456 288.054 206.226 288.034 206.146 C 287.994 206.066 287.924 205.976 288.014 205.916 C 288.054 205.926 288.074 205.916 288.064 205.906 C 288.144 205.886 288.194 205.836 288.184 205.756 C 288.324 205.786 288.404 205.736 288.474 205.666 L 288.644 205.686 C 288.694 205.726 288.734 205.806 288.914 205.666 L 289.074 205.736 C 289.284 205.816 289.394 205.786 289.464 205.656 C 289.454 205.496 289.694 205.586 289.854 205.586 C 289.944 205.726 290.064 205.786 290.224 205.596 C 290.234 205.496 290.214 205.366 290.264 205.316 C 290.334 205.346 290.404 205.396 290.464 205.336 C 290.594 205.486 290.694 205.566 290.644 205.286 C 290.764 205.316 290.744 205.186 290.944 205.226 C 291.054 205.166 291.064 205.116 291.054 205.046 C 291.034 204.916 291.214 204.956 291.094 204.856 C 291.044 204.766 291.004 204.686 290.954 204.596 C 290.914 204.536 290.884 204.466 290.814 204.426 C 290.774 204.316 290.874 204.256 290.764 204.146 C 290.744 203.846 290.654 203.876 290.754 203.566 C 290.774 203.456 290.674 203.436 290.604 203.376 C 290.604 203.256 290.604 203.226 290.754 203.136 C 290.804 202.926 290.864 202.916 290.894 202.796 C 290.944 202.686 290.784 202.726 290.774 202.486 C 290.674 202.276 290.664 202.126 290.564 202.066 C 290.614 202.006 290.614 201.926 290.554 201.866 C 290.594 201.786 290.634 201.726 290.644 201.636 C 290.724 201.596 290.844 201.606 290.944 201.606 C 291.044 201.616 291.144 201.626 291.254 201.626 C 291.354 201.616 291.444 201.536 291.534 201.486 C 291.614 201.426 291.684 201.516 291.784 201.536 C 291.924 201.576 291.934 201.426 291.974 201.336 C 292.004 201.236 292.074 201.206 292.104 201.106 C 292.194 200.906 292.234 200.946 292.354 200.976 C 292.434 200.976 292.534 201.006 292.564 200.926 C 292.664 200.926 292.464 200.846 292.874 200.856 C 292.894 200.856 292.964 200.826 292.994 200.806 C 293.104 200.786 293.204 200.836 293.314 200.836 C 293.394 200.836 293.414 200.806 293.484 200.796 C 293.664 200.716 293.794 200.816 293.934 200.836 C 294.004 201.026 293.974 200.836 294.294 200.746 L 294.354 200.736 C 294.514 200.736 294.594 200.856 294.624 200.906 C 294.634 200.956 294.614 201.176 294.624 201.186 L 294.704 201.216 C 294.754 201.456 294.924 201.246 295.044 201.236 C 295.244 201.326 295.224 201.266 295.354 201.216 C 295.394 201.196 295.464 201.196 295.554 201.186 C 295.674 201.076 295.824 201.006 295.994 201.046 C 296.054 201.156 296.094 201.056 296.144 201.006 C 296.284 201.036 296.334 201.146 296.384 201.216 C 296.414 201.296 296.344 201.446 296.414 201.466 C 296.474 201.486 296.594 201.476 296.644 201.646 C 296.774 201.786 296.894 201.946 297.024 202.086 C 296.984 202.246 296.824 202.466 297.064 202.546 C 297.244 202.616 297.354 202.806 297.334 202.986 C 297.414 203.046 297.474 203.196 297.514 203.276 C 297.554 203.346 297.674 203.256 297.754 203.246 C 297.984 203.186 297.824 203.006 297.894 203.006 C 298.154 203.006 298.024 202.926 298.044 202.816 C 298.134 202.676 298.174 202.506 298.314 202.406 C 298.314 202.266 298.464 202.136 298.604 202.226 C 298.784 202.256 299.004 202.316 298.944 202.546 C 299.064 202.716 298.764 202.826 298.904 202.976 C 299.074 203.066 299.024 203.306 299.214 203.366 L 299.354 203.566 C 299.544 203.576 299.714 203.556 299.774 203.396 L 299.924 203.476 C 299.964 203.486 300.004 203.496 300.044 203.596 L 300.184 203.586 L 300.304 203.646 L 300.314 203.716 L 300.514 203.926 L 300.724 203.926 L 300.714 204.296 L 300.754 204.436 C 300.954 204.586 300.624 204.836 301.064 204.786 L 301.074 204.536 C 301.144 204.466 301.234 204.396 301.294 204.276 C 301.174 204.166 301.164 204.106 301.194 204.086 C 301.304 203.956 301.414 203.846 301.544 203.826 L 301.624 203.636 L 301.874 203.486 C 302.164 203.476 302.124 203.376 302.354 203.236 C 302.364 202.976 302.434 202.976 302.504 202.976 C 302.644 202.856 302.714 202.696 302.944 202.616 L 303.044 202.626 C 303.124 202.486 303.194 202.226 303.384 202.176 C 303.724 202.086 303.884 201.886 303.834 201.626 C 303.774 201.346 303.794 201.236 303.914 201.106 C 304.024 200.976 304.154 200.606 304.204 200.316 C 304.254 200.086 304.084 199.886 303.754 199.766 C 303.514 199.676 303.474 199.626 303.404 199.266 C 303.394 199.186 303.234 199.006 303.024 198.836 C 302.824 198.666 302.654 198.476 302.634 198.396 C 302.614 198.326 302.564 198.196 302.514 198.116 C 302.384 197.926 302.294 197.736 302.234 197.556 C 302.194 197.416 302.174 197.276 302.174 197.146 C 302.174 196.646 302.064 196.196 301.924 196.046 C 301.734 195.846 301.824 195.566 302.134 195.376 C 302.244 195.306 302.274 195.226 302.274 195.116 C 302.274 195.026 302.304 194.896 302.334 194.816 C 302.374 194.706 302.364 194.606 302.274 194.396 C 302.214 194.246 302.174 194.066 302.174 193.986 C 302.174 193.766 301.934 193.406 301.724 193.306 C 301.624 193.256 301.454 193.176 301.354 193.126 C 301.044 192.976 300.844 192.816 300.734 192.646 C 300.724 192.626 300.724 192.616 300.714 192.616 C 300.624 192.446 300.624 192.416 300.704 192.256 C 300.764 192.126 300.784 191.956 300.774 191.576 C 300.764 191.306 300.754 191.046 300.754 191.016 C 300.744 190.996 300.624 190.876 300.464 190.756 C 300.304 190.646 300.154 190.516 300.124 190.476 C 300.054 190.376 299.764 190.326 299.644 190.366 C 299.574 190.376 299.364 190.166 299.324 190.056 C 299.274 190.116 299.164 190.176 298.984 190.216 C 298.864 190.246 298.424 190.466 298.324 190.486 C 298.054 190.386 298.174 189.936 298.144 189.666 C 298.144 189.536 297.814 189.596 297.734 189.536 C 297.754 189.176 298.024 188.676 297.774 188.466 L 297.324 188.316 C 297.064 188.236 296.774 187.956 296.804 188.076 C 296.954 188.786 296.824 188.426 295.974 188.276 C 295.614 188.086 295.204 187.816 295.264 187.826 C 295.494 187.846 294.884 187.366 295.084 187.196 C 295.634 186.736 294.704 186.486 294.784 186.706 C 294.854 186.886 294.484 186.626 294.464 186.436 C 294.444 186.276 294.304 186.186 294.124 186.206 Z" fill="#fdf9d2" fill-rule="evenodd" id="Valparaiso" stroke="#d79769" stroke-miterlimit="4" stroke-width="0.31" transform="matrix(1, 0, 0, 1, 7.105427357601002e-15, 7.105427357601002e-15)"/>
</svg>