<?xml version="1.0" encoding="utf-8"?>
<svg viewBox="175.98 78.4547 269.1971 346.6533" xmlns="http://www.w3.org/2000/svg">
  <g transform="matrix(1, 0, 0, 1, 310.57999120026807, 251.78000253111122)" id="path3269">
    <path style="stroke: rgb(215,151,105); stroke-width: 2; stroke-dasharray: none; stroke-linecap: butt; stroke-dashoffset: 0; stroke-linejoin: miter; stroke-miterlimit: 4; fill: rgb(253,249,210); fill-rule: evenodd; opacity: 1;" transform=" translate(-255.91, -301.92)" d="M 278.276 128.604 C 277.091 128.673 275.794 129.139 274.623 130.001 C 273.568 130.778 271.467 131.505 270.003 131.505 C 268.539 131.505 264.608 132.791 261.193 134.406 C 259.473 137.126 255.771 136.442 250.987 138.274 C 250.405 143.109 248.239 139.291 245.83 135.695 C 245.26 134.845 244.113 134.496 242.822 134.299 C 240.77 134.443 231.457 131.573 233.152 135.051 C 231.063 137.694 235.776 138.562 234.979 140.315 C 231.641 142.251 230.85 144.181 229.285 146.117 C 227.567 146.232 225.52 148.165 223.161 151.488 C 219.11 155.066 215.359 158.902 213.169 158.902 C 212.114 158.902 210.563 157.653 209.624 156.001 C 208.591 154.185 207.855 153.195 207.153 153.1 C 206.45 153.005 205.784 153.758 205.004 155.464 C 202.549 160.825 198.744 159.888 199.31 162.232 C 199.701 163.855 192.296 166.479 188.029 166.745 C 185.12 166.926 180.49 165.317 174.062 162.554 L 169.55 160.621 L 167.401 162.662 C 161.514 168.548 161.152 165.734 159.773 163.629 L 160.632 170.505 C 160.632 172.633 160.818 173.445 162.996 172.976 C 167.073 172.098 168.619 175.727 168.583 179.744 C 168.557 182.536 168.058 187.489 168.583 189.951 C 168.772 190.84 169.752 191.937 170.194 191.24 C 171.911 188.536 173.216 194.106 174.707 194.571 C 176.249 195.052 178.351 198.083 179.004 200.48 C 179.351 201.753 179.262 202.158 176.748 201.662 C 175.669 202.464 176.808 207.908 174.814 208.967 C 174.899 212.167 176.816 221.689 171.591 218.207 C 169.726 216.195 169.893 218.25 169.442 219.066 C 169.016 219.219 169.696 219.975 169.335 221.967 C 170.744 223.642 171.828 226.29 170.731 229.703 L 173.095 233.57 C 176.033 234.651 175.054 238.124 175.674 240.661 C 175.968 241.631 177.509 242.939 174.921 243.132 L 174.062 248.504 C 173.046 253.18 171.554 256.452 165.467 254.413 C 165.516 254.412 164.48 255.105 165.897 257.314 C 166.125 258.572 165.955 260.535 166.649 261.074 C 169.028 260.089 168.675 263.252 168.26 264.62 C 167.382 267.521 165.717 269.646 164.5 266.446 L 160.847 264.727 C 160.576 267.555 160.123 274.653 162.029 276.223 C 162.456 276.297 161.938 276.953 163.426 276.438 C 165.072 280.409 167.164 287.377 165.897 291.371 C 165.693 292.013 164.837 291.297 164.5 291.909 C 163.663 293.471 162.798 295 161.599 292.876 L 159.128 294.487 C 159.353 295.41 160.121 296.33 160.31 297.173 C 161.198 301.131 161.118 304.077 160.095 306.09 C 159.152 307.373 158.667 309.946 157.302 310.818 C 155.929 311.703 156.467 309.825 153.971 311.784 C 150.566 315.563 149.088 313.715 148.707 311.784 C 148.327 310.264 147.665 309.593 147.095 309.636 C 146.525 309.678 146.067 310.452 146.021 311.57 C 145.666 312.232 144.2 313.674 143.98 315.222 C 144.876 319.31 144.174 324.498 141.938 323.495 C 141.966 325.207 138.188 324.268 135.6 322.636 C 134.516 321.952 133.298 321.604 133.343 322.636 C 133.397 323.854 133.374 325.953 134.203 328.545 C 134.599 329.335 135.648 329.835 137.318 330.693 C 136.486 330.771 137.571 332.71 138.608 333.594 L 140.327 336.388 C 141.656 337.623 140.813 339.139 138.715 339.396 L 137.641 341.545 C 139.264 341.961 139.321 342.938 139.467 343.908 C 140.513 344.245 141.837 344.125 141.616 346.272 L 140.542 348.206 C 139.447 350.059 139.368 350.094 140.649 351.106 C 143.454 352.374 142.836 354.196 144.194 355.511 C 144.874 356.111 145.623 356.56 145.913 356.801 C 147.707 359.674 146.488 363.365 147.203 366.577 C 146.559 370.469 140.288 370.556 140.649 371.412 C 141.147 373.523 140.21 376.94 138.178 380.222 C 138.512 380.794 139.287 381.534 140.542 382.693 C 141.57 383.643 142.447 384.164 142.798 384.519 C 142.808 384.585 142.948 384.616 143.12 384.734 C 144.497 385.681 146.374 386.409 147.31 389.999 C 148.137 391.002 148.168 392.237 148.17 393.007 C 150.525 393.751 152.671 395.431 153.649 397.412 C 155.577 400.66 154.549 402.161 153.219 403.536 C 152.006 402.649 151.335 401.623 152.897 403.858 C 155.171 407.112 152.509 411.67 149.889 414.924 C 150.452 431.347 144.897 435.576 129.69 441.031 C 128.324 441.44 127.793 442.09 127.219 444.039 C 126.813 445.421 126.049 447.231 125.5 448.015 C 124.952 448.798 124.534 450.135 124.534 451.023 C 124.534 451.911 124.068 453.582 123.567 454.783 C 123.065 455.984 122.707 458.229 122.707 459.725 C 122.707 461.221 123.042 463.709 122.707 463.915 C 123.984 466.131 122.121 466.863 121.31 468.105 C 122.092 468.595 122.681 469.891 123.459 468.965 C 125.946 466.004 126.021 467.118 126.575 467.89 C 127.599 469.318 129.716 469.064 130.335 470.684 C 131.673 474.185 132.991 468.822 134.633 469.072 C 135.136 469.149 133.505 472.447 134.203 472.51 C 136.803 472.747 136.758 470.946 137.748 472.188 C 138.696 473.376 137.53 475.617 138.5 475.196 C 139.559 474.737 139.252 473.689 141.938 473.907 C 140.46 472.145 143.392 470.881 144.839 470.469 C 146.017 469.283 147.604 468.318 148.922 467.246 C 152.393 464.642 155.871 462.007 159.343 459.403 C 160.236 460.197 160.357 461.405 160.847 460.907 L 162.889 460.692 L 163.211 443.18 C 163.811 442.022 164.477 441.552 165.145 441.461 C 166.198 441.317 167.268 442.315 168.475 443.717 L 169.657 442.75 L 172.665 442.75 L 175.566 444.899 L 179.004 444.899 C 179.005 444.896 181.705 444.718 183.302 446.081 C 184.729 443.981 187.32 444.98 189.425 444.577 C 190.545 443.429 191.065 442.179 191.037 441.031 L 191.144 438.453 C 188.493 435.853 187.194 437.728 186.417 434.155 L 183.839 432.436 C 181.17 429.834 182.744 429.342 182.872 428.139 C 181.291 427.588 178.46 428.009 181.583 423.841 L 181.475 423.089 L 183.624 421.37 L 185.773 423.304 C 186.303 421.611 185.111 419.373 188.029 418.362 C 186.546 414.775 189.407 415.614 191.574 415.676 L 193.508 413.957 C 194.606 414.239 194.99 412.499 195.334 410.519 L 196.194 409.337 C 195.593 408.237 195.435 407.214 195.979 406.114 C 196.061 405.949 195.964 405.935 195.979 405.899 C 195.712 402.733 195.101 400.999 194.475 399.99 C 191.06 400.004 193.429 397.471 193.078 396.123 C 191.476 394.018 191.821 391.996 194.045 389.891 C 193.071 388.971 194.278 386.381 194.26 383.982 C 194.237 382.288 191.989 379.941 194.368 378.933 C 194.672 377.772 195.18 377.064 196.624 378.181 C 199.345 378.721 201.398 378.737 202.21 377.751 C 202.333 377.606 202.382 377.643 202.425 377.643 L 205.004 374.098 C 206 373.047 206.597 374.02 207.367 374.098 C 207.826 373.461 209.767 371.428 210.591 372.379 C 212.584 370.465 210.257 369.424 212.202 367.974 L 212.954 366.148 C 212.147 364.2 212.755 363.651 213.706 363.462 C 213.905 361.368 214.732 361.169 214.351 361.098 C 213.826 361 211.76 359.345 212.202 356.801 C 211.01 355.367 210.935 354.163 210.805 354.115 C 210.391 353.959 210.653 351.411 210.483 350.462 C 209.988 349.566 209.297 348.642 210.268 347.991 C 210.732 348.012 210.89 347.935 210.805 347.883 C 211.665 347.588 212.249 347.003 212.202 346.164 C 213.738 346.459 214.642 345.907 215.425 345.197 L 217.252 345.412 C 217.842 345.872 218.217 346.675 220.26 345.197 L 222.086 345.949 C 224.342 346.829 225.649 346.491 226.384 345.09 C 226.247 343.242 228.975 344.235 230.681 344.23 C 231.757 345.885 233.039 346.466 234.871 344.338 C 234.965 343.259 234.758 341.852 235.301 341.222 C 236.062 341.566 236.797 342.164 237.557 341.545 C 238.953 343.132 240.098 344.07 239.491 340.9 C 240.813 341.303 240.584 339.843 242.822 340.255 C 244.055 339.569 244.193 339.092 244.111 338.214 C 243.84 336.764 245.806 337.286 244.541 336.173 C 243.985 335.189 243.495 334.269 242.929 333.272 C 242.558 332.617 242.234 331.783 241.425 331.338 C 240.945 330.143 242.04 329.43 240.888 328.222 C 240.663 324.88 239.648 325.257 240.78 321.776 C 240.973 320.606 239.845 320.39 239.061 319.735 C 239.093 318.345 239.029 318.052 240.78 317.049 C 241.289 314.695 241.93 314.584 242.284 313.181 C 242.861 311.965 241.077 312.428 240.995 309.743 C 239.845 307.45 239.758 305.799 238.632 305.123 C 239.235 304.405 239.232 303.594 238.524 302.867 C 238.931 302.013 239.445 301.364 239.491 300.289 C 240.4 299.86 241.763 299.966 242.822 299.966 C 243.987 300.07 245.09 300.181 246.26 300.181 C 247.437 300.137 248.396 299.23 249.375 298.677 C 250.308 298.015 251.117 298.986 252.169 299.214 C 253.764 299.643 253.823 298.031 254.317 296.958 C 254.623 295.825 255.395 295.514 255.714 294.38 C 256.763 292.22 257.268 292.627 258.507 292.983 C 259.456 292.983 260.544 293.262 260.871 292.446 C 261.976 292.412 259.751 291.48 264.309 291.694 C 264.565 291.694 265.336 291.271 265.706 291.049 C 266.849 290.91 268.039 291.45 269.251 291.479 C 270.177 291.479 270.331 291.128 271.078 290.942 C 273.075 290.138 274.545 291.205 276.127 291.479 C 276.936 293.486 276.548 291.427 280.102 290.405 L 280.854 290.297 C 282.562 290.314 283.447 291.596 283.755 292.231 C 283.902 292.817 283.719 295.164 283.755 295.347 L 284.722 295.669 C 285.274 298.29 287.131 295.977 288.482 295.884 C 290.653 296.893 290.529 296.185 291.92 295.669 C 292.415 295.486 293.121 295.401 294.176 295.347 C 295.512 294.122 297.189 293.362 299.011 293.735 C 299.744 294.945 300.15 293.834 300.73 293.305 C 302.283 293.638 302.879 294.879 303.416 295.669 C 303.675 296.546 302.98 298.246 303.738 298.462 C 304.393 298.649 305.743 298.553 306.317 300.396 C 307.77 302.015 309.026 303.806 310.507 305.338 C 310.095 307.093 308.288 309.599 310.937 310.495 C 312.919 311.271 314.225 313.328 313.945 315.33 C 314.9 316.055 315.484 317.675 315.986 318.553 C 316.425 319.319 317.73 318.375 318.672 318.231 C 321.137 317.596 319.436 315.528 320.176 315.545 C 323.112 315.611 321.634 314.635 321.895 313.503 C 322.824 311.872 323.341 310.011 324.903 308.884 C 324.917 307.351 326.572 305.934 328.127 306.842 C 330.079 307.244 332.589 307.9 331.887 310.495 C 333.2 312.302 329.916 313.513 331.457 315.222 C 333.284 316.262 332.746 318.953 334.895 319.627 L 336.399 321.776 C 338.587 321.91 340.464 321.723 341.126 319.95 L 342.738 320.809 C 343.186 320.863 343.686 321.031 344.135 322.098 L 345.639 321.991 L 347.035 322.743 L 347.143 323.495 L 349.292 325.859 L 351.655 325.859 L 351.548 329.941 L 351.978 331.445 C 354.232 333.181 350.549 335.901 355.416 335.421 L 355.523 332.627 C 356.394 331.773 357.351 331.038 357.994 329.726 C 356.694 328.496 356.534 327.845 356.92 327.578 C 358.123 326.139 359.344 324.92 360.787 324.677 L 361.647 322.636 L 364.44 320.917 C 367.691 320.76 367.275 319.72 369.812 318.123 C 369.879 315.251 370.651 315.273 371.424 315.222 C 373.061 313.882 373.86 312.153 376.366 311.247 L 377.44 311.355 C 378.362 309.792 379.188 306.839 381.308 306.305 C 385.02 305.37 386.846 303.131 386.25 300.181 C 385.62 297.066 385.822 295.827 387.109 294.38 C 388.334 293.003 389.873 288.897 390.44 285.677 C 390.889 283.13 389.072 280.913 385.39 279.553 C 382.709 278.563 382.308 277.923 381.523 273.967 C 381.344 273.065 379.566 271.116 377.225 269.132 C 375.054 267.292 373.134 265.134 372.928 264.297 C 372.721 263.461 372.085 262.018 371.531 261.182 C 370.145 259.087 369.15 256.984 368.523 254.95 C 368.028 253.346 367.771 251.834 367.771 250.331 C 367.771 244.815 366.619 239.817 364.977 238.083 C 362.911 235.9 363.924 232.843 367.341 230.67 C 368.539 229.908 368.953 229.037 368.953 227.769 C 368.953 226.795 369.269 225.301 369.597 224.438 C 370.051 223.244 369.87 222.145 368.953 219.818 C 368.29 218.138 367.771 216.077 367.771 215.199 C 367.771 212.804 365.132 208.785 362.829 207.678 C 361.712 207.141 359.809 206.198 358.639 205.637 C 355.25 204.012 352.967 202.212 351.763 200.265 C 351.703 200.11 351.674 200.014 351.548 199.943 C 350.538 198.109 350.539 197.801 351.44 195.967 C 352.159 194.505 352.302 192.609 352.192 188.447 C 352.111 185.353 352.019 182.522 351.978 182.215 C 351.936 181.909 350.51 180.586 348.754 179.315 C 346.999 178.043 345.279 176.66 344.994 176.199 C 344.26 175.012 341.016 174.545 339.622 174.91 C 338.876 175.105 336.579 172.714 336.077 171.472 C 335.511 172.16 334.27 172.85 332.317 173.298 C 330.97 173.607 326.088 176.048 325.011 176.306 C 321.955 175.138 323.246 170.143 322.97 167.174 C 322.97 165.752 319.322 166.388 318.457 165.67 C 318.666 161.695 321.578 156.088 318.887 153.852 L 313.837 152.133 C 310.987 151.244 307.763 148.184 308.036 149.447 C 309.747 157.358 308.303 153.311 298.796 151.703 C 294.764 149.617 290.249 146.594 290.953 146.654 C 293.496 146.871 286.664 141.553 288.912 139.67 C 295.002 134.571 284.695 131.826 285.582 134.191 C 286.337 136.208 282.289 133.37 282.036 131.183 C 281.833 129.428 280.25 128.49 278.276 128.604 Z" stroke-linecap="round"/>
  </g>
</svg>