<!DOCTYPE svg PUBLIC "-//W3C//DTD SVG 1.1//EN" "http://www.w3.org/Graphics/SVG/1.1/DTD/svg11.dtd">
<!-- Uploaded to: SVG Repo, www.svgrepo.com, Transformed by: SVG Repo Mixer Tools -->
<svg version="1.1" xmlns="http://www.w3.org/2000/svg" xmlns:xlink="http://www.w3.org/1999/xlink" viewBox="0 0 512.00 512.00" xml:space="preserve" width="256px" height="256px" fill="#000000" stroke="#000000" stroke-width="1.024">
<g id="SVGRepo_bgCarrier" stroke-width="0" transform="translate(10.240000000000009,10.240000000000009), scale(0.96)">
<rect x="0" y="0" width="512.00" height="512.00" rx="256" fill="#564343" strokewidth="0"/>
</g>
<g id="SVGRepo_tracerCarrier" stroke-linecap="round" stroke-linejoin="round" stroke="#CCCCCC" stroke-width="13.312000000000001"> <g id="ounce"> <rect x="384" y="204.8" width="25.936" height="25.6"/> <rect x="434.975" y="256" width="25.825" height="25.6"/> <g> <rect x="205" y="179" style="fill:#a2995d;" width="25" height="26"/> <rect x="128" y="205" style="fill:#a2995d;" width="26" height="25"/> <rect x="256" y="205" style="fill:#a2995d;" width="26" height="25"/> <rect x="179" y="230" style="fill:#a2995d;" width="26" height="26"/> <rect x="307" y="230" style="fill:#a2995d;" width="26" height="26"/> <rect x="102" y="256" style="fill:#a2995d;" width="26" height="26"/> <rect x="230" y="256" style="fill:#a2995d;" width="26" height="26"/> <rect x="358" y="256" style="fill:#a2995d;" width="26" height="26"/> <rect x="154" y="282" style="fill:#a2995d;" width="25" height="25"/> <rect x="282" y="282" style="fill:#a2995d;" width="25" height="25"/> <rect x="205" y="307" style="fill:#a2995d;" width="25" height="26"/> </g> <rect x="384" y="306.999" style="fill:#e67d60;" width="25.6" height="25.801"/> <g> <polygon style="fill:#807947;" points="154,358.4 154,384 154,409.6 154,435 179,435 179,409.6 179,384 179,358.4 179,333 154,333 "/> <polygon style="fill:#807947;" points="307,333 307,358.4 307,384 307,409.6 307,435 333,435 333,409.6 333,384 333,358.4 333,333 "/> </g> <path style="fill:#c9bc73;" d="M410,205v25h-26v-25H410v-26h-26v-25h-26v25h-25v26h-0.2H307v-26h-25.4H256h-26v26h-25v-26h-25.8 h-25.6H128v26h26v25h-26v-25h-25.6H77v25H51v26v25.6V307v26v25h26v-25v-26v-25h25v-26h26v26h-26v25.2v25.6v25.6V384v25.6V435h26 v-25.4V384v-25.6V333h25.6h25.6H205v-26h25v26h26v25.4V384v25.6V435h26v-25.4V384v-25.6V333h25.2H333v-26h25v26h26v-26h25.6H435 v-25.4V256v-25.6V205H410z M179,307h-25v-25h25V307z M205,256h-26v-26h26V256z M256,282h-26v-26h26V282z M256,230v-25h26v25H256z M307,307h-25v-25h25V307z M333,256h-26v-26h26V256z M384,282h-26v-26h26V282z"/> </g> <g id="Layer_1"> </g> </g>
<g id="SVGRepo_iconCarrier"> <g id="ounce"> <rect x="384" y="204.8" width="25.936" height="25.6"/> <rect x="434.975" y="256" width="25.825" height="25.6"/> <g> <rect x="205" y="179" style="fill:#a2995d;" width="25" height="26"/> <rect x="128" y="205" style="fill:#a2995d;" width="26" height="25"/> <rect x="256" y="205" style="fill:#a2995d;" width="26" height="25"/> <rect x="179" y="230" style="fill:#a2995d;" width="26" height="26"/> <rect x="307" y="230" style="fill:#a2995d;" width="26" height="26"/> <rect x="102" y="256" style="fill:#a2995d;" width="26" height="26"/> <rect x="230" y="256" style="fill:#a2995d;" width="26" height="26"/> <rect x="358" y="256" style="fill:#a2995d;" width="26" height="26"/> <rect x="154" y="282" style="fill:#a2995d;" width="25" height="25"/> <rect x="282" y="282" style="fill:#a2995d;" width="25" height="25"/> <rect x="205" y="307" style="fill:#a2995d;" width="25" height="26"/> </g> <rect x="384" y="306.999" style="fill:#e67d60;" width="25.6" height="25.801"/> <g> <polygon style="fill:#807947;" points="154,358.4 154,384 154,409.6 154,435 179,435 179,409.6 179,384 179,358.4 179,333 154,333 "/> <polygon style="fill:#807947;" points="307,333 307,358.4 307,384 307,409.6 307,435 333,435 333,409.6 333,384 333,358.4 333,333 "/> </g> <path style="fill:#c9bc73;" d="M410,205v25h-26v-25H410v-26h-26v-25h-26v25h-25v26h-0.2H307v-26h-25.4H256h-26v26h-25v-26h-25.8 h-25.6H128v26h26v25h-26v-25h-25.6H77v25H51v26v25.6V307v26v25h26v-25v-26v-25h25v-26h26v26h-26v25.2v25.6v25.6V384v25.6V435h26 v-25.4V384v-25.6V333h25.6h25.6H205v-26h25v26h26v25.4V384v25.6V435h26v-25.4V384v-25.6V333h25.2H333v-26h25v26h26v-26h25.6H435 v-25.4V256v-25.6V205H410z M179,307h-25v-25h25V307z M205,256h-26v-26h26V256z M256,282h-26v-26h26V282z M256,230v-25h26v25H256z M307,307h-25v-25h25V307z M333,256h-26v-26h26V256z M384,282h-26v-26h26V282z"/> </g> <g id="Layer_1"> </g> </g>
</svg>